G04 #@! TF.GenerationSoftware,KiCad,Pcbnew,(5.0.2)-1*
G04 #@! TF.CreationDate,2021-07-02T12:35:22-04:00*
G04 #@! TF.ProjectId,PhylumScope,5068796c-756d-4536-936f-70652e6b6963,rev?*
G04 #@! TF.SameCoordinates,Original*
G04 #@! TF.FileFunction,Legend,Top*
G04 #@! TF.FilePolarity,Positive*
%FSLAX46Y46*%
G04 Gerber Fmt 4.6, Leading zero omitted, Abs format (unit mm)*
G04 Created by KiCad (PCBNEW (5.0.2)-1) date 02-Jul-21 12:35:22 PM*
%MOMM*%
%LPD*%
G01*
G04 APERTURE LIST*
%ADD10C,0.120000*%
%ADD11C,0.150000*%
%ADD12C,0.010000*%
G04 APERTURE END LIST*
D10*
G04 #@! TO.C,C4*
X154979000Y-56920000D02*
X153721000Y-56920000D01*
X154979000Y-55080000D02*
X153721000Y-55080000D01*
G04 #@! TO.C,U4*
X152980000Y-45230000D02*
X163220000Y-45230000D01*
X152980000Y-49871000D02*
X163220000Y-49871000D01*
X152980000Y-45230000D02*
X152980000Y-49871000D01*
X163220000Y-45230000D02*
X163220000Y-49871000D01*
X152980000Y-46740000D02*
X163220000Y-46740000D01*
X156250000Y-45230000D02*
X156250000Y-46740000D01*
X159951000Y-45230000D02*
X159951000Y-46740000D01*
G04 #@! TO.C,C8*
X108721000Y-91920000D02*
X109979000Y-91920000D01*
X108721000Y-90080000D02*
X109979000Y-90080000D01*
G04 #@! TO.C,C7*
X101221000Y-90080000D02*
X102479000Y-90080000D01*
X101221000Y-91920000D02*
X102479000Y-91920000D01*
G04 #@! TO.C,C10*
X108721000Y-81920000D02*
X109979000Y-81920000D01*
X108721000Y-80080000D02*
X109979000Y-80080000D01*
G04 #@! TO.C,C9*
X101221000Y-80080000D02*
X102479000Y-80080000D01*
X101221000Y-81920000D02*
X102479000Y-81920000D01*
G04 #@! TO.C,J7*
X91930000Y-97290000D02*
X90600000Y-97290000D01*
X91930000Y-95960000D02*
X91930000Y-97290000D01*
X91930000Y-94690000D02*
X89270000Y-94690000D01*
X89270000Y-94690000D02*
X89270000Y-89550000D01*
X91930000Y-94690000D02*
X91930000Y-89550000D01*
X91930000Y-89550000D02*
X89270000Y-89550000D01*
G04 #@! TO.C,J6*
X91930000Y-102090000D02*
X89270000Y-102090000D01*
X91930000Y-107230000D02*
X91930000Y-102090000D01*
X89270000Y-107230000D02*
X89270000Y-102090000D01*
X91930000Y-107230000D02*
X89270000Y-107230000D01*
X91930000Y-108500000D02*
X91930000Y-109830000D01*
X91930000Y-109830000D02*
X90600000Y-109830000D01*
G04 #@! TO.C,J9*
X91930000Y-114470000D02*
X89270000Y-114470000D01*
X91930000Y-127230000D02*
X91930000Y-114470000D01*
X89270000Y-127230000D02*
X89270000Y-114470000D01*
X91930000Y-127230000D02*
X89270000Y-127230000D01*
X91930000Y-128500000D02*
X91930000Y-129830000D01*
X91930000Y-129830000D02*
X90600000Y-129830000D01*
G04 #@! TO.C,J8*
X140340000Y-112749538D02*
G75*
G03X145890000Y-114294830I2990000J-462D01*
G01*
X140340000Y-112750462D02*
G75*
G02X145890000Y-111205170I2990000J462D01*
G01*
X145830000Y-112750000D02*
G75*
G03X145830000Y-112750000I-2500000J0D01*
G01*
X145890000Y-114295000D02*
X145890000Y-111205000D01*
G04 #@! TO.C,R5*
X107280000Y-86000000D02*
X106330000Y-86000000D01*
X101540000Y-86000000D02*
X102490000Y-86000000D01*
X106330000Y-85080000D02*
X102490000Y-85080000D01*
X106330000Y-86920000D02*
X106330000Y-85080000D01*
X102490000Y-86920000D02*
X106330000Y-86920000D01*
X102490000Y-85080000D02*
X102490000Y-86920000D01*
G04 #@! TO.C,R6*
X102370000Y-75080000D02*
X102370000Y-76920000D01*
X102370000Y-76920000D02*
X106210000Y-76920000D01*
X106210000Y-76920000D02*
X106210000Y-75080000D01*
X106210000Y-75080000D02*
X102370000Y-75080000D01*
X101420000Y-76000000D02*
X102370000Y-76000000D01*
X107160000Y-76000000D02*
X106210000Y-76000000D01*
G04 #@! TO.C,R7*
X161674000Y-112863000D02*
X162624000Y-112863000D01*
X167414000Y-112863000D02*
X166464000Y-112863000D01*
X162624000Y-113783000D02*
X166464000Y-113783000D01*
X162624000Y-111943000D02*
X162624000Y-113783000D01*
X166464000Y-111943000D02*
X162624000Y-111943000D01*
X166464000Y-113783000D02*
X166464000Y-111943000D01*
G04 #@! TO.C,R8*
X106210000Y-98420000D02*
X106210000Y-96580000D01*
X106210000Y-96580000D02*
X102370000Y-96580000D01*
X102370000Y-96580000D02*
X102370000Y-98420000D01*
X102370000Y-98420000D02*
X106210000Y-98420000D01*
X107160000Y-97500000D02*
X106210000Y-97500000D01*
X101420000Y-97500000D02*
X102370000Y-97500000D01*
D11*
G04 #@! TO.C,U1*
X182110000Y-89610000D02*
X182110000Y-107390000D01*
X146550000Y-89610000D02*
X182110000Y-89610000D01*
X146550000Y-107390000D02*
X146550000Y-89610000D01*
X182110000Y-107390000D02*
X146550000Y-107390000D01*
X151630000Y-101040000D02*
X149090000Y-101040000D01*
X151630000Y-95960000D02*
X151630000Y-101040000D01*
X149090000Y-95960000D02*
X151630000Y-95960000D01*
X149090000Y-101040000D02*
X149090000Y-95960000D01*
X177030000Y-94690000D02*
X182110000Y-94690000D01*
X177030000Y-102310000D02*
X182110000Y-102310000D01*
X177030000Y-94690000D02*
X177030000Y-102310000D01*
X183380000Y-102310000D02*
X182110000Y-102310000D01*
X183380000Y-94690000D02*
X183380000Y-102310000D01*
X182110000Y-94690000D02*
X183380000Y-94690000D01*
X169300000Y-99490000D02*
G75*
G03X169300000Y-99490000I-500000J0D01*
G01*
X167980000Y-99490000D02*
G75*
G03X167980000Y-99490000I-500000J0D01*
G01*
X166870000Y-98500000D02*
X166870000Y-93420000D01*
X166870000Y-93420000D02*
X169410000Y-93420000D01*
X169410000Y-93420000D02*
X169410000Y-98500000D01*
X169410000Y-98500000D02*
X166870000Y-98500000D01*
D10*
G04 #@! TO.C,SW2*
X159450000Y-126100000D02*
X162170000Y-126100000D01*
X169030000Y-126100000D02*
X171750000Y-126100000D01*
X167170000Y-138400000D02*
X164030000Y-138400000D01*
X171750000Y-138400000D02*
X169030000Y-138400000D01*
X170219050Y-132150000D02*
G75*
G03X170219050Y-132150000I-4579050J0D01*
G01*
X162170000Y-138400000D02*
X159450000Y-138400000D01*
X171750000Y-126100000D02*
X171750000Y-138400000D01*
X164030000Y-126100000D02*
X167170000Y-126100000D01*
X159450000Y-138400000D02*
X159450000Y-126100000D01*
G04 #@! TO.C,SW1*
X141950000Y-138400000D02*
X141950000Y-126100000D01*
X146530000Y-126100000D02*
X149670000Y-126100000D01*
X154250000Y-126100000D02*
X154250000Y-138400000D01*
X144670000Y-138400000D02*
X141950000Y-138400000D01*
X152719050Y-132150000D02*
G75*
G03X152719050Y-132150000I-4579050J0D01*
G01*
X154250000Y-138400000D02*
X151530000Y-138400000D01*
X149670000Y-138400000D02*
X146530000Y-138400000D01*
X151530000Y-126100000D02*
X154250000Y-126100000D01*
X141950000Y-126100000D02*
X144670000Y-126100000D01*
G04 #@! TO.C,C2*
X117620000Y-71000000D02*
G75*
G03X117620000Y-71000000I-3270000J0D01*
G01*
X114350000Y-67770000D02*
X114350000Y-74230000D01*
X114390000Y-67770000D02*
X114390000Y-74230000D01*
X114430000Y-67770000D02*
X114430000Y-74230000D01*
X114470000Y-67772000D02*
X114470000Y-74228000D01*
X114510000Y-67773000D02*
X114510000Y-74227000D01*
X114550000Y-67776000D02*
X114550000Y-74224000D01*
X114590000Y-67778000D02*
X114590000Y-69960000D01*
X114590000Y-72040000D02*
X114590000Y-74222000D01*
X114630000Y-67782000D02*
X114630000Y-69960000D01*
X114630000Y-72040000D02*
X114630000Y-74218000D01*
X114670000Y-67785000D02*
X114670000Y-69960000D01*
X114670000Y-72040000D02*
X114670000Y-74215000D01*
X114710000Y-67789000D02*
X114710000Y-69960000D01*
X114710000Y-72040000D02*
X114710000Y-74211000D01*
X114750000Y-67794000D02*
X114750000Y-69960000D01*
X114750000Y-72040000D02*
X114750000Y-74206000D01*
X114790000Y-67799000D02*
X114790000Y-69960000D01*
X114790000Y-72040000D02*
X114790000Y-74201000D01*
X114830000Y-67805000D02*
X114830000Y-69960000D01*
X114830000Y-72040000D02*
X114830000Y-74195000D01*
X114870000Y-67811000D02*
X114870000Y-69960000D01*
X114870000Y-72040000D02*
X114870000Y-74189000D01*
X114910000Y-67818000D02*
X114910000Y-69960000D01*
X114910000Y-72040000D02*
X114910000Y-74182000D01*
X114950000Y-67825000D02*
X114950000Y-69960000D01*
X114950000Y-72040000D02*
X114950000Y-74175000D01*
X114990000Y-67833000D02*
X114990000Y-69960000D01*
X114990000Y-72040000D02*
X114990000Y-74167000D01*
X115030000Y-67841000D02*
X115030000Y-69960000D01*
X115030000Y-72040000D02*
X115030000Y-74159000D01*
X115071000Y-67850000D02*
X115071000Y-69960000D01*
X115071000Y-72040000D02*
X115071000Y-74150000D01*
X115111000Y-67859000D02*
X115111000Y-69960000D01*
X115111000Y-72040000D02*
X115111000Y-74141000D01*
X115151000Y-67869000D02*
X115151000Y-69960000D01*
X115151000Y-72040000D02*
X115151000Y-74131000D01*
X115191000Y-67879000D02*
X115191000Y-69960000D01*
X115191000Y-72040000D02*
X115191000Y-74121000D01*
X115231000Y-67890000D02*
X115231000Y-69960000D01*
X115231000Y-72040000D02*
X115231000Y-74110000D01*
X115271000Y-67902000D02*
X115271000Y-69960000D01*
X115271000Y-72040000D02*
X115271000Y-74098000D01*
X115311000Y-67914000D02*
X115311000Y-69960000D01*
X115311000Y-72040000D02*
X115311000Y-74086000D01*
X115351000Y-67926000D02*
X115351000Y-69960000D01*
X115351000Y-72040000D02*
X115351000Y-74074000D01*
X115391000Y-67939000D02*
X115391000Y-69960000D01*
X115391000Y-72040000D02*
X115391000Y-74061000D01*
X115431000Y-67953000D02*
X115431000Y-69960000D01*
X115431000Y-72040000D02*
X115431000Y-74047000D01*
X115471000Y-67967000D02*
X115471000Y-69960000D01*
X115471000Y-72040000D02*
X115471000Y-74033000D01*
X115511000Y-67982000D02*
X115511000Y-69960000D01*
X115511000Y-72040000D02*
X115511000Y-74018000D01*
X115551000Y-67998000D02*
X115551000Y-69960000D01*
X115551000Y-72040000D02*
X115551000Y-74002000D01*
X115591000Y-68014000D02*
X115591000Y-69960000D01*
X115591000Y-72040000D02*
X115591000Y-73986000D01*
X115631000Y-68030000D02*
X115631000Y-69960000D01*
X115631000Y-72040000D02*
X115631000Y-73970000D01*
X115671000Y-68048000D02*
X115671000Y-69960000D01*
X115671000Y-72040000D02*
X115671000Y-73952000D01*
X115711000Y-68066000D02*
X115711000Y-69960000D01*
X115711000Y-72040000D02*
X115711000Y-73934000D01*
X115751000Y-68084000D02*
X115751000Y-69960000D01*
X115751000Y-72040000D02*
X115751000Y-73916000D01*
X115791000Y-68104000D02*
X115791000Y-69960000D01*
X115791000Y-72040000D02*
X115791000Y-73896000D01*
X115831000Y-68124000D02*
X115831000Y-69960000D01*
X115831000Y-72040000D02*
X115831000Y-73876000D01*
X115871000Y-68144000D02*
X115871000Y-69960000D01*
X115871000Y-72040000D02*
X115871000Y-73856000D01*
X115911000Y-68166000D02*
X115911000Y-69960000D01*
X115911000Y-72040000D02*
X115911000Y-73834000D01*
X115951000Y-68188000D02*
X115951000Y-69960000D01*
X115951000Y-72040000D02*
X115951000Y-73812000D01*
X115991000Y-68210000D02*
X115991000Y-69960000D01*
X115991000Y-72040000D02*
X115991000Y-73790000D01*
X116031000Y-68234000D02*
X116031000Y-69960000D01*
X116031000Y-72040000D02*
X116031000Y-73766000D01*
X116071000Y-68258000D02*
X116071000Y-69960000D01*
X116071000Y-72040000D02*
X116071000Y-73742000D01*
X116111000Y-68284000D02*
X116111000Y-69960000D01*
X116111000Y-72040000D02*
X116111000Y-73716000D01*
X116151000Y-68310000D02*
X116151000Y-69960000D01*
X116151000Y-72040000D02*
X116151000Y-73690000D01*
X116191000Y-68336000D02*
X116191000Y-69960000D01*
X116191000Y-72040000D02*
X116191000Y-73664000D01*
X116231000Y-68364000D02*
X116231000Y-69960000D01*
X116231000Y-72040000D02*
X116231000Y-73636000D01*
X116271000Y-68393000D02*
X116271000Y-69960000D01*
X116271000Y-72040000D02*
X116271000Y-73607000D01*
X116311000Y-68422000D02*
X116311000Y-69960000D01*
X116311000Y-72040000D02*
X116311000Y-73578000D01*
X116351000Y-68452000D02*
X116351000Y-69960000D01*
X116351000Y-72040000D02*
X116351000Y-73548000D01*
X116391000Y-68484000D02*
X116391000Y-69960000D01*
X116391000Y-72040000D02*
X116391000Y-73516000D01*
X116431000Y-68516000D02*
X116431000Y-69960000D01*
X116431000Y-72040000D02*
X116431000Y-73484000D01*
X116471000Y-68550000D02*
X116471000Y-69960000D01*
X116471000Y-72040000D02*
X116471000Y-73450000D01*
X116511000Y-68584000D02*
X116511000Y-69960000D01*
X116511000Y-72040000D02*
X116511000Y-73416000D01*
X116551000Y-68620000D02*
X116551000Y-69960000D01*
X116551000Y-72040000D02*
X116551000Y-73380000D01*
X116591000Y-68657000D02*
X116591000Y-69960000D01*
X116591000Y-72040000D02*
X116591000Y-73343000D01*
X116631000Y-68695000D02*
X116631000Y-69960000D01*
X116631000Y-72040000D02*
X116631000Y-73305000D01*
X116671000Y-68735000D02*
X116671000Y-73265000D01*
X116711000Y-68776000D02*
X116711000Y-73224000D01*
X116751000Y-68818000D02*
X116751000Y-73182000D01*
X116791000Y-68863000D02*
X116791000Y-73137000D01*
X116831000Y-68908000D02*
X116831000Y-73092000D01*
X116871000Y-68956000D02*
X116871000Y-73044000D01*
X116911000Y-69005000D02*
X116911000Y-72995000D01*
X116951000Y-69056000D02*
X116951000Y-72944000D01*
X116991000Y-69110000D02*
X116991000Y-72890000D01*
X117031000Y-69166000D02*
X117031000Y-72834000D01*
X117071000Y-69224000D02*
X117071000Y-72776000D01*
X117111000Y-69286000D02*
X117111000Y-72714000D01*
X117151000Y-69350000D02*
X117151000Y-72650000D01*
X117191000Y-69419000D02*
X117191000Y-72581000D01*
X117231000Y-69491000D02*
X117231000Y-72509000D01*
X117271000Y-69568000D02*
X117271000Y-72432000D01*
X117311000Y-69650000D02*
X117311000Y-72350000D01*
X117351000Y-69738000D02*
X117351000Y-72262000D01*
X117391000Y-69835000D02*
X117391000Y-72165000D01*
X117431000Y-69941000D02*
X117431000Y-72059000D01*
X117471000Y-70060000D02*
X117471000Y-71940000D01*
X117511000Y-70198000D02*
X117511000Y-71802000D01*
X117551000Y-70367000D02*
X117551000Y-71633000D01*
X117591000Y-70598000D02*
X117591000Y-71402000D01*
X110849759Y-69161000D02*
X111479759Y-69161000D01*
X111164759Y-68846000D02*
X111164759Y-69476000D01*
G04 #@! TO.C,C3*
X103664759Y-56346000D02*
X103664759Y-56976000D01*
X103349759Y-56661000D02*
X103979759Y-56661000D01*
X110091000Y-58098000D02*
X110091000Y-58902000D01*
X110051000Y-57867000D02*
X110051000Y-59133000D01*
X110011000Y-57698000D02*
X110011000Y-59302000D01*
X109971000Y-57560000D02*
X109971000Y-59440000D01*
X109931000Y-57441000D02*
X109931000Y-59559000D01*
X109891000Y-57335000D02*
X109891000Y-59665000D01*
X109851000Y-57238000D02*
X109851000Y-59762000D01*
X109811000Y-57150000D02*
X109811000Y-59850000D01*
X109771000Y-57068000D02*
X109771000Y-59932000D01*
X109731000Y-56991000D02*
X109731000Y-60009000D01*
X109691000Y-56919000D02*
X109691000Y-60081000D01*
X109651000Y-56850000D02*
X109651000Y-60150000D01*
X109611000Y-56786000D02*
X109611000Y-60214000D01*
X109571000Y-56724000D02*
X109571000Y-60276000D01*
X109531000Y-56666000D02*
X109531000Y-60334000D01*
X109491000Y-56610000D02*
X109491000Y-60390000D01*
X109451000Y-56556000D02*
X109451000Y-60444000D01*
X109411000Y-56505000D02*
X109411000Y-60495000D01*
X109371000Y-56456000D02*
X109371000Y-60544000D01*
X109331000Y-56408000D02*
X109331000Y-60592000D01*
X109291000Y-56363000D02*
X109291000Y-60637000D01*
X109251000Y-56318000D02*
X109251000Y-60682000D01*
X109211000Y-56276000D02*
X109211000Y-60724000D01*
X109171000Y-56235000D02*
X109171000Y-60765000D01*
X109131000Y-59540000D02*
X109131000Y-60805000D01*
X109131000Y-56195000D02*
X109131000Y-57460000D01*
X109091000Y-59540000D02*
X109091000Y-60843000D01*
X109091000Y-56157000D02*
X109091000Y-57460000D01*
X109051000Y-59540000D02*
X109051000Y-60880000D01*
X109051000Y-56120000D02*
X109051000Y-57460000D01*
X109011000Y-59540000D02*
X109011000Y-60916000D01*
X109011000Y-56084000D02*
X109011000Y-57460000D01*
X108971000Y-59540000D02*
X108971000Y-60950000D01*
X108971000Y-56050000D02*
X108971000Y-57460000D01*
X108931000Y-59540000D02*
X108931000Y-60984000D01*
X108931000Y-56016000D02*
X108931000Y-57460000D01*
X108891000Y-59540000D02*
X108891000Y-61016000D01*
X108891000Y-55984000D02*
X108891000Y-57460000D01*
X108851000Y-59540000D02*
X108851000Y-61048000D01*
X108851000Y-55952000D02*
X108851000Y-57460000D01*
X108811000Y-59540000D02*
X108811000Y-61078000D01*
X108811000Y-55922000D02*
X108811000Y-57460000D01*
X108771000Y-59540000D02*
X108771000Y-61107000D01*
X108771000Y-55893000D02*
X108771000Y-57460000D01*
X108731000Y-59540000D02*
X108731000Y-61136000D01*
X108731000Y-55864000D02*
X108731000Y-57460000D01*
X108691000Y-59540000D02*
X108691000Y-61164000D01*
X108691000Y-55836000D02*
X108691000Y-57460000D01*
X108651000Y-59540000D02*
X108651000Y-61190000D01*
X108651000Y-55810000D02*
X108651000Y-57460000D01*
X108611000Y-59540000D02*
X108611000Y-61216000D01*
X108611000Y-55784000D02*
X108611000Y-57460000D01*
X108571000Y-59540000D02*
X108571000Y-61242000D01*
X108571000Y-55758000D02*
X108571000Y-57460000D01*
X108531000Y-59540000D02*
X108531000Y-61266000D01*
X108531000Y-55734000D02*
X108531000Y-57460000D01*
X108491000Y-59540000D02*
X108491000Y-61290000D01*
X108491000Y-55710000D02*
X108491000Y-57460000D01*
X108451000Y-59540000D02*
X108451000Y-61312000D01*
X108451000Y-55688000D02*
X108451000Y-57460000D01*
X108411000Y-59540000D02*
X108411000Y-61334000D01*
X108411000Y-55666000D02*
X108411000Y-57460000D01*
X108371000Y-59540000D02*
X108371000Y-61356000D01*
X108371000Y-55644000D02*
X108371000Y-57460000D01*
X108331000Y-59540000D02*
X108331000Y-61376000D01*
X108331000Y-55624000D02*
X108331000Y-57460000D01*
X108291000Y-59540000D02*
X108291000Y-61396000D01*
X108291000Y-55604000D02*
X108291000Y-57460000D01*
X108251000Y-59540000D02*
X108251000Y-61416000D01*
X108251000Y-55584000D02*
X108251000Y-57460000D01*
X108211000Y-59540000D02*
X108211000Y-61434000D01*
X108211000Y-55566000D02*
X108211000Y-57460000D01*
X108171000Y-59540000D02*
X108171000Y-61452000D01*
X108171000Y-55548000D02*
X108171000Y-57460000D01*
X108131000Y-59540000D02*
X108131000Y-61470000D01*
X108131000Y-55530000D02*
X108131000Y-57460000D01*
X108091000Y-59540000D02*
X108091000Y-61486000D01*
X108091000Y-55514000D02*
X108091000Y-57460000D01*
X108051000Y-59540000D02*
X108051000Y-61502000D01*
X108051000Y-55498000D02*
X108051000Y-57460000D01*
X108011000Y-59540000D02*
X108011000Y-61518000D01*
X108011000Y-55482000D02*
X108011000Y-57460000D01*
X107971000Y-59540000D02*
X107971000Y-61533000D01*
X107971000Y-55467000D02*
X107971000Y-57460000D01*
X107931000Y-59540000D02*
X107931000Y-61547000D01*
X107931000Y-55453000D02*
X107931000Y-57460000D01*
X107891000Y-59540000D02*
X107891000Y-61561000D01*
X107891000Y-55439000D02*
X107891000Y-57460000D01*
X107851000Y-59540000D02*
X107851000Y-61574000D01*
X107851000Y-55426000D02*
X107851000Y-57460000D01*
X107811000Y-59540000D02*
X107811000Y-61586000D01*
X107811000Y-55414000D02*
X107811000Y-57460000D01*
X107771000Y-59540000D02*
X107771000Y-61598000D01*
X107771000Y-55402000D02*
X107771000Y-57460000D01*
X107731000Y-59540000D02*
X107731000Y-61610000D01*
X107731000Y-55390000D02*
X107731000Y-57460000D01*
X107691000Y-59540000D02*
X107691000Y-61621000D01*
X107691000Y-55379000D02*
X107691000Y-57460000D01*
X107651000Y-59540000D02*
X107651000Y-61631000D01*
X107651000Y-55369000D02*
X107651000Y-57460000D01*
X107611000Y-59540000D02*
X107611000Y-61641000D01*
X107611000Y-55359000D02*
X107611000Y-57460000D01*
X107571000Y-59540000D02*
X107571000Y-61650000D01*
X107571000Y-55350000D02*
X107571000Y-57460000D01*
X107530000Y-59540000D02*
X107530000Y-61659000D01*
X107530000Y-55341000D02*
X107530000Y-57460000D01*
X107490000Y-59540000D02*
X107490000Y-61667000D01*
X107490000Y-55333000D02*
X107490000Y-57460000D01*
X107450000Y-59540000D02*
X107450000Y-61675000D01*
X107450000Y-55325000D02*
X107450000Y-57460000D01*
X107410000Y-59540000D02*
X107410000Y-61682000D01*
X107410000Y-55318000D02*
X107410000Y-57460000D01*
X107370000Y-59540000D02*
X107370000Y-61689000D01*
X107370000Y-55311000D02*
X107370000Y-57460000D01*
X107330000Y-59540000D02*
X107330000Y-61695000D01*
X107330000Y-55305000D02*
X107330000Y-57460000D01*
X107290000Y-59540000D02*
X107290000Y-61701000D01*
X107290000Y-55299000D02*
X107290000Y-57460000D01*
X107250000Y-59540000D02*
X107250000Y-61706000D01*
X107250000Y-55294000D02*
X107250000Y-57460000D01*
X107210000Y-59540000D02*
X107210000Y-61711000D01*
X107210000Y-55289000D02*
X107210000Y-57460000D01*
X107170000Y-59540000D02*
X107170000Y-61715000D01*
X107170000Y-55285000D02*
X107170000Y-57460000D01*
X107130000Y-59540000D02*
X107130000Y-61718000D01*
X107130000Y-55282000D02*
X107130000Y-57460000D01*
X107090000Y-59540000D02*
X107090000Y-61722000D01*
X107090000Y-55278000D02*
X107090000Y-57460000D01*
X107050000Y-55276000D02*
X107050000Y-61724000D01*
X107010000Y-55273000D02*
X107010000Y-61727000D01*
X106970000Y-55272000D02*
X106970000Y-61728000D01*
X106930000Y-55270000D02*
X106930000Y-61730000D01*
X106890000Y-55270000D02*
X106890000Y-61730000D01*
X106850000Y-55270000D02*
X106850000Y-61730000D01*
X110120000Y-58500000D02*
G75*
G03X110120000Y-58500000I-3270000J0D01*
G01*
G04 #@! TO.C,C5*
X161221000Y-55080000D02*
X162479000Y-55080000D01*
X161221000Y-56920000D02*
X162479000Y-56920000D01*
G04 #@! TO.C,C6*
X164680000Y-61621000D02*
X164680000Y-62879000D01*
X166520000Y-61621000D02*
X166520000Y-62879000D01*
G04 #@! TO.C,C1*
X174979000Y-114420000D02*
X173721000Y-114420000D01*
X174979000Y-112580000D02*
X173721000Y-112580000D01*
G04 #@! TO.C,J1*
X182940000Y-59790000D02*
X181200000Y-59790000D01*
X182940000Y-58050000D02*
X182940000Y-59790000D01*
X173500000Y-59550000D02*
X173500000Y-57550000D01*
X176300000Y-59550000D02*
X173500000Y-59550000D01*
X182700000Y-59550000D02*
X179900000Y-59550000D01*
X182700000Y-44950000D02*
X182700000Y-59550000D01*
X173500000Y-44950000D02*
X182700000Y-44950000D01*
X173500000Y-53950000D02*
X173500000Y-44950000D01*
G04 #@! TO.C,J3*
X91930000Y-69910000D02*
X90600000Y-69910000D01*
X91930000Y-68580000D02*
X91930000Y-69910000D01*
X91930000Y-67310000D02*
X89270000Y-67310000D01*
X89270000Y-67310000D02*
X89270000Y-64710000D01*
X91930000Y-67310000D02*
X91930000Y-64710000D01*
X91930000Y-64710000D02*
X89270000Y-64710000D01*
G04 #@! TO.C,J4*
X99532975Y-57369731D02*
X98007262Y-55190787D01*
X97403180Y-58861030D02*
X99532975Y-57369731D01*
X95877466Y-56682086D02*
X98007262Y-55190787D01*
X97403180Y-58861030D02*
X95877466Y-56682086D01*
X96362857Y-59589472D02*
X95273384Y-60352329D01*
X95273384Y-60352329D02*
X94510528Y-59262857D01*
G04 #@! TO.C,J5*
X91930000Y-74710000D02*
X89270000Y-74710000D01*
X91930000Y-79850000D02*
X91930000Y-74710000D01*
X89270000Y-79850000D02*
X89270000Y-74710000D01*
X91930000Y-79850000D02*
X89270000Y-79850000D01*
X91930000Y-81120000D02*
X91930000Y-82450000D01*
X91930000Y-82450000D02*
X90600000Y-82450000D01*
G04 #@! TO.C,M1*
X101810000Y-49830000D02*
X101810000Y-48500000D01*
X103140000Y-49830000D02*
X101810000Y-49830000D01*
X104410000Y-49830000D02*
X104410000Y-47170000D01*
X104410000Y-47170000D02*
X109550000Y-47170000D01*
X104410000Y-49830000D02*
X109550000Y-49830000D01*
X109550000Y-49830000D02*
X109550000Y-47170000D01*
G04 #@! TO.C,M2*
X124550000Y-49830000D02*
X124550000Y-47170000D01*
X119410000Y-49830000D02*
X124550000Y-49830000D01*
X119410000Y-47170000D02*
X124550000Y-47170000D01*
X119410000Y-49830000D02*
X119410000Y-47170000D01*
X118140000Y-49830000D02*
X116810000Y-49830000D01*
X116810000Y-49830000D02*
X116810000Y-48500000D01*
G04 #@! TO.C,M3*
X141970000Y-49830000D02*
X141970000Y-47170000D01*
X134290000Y-49830000D02*
X141970000Y-49830000D01*
X134290000Y-47170000D02*
X141970000Y-47170000D01*
X134290000Y-49830000D02*
X134290000Y-47170000D01*
X133020000Y-49830000D02*
X131690000Y-49830000D01*
X131690000Y-49830000D02*
X131690000Y-48500000D01*
G04 #@! TO.C,RV1*
X171980000Y-66629000D02*
X175917000Y-66629000D01*
X180284000Y-66629000D02*
X184220000Y-66629000D01*
X171980000Y-76670000D02*
X175917000Y-76670000D01*
X180284000Y-76670000D02*
X184220000Y-76670000D01*
X171980000Y-66629000D02*
X171980000Y-68279000D01*
X171980000Y-70021000D02*
X171980000Y-70780000D01*
X171980000Y-72521000D02*
X171980000Y-73280000D01*
X171980000Y-75020000D02*
X171980000Y-76670000D01*
X184220000Y-66629000D02*
X184220000Y-76670000D01*
G04 #@! TO.C,R1*
X150280000Y-119500000D02*
X149330000Y-119500000D01*
X144540000Y-119500000D02*
X145490000Y-119500000D01*
X149330000Y-118580000D02*
X145490000Y-118580000D01*
X149330000Y-120420000D02*
X149330000Y-118580000D01*
X145490000Y-120420000D02*
X149330000Y-120420000D01*
X145490000Y-118580000D02*
X145490000Y-120420000D01*
G04 #@! TO.C,R2*
X162490000Y-118580000D02*
X162490000Y-120420000D01*
X162490000Y-120420000D02*
X166330000Y-120420000D01*
X166330000Y-120420000D02*
X166330000Y-118580000D01*
X166330000Y-118580000D02*
X162490000Y-118580000D01*
X161540000Y-119500000D02*
X162490000Y-119500000D01*
X167280000Y-119500000D02*
X166330000Y-119500000D01*
G04 #@! TO.C,R3*
X101420000Y-71000000D02*
X102370000Y-71000000D01*
X107160000Y-71000000D02*
X106210000Y-71000000D01*
X102370000Y-71920000D02*
X106210000Y-71920000D01*
X102370000Y-70080000D02*
X102370000Y-71920000D01*
X106210000Y-70080000D02*
X102370000Y-70080000D01*
X106210000Y-71920000D02*
X106210000Y-70080000D01*
G04 #@! TO.C,R4*
X106210000Y-66920000D02*
X106210000Y-65080000D01*
X106210000Y-65080000D02*
X102370000Y-65080000D01*
X102370000Y-65080000D02*
X102370000Y-66920000D01*
X102370000Y-66920000D02*
X106210000Y-66920000D01*
X107160000Y-66000000D02*
X106210000Y-66000000D01*
X101420000Y-66000000D02*
X102370000Y-66000000D01*
D11*
G04 #@! TO.C,U3*
X104656051Y-136240000D02*
G75*
G03X104656051Y-136240000I-1796051J0D01*
G01*
X135136051Y-136240000D02*
G75*
G03X135136051Y-136240000I-1796051J0D01*
G01*
X104656051Y-105760000D02*
G75*
G03X104656051Y-105760000I-1796051J0D01*
G01*
X135136051Y-105760000D02*
G75*
G03X135136051Y-105760000I-1796051J0D01*
G01*
X128876307Y-121000000D02*
G75*
G03X128876307Y-121000000I-10776307J0D01*
G01*
X137150000Y-140050000D02*
X99050000Y-140050000D01*
X99050000Y-101950000D02*
X137150000Y-101950000D01*
X99050000Y-140050000D02*
X99050000Y-101950000D01*
X137150000Y-101950000D02*
X137150000Y-140050000D01*
G04 #@! TO.C,U2*
X122265000Y-77025000D02*
X148935000Y-77025000D01*
X148935000Y-77025000D02*
X148935000Y-57975000D01*
X148935000Y-57975000D02*
X122265000Y-57975000D01*
X122265000Y-57975000D02*
X122265000Y-77025000D01*
X125440000Y-59880000D02*
G75*
G03X125440000Y-59880000I-1270000J0D01*
G01*
X148300000Y-59880000D02*
G75*
G03X148300000Y-59880000I-1270000J0D01*
G01*
D12*
G04 #@! TO.C,*
G36*
X142657885Y-90445166D02*
X142722739Y-90448830D01*
X142784658Y-90454586D01*
X142840875Y-90462277D01*
X142888625Y-90471745D01*
X142925143Y-90482831D01*
X142926141Y-90483229D01*
X143024283Y-90532939D01*
X143112772Y-90599806D01*
X143193534Y-90685703D01*
X143268493Y-90792501D01*
X143300522Y-90847296D01*
X143359300Y-90962936D01*
X143408238Y-91081906D01*
X143448812Y-91209202D01*
X143482497Y-91349822D01*
X143510768Y-91508765D01*
X143524571Y-91606000D01*
X143526531Y-91621187D01*
X143528313Y-91636392D01*
X143529927Y-91652904D01*
X143531383Y-91672015D01*
X143532691Y-91695013D01*
X143533860Y-91723188D01*
X143534901Y-91757831D01*
X143535824Y-91800232D01*
X143536637Y-91851679D01*
X143537352Y-91913463D01*
X143537978Y-91986874D01*
X143538525Y-92073202D01*
X143539002Y-92173737D01*
X143539421Y-92289768D01*
X143539789Y-92422585D01*
X143540119Y-92573479D01*
X143540418Y-92743739D01*
X143540698Y-92934654D01*
X143540968Y-93147516D01*
X143541237Y-93383614D01*
X143541517Y-93644237D01*
X143541728Y-93846107D01*
X143543944Y-95972583D01*
X143527903Y-96017247D01*
X143509969Y-96061183D01*
X143491319Y-96090558D01*
X143468350Y-96108560D01*
X143437458Y-96118373D01*
X143409366Y-96122061D01*
X143360029Y-96121707D01*
X143321479Y-96109699D01*
X143291485Y-96084696D01*
X143267816Y-96045358D01*
X143263032Y-96034141D01*
X143243750Y-95986248D01*
X143240158Y-93886361D01*
X143236565Y-91786473D01*
X143220796Y-91679526D01*
X143191993Y-91523491D01*
X143154642Y-91388602D01*
X143108582Y-91274501D01*
X143053648Y-91180830D01*
X142989681Y-91107231D01*
X142944928Y-91071188D01*
X142914794Y-91051827D01*
X142885066Y-91036379D01*
X142853778Y-91024507D01*
X142818963Y-91015870D01*
X142778655Y-91010131D01*
X142730888Y-91006950D01*
X142673694Y-91005989D01*
X142605107Y-91006908D01*
X142576261Y-91007663D01*
X142507337Y-91010127D01*
X142450366Y-91013639D01*
X142403189Y-91018895D01*
X142363651Y-91026588D01*
X142329592Y-91037413D01*
X142298856Y-91052063D01*
X142269286Y-91071232D01*
X142238724Y-91095615D01*
X142205012Y-91125906D01*
X142203056Y-91127727D01*
X142172689Y-91158254D01*
X142146384Y-91190737D01*
X142120208Y-91230800D01*
X142090223Y-91284068D01*
X142079309Y-91304578D01*
X142035430Y-91395496D01*
X142001749Y-91484845D01*
X141975754Y-91580948D01*
X141954930Y-91692129D01*
X141947902Y-91739684D01*
X141932059Y-91853316D01*
X141928210Y-93925421D01*
X141927694Y-94200778D01*
X141927212Y-94450660D01*
X141926753Y-94676328D01*
X141926307Y-94879044D01*
X141925864Y-95060068D01*
X141925413Y-95220662D01*
X141924944Y-95362087D01*
X141924447Y-95485605D01*
X141923911Y-95592476D01*
X141923326Y-95683963D01*
X141922682Y-95761327D01*
X141921968Y-95825829D01*
X141921174Y-95878730D01*
X141920290Y-95921291D01*
X141919306Y-95954775D01*
X141918211Y-95980442D01*
X141916995Y-95999554D01*
X141915647Y-96013371D01*
X141914158Y-96023156D01*
X141912517Y-96030169D01*
X141910966Y-96034973D01*
X141895800Y-96069641D01*
X141877538Y-96093519D01*
X141853422Y-96108350D01*
X141820693Y-96115874D01*
X141779723Y-96117842D01*
X141735107Y-96115080D01*
X141701703Y-96105490D01*
X141676845Y-96087119D01*
X141657870Y-96058012D01*
X141642389Y-96017106D01*
X141640496Y-96010680D01*
X141638774Y-96003350D01*
X141637214Y-95993858D01*
X141635803Y-95980949D01*
X141634533Y-95963363D01*
X141633392Y-95939845D01*
X141632370Y-95909136D01*
X141631456Y-95869979D01*
X141630640Y-95821117D01*
X141629911Y-95761294D01*
X141629259Y-95689250D01*
X141628674Y-95603730D01*
X141628143Y-95503476D01*
X141627658Y-95387231D01*
X141627208Y-95253737D01*
X141626782Y-95101737D01*
X141626369Y-94929974D01*
X141625959Y-94737191D01*
X141625542Y-94522130D01*
X141625107Y-94283533D01*
X141624643Y-94020145D01*
X141624374Y-93865263D01*
X141620720Y-91759737D01*
X141604575Y-91659473D01*
X141574314Y-91508313D01*
X141535424Y-91375732D01*
X141488442Y-91263036D01*
X141433909Y-91171526D01*
X141375536Y-91105349D01*
X141343971Y-91078371D01*
X141313480Y-91056460D01*
X141282192Y-91039171D01*
X141248232Y-91026059D01*
X141209729Y-91016678D01*
X141164809Y-91010584D01*
X141111599Y-91007331D01*
X141048227Y-91006475D01*
X140972819Y-91007571D01*
X140964806Y-91007764D01*
X140893650Y-91009923D01*
X140834621Y-91012934D01*
X140785734Y-91017392D01*
X140745005Y-91023891D01*
X140710450Y-91033025D01*
X140680085Y-91045389D01*
X140651926Y-91061577D01*
X140623989Y-91082183D01*
X140594289Y-91107802D01*
X140576750Y-91123995D01*
X140507011Y-91201828D01*
X140448575Y-91294676D01*
X140400728Y-91404149D01*
X140362757Y-91531858D01*
X140335726Y-91668129D01*
X140334068Y-91679680D01*
X140332556Y-91693533D01*
X140331181Y-91710956D01*
X140329933Y-91733217D01*
X140328803Y-91761586D01*
X140327781Y-91797331D01*
X140326858Y-91841720D01*
X140326025Y-91896021D01*
X140325272Y-91961503D01*
X140324589Y-92039435D01*
X140323968Y-92131085D01*
X140323399Y-92237722D01*
X140322872Y-92360613D01*
X140322378Y-92501028D01*
X140321907Y-92660235D01*
X140321451Y-92839502D01*
X140320999Y-93040097D01*
X140320542Y-93263290D01*
X140320072Y-93510349D01*
X140319577Y-93782542D01*
X140319442Y-93858579D01*
X140318947Y-94136509D01*
X140318487Y-94388958D01*
X140318052Y-94617181D01*
X140317631Y-94822432D01*
X140317213Y-95005968D01*
X140316789Y-95169043D01*
X140316348Y-95312913D01*
X140315879Y-95438832D01*
X140315371Y-95548056D01*
X140314815Y-95641840D01*
X140314199Y-95721440D01*
X140313513Y-95788110D01*
X140312746Y-95843105D01*
X140311889Y-95887682D01*
X140310930Y-95923095D01*
X140309858Y-95950599D01*
X140308664Y-95971450D01*
X140307337Y-95986902D01*
X140305867Y-95998211D01*
X140304242Y-96006633D01*
X140302452Y-96013421D01*
X140301334Y-96017106D01*
X140283993Y-96060861D01*
X140262015Y-96090927D01*
X140232720Y-96109490D01*
X140193429Y-96118736D01*
X140174888Y-96120285D01*
X140144035Y-96120618D01*
X140116670Y-96118545D01*
X140097242Y-96114490D01*
X140092835Y-96112497D01*
X140057549Y-96079354D01*
X140032721Y-96030721D01*
X140027025Y-96011433D01*
X140025702Y-96004356D01*
X140024487Y-95993400D01*
X140023375Y-95977477D01*
X140022361Y-95955499D01*
X140021440Y-95926376D01*
X140020610Y-95889020D01*
X140019864Y-95842343D01*
X140019198Y-95785256D01*
X140018609Y-95716671D01*
X140018091Y-95635499D01*
X140017641Y-95540652D01*
X140017253Y-95431040D01*
X140016923Y-95305576D01*
X140016646Y-95163171D01*
X140016419Y-95002737D01*
X140016237Y-94823184D01*
X140016095Y-94623425D01*
X140015989Y-94402371D01*
X140015914Y-94158933D01*
X140015867Y-93892022D01*
X140015841Y-93600551D01*
X140015834Y-93283737D01*
X140015819Y-92964183D01*
X140015789Y-92670280D01*
X140015761Y-92400940D01*
X140015754Y-92155075D01*
X140015787Y-91931600D01*
X140015879Y-91729428D01*
X140016047Y-91547471D01*
X140016312Y-91384642D01*
X140016692Y-91239856D01*
X140017205Y-91112024D01*
X140017870Y-91000061D01*
X140018706Y-90902878D01*
X140019732Y-90819390D01*
X140020965Y-90748509D01*
X140022426Y-90689149D01*
X140024132Y-90640223D01*
X140026103Y-90600643D01*
X140028356Y-90569324D01*
X140030911Y-90545177D01*
X140033787Y-90527117D01*
X140037002Y-90514056D01*
X140040574Y-90504907D01*
X140044523Y-90498584D01*
X140048867Y-90494000D01*
X140053626Y-90490068D01*
X140058817Y-90485701D01*
X140064071Y-90480270D01*
X140079788Y-90465048D01*
X140098140Y-90455162D01*
X140122993Y-90449174D01*
X140156806Y-90445739D01*
X140189915Y-90444288D01*
X140213142Y-90446071D01*
X140230673Y-90452206D01*
X140246694Y-90463811D01*
X140255561Y-90472127D01*
X140282818Y-90507140D01*
X140301319Y-90552565D01*
X140312508Y-90613470D01*
X140317669Y-90689864D01*
X140320950Y-90786738D01*
X140371239Y-90714465D01*
X140446791Y-90621683D01*
X140529978Y-90550018D01*
X140580278Y-90518685D01*
X140614093Y-90500913D01*
X140645420Y-90486457D01*
X140676247Y-90474985D01*
X140708560Y-90466165D01*
X140744347Y-90459663D01*
X140785595Y-90455147D01*
X140834292Y-90452284D01*
X140892424Y-90450741D01*
X140961979Y-90450186D01*
X140989500Y-90450164D01*
X141057441Y-90450404D01*
X141113159Y-90451156D01*
X141158542Y-90452572D01*
X141195475Y-90454803D01*
X141225846Y-90458000D01*
X141251543Y-90462315D01*
X141274451Y-90467898D01*
X141296018Y-90474748D01*
X141392965Y-90518511D01*
X141483045Y-90579197D01*
X141564197Y-90655243D01*
X141613917Y-90715866D01*
X141647071Y-90765934D01*
X141683824Y-90829415D01*
X141719863Y-90898256D01*
X141750877Y-90964405D01*
X141763954Y-90996013D01*
X141789234Y-91061132D01*
X141803306Y-91022750D01*
X141824670Y-90972876D01*
X141854504Y-90914440D01*
X141889412Y-90853343D01*
X141925994Y-90795482D01*
X141960853Y-90746758D01*
X141966134Y-90740091D01*
X142039414Y-90660952D01*
X142122932Y-90591208D01*
X142213355Y-90532936D01*
X142307349Y-90488213D01*
X142401580Y-90459115D01*
X142424410Y-90454591D01*
X142473356Y-90448307D01*
X142530428Y-90444747D01*
X142592859Y-90443752D01*
X142657885Y-90445166D01*
X142657885Y-90445166D01*
G37*
X142657885Y-90445166D02*
X142722739Y-90448830D01*
X142784658Y-90454586D01*
X142840875Y-90462277D01*
X142888625Y-90471745D01*
X142925143Y-90482831D01*
X142926141Y-90483229D01*
X143024283Y-90532939D01*
X143112772Y-90599806D01*
X143193534Y-90685703D01*
X143268493Y-90792501D01*
X143300522Y-90847296D01*
X143359300Y-90962936D01*
X143408238Y-91081906D01*
X143448812Y-91209202D01*
X143482497Y-91349822D01*
X143510768Y-91508765D01*
X143524571Y-91606000D01*
X143526531Y-91621187D01*
X143528313Y-91636392D01*
X143529927Y-91652904D01*
X143531383Y-91672015D01*
X143532691Y-91695013D01*
X143533860Y-91723188D01*
X143534901Y-91757831D01*
X143535824Y-91800232D01*
X143536637Y-91851679D01*
X143537352Y-91913463D01*
X143537978Y-91986874D01*
X143538525Y-92073202D01*
X143539002Y-92173737D01*
X143539421Y-92289768D01*
X143539789Y-92422585D01*
X143540119Y-92573479D01*
X143540418Y-92743739D01*
X143540698Y-92934654D01*
X143540968Y-93147516D01*
X143541237Y-93383614D01*
X143541517Y-93644237D01*
X143541728Y-93846107D01*
X143543944Y-95972583D01*
X143527903Y-96017247D01*
X143509969Y-96061183D01*
X143491319Y-96090558D01*
X143468350Y-96108560D01*
X143437458Y-96118373D01*
X143409366Y-96122061D01*
X143360029Y-96121707D01*
X143321479Y-96109699D01*
X143291485Y-96084696D01*
X143267816Y-96045358D01*
X143263032Y-96034141D01*
X143243750Y-95986248D01*
X143240158Y-93886361D01*
X143236565Y-91786473D01*
X143220796Y-91679526D01*
X143191993Y-91523491D01*
X143154642Y-91388602D01*
X143108582Y-91274501D01*
X143053648Y-91180830D01*
X142989681Y-91107231D01*
X142944928Y-91071188D01*
X142914794Y-91051827D01*
X142885066Y-91036379D01*
X142853778Y-91024507D01*
X142818963Y-91015870D01*
X142778655Y-91010131D01*
X142730888Y-91006950D01*
X142673694Y-91005989D01*
X142605107Y-91006908D01*
X142576261Y-91007663D01*
X142507337Y-91010127D01*
X142450366Y-91013639D01*
X142403189Y-91018895D01*
X142363651Y-91026588D01*
X142329592Y-91037413D01*
X142298856Y-91052063D01*
X142269286Y-91071232D01*
X142238724Y-91095615D01*
X142205012Y-91125906D01*
X142203056Y-91127727D01*
X142172689Y-91158254D01*
X142146384Y-91190737D01*
X142120208Y-91230800D01*
X142090223Y-91284068D01*
X142079309Y-91304578D01*
X142035430Y-91395496D01*
X142001749Y-91484845D01*
X141975754Y-91580948D01*
X141954930Y-91692129D01*
X141947902Y-91739684D01*
X141932059Y-91853316D01*
X141928210Y-93925421D01*
X141927694Y-94200778D01*
X141927212Y-94450660D01*
X141926753Y-94676328D01*
X141926307Y-94879044D01*
X141925864Y-95060068D01*
X141925413Y-95220662D01*
X141924944Y-95362087D01*
X141924447Y-95485605D01*
X141923911Y-95592476D01*
X141923326Y-95683963D01*
X141922682Y-95761327D01*
X141921968Y-95825829D01*
X141921174Y-95878730D01*
X141920290Y-95921291D01*
X141919306Y-95954775D01*
X141918211Y-95980442D01*
X141916995Y-95999554D01*
X141915647Y-96013371D01*
X141914158Y-96023156D01*
X141912517Y-96030169D01*
X141910966Y-96034973D01*
X141895800Y-96069641D01*
X141877538Y-96093519D01*
X141853422Y-96108350D01*
X141820693Y-96115874D01*
X141779723Y-96117842D01*
X141735107Y-96115080D01*
X141701703Y-96105490D01*
X141676845Y-96087119D01*
X141657870Y-96058012D01*
X141642389Y-96017106D01*
X141640496Y-96010680D01*
X141638774Y-96003350D01*
X141637214Y-95993858D01*
X141635803Y-95980949D01*
X141634533Y-95963363D01*
X141633392Y-95939845D01*
X141632370Y-95909136D01*
X141631456Y-95869979D01*
X141630640Y-95821117D01*
X141629911Y-95761294D01*
X141629259Y-95689250D01*
X141628674Y-95603730D01*
X141628143Y-95503476D01*
X141627658Y-95387231D01*
X141627208Y-95253737D01*
X141626782Y-95101737D01*
X141626369Y-94929974D01*
X141625959Y-94737191D01*
X141625542Y-94522130D01*
X141625107Y-94283533D01*
X141624643Y-94020145D01*
X141624374Y-93865263D01*
X141620720Y-91759737D01*
X141604575Y-91659473D01*
X141574314Y-91508313D01*
X141535424Y-91375732D01*
X141488442Y-91263036D01*
X141433909Y-91171526D01*
X141375536Y-91105349D01*
X141343971Y-91078371D01*
X141313480Y-91056460D01*
X141282192Y-91039171D01*
X141248232Y-91026059D01*
X141209729Y-91016678D01*
X141164809Y-91010584D01*
X141111599Y-91007331D01*
X141048227Y-91006475D01*
X140972819Y-91007571D01*
X140964806Y-91007764D01*
X140893650Y-91009923D01*
X140834621Y-91012934D01*
X140785734Y-91017392D01*
X140745005Y-91023891D01*
X140710450Y-91033025D01*
X140680085Y-91045389D01*
X140651926Y-91061577D01*
X140623989Y-91082183D01*
X140594289Y-91107802D01*
X140576750Y-91123995D01*
X140507011Y-91201828D01*
X140448575Y-91294676D01*
X140400728Y-91404149D01*
X140362757Y-91531858D01*
X140335726Y-91668129D01*
X140334068Y-91679680D01*
X140332556Y-91693533D01*
X140331181Y-91710956D01*
X140329933Y-91733217D01*
X140328803Y-91761586D01*
X140327781Y-91797331D01*
X140326858Y-91841720D01*
X140326025Y-91896021D01*
X140325272Y-91961503D01*
X140324589Y-92039435D01*
X140323968Y-92131085D01*
X140323399Y-92237722D01*
X140322872Y-92360613D01*
X140322378Y-92501028D01*
X140321907Y-92660235D01*
X140321451Y-92839502D01*
X140320999Y-93040097D01*
X140320542Y-93263290D01*
X140320072Y-93510349D01*
X140319577Y-93782542D01*
X140319442Y-93858579D01*
X140318947Y-94136509D01*
X140318487Y-94388958D01*
X140318052Y-94617181D01*
X140317631Y-94822432D01*
X140317213Y-95005968D01*
X140316789Y-95169043D01*
X140316348Y-95312913D01*
X140315879Y-95438832D01*
X140315371Y-95548056D01*
X140314815Y-95641840D01*
X140314199Y-95721440D01*
X140313513Y-95788110D01*
X140312746Y-95843105D01*
X140311889Y-95887682D01*
X140310930Y-95923095D01*
X140309858Y-95950599D01*
X140308664Y-95971450D01*
X140307337Y-95986902D01*
X140305867Y-95998211D01*
X140304242Y-96006633D01*
X140302452Y-96013421D01*
X140301334Y-96017106D01*
X140283993Y-96060861D01*
X140262015Y-96090927D01*
X140232720Y-96109490D01*
X140193429Y-96118736D01*
X140174888Y-96120285D01*
X140144035Y-96120618D01*
X140116670Y-96118545D01*
X140097242Y-96114490D01*
X140092835Y-96112497D01*
X140057549Y-96079354D01*
X140032721Y-96030721D01*
X140027025Y-96011433D01*
X140025702Y-96004356D01*
X140024487Y-95993400D01*
X140023375Y-95977477D01*
X140022361Y-95955499D01*
X140021440Y-95926376D01*
X140020610Y-95889020D01*
X140019864Y-95842343D01*
X140019198Y-95785256D01*
X140018609Y-95716671D01*
X140018091Y-95635499D01*
X140017641Y-95540652D01*
X140017253Y-95431040D01*
X140016923Y-95305576D01*
X140016646Y-95163171D01*
X140016419Y-95002737D01*
X140016237Y-94823184D01*
X140016095Y-94623425D01*
X140015989Y-94402371D01*
X140015914Y-94158933D01*
X140015867Y-93892022D01*
X140015841Y-93600551D01*
X140015834Y-93283737D01*
X140015819Y-92964183D01*
X140015789Y-92670280D01*
X140015761Y-92400940D01*
X140015754Y-92155075D01*
X140015787Y-91931600D01*
X140015879Y-91729428D01*
X140016047Y-91547471D01*
X140016312Y-91384642D01*
X140016692Y-91239856D01*
X140017205Y-91112024D01*
X140017870Y-91000061D01*
X140018706Y-90902878D01*
X140019732Y-90819390D01*
X140020965Y-90748509D01*
X140022426Y-90689149D01*
X140024132Y-90640223D01*
X140026103Y-90600643D01*
X140028356Y-90569324D01*
X140030911Y-90545177D01*
X140033787Y-90527117D01*
X140037002Y-90514056D01*
X140040574Y-90504907D01*
X140044523Y-90498584D01*
X140048867Y-90494000D01*
X140053626Y-90490068D01*
X140058817Y-90485701D01*
X140064071Y-90480270D01*
X140079788Y-90465048D01*
X140098140Y-90455162D01*
X140122993Y-90449174D01*
X140156806Y-90445739D01*
X140189915Y-90444288D01*
X140213142Y-90446071D01*
X140230673Y-90452206D01*
X140246694Y-90463811D01*
X140255561Y-90472127D01*
X140282818Y-90507140D01*
X140301319Y-90552565D01*
X140312508Y-90613470D01*
X140317669Y-90689864D01*
X140320950Y-90786738D01*
X140371239Y-90714465D01*
X140446791Y-90621683D01*
X140529978Y-90550018D01*
X140580278Y-90518685D01*
X140614093Y-90500913D01*
X140645420Y-90486457D01*
X140676247Y-90474985D01*
X140708560Y-90466165D01*
X140744347Y-90459663D01*
X140785595Y-90455147D01*
X140834292Y-90452284D01*
X140892424Y-90450741D01*
X140961979Y-90450186D01*
X140989500Y-90450164D01*
X141057441Y-90450404D01*
X141113159Y-90451156D01*
X141158542Y-90452572D01*
X141195475Y-90454803D01*
X141225846Y-90458000D01*
X141251543Y-90462315D01*
X141274451Y-90467898D01*
X141296018Y-90474748D01*
X141392965Y-90518511D01*
X141483045Y-90579197D01*
X141564197Y-90655243D01*
X141613917Y-90715866D01*
X141647071Y-90765934D01*
X141683824Y-90829415D01*
X141719863Y-90898256D01*
X141750877Y-90964405D01*
X141763954Y-90996013D01*
X141789234Y-91061132D01*
X141803306Y-91022750D01*
X141824670Y-90972876D01*
X141854504Y-90914440D01*
X141889412Y-90853343D01*
X141925994Y-90795482D01*
X141960853Y-90746758D01*
X141966134Y-90740091D01*
X142039414Y-90660952D01*
X142122932Y-90591208D01*
X142213355Y-90532936D01*
X142307349Y-90488213D01*
X142401580Y-90459115D01*
X142424410Y-90454591D01*
X142473356Y-90448307D01*
X142530428Y-90444747D01*
X142592859Y-90443752D01*
X142657885Y-90445166D01*
G36*
X139322406Y-90445249D02*
X139364736Y-90452612D01*
X139396039Y-90467499D01*
X139419143Y-90492365D01*
X139436878Y-90529665D01*
X139443669Y-90550511D01*
X139458445Y-90600324D01*
X139458445Y-95967149D01*
X139443669Y-96016963D01*
X139427393Y-96060472D01*
X139406984Y-96090473D01*
X139379614Y-96109421D01*
X139342455Y-96119772D01*
X139322406Y-96122224D01*
X139272684Y-96121441D01*
X139233725Y-96108171D01*
X139203495Y-96081187D01*
X139179960Y-96039267D01*
X139178435Y-96035552D01*
X139168226Y-96005725D01*
X139161922Y-95972925D01*
X139158249Y-95928386D01*
X139156540Y-95884883D01*
X139153357Y-95780695D01*
X139103290Y-95852060D01*
X139035209Y-95936712D01*
X138960717Y-96004785D01*
X138877598Y-96058033D01*
X138798965Y-96092778D01*
X138780969Y-96098280D01*
X138758623Y-96102909D01*
X138730567Y-96106762D01*
X138695439Y-96109935D01*
X138651877Y-96112524D01*
X138598522Y-96114625D01*
X138534011Y-96116334D01*
X138456984Y-96117749D01*
X138442445Y-96117968D01*
X138376101Y-96118642D01*
X138311946Y-96118724D01*
X138251841Y-96118253D01*
X138197649Y-96117267D01*
X138151230Y-96115805D01*
X138114444Y-96113904D01*
X138089155Y-96111603D01*
X138082611Y-96110567D01*
X137976279Y-96076970D01*
X137874490Y-96019454D01*
X137778521Y-95939034D01*
X137689647Y-95836723D01*
X137632222Y-95752433D01*
X137582559Y-95659567D01*
X137534671Y-95546464D01*
X137490747Y-95419611D01*
X137452975Y-95285495D01*
X137423541Y-95150604D01*
X137417360Y-95115210D01*
X137412157Y-95083855D01*
X137407421Y-95055002D01*
X137403131Y-95027320D01*
X137399265Y-94999480D01*
X137395800Y-94970150D01*
X137392716Y-94938000D01*
X137389989Y-94901699D01*
X137387598Y-94859916D01*
X137385520Y-94811321D01*
X137383735Y-94754583D01*
X137382219Y-94688371D01*
X137380951Y-94611355D01*
X137379908Y-94522203D01*
X137379070Y-94419586D01*
X137378413Y-94302173D01*
X137377915Y-94168632D01*
X137377556Y-94017634D01*
X137377312Y-93847847D01*
X137377161Y-93657941D01*
X137377082Y-93446585D01*
X137377053Y-93212448D01*
X137377052Y-92954201D01*
X137377056Y-92678480D01*
X137377039Y-92398031D01*
X137377009Y-92143080D01*
X137376991Y-91912387D01*
X137377012Y-91704713D01*
X137377102Y-91518820D01*
X137377285Y-91353467D01*
X137377591Y-91207416D01*
X137378046Y-91079427D01*
X137378677Y-90968262D01*
X137379511Y-90872681D01*
X137380577Y-90791445D01*
X137381901Y-90723315D01*
X137383510Y-90667051D01*
X137385432Y-90621415D01*
X137387693Y-90585167D01*
X137390322Y-90557069D01*
X137393346Y-90535880D01*
X137396791Y-90520362D01*
X137400685Y-90509276D01*
X137405056Y-90501383D01*
X137409930Y-90495442D01*
X137415334Y-90490216D01*
X137421297Y-90484465D01*
X137425432Y-90479921D01*
X137439004Y-90465944D01*
X137453474Y-90457011D01*
X137472403Y-90452042D01*
X137499352Y-90449955D01*
X137525223Y-90449631D01*
X137569838Y-90452394D01*
X137603242Y-90461983D01*
X137628100Y-90480355D01*
X137647075Y-90509462D01*
X137662556Y-90550368D01*
X137664452Y-90556803D01*
X137666176Y-90564142D01*
X137667738Y-90573643D01*
X137669149Y-90586567D01*
X137670420Y-90604173D01*
X137671561Y-90627720D01*
X137672583Y-90658467D01*
X137673495Y-90697674D01*
X137674309Y-90746600D01*
X137675036Y-90806504D01*
X137675685Y-90878647D01*
X137676267Y-90964286D01*
X137676793Y-91064682D01*
X137677274Y-91181095D01*
X137677719Y-91314782D01*
X137678139Y-91467004D01*
X137678546Y-91639020D01*
X137678948Y-91832090D01*
X137679358Y-92047473D01*
X137679785Y-92286427D01*
X137680240Y-92550213D01*
X137680488Y-92695526D01*
X137684058Y-94794368D01*
X137699948Y-94900540D01*
X137729220Y-95054211D01*
X137768057Y-95188465D01*
X137816304Y-95303002D01*
X137873804Y-95397524D01*
X137940401Y-95471731D01*
X138015939Y-95525325D01*
X138029890Y-95532476D01*
X138042832Y-95538173D01*
X138056994Y-95542893D01*
X138073768Y-95546724D01*
X138094542Y-95549752D01*
X138120707Y-95552066D01*
X138153652Y-95553752D01*
X138194768Y-95554899D01*
X138245444Y-95555592D01*
X138307070Y-95555919D01*
X138381036Y-95555968D01*
X138403639Y-95555944D01*
X138479995Y-95555804D01*
X138543659Y-95555525D01*
X138596053Y-95554993D01*
X138638597Y-95554096D01*
X138672711Y-95552720D01*
X138699815Y-95550753D01*
X138721330Y-95548081D01*
X138738676Y-95544591D01*
X138753273Y-95540169D01*
X138766542Y-95534703D01*
X138779902Y-95528080D01*
X138784639Y-95525586D01*
X138862474Y-95473463D01*
X138933155Y-95404321D01*
X138995229Y-95320236D01*
X139047240Y-95223287D01*
X139087734Y-95115554D01*
X139098581Y-95076987D01*
X139105408Y-95051337D01*
X139111620Y-95028837D01*
X139117248Y-95008189D01*
X139122323Y-94988096D01*
X139126876Y-94967259D01*
X139130937Y-94944383D01*
X139134537Y-94918169D01*
X139137706Y-94887320D01*
X139140476Y-94850538D01*
X139142877Y-94806526D01*
X139144940Y-94753987D01*
X139146696Y-94691623D01*
X139148174Y-94618137D01*
X139149407Y-94532231D01*
X139150424Y-94432607D01*
X139151257Y-94317970D01*
X139151935Y-94187020D01*
X139152491Y-94038460D01*
X139152954Y-93870994D01*
X139153355Y-93683323D01*
X139153725Y-93474151D01*
X139154094Y-93242179D01*
X139154494Y-92986111D01*
X139154955Y-92704648D01*
X139154973Y-92694481D01*
X139158584Y-90581226D01*
X139177865Y-90533333D01*
X139200918Y-90489871D01*
X139230098Y-90461487D01*
X139267560Y-90446868D01*
X139315461Y-90444700D01*
X139322406Y-90445249D01*
X139322406Y-90445249D01*
G37*
X139322406Y-90445249D02*
X139364736Y-90452612D01*
X139396039Y-90467499D01*
X139419143Y-90492365D01*
X139436878Y-90529665D01*
X139443669Y-90550511D01*
X139458445Y-90600324D01*
X139458445Y-95967149D01*
X139443669Y-96016963D01*
X139427393Y-96060472D01*
X139406984Y-96090473D01*
X139379614Y-96109421D01*
X139342455Y-96119772D01*
X139322406Y-96122224D01*
X139272684Y-96121441D01*
X139233725Y-96108171D01*
X139203495Y-96081187D01*
X139179960Y-96039267D01*
X139178435Y-96035552D01*
X139168226Y-96005725D01*
X139161922Y-95972925D01*
X139158249Y-95928386D01*
X139156540Y-95884883D01*
X139153357Y-95780695D01*
X139103290Y-95852060D01*
X139035209Y-95936712D01*
X138960717Y-96004785D01*
X138877598Y-96058033D01*
X138798965Y-96092778D01*
X138780969Y-96098280D01*
X138758623Y-96102909D01*
X138730567Y-96106762D01*
X138695439Y-96109935D01*
X138651877Y-96112524D01*
X138598522Y-96114625D01*
X138534011Y-96116334D01*
X138456984Y-96117749D01*
X138442445Y-96117968D01*
X138376101Y-96118642D01*
X138311946Y-96118724D01*
X138251841Y-96118253D01*
X138197649Y-96117267D01*
X138151230Y-96115805D01*
X138114444Y-96113904D01*
X138089155Y-96111603D01*
X138082611Y-96110567D01*
X137976279Y-96076970D01*
X137874490Y-96019454D01*
X137778521Y-95939034D01*
X137689647Y-95836723D01*
X137632222Y-95752433D01*
X137582559Y-95659567D01*
X137534671Y-95546464D01*
X137490747Y-95419611D01*
X137452975Y-95285495D01*
X137423541Y-95150604D01*
X137417360Y-95115210D01*
X137412157Y-95083855D01*
X137407421Y-95055002D01*
X137403131Y-95027320D01*
X137399265Y-94999480D01*
X137395800Y-94970150D01*
X137392716Y-94938000D01*
X137389989Y-94901699D01*
X137387598Y-94859916D01*
X137385520Y-94811321D01*
X137383735Y-94754583D01*
X137382219Y-94688371D01*
X137380951Y-94611355D01*
X137379908Y-94522203D01*
X137379070Y-94419586D01*
X137378413Y-94302173D01*
X137377915Y-94168632D01*
X137377556Y-94017634D01*
X137377312Y-93847847D01*
X137377161Y-93657941D01*
X137377082Y-93446585D01*
X137377053Y-93212448D01*
X137377052Y-92954201D01*
X137377056Y-92678480D01*
X137377039Y-92398031D01*
X137377009Y-92143080D01*
X137376991Y-91912387D01*
X137377012Y-91704713D01*
X137377102Y-91518820D01*
X137377285Y-91353467D01*
X137377591Y-91207416D01*
X137378046Y-91079427D01*
X137378677Y-90968262D01*
X137379511Y-90872681D01*
X137380577Y-90791445D01*
X137381901Y-90723315D01*
X137383510Y-90667051D01*
X137385432Y-90621415D01*
X137387693Y-90585167D01*
X137390322Y-90557069D01*
X137393346Y-90535880D01*
X137396791Y-90520362D01*
X137400685Y-90509276D01*
X137405056Y-90501383D01*
X137409930Y-90495442D01*
X137415334Y-90490216D01*
X137421297Y-90484465D01*
X137425432Y-90479921D01*
X137439004Y-90465944D01*
X137453474Y-90457011D01*
X137472403Y-90452042D01*
X137499352Y-90449955D01*
X137525223Y-90449631D01*
X137569838Y-90452394D01*
X137603242Y-90461983D01*
X137628100Y-90480355D01*
X137647075Y-90509462D01*
X137662556Y-90550368D01*
X137664452Y-90556803D01*
X137666176Y-90564142D01*
X137667738Y-90573643D01*
X137669149Y-90586567D01*
X137670420Y-90604173D01*
X137671561Y-90627720D01*
X137672583Y-90658467D01*
X137673495Y-90697674D01*
X137674309Y-90746600D01*
X137675036Y-90806504D01*
X137675685Y-90878647D01*
X137676267Y-90964286D01*
X137676793Y-91064682D01*
X137677274Y-91181095D01*
X137677719Y-91314782D01*
X137678139Y-91467004D01*
X137678546Y-91639020D01*
X137678948Y-91832090D01*
X137679358Y-92047473D01*
X137679785Y-92286427D01*
X137680240Y-92550213D01*
X137680488Y-92695526D01*
X137684058Y-94794368D01*
X137699948Y-94900540D01*
X137729220Y-95054211D01*
X137768057Y-95188465D01*
X137816304Y-95303002D01*
X137873804Y-95397524D01*
X137940401Y-95471731D01*
X138015939Y-95525325D01*
X138029890Y-95532476D01*
X138042832Y-95538173D01*
X138056994Y-95542893D01*
X138073768Y-95546724D01*
X138094542Y-95549752D01*
X138120707Y-95552066D01*
X138153652Y-95553752D01*
X138194768Y-95554899D01*
X138245444Y-95555592D01*
X138307070Y-95555919D01*
X138381036Y-95555968D01*
X138403639Y-95555944D01*
X138479995Y-95555804D01*
X138543659Y-95555525D01*
X138596053Y-95554993D01*
X138638597Y-95554096D01*
X138672711Y-95552720D01*
X138699815Y-95550753D01*
X138721330Y-95548081D01*
X138738676Y-95544591D01*
X138753273Y-95540169D01*
X138766542Y-95534703D01*
X138779902Y-95528080D01*
X138784639Y-95525586D01*
X138862474Y-95473463D01*
X138933155Y-95404321D01*
X138995229Y-95320236D01*
X139047240Y-95223287D01*
X139087734Y-95115554D01*
X139098581Y-95076987D01*
X139105408Y-95051337D01*
X139111620Y-95028837D01*
X139117248Y-95008189D01*
X139122323Y-94988096D01*
X139126876Y-94967259D01*
X139130937Y-94944383D01*
X139134537Y-94918169D01*
X139137706Y-94887320D01*
X139140476Y-94850538D01*
X139142877Y-94806526D01*
X139144940Y-94753987D01*
X139146696Y-94691623D01*
X139148174Y-94618137D01*
X139149407Y-94532231D01*
X139150424Y-94432607D01*
X139151257Y-94317970D01*
X139151935Y-94187020D01*
X139152491Y-94038460D01*
X139152954Y-93870994D01*
X139153355Y-93683323D01*
X139153725Y-93474151D01*
X139154094Y-93242179D01*
X139154494Y-92986111D01*
X139154955Y-92704648D01*
X139154973Y-92694481D01*
X139158584Y-90581226D01*
X139177865Y-90533333D01*
X139200918Y-90489871D01*
X139230098Y-90461487D01*
X139267560Y-90446868D01*
X139315461Y-90444700D01*
X139322406Y-90445249D01*
G36*
X136715803Y-88402341D02*
X136751751Y-88416302D01*
X136778340Y-88441343D01*
X136797632Y-88479049D01*
X136805179Y-88503127D01*
X136819742Y-88557212D01*
X136817940Y-92273047D01*
X136816139Y-95988882D01*
X136801592Y-96025799D01*
X136784107Y-96065543D01*
X136766534Y-96092096D01*
X136745339Y-96108195D01*
X136716986Y-96116580D01*
X136680126Y-96119897D01*
X136648930Y-96120466D01*
X136621892Y-96119540D01*
X136602926Y-96117319D01*
X136597417Y-96115651D01*
X136573734Y-96093898D01*
X136549810Y-96057040D01*
X136531186Y-96014362D01*
X136526113Y-95996193D01*
X136525105Y-95988517D01*
X136524165Y-95974364D01*
X136523293Y-95952851D01*
X136522485Y-95923096D01*
X136521739Y-95884214D01*
X136521053Y-95835324D01*
X136520425Y-95775542D01*
X136519851Y-95703985D01*
X136519331Y-95619770D01*
X136518860Y-95522015D01*
X136518438Y-95409835D01*
X136518062Y-95282349D01*
X136517730Y-95138672D01*
X136517438Y-94977923D01*
X136517186Y-94799218D01*
X136516970Y-94601673D01*
X136516788Y-94384407D01*
X136516638Y-94146536D01*
X136516518Y-93887177D01*
X136516424Y-93605447D01*
X136516356Y-93300464D01*
X136516311Y-92971343D01*
X136516285Y-92617202D01*
X136516278Y-92259018D01*
X136516278Y-88566441D01*
X136530813Y-88509550D01*
X136547290Y-88462053D01*
X136569873Y-88428908D01*
X136600621Y-88408444D01*
X136641595Y-88398990D01*
X136668436Y-88397872D01*
X136715803Y-88402341D01*
X136715803Y-88402341D01*
G37*
X136715803Y-88402341D02*
X136751751Y-88416302D01*
X136778340Y-88441343D01*
X136797632Y-88479049D01*
X136805179Y-88503127D01*
X136819742Y-88557212D01*
X136817940Y-92273047D01*
X136816139Y-95988882D01*
X136801592Y-96025799D01*
X136784107Y-96065543D01*
X136766534Y-96092096D01*
X136745339Y-96108195D01*
X136716986Y-96116580D01*
X136680126Y-96119897D01*
X136648930Y-96120466D01*
X136621892Y-96119540D01*
X136602926Y-96117319D01*
X136597417Y-96115651D01*
X136573734Y-96093898D01*
X136549810Y-96057040D01*
X136531186Y-96014362D01*
X136526113Y-95996193D01*
X136525105Y-95988517D01*
X136524165Y-95974364D01*
X136523293Y-95952851D01*
X136522485Y-95923096D01*
X136521739Y-95884214D01*
X136521053Y-95835324D01*
X136520425Y-95775542D01*
X136519851Y-95703985D01*
X136519331Y-95619770D01*
X136518860Y-95522015D01*
X136518438Y-95409835D01*
X136518062Y-95282349D01*
X136517730Y-95138672D01*
X136517438Y-94977923D01*
X136517186Y-94799218D01*
X136516970Y-94601673D01*
X136516788Y-94384407D01*
X136516638Y-94146536D01*
X136516518Y-93887177D01*
X136516424Y-93605447D01*
X136516356Y-93300464D01*
X136516311Y-92971343D01*
X136516285Y-92617202D01*
X136516278Y-92259018D01*
X136516278Y-88566441D01*
X136530813Y-88509550D01*
X136547290Y-88462053D01*
X136569873Y-88428908D01*
X136600621Y-88408444D01*
X136641595Y-88398990D01*
X136668436Y-88397872D01*
X136715803Y-88402341D01*
G36*
X131718217Y-88404753D02*
X131743462Y-88406814D01*
X131760824Y-88411336D01*
X131773413Y-88419205D01*
X131784340Y-88431311D01*
X131786422Y-88434079D01*
X131794215Y-88444286D01*
X131801053Y-88453644D01*
X131806998Y-88463868D01*
X131812114Y-88476675D01*
X131816461Y-88493782D01*
X131820103Y-88516905D01*
X131823102Y-88547761D01*
X131825519Y-88588066D01*
X131827418Y-88639538D01*
X131828859Y-88703892D01*
X131829907Y-88782846D01*
X131830621Y-88878115D01*
X131831066Y-88991418D01*
X131831303Y-89124469D01*
X131831395Y-89278986D01*
X131831402Y-89456685D01*
X131831389Y-89659283D01*
X131831389Y-89674572D01*
X131831397Y-89873380D01*
X131831434Y-90047107D01*
X131831520Y-90197410D01*
X131831673Y-90325944D01*
X131831915Y-90434366D01*
X131832265Y-90524331D01*
X131832742Y-90597495D01*
X131833367Y-90655516D01*
X131834158Y-90700047D01*
X131835135Y-90732747D01*
X131836319Y-90755271D01*
X131837729Y-90769274D01*
X131839385Y-90776413D01*
X131841305Y-90778345D01*
X131843511Y-90776724D01*
X131844482Y-90775446D01*
X131857100Y-90757475D01*
X131876159Y-90730013D01*
X131892107Y-90706887D01*
X131959728Y-90624206D01*
X132038972Y-90555733D01*
X132129398Y-90501810D01*
X132191223Y-90475710D01*
X132216058Y-90469396D01*
X132252987Y-90463643D01*
X132299993Y-90458509D01*
X132355059Y-90454056D01*
X132416171Y-90450341D01*
X132481312Y-90447425D01*
X132548467Y-90445366D01*
X132615620Y-90444225D01*
X132680754Y-90444061D01*
X132741855Y-90444933D01*
X132796905Y-90446900D01*
X132843890Y-90450023D01*
X132880794Y-90454360D01*
X132885949Y-90455227D01*
X132982890Y-90479823D01*
X133070067Y-90518198D01*
X133150335Y-90572161D01*
X133226546Y-90643520D01*
X133278089Y-90703629D01*
X133357413Y-90819150D01*
X133426939Y-90953485D01*
X133486317Y-91105594D01*
X133535197Y-91274432D01*
X133573229Y-91458956D01*
X133600063Y-91658124D01*
X133600856Y-91665950D01*
X133602458Y-91683511D01*
X133603913Y-91703511D01*
X133605228Y-91727245D01*
X133606409Y-91756008D01*
X133607465Y-91791095D01*
X133608400Y-91833802D01*
X133609224Y-91885423D01*
X133609942Y-91947254D01*
X133610562Y-92020589D01*
X133611091Y-92106725D01*
X133611536Y-92206956D01*
X133611904Y-92322577D01*
X133612202Y-92454883D01*
X133612437Y-92605170D01*
X133612616Y-92774732D01*
X133612745Y-92964866D01*
X133612833Y-93176865D01*
X133612887Y-93412026D01*
X133612912Y-93671642D01*
X133612917Y-93886355D01*
X133612917Y-95986236D01*
X133593636Y-96034135D01*
X133570585Y-96077598D01*
X133541409Y-96105982D01*
X133503951Y-96120603D01*
X133456055Y-96122774D01*
X133449094Y-96122224D01*
X133406765Y-96114861D01*
X133375462Y-96099974D01*
X133352357Y-96075108D01*
X133334622Y-96037808D01*
X133327832Y-96016963D01*
X133313056Y-95967149D01*
X133313056Y-93963355D01*
X133313006Y-93664511D01*
X133312857Y-93386309D01*
X133312611Y-93129281D01*
X133312270Y-92893959D01*
X133311836Y-92680877D01*
X133311310Y-92490566D01*
X133310694Y-92323559D01*
X133309990Y-92180388D01*
X133309201Y-92061587D01*
X133308327Y-91967687D01*
X133307370Y-91899221D01*
X133306333Y-91856722D01*
X133305845Y-91846281D01*
X133289324Y-91676615D01*
X133262582Y-91524940D01*
X133225748Y-91391567D01*
X133178952Y-91276805D01*
X133122322Y-91180967D01*
X133055989Y-91104361D01*
X132980082Y-91047300D01*
X132970543Y-91041895D01*
X132957023Y-91034669D01*
X132944242Y-91028674D01*
X132930784Y-91023795D01*
X132915235Y-91019920D01*
X132896177Y-91016936D01*
X132872197Y-91014728D01*
X132841878Y-91013184D01*
X132803804Y-91012190D01*
X132756559Y-91011633D01*
X132698729Y-91011399D01*
X132628897Y-91011375D01*
X132589861Y-91011406D01*
X132507574Y-91011561D01*
X132437883Y-91012105D01*
X132379274Y-91013404D01*
X132330231Y-91015824D01*
X132289239Y-91019731D01*
X132254784Y-91025492D01*
X132225351Y-91033471D01*
X132199424Y-91044037D01*
X132175490Y-91057553D01*
X132152033Y-91074388D01*
X132127537Y-91094906D01*
X132100490Y-91119474D01*
X132085694Y-91133243D01*
X132047789Y-91171287D01*
X132017150Y-91209594D01*
X131987978Y-91256078D01*
X131965631Y-91297138D01*
X131926504Y-91380129D01*
X131896016Y-91465771D01*
X131871815Y-91561937D01*
X131851549Y-91676500D01*
X131850777Y-91681639D01*
X131835133Y-91786473D01*
X131831497Y-93885316D01*
X131831013Y-94162579D01*
X131830558Y-94414360D01*
X131830123Y-94641916D01*
X131829699Y-94846500D01*
X131829275Y-95029369D01*
X131828842Y-95191777D01*
X131828389Y-95334980D01*
X131827906Y-95460233D01*
X131827384Y-95568791D01*
X131826812Y-95661909D01*
X131826182Y-95740843D01*
X131825482Y-95806848D01*
X131824703Y-95861180D01*
X131823834Y-95905092D01*
X131822867Y-95939841D01*
X131821791Y-95966682D01*
X131820596Y-95986870D01*
X131819272Y-96001661D01*
X131817809Y-96012309D01*
X131816197Y-96020070D01*
X131814558Y-96025793D01*
X131798817Y-96064958D01*
X131779072Y-96092095D01*
X131752550Y-96109344D01*
X131716478Y-96118841D01*
X131690278Y-96121628D01*
X131657200Y-96123131D01*
X131633984Y-96121372D01*
X131616431Y-96115233D01*
X131600336Y-96103597D01*
X131591500Y-96095346D01*
X131564231Y-96059474D01*
X131545175Y-96009491D01*
X131543826Y-96004529D01*
X131527901Y-95944690D01*
X131529715Y-92238956D01*
X131531528Y-88533222D01*
X131546075Y-88496305D01*
X131562024Y-88459124D01*
X131577536Y-88433476D01*
X131595703Y-88417268D01*
X131619617Y-88408404D01*
X131652372Y-88404790D01*
X131681976Y-88404263D01*
X131718217Y-88404753D01*
X131718217Y-88404753D01*
G37*
X131718217Y-88404753D02*
X131743462Y-88406814D01*
X131760824Y-88411336D01*
X131773413Y-88419205D01*
X131784340Y-88431311D01*
X131786422Y-88434079D01*
X131794215Y-88444286D01*
X131801053Y-88453644D01*
X131806998Y-88463868D01*
X131812114Y-88476675D01*
X131816461Y-88493782D01*
X131820103Y-88516905D01*
X131823102Y-88547761D01*
X131825519Y-88588066D01*
X131827418Y-88639538D01*
X131828859Y-88703892D01*
X131829907Y-88782846D01*
X131830621Y-88878115D01*
X131831066Y-88991418D01*
X131831303Y-89124469D01*
X131831395Y-89278986D01*
X131831402Y-89456685D01*
X131831389Y-89659283D01*
X131831389Y-89674572D01*
X131831397Y-89873380D01*
X131831434Y-90047107D01*
X131831520Y-90197410D01*
X131831673Y-90325944D01*
X131831915Y-90434366D01*
X131832265Y-90524331D01*
X131832742Y-90597495D01*
X131833367Y-90655516D01*
X131834158Y-90700047D01*
X131835135Y-90732747D01*
X131836319Y-90755271D01*
X131837729Y-90769274D01*
X131839385Y-90776413D01*
X131841305Y-90778345D01*
X131843511Y-90776724D01*
X131844482Y-90775446D01*
X131857100Y-90757475D01*
X131876159Y-90730013D01*
X131892107Y-90706887D01*
X131959728Y-90624206D01*
X132038972Y-90555733D01*
X132129398Y-90501810D01*
X132191223Y-90475710D01*
X132216058Y-90469396D01*
X132252987Y-90463643D01*
X132299993Y-90458509D01*
X132355059Y-90454056D01*
X132416171Y-90450341D01*
X132481312Y-90447425D01*
X132548467Y-90445366D01*
X132615620Y-90444225D01*
X132680754Y-90444061D01*
X132741855Y-90444933D01*
X132796905Y-90446900D01*
X132843890Y-90450023D01*
X132880794Y-90454360D01*
X132885949Y-90455227D01*
X132982890Y-90479823D01*
X133070067Y-90518198D01*
X133150335Y-90572161D01*
X133226546Y-90643520D01*
X133278089Y-90703629D01*
X133357413Y-90819150D01*
X133426939Y-90953485D01*
X133486317Y-91105594D01*
X133535197Y-91274432D01*
X133573229Y-91458956D01*
X133600063Y-91658124D01*
X133600856Y-91665950D01*
X133602458Y-91683511D01*
X133603913Y-91703511D01*
X133605228Y-91727245D01*
X133606409Y-91756008D01*
X133607465Y-91791095D01*
X133608400Y-91833802D01*
X133609224Y-91885423D01*
X133609942Y-91947254D01*
X133610562Y-92020589D01*
X133611091Y-92106725D01*
X133611536Y-92206956D01*
X133611904Y-92322577D01*
X133612202Y-92454883D01*
X133612437Y-92605170D01*
X133612616Y-92774732D01*
X133612745Y-92964866D01*
X133612833Y-93176865D01*
X133612887Y-93412026D01*
X133612912Y-93671642D01*
X133612917Y-93886355D01*
X133612917Y-95986236D01*
X133593636Y-96034135D01*
X133570585Y-96077598D01*
X133541409Y-96105982D01*
X133503951Y-96120603D01*
X133456055Y-96122774D01*
X133449094Y-96122224D01*
X133406765Y-96114861D01*
X133375462Y-96099974D01*
X133352357Y-96075108D01*
X133334622Y-96037808D01*
X133327832Y-96016963D01*
X133313056Y-95967149D01*
X133313056Y-93963355D01*
X133313006Y-93664511D01*
X133312857Y-93386309D01*
X133312611Y-93129281D01*
X133312270Y-92893959D01*
X133311836Y-92680877D01*
X133311310Y-92490566D01*
X133310694Y-92323559D01*
X133309990Y-92180388D01*
X133309201Y-92061587D01*
X133308327Y-91967687D01*
X133307370Y-91899221D01*
X133306333Y-91856722D01*
X133305845Y-91846281D01*
X133289324Y-91676615D01*
X133262582Y-91524940D01*
X133225748Y-91391567D01*
X133178952Y-91276805D01*
X133122322Y-91180967D01*
X133055989Y-91104361D01*
X132980082Y-91047300D01*
X132970543Y-91041895D01*
X132957023Y-91034669D01*
X132944242Y-91028674D01*
X132930784Y-91023795D01*
X132915235Y-91019920D01*
X132896177Y-91016936D01*
X132872197Y-91014728D01*
X132841878Y-91013184D01*
X132803804Y-91012190D01*
X132756559Y-91011633D01*
X132698729Y-91011399D01*
X132628897Y-91011375D01*
X132589861Y-91011406D01*
X132507574Y-91011561D01*
X132437883Y-91012105D01*
X132379274Y-91013404D01*
X132330231Y-91015824D01*
X132289239Y-91019731D01*
X132254784Y-91025492D01*
X132225351Y-91033471D01*
X132199424Y-91044037D01*
X132175490Y-91057553D01*
X132152033Y-91074388D01*
X132127537Y-91094906D01*
X132100490Y-91119474D01*
X132085694Y-91133243D01*
X132047789Y-91171287D01*
X132017150Y-91209594D01*
X131987978Y-91256078D01*
X131965631Y-91297138D01*
X131926504Y-91380129D01*
X131896016Y-91465771D01*
X131871815Y-91561937D01*
X131851549Y-91676500D01*
X131850777Y-91681639D01*
X131835133Y-91786473D01*
X131831497Y-93885316D01*
X131831013Y-94162579D01*
X131830558Y-94414360D01*
X131830123Y-94641916D01*
X131829699Y-94846500D01*
X131829275Y-95029369D01*
X131828842Y-95191777D01*
X131828389Y-95334980D01*
X131827906Y-95460233D01*
X131827384Y-95568791D01*
X131826812Y-95661909D01*
X131826182Y-95740843D01*
X131825482Y-95806848D01*
X131824703Y-95861180D01*
X131823834Y-95905092D01*
X131822867Y-95939841D01*
X131821791Y-95966682D01*
X131820596Y-95986870D01*
X131819272Y-96001661D01*
X131817809Y-96012309D01*
X131816197Y-96020070D01*
X131814558Y-96025793D01*
X131798817Y-96064958D01*
X131779072Y-96092095D01*
X131752550Y-96109344D01*
X131716478Y-96118841D01*
X131690278Y-96121628D01*
X131657200Y-96123131D01*
X131633984Y-96121372D01*
X131616431Y-96115233D01*
X131600336Y-96103597D01*
X131591500Y-96095346D01*
X131564231Y-96059474D01*
X131545175Y-96009491D01*
X131543826Y-96004529D01*
X131527901Y-95944690D01*
X131529715Y-92238956D01*
X131531528Y-88533222D01*
X131546075Y-88496305D01*
X131562024Y-88459124D01*
X131577536Y-88433476D01*
X131595703Y-88417268D01*
X131619617Y-88408404D01*
X131652372Y-88404790D01*
X131681976Y-88404263D01*
X131718217Y-88404753D01*
G36*
X144600080Y-89039421D02*
X144664180Y-89039902D01*
X144717486Y-89040956D01*
X144761101Y-89042803D01*
X144796131Y-89045660D01*
X144823682Y-89049745D01*
X144844859Y-89055275D01*
X144860767Y-89062469D01*
X144872512Y-89071544D01*
X144881199Y-89082719D01*
X144887932Y-89096210D01*
X144893818Y-89112236D01*
X144899931Y-89130923D01*
X144915917Y-89179631D01*
X144917728Y-93103592D01*
X144919538Y-97027553D01*
X144903617Y-97087382D01*
X144885287Y-97138362D01*
X144859552Y-97174010D01*
X144856214Y-97177289D01*
X144824733Y-97207368D01*
X144443464Y-97206000D01*
X144370685Y-97205549D01*
X144301600Y-97204757D01*
X144237600Y-97203665D01*
X144180079Y-97202313D01*
X144130428Y-97200741D01*
X144090039Y-97198992D01*
X144060305Y-97197105D01*
X144042618Y-97195121D01*
X144038803Y-97194141D01*
X144009660Y-97168867D01*
X143983745Y-97124007D01*
X143969802Y-97084374D01*
X143963950Y-97045855D01*
X143960629Y-96983383D01*
X143959889Y-96923745D01*
X143961596Y-96841384D01*
X143967495Y-96780028D01*
X143978753Y-96734567D01*
X143996539Y-96699889D01*
X144016423Y-96676307D01*
X144024241Y-96668741D01*
X144032082Y-96662548D01*
X144041366Y-96657589D01*
X144053515Y-96653727D01*
X144069949Y-96650825D01*
X144092091Y-96648747D01*
X144121360Y-96647354D01*
X144159178Y-96646509D01*
X144206966Y-96646076D01*
X144266145Y-96645917D01*
X144331416Y-96645895D01*
X144616056Y-96645895D01*
X144616056Y-89587368D01*
X144328432Y-89587368D01*
X144253120Y-89587320D01*
X144190581Y-89586939D01*
X144139476Y-89585870D01*
X144098466Y-89583758D01*
X144066214Y-89580247D01*
X144041379Y-89574982D01*
X144022624Y-89567609D01*
X144008610Y-89557772D01*
X143997998Y-89545116D01*
X143989451Y-89529285D01*
X143981629Y-89509926D01*
X143975764Y-89493796D01*
X143968340Y-89469978D01*
X143963642Y-89443924D01*
X143961076Y-89408901D01*
X143960045Y-89358177D01*
X143959916Y-89314681D01*
X143961372Y-89232931D01*
X143966435Y-89172153D01*
X143976200Y-89127006D01*
X143991763Y-89092153D01*
X144010977Y-89065928D01*
X144016305Y-89060272D01*
X144022468Y-89055480D01*
X144030611Y-89051482D01*
X144041878Y-89048204D01*
X144057412Y-89045576D01*
X144078357Y-89043525D01*
X144105857Y-89041980D01*
X144141056Y-89040869D01*
X144185098Y-89040120D01*
X144239126Y-89039662D01*
X144304285Y-89039422D01*
X144381719Y-89039328D01*
X144435073Y-89039313D01*
X144524079Y-89039298D01*
X144600080Y-89039421D01*
X144600080Y-89039421D01*
G37*
X144600080Y-89039421D02*
X144664180Y-89039902D01*
X144717486Y-89040956D01*
X144761101Y-89042803D01*
X144796131Y-89045660D01*
X144823682Y-89049745D01*
X144844859Y-89055275D01*
X144860767Y-89062469D01*
X144872512Y-89071544D01*
X144881199Y-89082719D01*
X144887932Y-89096210D01*
X144893818Y-89112236D01*
X144899931Y-89130923D01*
X144915917Y-89179631D01*
X144917728Y-93103592D01*
X144919538Y-97027553D01*
X144903617Y-97087382D01*
X144885287Y-97138362D01*
X144859552Y-97174010D01*
X144856214Y-97177289D01*
X144824733Y-97207368D01*
X144443464Y-97206000D01*
X144370685Y-97205549D01*
X144301600Y-97204757D01*
X144237600Y-97203665D01*
X144180079Y-97202313D01*
X144130428Y-97200741D01*
X144090039Y-97198992D01*
X144060305Y-97197105D01*
X144042618Y-97195121D01*
X144038803Y-97194141D01*
X144009660Y-97168867D01*
X143983745Y-97124007D01*
X143969802Y-97084374D01*
X143963950Y-97045855D01*
X143960629Y-96983383D01*
X143959889Y-96923745D01*
X143961596Y-96841384D01*
X143967495Y-96780028D01*
X143978753Y-96734567D01*
X143996539Y-96699889D01*
X144016423Y-96676307D01*
X144024241Y-96668741D01*
X144032082Y-96662548D01*
X144041366Y-96657589D01*
X144053515Y-96653727D01*
X144069949Y-96650825D01*
X144092091Y-96648747D01*
X144121360Y-96647354D01*
X144159178Y-96646509D01*
X144206966Y-96646076D01*
X144266145Y-96645917D01*
X144331416Y-96645895D01*
X144616056Y-96645895D01*
X144616056Y-89587368D01*
X144328432Y-89587368D01*
X144253120Y-89587320D01*
X144190581Y-89586939D01*
X144139476Y-89585870D01*
X144098466Y-89583758D01*
X144066214Y-89580247D01*
X144041379Y-89574982D01*
X144022624Y-89567609D01*
X144008610Y-89557772D01*
X143997998Y-89545116D01*
X143989451Y-89529285D01*
X143981629Y-89509926D01*
X143975764Y-89493796D01*
X143968340Y-89469978D01*
X143963642Y-89443924D01*
X143961076Y-89408901D01*
X143960045Y-89358177D01*
X143959916Y-89314681D01*
X143961372Y-89232931D01*
X143966435Y-89172153D01*
X143976200Y-89127006D01*
X143991763Y-89092153D01*
X144010977Y-89065928D01*
X144016305Y-89060272D01*
X144022468Y-89055480D01*
X144030611Y-89051482D01*
X144041878Y-89048204D01*
X144057412Y-89045576D01*
X144078357Y-89043525D01*
X144105857Y-89041980D01*
X144141056Y-89040869D01*
X144185098Y-89040120D01*
X144239126Y-89039662D01*
X144304285Y-89039422D01*
X144381719Y-89039328D01*
X144435073Y-89039313D01*
X144524079Y-89039298D01*
X144600080Y-89039421D01*
G36*
X127764928Y-89039313D02*
X127850352Y-89039352D01*
X127922809Y-89039495D01*
X127983443Y-89039812D01*
X128033397Y-89040377D01*
X128073816Y-89041260D01*
X128105843Y-89042534D01*
X128130622Y-89044269D01*
X128149297Y-89046539D01*
X128163011Y-89049415D01*
X128172909Y-89052968D01*
X128180135Y-89057271D01*
X128185832Y-89062394D01*
X128189023Y-89065928D01*
X128210553Y-89096157D01*
X128225326Y-89132013D01*
X128234439Y-89178833D01*
X128238988Y-89241958D01*
X128240085Y-89314681D01*
X128239718Y-89378951D01*
X128238184Y-89423307D01*
X128234882Y-89454550D01*
X128229209Y-89479483D01*
X128224096Y-89495154D01*
X128216244Y-89516880D01*
X128208512Y-89534891D01*
X128199569Y-89549537D01*
X128188081Y-89561165D01*
X128172717Y-89570124D01*
X128152145Y-89576762D01*
X128125033Y-89581427D01*
X128090050Y-89584468D01*
X128045862Y-89586233D01*
X127991139Y-89587070D01*
X127924547Y-89587326D01*
X127871459Y-89587347D01*
X127583945Y-89587368D01*
X127583945Y-96645895D01*
X127868585Y-96645895D01*
X127939420Y-96645923D01*
X127997565Y-96646100D01*
X128044441Y-96646564D01*
X128081469Y-96647450D01*
X128110071Y-96648896D01*
X128131666Y-96651040D01*
X128147677Y-96654019D01*
X128159524Y-96657970D01*
X128168629Y-96663029D01*
X128176412Y-96669335D01*
X128183578Y-96676307D01*
X128207152Y-96705412D01*
X128223449Y-96740820D01*
X128233612Y-96787611D01*
X128238783Y-96850862D01*
X128240111Y-96927788D01*
X128238590Y-97005970D01*
X128233118Y-97064328D01*
X128222332Y-97109322D01*
X128204869Y-97147411D01*
X128188448Y-97172718D01*
X128183883Y-97178702D01*
X128178633Y-97183779D01*
X128171557Y-97188035D01*
X128161511Y-97191559D01*
X128147353Y-97194437D01*
X128127942Y-97196755D01*
X128102133Y-97198602D01*
X128068785Y-97200064D01*
X128026754Y-97201227D01*
X127974900Y-97202180D01*
X127912077Y-97203009D01*
X127837146Y-97203801D01*
X127772171Y-97204425D01*
X127375806Y-97208166D01*
X127344056Y-97177688D01*
X127317153Y-97142974D01*
X127298353Y-97094555D01*
X127296384Y-97087382D01*
X127280462Y-97027553D01*
X127284084Y-89179631D01*
X127300070Y-89130923D01*
X127306209Y-89112157D01*
X127312097Y-89096143D01*
X127318836Y-89082663D01*
X127327534Y-89071498D01*
X127339295Y-89062432D01*
X127355225Y-89055246D01*
X127376429Y-89049723D01*
X127404011Y-89045644D01*
X127439079Y-89042792D01*
X127482735Y-89040950D01*
X127536087Y-89039898D01*
X127600239Y-89039420D01*
X127676297Y-89039298D01*
X127764928Y-89039313D01*
X127764928Y-89039313D01*
G37*
X127764928Y-89039313D02*
X127850352Y-89039352D01*
X127922809Y-89039495D01*
X127983443Y-89039812D01*
X128033397Y-89040377D01*
X128073816Y-89041260D01*
X128105843Y-89042534D01*
X128130622Y-89044269D01*
X128149297Y-89046539D01*
X128163011Y-89049415D01*
X128172909Y-89052968D01*
X128180135Y-89057271D01*
X128185832Y-89062394D01*
X128189023Y-89065928D01*
X128210553Y-89096157D01*
X128225326Y-89132013D01*
X128234439Y-89178833D01*
X128238988Y-89241958D01*
X128240085Y-89314681D01*
X128239718Y-89378951D01*
X128238184Y-89423307D01*
X128234882Y-89454550D01*
X128229209Y-89479483D01*
X128224096Y-89495154D01*
X128216244Y-89516880D01*
X128208512Y-89534891D01*
X128199569Y-89549537D01*
X128188081Y-89561165D01*
X128172717Y-89570124D01*
X128152145Y-89576762D01*
X128125033Y-89581427D01*
X128090050Y-89584468D01*
X128045862Y-89586233D01*
X127991139Y-89587070D01*
X127924547Y-89587326D01*
X127871459Y-89587347D01*
X127583945Y-89587368D01*
X127583945Y-96645895D01*
X127868585Y-96645895D01*
X127939420Y-96645923D01*
X127997565Y-96646100D01*
X128044441Y-96646564D01*
X128081469Y-96647450D01*
X128110071Y-96648896D01*
X128131666Y-96651040D01*
X128147677Y-96654019D01*
X128159524Y-96657970D01*
X128168629Y-96663029D01*
X128176412Y-96669335D01*
X128183578Y-96676307D01*
X128207152Y-96705412D01*
X128223449Y-96740820D01*
X128233612Y-96787611D01*
X128238783Y-96850862D01*
X128240111Y-96927788D01*
X128238590Y-97005970D01*
X128233118Y-97064328D01*
X128222332Y-97109322D01*
X128204869Y-97147411D01*
X128188448Y-97172718D01*
X128183883Y-97178702D01*
X128178633Y-97183779D01*
X128171557Y-97188035D01*
X128161511Y-97191559D01*
X128147353Y-97194437D01*
X128127942Y-97196755D01*
X128102133Y-97198602D01*
X128068785Y-97200064D01*
X128026754Y-97201227D01*
X127974900Y-97202180D01*
X127912077Y-97203009D01*
X127837146Y-97203801D01*
X127772171Y-97204425D01*
X127375806Y-97208166D01*
X127344056Y-97177688D01*
X127317153Y-97142974D01*
X127298353Y-97094555D01*
X127296384Y-97087382D01*
X127280462Y-97027553D01*
X127284084Y-89179631D01*
X127300070Y-89130923D01*
X127306209Y-89112157D01*
X127312097Y-89096143D01*
X127318836Y-89082663D01*
X127327534Y-89071498D01*
X127339295Y-89062432D01*
X127355225Y-89055246D01*
X127376429Y-89049723D01*
X127404011Y-89045644D01*
X127439079Y-89042792D01*
X127482735Y-89040950D01*
X127536087Y-89039898D01*
X127600239Y-89039420D01*
X127676297Y-89039298D01*
X127764928Y-89039313D01*
G36*
X136102179Y-90450387D02*
X136128637Y-90453159D01*
X136147194Y-90458705D01*
X136160946Y-90467780D01*
X136167836Y-90474838D01*
X136194668Y-90520012D01*
X136209739Y-90579357D01*
X136212889Y-90627955D01*
X136211101Y-90644622D01*
X136205675Y-90679548D01*
X136196518Y-90733226D01*
X136183537Y-90806149D01*
X136166639Y-90898811D01*
X136145731Y-91011703D01*
X136120721Y-91145320D01*
X136091515Y-91300154D01*
X136058021Y-91476697D01*
X136020145Y-91675444D01*
X135977795Y-91896887D01*
X135930877Y-92141519D01*
X135879299Y-92409832D01*
X135822968Y-92702321D01*
X135774814Y-92951998D01*
X135727337Y-93198051D01*
X135680137Y-93442711D01*
X135633535Y-93684309D01*
X135587852Y-93921177D01*
X135543411Y-94151646D01*
X135500533Y-94374047D01*
X135459539Y-94586713D01*
X135420752Y-94787974D01*
X135384491Y-94976163D01*
X135351080Y-95149611D01*
X135320839Y-95306650D01*
X135294091Y-95445611D01*
X135271156Y-95564825D01*
X135252356Y-95662624D01*
X135238013Y-95737340D01*
X135235546Y-95750210D01*
X135202038Y-95924325D01*
X135172559Y-96075777D01*
X135146559Y-96207191D01*
X135123487Y-96321193D01*
X135102793Y-96420409D01*
X135083927Y-96507466D01*
X135066337Y-96584989D01*
X135049474Y-96655604D01*
X135032788Y-96721938D01*
X135028019Y-96740306D01*
X134971606Y-96928777D01*
X134906067Y-97098432D01*
X134832055Y-97248309D01*
X134750226Y-97377450D01*
X134661236Y-97484893D01*
X134565740Y-97569678D01*
X134464393Y-97630845D01*
X134403979Y-97654865D01*
X134379952Y-97660515D01*
X134346641Y-97665338D01*
X134306527Y-97669270D01*
X134262089Y-97672248D01*
X134215807Y-97674206D01*
X134170160Y-97675081D01*
X134127629Y-97674809D01*
X134090693Y-97673325D01*
X134061831Y-97670566D01*
X134043525Y-97666466D01*
X134039541Y-97664297D01*
X134008031Y-97624408D01*
X133986448Y-97576023D01*
X133978285Y-97535844D01*
X133973375Y-97478037D01*
X133971709Y-97410984D01*
X133973275Y-97343067D01*
X133978065Y-97282670D01*
X133986067Y-97238176D01*
X133986861Y-97235502D01*
X133996602Y-97205478D01*
X134006151Y-97182012D01*
X134017346Y-97164186D01*
X134032023Y-97151079D01*
X134052021Y-97141774D01*
X134079177Y-97135350D01*
X134115327Y-97130887D01*
X134162309Y-97127468D01*
X134207849Y-97124923D01*
X134275417Y-97120455D01*
X134330750Y-97114658D01*
X134375718Y-97107042D01*
X134412191Y-97097119D01*
X134442038Y-97084398D01*
X134467129Y-97068389D01*
X134485801Y-97052139D01*
X134506061Y-97027732D01*
X134533205Y-96988670D01*
X134564792Y-96939152D01*
X134598379Y-96883374D01*
X134631526Y-96825533D01*
X134661791Y-96769825D01*
X134686733Y-96720449D01*
X134703910Y-96681600D01*
X134707981Y-96670197D01*
X134722344Y-96621998D01*
X134740026Y-96557855D01*
X134760153Y-96481400D01*
X134781856Y-96396262D01*
X134804262Y-96306072D01*
X134826500Y-96214462D01*
X134847700Y-96125061D01*
X134866988Y-96041502D01*
X134883495Y-95967413D01*
X134896349Y-95906427D01*
X134904678Y-95862174D01*
X134907611Y-95838395D01*
X134901938Y-95822987D01*
X134887790Y-95803261D01*
X134882400Y-95797407D01*
X134862785Y-95768997D01*
X134844758Y-95729668D01*
X134840640Y-95717499D01*
X134836591Y-95699666D01*
X134827951Y-95657941D01*
X134814959Y-95593553D01*
X134797855Y-95507732D01*
X134776880Y-95401707D01*
X134752274Y-95276707D01*
X134724276Y-95133961D01*
X134693127Y-94974697D01*
X134659066Y-94800146D01*
X134622334Y-94611536D01*
X134583170Y-94410097D01*
X134541815Y-94197057D01*
X134498509Y-93973645D01*
X134453491Y-93741092D01*
X134407002Y-93500625D01*
X134359282Y-93253474D01*
X134343740Y-93172914D01*
X134280984Y-92847356D01*
X134223040Y-92546357D01*
X134169815Y-92269410D01*
X134121210Y-92016006D01*
X134077132Y-91785639D01*
X134037483Y-91577801D01*
X134002169Y-91391983D01*
X133971093Y-91227679D01*
X133944159Y-91084381D01*
X133921272Y-90961580D01*
X133902336Y-90858770D01*
X133887255Y-90775443D01*
X133875932Y-90711091D01*
X133868274Y-90665207D01*
X133864182Y-90637283D01*
X133863389Y-90628292D01*
X133869756Y-90560391D01*
X133888384Y-90504998D01*
X133908443Y-90474838D01*
X133920787Y-90463445D01*
X133936143Y-90455987D01*
X133957596Y-90451715D01*
X133988227Y-90449877D01*
X134012071Y-90449631D01*
X134047730Y-90450027D01*
X134072610Y-90451937D01*
X134090041Y-90456445D01*
X134103353Y-90464634D01*
X134115876Y-90477589D01*
X134122341Y-90485512D01*
X134148377Y-90530171D01*
X134165479Y-90579091D01*
X134168991Y-90595899D01*
X134177055Y-90636274D01*
X134189373Y-90698677D01*
X134205647Y-90781569D01*
X134225579Y-90883409D01*
X134248868Y-91002658D01*
X134275217Y-91137776D01*
X134304328Y-91287224D01*
X134335901Y-91449463D01*
X134369638Y-91622952D01*
X134405240Y-91806153D01*
X134442409Y-91997524D01*
X134480845Y-92195528D01*
X134520252Y-92398625D01*
X134560329Y-92605274D01*
X134600778Y-92813936D01*
X134641301Y-93023072D01*
X134681599Y-93231142D01*
X134721373Y-93436606D01*
X134760325Y-93637925D01*
X134798156Y-93833560D01*
X134834567Y-94021970D01*
X134869261Y-94201616D01*
X134901937Y-94370959D01*
X134932298Y-94528459D01*
X134960045Y-94672576D01*
X134984880Y-94801770D01*
X135006503Y-94914503D01*
X135015465Y-94961329D01*
X135025785Y-95014679D01*
X135032590Y-95046013D01*
X135037165Y-95058459D01*
X135040796Y-95055144D01*
X135044769Y-95039194D01*
X135045698Y-95034856D01*
X135048998Y-95018222D01*
X135056895Y-94977780D01*
X135069137Y-94914831D01*
X135085473Y-94830677D01*
X135105651Y-94726617D01*
X135129419Y-94603953D01*
X135156525Y-94463986D01*
X135186717Y-94308016D01*
X135219744Y-94137345D01*
X135255354Y-93953274D01*
X135293294Y-93757102D01*
X135333314Y-93550132D01*
X135375161Y-93333664D01*
X135418583Y-93108999D01*
X135463330Y-92877438D01*
X135479105Y-92795789D01*
X135524293Y-92562059D01*
X135568301Y-92334748D01*
X135610872Y-92115158D01*
X135651752Y-91904595D01*
X135690687Y-91704361D01*
X135727420Y-91515760D01*
X135761697Y-91340096D01*
X135793263Y-91178673D01*
X135821864Y-91032793D01*
X135847242Y-90903762D01*
X135869145Y-90792881D01*
X135887317Y-90701456D01*
X135901502Y-90630790D01*
X135911446Y-90582186D01*
X135916894Y-90556948D01*
X135917680Y-90553910D01*
X135932947Y-90518569D01*
X135953213Y-90485742D01*
X135957481Y-90480384D01*
X135970405Y-90466842D01*
X135983914Y-90457944D01*
X136001316Y-90452743D01*
X136025917Y-90450289D01*
X136061026Y-90449634D01*
X136064723Y-90449631D01*
X136102179Y-90450387D01*
X136102179Y-90450387D01*
G37*
X136102179Y-90450387D02*
X136128637Y-90453159D01*
X136147194Y-90458705D01*
X136160946Y-90467780D01*
X136167836Y-90474838D01*
X136194668Y-90520012D01*
X136209739Y-90579357D01*
X136212889Y-90627955D01*
X136211101Y-90644622D01*
X136205675Y-90679548D01*
X136196518Y-90733226D01*
X136183537Y-90806149D01*
X136166639Y-90898811D01*
X136145731Y-91011703D01*
X136120721Y-91145320D01*
X136091515Y-91300154D01*
X136058021Y-91476697D01*
X136020145Y-91675444D01*
X135977795Y-91896887D01*
X135930877Y-92141519D01*
X135879299Y-92409832D01*
X135822968Y-92702321D01*
X135774814Y-92951998D01*
X135727337Y-93198051D01*
X135680137Y-93442711D01*
X135633535Y-93684309D01*
X135587852Y-93921177D01*
X135543411Y-94151646D01*
X135500533Y-94374047D01*
X135459539Y-94586713D01*
X135420752Y-94787974D01*
X135384491Y-94976163D01*
X135351080Y-95149611D01*
X135320839Y-95306650D01*
X135294091Y-95445611D01*
X135271156Y-95564825D01*
X135252356Y-95662624D01*
X135238013Y-95737340D01*
X135235546Y-95750210D01*
X135202038Y-95924325D01*
X135172559Y-96075777D01*
X135146559Y-96207191D01*
X135123487Y-96321193D01*
X135102793Y-96420409D01*
X135083927Y-96507466D01*
X135066337Y-96584989D01*
X135049474Y-96655604D01*
X135032788Y-96721938D01*
X135028019Y-96740306D01*
X134971606Y-96928777D01*
X134906067Y-97098432D01*
X134832055Y-97248309D01*
X134750226Y-97377450D01*
X134661236Y-97484893D01*
X134565740Y-97569678D01*
X134464393Y-97630845D01*
X134403979Y-97654865D01*
X134379952Y-97660515D01*
X134346641Y-97665338D01*
X134306527Y-97669270D01*
X134262089Y-97672248D01*
X134215807Y-97674206D01*
X134170160Y-97675081D01*
X134127629Y-97674809D01*
X134090693Y-97673325D01*
X134061831Y-97670566D01*
X134043525Y-97666466D01*
X134039541Y-97664297D01*
X134008031Y-97624408D01*
X133986448Y-97576023D01*
X133978285Y-97535844D01*
X133973375Y-97478037D01*
X133971709Y-97410984D01*
X133973275Y-97343067D01*
X133978065Y-97282670D01*
X133986067Y-97238176D01*
X133986861Y-97235502D01*
X133996602Y-97205478D01*
X134006151Y-97182012D01*
X134017346Y-97164186D01*
X134032023Y-97151079D01*
X134052021Y-97141774D01*
X134079177Y-97135350D01*
X134115327Y-97130887D01*
X134162309Y-97127468D01*
X134207849Y-97124923D01*
X134275417Y-97120455D01*
X134330750Y-97114658D01*
X134375718Y-97107042D01*
X134412191Y-97097119D01*
X134442038Y-97084398D01*
X134467129Y-97068389D01*
X134485801Y-97052139D01*
X134506061Y-97027732D01*
X134533205Y-96988670D01*
X134564792Y-96939152D01*
X134598379Y-96883374D01*
X134631526Y-96825533D01*
X134661791Y-96769825D01*
X134686733Y-96720449D01*
X134703910Y-96681600D01*
X134707981Y-96670197D01*
X134722344Y-96621998D01*
X134740026Y-96557855D01*
X134760153Y-96481400D01*
X134781856Y-96396262D01*
X134804262Y-96306072D01*
X134826500Y-96214462D01*
X134847700Y-96125061D01*
X134866988Y-96041502D01*
X134883495Y-95967413D01*
X134896349Y-95906427D01*
X134904678Y-95862174D01*
X134907611Y-95838395D01*
X134901938Y-95822987D01*
X134887790Y-95803261D01*
X134882400Y-95797407D01*
X134862785Y-95768997D01*
X134844758Y-95729668D01*
X134840640Y-95717499D01*
X134836591Y-95699666D01*
X134827951Y-95657941D01*
X134814959Y-95593553D01*
X134797855Y-95507732D01*
X134776880Y-95401707D01*
X134752274Y-95276707D01*
X134724276Y-95133961D01*
X134693127Y-94974697D01*
X134659066Y-94800146D01*
X134622334Y-94611536D01*
X134583170Y-94410097D01*
X134541815Y-94197057D01*
X134498509Y-93973645D01*
X134453491Y-93741092D01*
X134407002Y-93500625D01*
X134359282Y-93253474D01*
X134343740Y-93172914D01*
X134280984Y-92847356D01*
X134223040Y-92546357D01*
X134169815Y-92269410D01*
X134121210Y-92016006D01*
X134077132Y-91785639D01*
X134037483Y-91577801D01*
X134002169Y-91391983D01*
X133971093Y-91227679D01*
X133944159Y-91084381D01*
X133921272Y-90961580D01*
X133902336Y-90858770D01*
X133887255Y-90775443D01*
X133875932Y-90711091D01*
X133868274Y-90665207D01*
X133864182Y-90637283D01*
X133863389Y-90628292D01*
X133869756Y-90560391D01*
X133888384Y-90504998D01*
X133908443Y-90474838D01*
X133920787Y-90463445D01*
X133936143Y-90455987D01*
X133957596Y-90451715D01*
X133988227Y-90449877D01*
X134012071Y-90449631D01*
X134047730Y-90450027D01*
X134072610Y-90451937D01*
X134090041Y-90456445D01*
X134103353Y-90464634D01*
X134115876Y-90477589D01*
X134122341Y-90485512D01*
X134148377Y-90530171D01*
X134165479Y-90579091D01*
X134168991Y-90595899D01*
X134177055Y-90636274D01*
X134189373Y-90698677D01*
X134205647Y-90781569D01*
X134225579Y-90883409D01*
X134248868Y-91002658D01*
X134275217Y-91137776D01*
X134304328Y-91287224D01*
X134335901Y-91449463D01*
X134369638Y-91622952D01*
X134405240Y-91806153D01*
X134442409Y-91997524D01*
X134480845Y-92195528D01*
X134520252Y-92398625D01*
X134560329Y-92605274D01*
X134600778Y-92813936D01*
X134641301Y-93023072D01*
X134681599Y-93231142D01*
X134721373Y-93436606D01*
X134760325Y-93637925D01*
X134798156Y-93833560D01*
X134834567Y-94021970D01*
X134869261Y-94201616D01*
X134901937Y-94370959D01*
X134932298Y-94528459D01*
X134960045Y-94672576D01*
X134984880Y-94801770D01*
X135006503Y-94914503D01*
X135015465Y-94961329D01*
X135025785Y-95014679D01*
X135032590Y-95046013D01*
X135037165Y-95058459D01*
X135040796Y-95055144D01*
X135044769Y-95039194D01*
X135045698Y-95034856D01*
X135048998Y-95018222D01*
X135056895Y-94977780D01*
X135069137Y-94914831D01*
X135085473Y-94830677D01*
X135105651Y-94726617D01*
X135129419Y-94603953D01*
X135156525Y-94463986D01*
X135186717Y-94308016D01*
X135219744Y-94137345D01*
X135255354Y-93953274D01*
X135293294Y-93757102D01*
X135333314Y-93550132D01*
X135375161Y-93333664D01*
X135418583Y-93108999D01*
X135463330Y-92877438D01*
X135479105Y-92795789D01*
X135524293Y-92562059D01*
X135568301Y-92334748D01*
X135610872Y-92115158D01*
X135651752Y-91904595D01*
X135690687Y-91704361D01*
X135727420Y-91515760D01*
X135761697Y-91340096D01*
X135793263Y-91178673D01*
X135821864Y-91032793D01*
X135847242Y-90903762D01*
X135869145Y-90792881D01*
X135887317Y-90701456D01*
X135901502Y-90630790D01*
X135911446Y-90582186D01*
X135916894Y-90556948D01*
X135917680Y-90553910D01*
X135932947Y-90518569D01*
X135953213Y-90485742D01*
X135957481Y-90480384D01*
X135970405Y-90466842D01*
X135983914Y-90457944D01*
X136001316Y-90452743D01*
X136025917Y-90450289D01*
X136061026Y-90449634D01*
X136064723Y-90449631D01*
X136102179Y-90450387D01*
G36*
X130184953Y-90446531D02*
X130245977Y-90450275D01*
X130299007Y-90456172D01*
X130345568Y-90464392D01*
X130387184Y-90475103D01*
X130425379Y-90488475D01*
X130461207Y-90504444D01*
X130559628Y-90565964D01*
X130650348Y-90649347D01*
X130732819Y-90753409D01*
X130806492Y-90876963D01*
X130870819Y-91018825D01*
X130925251Y-91177809D01*
X130969239Y-91352731D01*
X131002235Y-91542404D01*
X131021218Y-91714213D01*
X131022829Y-91747376D01*
X131024303Y-91805081D01*
X131025639Y-91885135D01*
X131026837Y-91985343D01*
X131027897Y-92103512D01*
X131028819Y-92237449D01*
X131029603Y-92384959D01*
X131030249Y-92543850D01*
X131030758Y-92711927D01*
X131031128Y-92886998D01*
X131031361Y-93066867D01*
X131031456Y-93249343D01*
X131031413Y-93432230D01*
X131031232Y-93613336D01*
X131030913Y-93790467D01*
X131030456Y-93961429D01*
X131029862Y-94124029D01*
X131029130Y-94276073D01*
X131028259Y-94415367D01*
X131027251Y-94539718D01*
X131026105Y-94646932D01*
X131024821Y-94734816D01*
X131023399Y-94801175D01*
X131021840Y-94843817D01*
X131021218Y-94853260D01*
X130997990Y-95054533D01*
X130963303Y-95242061D01*
X130917707Y-95414658D01*
X130861750Y-95571139D01*
X130795980Y-95710319D01*
X130720947Y-95831013D01*
X130637199Y-95932036D01*
X130545284Y-96012202D01*
X130461207Y-96063029D01*
X130424732Y-96079247D01*
X130386288Y-96092614D01*
X130344343Y-96103302D01*
X130297364Y-96111480D01*
X130243819Y-96117322D01*
X130182174Y-96120997D01*
X130110897Y-96122678D01*
X130028456Y-96122535D01*
X129942647Y-96120969D01*
X129864577Y-96118777D01*
X129799211Y-96116215D01*
X129745144Y-96113164D01*
X129700969Y-96109507D01*
X129665280Y-96105126D01*
X129636671Y-96099903D01*
X129613736Y-96093719D01*
X129612257Y-96093231D01*
X129512304Y-96048460D01*
X129421355Y-95984209D01*
X129339852Y-95900830D01*
X129295772Y-95841918D01*
X129252584Y-95778326D01*
X129250763Y-96569515D01*
X129248943Y-97360704D01*
X129929860Y-98651119D01*
X130610778Y-99941535D01*
X130610778Y-99997318D01*
X130609316Y-100044125D01*
X130603694Y-100083517D01*
X130592064Y-100122744D01*
X130572573Y-100169054D01*
X130560294Y-100195072D01*
X130518752Y-100271504D01*
X130480226Y-100322021D01*
X130444764Y-100346583D01*
X130412408Y-100345154D01*
X130396884Y-100334180D01*
X130389127Y-100322192D01*
X130372365Y-100293026D01*
X130347550Y-100248438D01*
X130315639Y-100190188D01*
X130277587Y-100120033D01*
X130234348Y-100039731D01*
X130186878Y-99951041D01*
X130136130Y-99855721D01*
X130101053Y-99789553D01*
X129820633Y-99259693D01*
X129518779Y-99831057D01*
X129456155Y-99949520D01*
X129402686Y-100050433D01*
X129357571Y-100135195D01*
X129320010Y-100205204D01*
X129289203Y-100261860D01*
X129264349Y-100306564D01*
X129244649Y-100340713D01*
X129229302Y-100365707D01*
X129217507Y-100382946D01*
X129208465Y-100393829D01*
X129201376Y-100399756D01*
X129195439Y-100402125D01*
X129192038Y-100402421D01*
X129166242Y-100392724D01*
X129137448Y-100366304D01*
X129135784Y-100364312D01*
X129110446Y-100328275D01*
X129082695Y-100280477D01*
X129055641Y-100227202D01*
X129032392Y-100174736D01*
X129016057Y-100129363D01*
X129012043Y-100114108D01*
X129007864Y-100094693D01*
X129004923Y-100076876D01*
X129003892Y-100059069D01*
X129005443Y-100039686D01*
X129010248Y-100017141D01*
X129018981Y-99989846D01*
X129032312Y-99956215D01*
X129050915Y-99914662D01*
X129075461Y-99863600D01*
X129106623Y-99801441D01*
X129145072Y-99726600D01*
X129191482Y-99637490D01*
X129246524Y-99532524D01*
X129307952Y-99415665D01*
X129605361Y-98850014D01*
X129286005Y-98252612D01*
X129213548Y-98116726D01*
X129150927Y-97998526D01*
X129097757Y-97897260D01*
X129053656Y-97812176D01*
X129018241Y-97742521D01*
X128991128Y-97687544D01*
X128971933Y-97646492D01*
X128960273Y-97618614D01*
X128956158Y-97605508D01*
X128955057Y-97597935D01*
X128954035Y-97585403D01*
X128953089Y-97566971D01*
X128952217Y-97541700D01*
X128951416Y-97508649D01*
X128950683Y-97466879D01*
X128950015Y-97415450D01*
X128949410Y-97353422D01*
X128948865Y-97279854D01*
X128948377Y-97193807D01*
X128947944Y-97094340D01*
X128947563Y-96980514D01*
X128947231Y-96851389D01*
X128946946Y-96706024D01*
X128946704Y-96543480D01*
X128946504Y-96362817D01*
X128946342Y-96163094D01*
X128946216Y-95943372D01*
X128946122Y-95702711D01*
X128946060Y-95440170D01*
X128946025Y-95154810D01*
X128946014Y-94845691D01*
X128946026Y-94511872D01*
X128946058Y-94152414D01*
X128946065Y-94089613D01*
X128946124Y-93709781D01*
X128946210Y-93355939D01*
X128946257Y-93221441D01*
X129252584Y-93221441D01*
X129252584Y-93283737D01*
X129252593Y-93516568D01*
X129252630Y-93724214D01*
X129252706Y-93908222D01*
X129252836Y-94070145D01*
X129253030Y-94211531D01*
X129253303Y-94333932D01*
X129253667Y-94438897D01*
X129254134Y-94527976D01*
X129254718Y-94602720D01*
X129255431Y-94664679D01*
X129256286Y-94715403D01*
X129257295Y-94756443D01*
X129258472Y-94789348D01*
X129259828Y-94815668D01*
X129261378Y-94836955D01*
X129263133Y-94854758D01*
X129265106Y-94870627D01*
X129265649Y-94874579D01*
X129292925Y-95022200D01*
X129331128Y-95153407D01*
X129379996Y-95267485D01*
X129439263Y-95363717D01*
X129452158Y-95380529D01*
X129501650Y-95435980D01*
X129554142Y-95480479D01*
X129612922Y-95516264D01*
X129681275Y-95545572D01*
X129707667Y-95554584D01*
X129718287Y-95555723D01*
X129741475Y-95556660D01*
X129775685Y-95557381D01*
X129819374Y-95557872D01*
X129870998Y-95558119D01*
X129929013Y-95558108D01*
X129991875Y-95557826D01*
X130032223Y-95557512D01*
X130106390Y-95556791D01*
X130167903Y-95556007D01*
X130218215Y-95555027D01*
X130258783Y-95553719D01*
X130291062Y-95551953D01*
X130316508Y-95549597D01*
X130336577Y-95546519D01*
X130352724Y-95542589D01*
X130366404Y-95537674D01*
X130379073Y-95531644D01*
X130390847Y-95525136D01*
X130449705Y-95485785D01*
X130499104Y-95438877D01*
X130543638Y-95379294D01*
X130583369Y-95310576D01*
X130629284Y-95210419D01*
X130665490Y-95100900D01*
X130692826Y-94978329D01*
X130712132Y-94839014D01*
X130723453Y-94694105D01*
X130724630Y-94658868D01*
X130725700Y-94599242D01*
X130726661Y-94517573D01*
X130727514Y-94416209D01*
X130728259Y-94297495D01*
X130728895Y-94163779D01*
X130729424Y-94017407D01*
X130729845Y-93860726D01*
X130730158Y-93696083D01*
X130730362Y-93525825D01*
X130730459Y-93352297D01*
X130730447Y-93177848D01*
X130730327Y-93004823D01*
X130730100Y-92835570D01*
X130729764Y-92672435D01*
X130729320Y-92517765D01*
X130728768Y-92373907D01*
X130728108Y-92243207D01*
X130727340Y-92128012D01*
X130726464Y-92030669D01*
X130725480Y-91953524D01*
X130724387Y-91898925D01*
X130723453Y-91873368D01*
X130710746Y-91715549D01*
X130690774Y-91577841D01*
X130662697Y-91456555D01*
X130625678Y-91348000D01*
X130583369Y-91256897D01*
X130539559Y-91181914D01*
X130495167Y-91124243D01*
X130445695Y-91078942D01*
X130387111Y-91041323D01*
X130373645Y-91034154D01*
X130360789Y-91028218D01*
X130347111Y-91023399D01*
X130331175Y-91019580D01*
X130311548Y-91016647D01*
X130286796Y-91014482D01*
X130255484Y-91012968D01*
X130216179Y-91011990D01*
X130167447Y-91011432D01*
X130107853Y-91011176D01*
X130035964Y-91011107D01*
X130014584Y-91011105D01*
X129937886Y-91011195D01*
X129873853Y-91011530D01*
X129821037Y-91012205D01*
X129777993Y-91013316D01*
X129743273Y-91014961D01*
X129715431Y-91017234D01*
X129693020Y-91020232D01*
X129674595Y-91024052D01*
X129658707Y-91028789D01*
X129643911Y-91034539D01*
X129640639Y-91035958D01*
X129555342Y-91085167D01*
X129479799Y-91153153D01*
X129414274Y-91239455D01*
X129359030Y-91343613D01*
X129314331Y-91465166D01*
X129280439Y-91603652D01*
X129265649Y-91692895D01*
X129263618Y-91708517D01*
X129261808Y-91725675D01*
X129260207Y-91745919D01*
X129258803Y-91770798D01*
X129257581Y-91801864D01*
X129256530Y-91840666D01*
X129255637Y-91888755D01*
X129254889Y-91947680D01*
X129254273Y-92018992D01*
X129253777Y-92104241D01*
X129253387Y-92204978D01*
X129253092Y-92322752D01*
X129252879Y-92459114D01*
X129252734Y-92615613D01*
X129252645Y-92793801D01*
X129252599Y-92995227D01*
X129252584Y-93221441D01*
X128946257Y-93221441D01*
X128946326Y-93027339D01*
X128946474Y-92723235D01*
X128946655Y-92442879D01*
X128946872Y-92185525D01*
X128947126Y-91950424D01*
X128947419Y-91736831D01*
X128947753Y-91543998D01*
X128948131Y-91371178D01*
X128948552Y-91217624D01*
X128949021Y-91082589D01*
X128949538Y-90965325D01*
X128950106Y-90865086D01*
X128950725Y-90781124D01*
X128951399Y-90712693D01*
X128952129Y-90659046D01*
X128952917Y-90619434D01*
X128953765Y-90593112D01*
X128954675Y-90579331D01*
X128954885Y-90577900D01*
X128965678Y-90541512D01*
X128982899Y-90503663D01*
X128990419Y-90491005D01*
X129002645Y-90473123D01*
X129013530Y-90461317D01*
X129026337Y-90454325D01*
X129044329Y-90450888D01*
X129070769Y-90449743D01*
X129097499Y-90449631D01*
X129133434Y-90450208D01*
X129158344Y-90452507D01*
X129175307Y-90457382D01*
X129187401Y-90465686D01*
X129196950Y-90477194D01*
X129220390Y-90515835D01*
X129235551Y-90557054D01*
X129244389Y-90608612D01*
X129248860Y-90678266D01*
X129249056Y-90683885D01*
X129252584Y-90789337D01*
X129295772Y-90725650D01*
X129372034Y-90630031D01*
X129457989Y-90553799D01*
X129553656Y-90496942D01*
X129605361Y-90475694D01*
X129626086Y-90469365D01*
X129650548Y-90464053D01*
X129680290Y-90459622D01*
X129716857Y-90455939D01*
X129761791Y-90452867D01*
X129816636Y-90450272D01*
X129882937Y-90448018D01*
X129938682Y-90446530D01*
X130032830Y-90444827D01*
X130114412Y-90444771D01*
X130184953Y-90446531D01*
X130184953Y-90446531D01*
G37*
X130184953Y-90446531D02*
X130245977Y-90450275D01*
X130299007Y-90456172D01*
X130345568Y-90464392D01*
X130387184Y-90475103D01*
X130425379Y-90488475D01*
X130461207Y-90504444D01*
X130559628Y-90565964D01*
X130650348Y-90649347D01*
X130732819Y-90753409D01*
X130806492Y-90876963D01*
X130870819Y-91018825D01*
X130925251Y-91177809D01*
X130969239Y-91352731D01*
X131002235Y-91542404D01*
X131021218Y-91714213D01*
X131022829Y-91747376D01*
X131024303Y-91805081D01*
X131025639Y-91885135D01*
X131026837Y-91985343D01*
X131027897Y-92103512D01*
X131028819Y-92237449D01*
X131029603Y-92384959D01*
X131030249Y-92543850D01*
X131030758Y-92711927D01*
X131031128Y-92886998D01*
X131031361Y-93066867D01*
X131031456Y-93249343D01*
X131031413Y-93432230D01*
X131031232Y-93613336D01*
X131030913Y-93790467D01*
X131030456Y-93961429D01*
X131029862Y-94124029D01*
X131029130Y-94276073D01*
X131028259Y-94415367D01*
X131027251Y-94539718D01*
X131026105Y-94646932D01*
X131024821Y-94734816D01*
X131023399Y-94801175D01*
X131021840Y-94843817D01*
X131021218Y-94853260D01*
X130997990Y-95054533D01*
X130963303Y-95242061D01*
X130917707Y-95414658D01*
X130861750Y-95571139D01*
X130795980Y-95710319D01*
X130720947Y-95831013D01*
X130637199Y-95932036D01*
X130545284Y-96012202D01*
X130461207Y-96063029D01*
X130424732Y-96079247D01*
X130386288Y-96092614D01*
X130344343Y-96103302D01*
X130297364Y-96111480D01*
X130243819Y-96117322D01*
X130182174Y-96120997D01*
X130110897Y-96122678D01*
X130028456Y-96122535D01*
X129942647Y-96120969D01*
X129864577Y-96118777D01*
X129799211Y-96116215D01*
X129745144Y-96113164D01*
X129700969Y-96109507D01*
X129665280Y-96105126D01*
X129636671Y-96099903D01*
X129613736Y-96093719D01*
X129612257Y-96093231D01*
X129512304Y-96048460D01*
X129421355Y-95984209D01*
X129339852Y-95900830D01*
X129295772Y-95841918D01*
X129252584Y-95778326D01*
X129250763Y-96569515D01*
X129248943Y-97360704D01*
X129929860Y-98651119D01*
X130610778Y-99941535D01*
X130610778Y-99997318D01*
X130609316Y-100044125D01*
X130603694Y-100083517D01*
X130592064Y-100122744D01*
X130572573Y-100169054D01*
X130560294Y-100195072D01*
X130518752Y-100271504D01*
X130480226Y-100322021D01*
X130444764Y-100346583D01*
X130412408Y-100345154D01*
X130396884Y-100334180D01*
X130389127Y-100322192D01*
X130372365Y-100293026D01*
X130347550Y-100248438D01*
X130315639Y-100190188D01*
X130277587Y-100120033D01*
X130234348Y-100039731D01*
X130186878Y-99951041D01*
X130136130Y-99855721D01*
X130101053Y-99789553D01*
X129820633Y-99259693D01*
X129518779Y-99831057D01*
X129456155Y-99949520D01*
X129402686Y-100050433D01*
X129357571Y-100135195D01*
X129320010Y-100205204D01*
X129289203Y-100261860D01*
X129264349Y-100306564D01*
X129244649Y-100340713D01*
X129229302Y-100365707D01*
X129217507Y-100382946D01*
X129208465Y-100393829D01*
X129201376Y-100399756D01*
X129195439Y-100402125D01*
X129192038Y-100402421D01*
X129166242Y-100392724D01*
X129137448Y-100366304D01*
X129135784Y-100364312D01*
X129110446Y-100328275D01*
X129082695Y-100280477D01*
X129055641Y-100227202D01*
X129032392Y-100174736D01*
X129016057Y-100129363D01*
X129012043Y-100114108D01*
X129007864Y-100094693D01*
X129004923Y-100076876D01*
X129003892Y-100059069D01*
X129005443Y-100039686D01*
X129010248Y-100017141D01*
X129018981Y-99989846D01*
X129032312Y-99956215D01*
X129050915Y-99914662D01*
X129075461Y-99863600D01*
X129106623Y-99801441D01*
X129145072Y-99726600D01*
X129191482Y-99637490D01*
X129246524Y-99532524D01*
X129307952Y-99415665D01*
X129605361Y-98850014D01*
X129286005Y-98252612D01*
X129213548Y-98116726D01*
X129150927Y-97998526D01*
X129097757Y-97897260D01*
X129053656Y-97812176D01*
X129018241Y-97742521D01*
X128991128Y-97687544D01*
X128971933Y-97646492D01*
X128960273Y-97618614D01*
X128956158Y-97605508D01*
X128955057Y-97597935D01*
X128954035Y-97585403D01*
X128953089Y-97566971D01*
X128952217Y-97541700D01*
X128951416Y-97508649D01*
X128950683Y-97466879D01*
X128950015Y-97415450D01*
X128949410Y-97353422D01*
X128948865Y-97279854D01*
X128948377Y-97193807D01*
X128947944Y-97094340D01*
X128947563Y-96980514D01*
X128947231Y-96851389D01*
X128946946Y-96706024D01*
X128946704Y-96543480D01*
X128946504Y-96362817D01*
X128946342Y-96163094D01*
X128946216Y-95943372D01*
X128946122Y-95702711D01*
X128946060Y-95440170D01*
X128946025Y-95154810D01*
X128946014Y-94845691D01*
X128946026Y-94511872D01*
X128946058Y-94152414D01*
X128946065Y-94089613D01*
X128946124Y-93709781D01*
X128946210Y-93355939D01*
X128946257Y-93221441D01*
X129252584Y-93221441D01*
X129252584Y-93283737D01*
X129252593Y-93516568D01*
X129252630Y-93724214D01*
X129252706Y-93908222D01*
X129252836Y-94070145D01*
X129253030Y-94211531D01*
X129253303Y-94333932D01*
X129253667Y-94438897D01*
X129254134Y-94527976D01*
X129254718Y-94602720D01*
X129255431Y-94664679D01*
X129256286Y-94715403D01*
X129257295Y-94756443D01*
X129258472Y-94789348D01*
X129259828Y-94815668D01*
X129261378Y-94836955D01*
X129263133Y-94854758D01*
X129265106Y-94870627D01*
X129265649Y-94874579D01*
X129292925Y-95022200D01*
X129331128Y-95153407D01*
X129379996Y-95267485D01*
X129439263Y-95363717D01*
X129452158Y-95380529D01*
X129501650Y-95435980D01*
X129554142Y-95480479D01*
X129612922Y-95516264D01*
X129681275Y-95545572D01*
X129707667Y-95554584D01*
X129718287Y-95555723D01*
X129741475Y-95556660D01*
X129775685Y-95557381D01*
X129819374Y-95557872D01*
X129870998Y-95558119D01*
X129929013Y-95558108D01*
X129991875Y-95557826D01*
X130032223Y-95557512D01*
X130106390Y-95556791D01*
X130167903Y-95556007D01*
X130218215Y-95555027D01*
X130258783Y-95553719D01*
X130291062Y-95551953D01*
X130316508Y-95549597D01*
X130336577Y-95546519D01*
X130352724Y-95542589D01*
X130366404Y-95537674D01*
X130379073Y-95531644D01*
X130390847Y-95525136D01*
X130449705Y-95485785D01*
X130499104Y-95438877D01*
X130543638Y-95379294D01*
X130583369Y-95310576D01*
X130629284Y-95210419D01*
X130665490Y-95100900D01*
X130692826Y-94978329D01*
X130712132Y-94839014D01*
X130723453Y-94694105D01*
X130724630Y-94658868D01*
X130725700Y-94599242D01*
X130726661Y-94517573D01*
X130727514Y-94416209D01*
X130728259Y-94297495D01*
X130728895Y-94163779D01*
X130729424Y-94017407D01*
X130729845Y-93860726D01*
X130730158Y-93696083D01*
X130730362Y-93525825D01*
X130730459Y-93352297D01*
X130730447Y-93177848D01*
X130730327Y-93004823D01*
X130730100Y-92835570D01*
X130729764Y-92672435D01*
X130729320Y-92517765D01*
X130728768Y-92373907D01*
X130728108Y-92243207D01*
X130727340Y-92128012D01*
X130726464Y-92030669D01*
X130725480Y-91953524D01*
X130724387Y-91898925D01*
X130723453Y-91873368D01*
X130710746Y-91715549D01*
X130690774Y-91577841D01*
X130662697Y-91456555D01*
X130625678Y-91348000D01*
X130583369Y-91256897D01*
X130539559Y-91181914D01*
X130495167Y-91124243D01*
X130445695Y-91078942D01*
X130387111Y-91041323D01*
X130373645Y-91034154D01*
X130360789Y-91028218D01*
X130347111Y-91023399D01*
X130331175Y-91019580D01*
X130311548Y-91016647D01*
X130286796Y-91014482D01*
X130255484Y-91012968D01*
X130216179Y-91011990D01*
X130167447Y-91011432D01*
X130107853Y-91011176D01*
X130035964Y-91011107D01*
X130014584Y-91011105D01*
X129937886Y-91011195D01*
X129873853Y-91011530D01*
X129821037Y-91012205D01*
X129777993Y-91013316D01*
X129743273Y-91014961D01*
X129715431Y-91017234D01*
X129693020Y-91020232D01*
X129674595Y-91024052D01*
X129658707Y-91028789D01*
X129643911Y-91034539D01*
X129640639Y-91035958D01*
X129555342Y-91085167D01*
X129479799Y-91153153D01*
X129414274Y-91239455D01*
X129359030Y-91343613D01*
X129314331Y-91465166D01*
X129280439Y-91603652D01*
X129265649Y-91692895D01*
X129263618Y-91708517D01*
X129261808Y-91725675D01*
X129260207Y-91745919D01*
X129258803Y-91770798D01*
X129257581Y-91801864D01*
X129256530Y-91840666D01*
X129255637Y-91888755D01*
X129254889Y-91947680D01*
X129254273Y-92018992D01*
X129253777Y-92104241D01*
X129253387Y-92204978D01*
X129253092Y-92322752D01*
X129252879Y-92459114D01*
X129252734Y-92615613D01*
X129252645Y-92793801D01*
X129252599Y-92995227D01*
X129252584Y-93221441D01*
X128946257Y-93221441D01*
X128946326Y-93027339D01*
X128946474Y-92723235D01*
X128946655Y-92442879D01*
X128946872Y-92185525D01*
X128947126Y-91950424D01*
X128947419Y-91736831D01*
X128947753Y-91543998D01*
X128948131Y-91371178D01*
X128948552Y-91217624D01*
X128949021Y-91082589D01*
X128949538Y-90965325D01*
X128950106Y-90865086D01*
X128950725Y-90781124D01*
X128951399Y-90712693D01*
X128952129Y-90659046D01*
X128952917Y-90619434D01*
X128953765Y-90593112D01*
X128954675Y-90579331D01*
X128954885Y-90577900D01*
X128965678Y-90541512D01*
X128982899Y-90503663D01*
X128990419Y-90491005D01*
X129002645Y-90473123D01*
X129013530Y-90461317D01*
X129026337Y-90454325D01*
X129044329Y-90450888D01*
X129070769Y-90449743D01*
X129097499Y-90449631D01*
X129133434Y-90450208D01*
X129158344Y-90452507D01*
X129175307Y-90457382D01*
X129187401Y-90465686D01*
X129196950Y-90477194D01*
X129220390Y-90515835D01*
X129235551Y-90557054D01*
X129244389Y-90608612D01*
X129248860Y-90678266D01*
X129249056Y-90683885D01*
X129252584Y-90789337D01*
X129295772Y-90725650D01*
X129372034Y-90630031D01*
X129457989Y-90553799D01*
X129553656Y-90496942D01*
X129605361Y-90475694D01*
X129626086Y-90469365D01*
X129650548Y-90464053D01*
X129680290Y-90459622D01*
X129716857Y-90455939D01*
X129761791Y-90452867D01*
X129816636Y-90450272D01*
X129882937Y-90448018D01*
X129938682Y-90446530D01*
X130032830Y-90444827D01*
X130114412Y-90444771D01*
X130184953Y-90446531D01*
G36*
X146104778Y-101044105D02*
X126095223Y-101044105D01*
X126095223Y-87769263D01*
X126102278Y-87769263D01*
X126102278Y-101030737D01*
X146097723Y-101030737D01*
X146097723Y-87769263D01*
X126102278Y-87769263D01*
X126095223Y-87769263D01*
X126095223Y-87755895D01*
X146104778Y-87755895D01*
X146104778Y-101044105D01*
X146104778Y-101044105D01*
G37*
X146104778Y-101044105D02*
X126095223Y-101044105D01*
X126095223Y-87769263D01*
X126102278Y-87769263D01*
X126102278Y-101030737D01*
X146097723Y-101030737D01*
X146097723Y-87769263D01*
X126102278Y-87769263D01*
X126095223Y-87769263D01*
X126095223Y-87755895D01*
X146104778Y-87755895D01*
X146104778Y-101044105D01*
D11*
G04 #@! TO.C,C4*
X154183333Y-58407142D02*
X154135714Y-58454761D01*
X153992857Y-58502380D01*
X153897619Y-58502380D01*
X153754761Y-58454761D01*
X153659523Y-58359523D01*
X153611904Y-58264285D01*
X153564285Y-58073809D01*
X153564285Y-57930952D01*
X153611904Y-57740476D01*
X153659523Y-57645238D01*
X153754761Y-57550000D01*
X153897619Y-57502380D01*
X153992857Y-57502380D01*
X154135714Y-57550000D01*
X154183333Y-57597619D01*
X155040476Y-57835714D02*
X155040476Y-58502380D01*
X154802380Y-57454761D02*
X154564285Y-58169047D01*
X155183333Y-58169047D01*
G04 #@! TO.C,U4*
X150588095Y-44952380D02*
X150588095Y-45761904D01*
X150635714Y-45857142D01*
X150683333Y-45904761D01*
X150778571Y-45952380D01*
X150969047Y-45952380D01*
X151064285Y-45904761D01*
X151111904Y-45857142D01*
X151159523Y-45761904D01*
X151159523Y-44952380D01*
X152064285Y-45285714D02*
X152064285Y-45952380D01*
X151826190Y-44904761D02*
X151588095Y-45619047D01*
X152207142Y-45619047D01*
G04 #@! TO.C,C8*
X113183333Y-91357142D02*
X113135714Y-91404761D01*
X112992857Y-91452380D01*
X112897619Y-91452380D01*
X112754761Y-91404761D01*
X112659523Y-91309523D01*
X112611904Y-91214285D01*
X112564285Y-91023809D01*
X112564285Y-90880952D01*
X112611904Y-90690476D01*
X112659523Y-90595238D01*
X112754761Y-90500000D01*
X112897619Y-90452380D01*
X112992857Y-90452380D01*
X113135714Y-90500000D01*
X113183333Y-90547619D01*
X113754761Y-90880952D02*
X113659523Y-90833333D01*
X113611904Y-90785714D01*
X113564285Y-90690476D01*
X113564285Y-90642857D01*
X113611904Y-90547619D01*
X113659523Y-90500000D01*
X113754761Y-90452380D01*
X113945238Y-90452380D01*
X114040476Y-90500000D01*
X114088095Y-90547619D01*
X114135714Y-90642857D01*
X114135714Y-90690476D01*
X114088095Y-90785714D01*
X114040476Y-90833333D01*
X113945238Y-90880952D01*
X113754761Y-90880952D01*
X113659523Y-90928571D01*
X113611904Y-90976190D01*
X113564285Y-91071428D01*
X113564285Y-91261904D01*
X113611904Y-91357142D01*
X113659523Y-91404761D01*
X113754761Y-91452380D01*
X113945238Y-91452380D01*
X114040476Y-91404761D01*
X114088095Y-91357142D01*
X114135714Y-91261904D01*
X114135714Y-91071428D01*
X114088095Y-90976190D01*
X114040476Y-90928571D01*
X113945238Y-90880952D01*
G04 #@! TO.C,C7*
X97933333Y-91357142D02*
X97885714Y-91404761D01*
X97742857Y-91452380D01*
X97647619Y-91452380D01*
X97504761Y-91404761D01*
X97409523Y-91309523D01*
X97361904Y-91214285D01*
X97314285Y-91023809D01*
X97314285Y-90880952D01*
X97361904Y-90690476D01*
X97409523Y-90595238D01*
X97504761Y-90500000D01*
X97647619Y-90452380D01*
X97742857Y-90452380D01*
X97885714Y-90500000D01*
X97933333Y-90547619D01*
X98266666Y-90452380D02*
X98933333Y-90452380D01*
X98504761Y-91452380D01*
G04 #@! TO.C,C10*
X112957142Y-81357142D02*
X112909523Y-81404761D01*
X112766666Y-81452380D01*
X112671428Y-81452380D01*
X112528571Y-81404761D01*
X112433333Y-81309523D01*
X112385714Y-81214285D01*
X112338095Y-81023809D01*
X112338095Y-80880952D01*
X112385714Y-80690476D01*
X112433333Y-80595238D01*
X112528571Y-80500000D01*
X112671428Y-80452380D01*
X112766666Y-80452380D01*
X112909523Y-80500000D01*
X112957142Y-80547619D01*
X113909523Y-81452380D02*
X113338095Y-81452380D01*
X113623809Y-81452380D02*
X113623809Y-80452380D01*
X113528571Y-80595238D01*
X113433333Y-80690476D01*
X113338095Y-80738095D01*
X114528571Y-80452380D02*
X114623809Y-80452380D01*
X114719047Y-80500000D01*
X114766666Y-80547619D01*
X114814285Y-80642857D01*
X114861904Y-80833333D01*
X114861904Y-81071428D01*
X114814285Y-81261904D01*
X114766666Y-81357142D01*
X114719047Y-81404761D01*
X114623809Y-81452380D01*
X114528571Y-81452380D01*
X114433333Y-81404761D01*
X114385714Y-81357142D01*
X114338095Y-81261904D01*
X114290476Y-81071428D01*
X114290476Y-80833333D01*
X114338095Y-80642857D01*
X114385714Y-80547619D01*
X114433333Y-80500000D01*
X114528571Y-80452380D01*
G04 #@! TO.C,C9*
X97933333Y-81357142D02*
X97885714Y-81404761D01*
X97742857Y-81452380D01*
X97647619Y-81452380D01*
X97504761Y-81404761D01*
X97409523Y-81309523D01*
X97361904Y-81214285D01*
X97314285Y-81023809D01*
X97314285Y-80880952D01*
X97361904Y-80690476D01*
X97409523Y-80595238D01*
X97504761Y-80500000D01*
X97647619Y-80452380D01*
X97742857Y-80452380D01*
X97885714Y-80500000D01*
X97933333Y-80547619D01*
X98409523Y-81452380D02*
X98600000Y-81452380D01*
X98695238Y-81404761D01*
X98742857Y-81357142D01*
X98838095Y-81214285D01*
X98885714Y-81023809D01*
X98885714Y-80642857D01*
X98838095Y-80547619D01*
X98790476Y-80500000D01*
X98695238Y-80452380D01*
X98504761Y-80452380D01*
X98409523Y-80500000D01*
X98361904Y-80547619D01*
X98314285Y-80642857D01*
X98314285Y-80880952D01*
X98361904Y-80976190D01*
X98409523Y-81023809D01*
X98504761Y-81071428D01*
X98695238Y-81071428D01*
X98790476Y-81023809D01*
X98838095Y-80976190D01*
X98885714Y-80880952D01*
G04 #@! TO.C,J7*
X90266666Y-98202380D02*
X90266666Y-98916666D01*
X90219047Y-99059523D01*
X90123809Y-99154761D01*
X89980952Y-99202380D01*
X89885714Y-99202380D01*
X90647619Y-98202380D02*
X91314285Y-98202380D01*
X90885714Y-99202380D01*
G04 #@! TO.C,J6*
X90266666Y-110952380D02*
X90266666Y-111666666D01*
X90219047Y-111809523D01*
X90123809Y-111904761D01*
X89980952Y-111952380D01*
X89885714Y-111952380D01*
X91171428Y-110952380D02*
X90980952Y-110952380D01*
X90885714Y-111000000D01*
X90838095Y-111047619D01*
X90742857Y-111190476D01*
X90695238Y-111380952D01*
X90695238Y-111761904D01*
X90742857Y-111857142D01*
X90790476Y-111904761D01*
X90885714Y-111952380D01*
X91076190Y-111952380D01*
X91171428Y-111904761D01*
X91219047Y-111857142D01*
X91266666Y-111761904D01*
X91266666Y-111523809D01*
X91219047Y-111428571D01*
X91171428Y-111380952D01*
X91076190Y-111333333D01*
X90885714Y-111333333D01*
X90790476Y-111380952D01*
X90742857Y-111428571D01*
X90695238Y-111523809D01*
G04 #@! TO.C,J9*
X90266666Y-130952380D02*
X90266666Y-131666666D01*
X90219047Y-131809523D01*
X90123809Y-131904761D01*
X89980952Y-131952380D01*
X89885714Y-131952380D01*
X90790476Y-131952380D02*
X90980952Y-131952380D01*
X91076190Y-131904761D01*
X91123809Y-131857142D01*
X91219047Y-131714285D01*
X91266666Y-131523809D01*
X91266666Y-131142857D01*
X91219047Y-131047619D01*
X91171428Y-131000000D01*
X91076190Y-130952380D01*
X90885714Y-130952380D01*
X90790476Y-131000000D01*
X90742857Y-131047619D01*
X90695238Y-131142857D01*
X90695238Y-131380952D01*
X90742857Y-131476190D01*
X90790476Y-131523809D01*
X90885714Y-131571428D01*
X91076190Y-131571428D01*
X91171428Y-131523809D01*
X91219047Y-131476190D01*
X91266666Y-131380952D01*
G04 #@! TO.C,J8*
X142996666Y-116162380D02*
X142996666Y-116876666D01*
X142949047Y-117019523D01*
X142853809Y-117114761D01*
X142710952Y-117162380D01*
X142615714Y-117162380D01*
X143615714Y-116590952D02*
X143520476Y-116543333D01*
X143472857Y-116495714D01*
X143425238Y-116400476D01*
X143425238Y-116352857D01*
X143472857Y-116257619D01*
X143520476Y-116210000D01*
X143615714Y-116162380D01*
X143806190Y-116162380D01*
X143901428Y-116210000D01*
X143949047Y-116257619D01*
X143996666Y-116352857D01*
X143996666Y-116400476D01*
X143949047Y-116495714D01*
X143901428Y-116543333D01*
X143806190Y-116590952D01*
X143615714Y-116590952D01*
X143520476Y-116638571D01*
X143472857Y-116686190D01*
X143425238Y-116781428D01*
X143425238Y-116971904D01*
X143472857Y-117067142D01*
X143520476Y-117114761D01*
X143615714Y-117162380D01*
X143806190Y-117162380D01*
X143901428Y-117114761D01*
X143949047Y-117067142D01*
X143996666Y-116971904D01*
X143996666Y-116781428D01*
X143949047Y-116686190D01*
X143901428Y-116638571D01*
X143806190Y-116590952D01*
G04 #@! TO.C,R5*
X97933333Y-86452380D02*
X97600000Y-85976190D01*
X97361904Y-86452380D02*
X97361904Y-85452380D01*
X97742857Y-85452380D01*
X97838095Y-85500000D01*
X97885714Y-85547619D01*
X97933333Y-85642857D01*
X97933333Y-85785714D01*
X97885714Y-85880952D01*
X97838095Y-85928571D01*
X97742857Y-85976190D01*
X97361904Y-85976190D01*
X98838095Y-85452380D02*
X98361904Y-85452380D01*
X98314285Y-85928571D01*
X98361904Y-85880952D01*
X98457142Y-85833333D01*
X98695238Y-85833333D01*
X98790476Y-85880952D01*
X98838095Y-85928571D01*
X98885714Y-86023809D01*
X98885714Y-86261904D01*
X98838095Y-86357142D01*
X98790476Y-86404761D01*
X98695238Y-86452380D01*
X98457142Y-86452380D01*
X98361904Y-86404761D01*
X98314285Y-86357142D01*
G04 #@! TO.C,R6*
X97933333Y-76702380D02*
X97600000Y-76226190D01*
X97361904Y-76702380D02*
X97361904Y-75702380D01*
X97742857Y-75702380D01*
X97838095Y-75750000D01*
X97885714Y-75797619D01*
X97933333Y-75892857D01*
X97933333Y-76035714D01*
X97885714Y-76130952D01*
X97838095Y-76178571D01*
X97742857Y-76226190D01*
X97361904Y-76226190D01*
X98790476Y-75702380D02*
X98600000Y-75702380D01*
X98504761Y-75750000D01*
X98457142Y-75797619D01*
X98361904Y-75940476D01*
X98314285Y-76130952D01*
X98314285Y-76511904D01*
X98361904Y-76607142D01*
X98409523Y-76654761D01*
X98504761Y-76702380D01*
X98695238Y-76702380D01*
X98790476Y-76654761D01*
X98838095Y-76607142D01*
X98885714Y-76511904D01*
X98885714Y-76273809D01*
X98838095Y-76178571D01*
X98790476Y-76130952D01*
X98695238Y-76083333D01*
X98504761Y-76083333D01*
X98409523Y-76130952D01*
X98361904Y-76178571D01*
X98314285Y-76273809D01*
G04 #@! TO.C,R7*
X164377333Y-115235380D02*
X164044000Y-114759190D01*
X163805904Y-115235380D02*
X163805904Y-114235380D01*
X164186857Y-114235380D01*
X164282095Y-114283000D01*
X164329714Y-114330619D01*
X164377333Y-114425857D01*
X164377333Y-114568714D01*
X164329714Y-114663952D01*
X164282095Y-114711571D01*
X164186857Y-114759190D01*
X163805904Y-114759190D01*
X164710666Y-114235380D02*
X165377333Y-114235380D01*
X164948761Y-115235380D01*
G04 #@! TO.C,R8*
X97933333Y-97952380D02*
X97600000Y-97476190D01*
X97361904Y-97952380D02*
X97361904Y-96952380D01*
X97742857Y-96952380D01*
X97838095Y-97000000D01*
X97885714Y-97047619D01*
X97933333Y-97142857D01*
X97933333Y-97285714D01*
X97885714Y-97380952D01*
X97838095Y-97428571D01*
X97742857Y-97476190D01*
X97361904Y-97476190D01*
X98504761Y-97380952D02*
X98409523Y-97333333D01*
X98361904Y-97285714D01*
X98314285Y-97190476D01*
X98314285Y-97142857D01*
X98361904Y-97047619D01*
X98409523Y-97000000D01*
X98504761Y-96952380D01*
X98695238Y-96952380D01*
X98790476Y-97000000D01*
X98838095Y-97047619D01*
X98885714Y-97142857D01*
X98885714Y-97190476D01*
X98838095Y-97285714D01*
X98790476Y-97333333D01*
X98695238Y-97380952D01*
X98504761Y-97380952D01*
X98409523Y-97428571D01*
X98361904Y-97476190D01*
X98314285Y-97571428D01*
X98314285Y-97761904D01*
X98361904Y-97857142D01*
X98409523Y-97904761D01*
X98504761Y-97952380D01*
X98695238Y-97952380D01*
X98790476Y-97904761D01*
X98838095Y-97857142D01*
X98885714Y-97761904D01*
X98885714Y-97571428D01*
X98838095Y-97476190D01*
X98790476Y-97428571D01*
X98695238Y-97380952D01*
G04 #@! TO.C,U1*
X147438095Y-88252380D02*
X147438095Y-89061904D01*
X147485714Y-89157142D01*
X147533333Y-89204761D01*
X147628571Y-89252380D01*
X147819047Y-89252380D01*
X147914285Y-89204761D01*
X147961904Y-89157142D01*
X148009523Y-89061904D01*
X148009523Y-88252380D01*
X149009523Y-89252380D02*
X148438095Y-89252380D01*
X148723809Y-89252380D02*
X148723809Y-88252380D01*
X148628571Y-88395238D01*
X148533333Y-88490476D01*
X148438095Y-88538095D01*
G04 #@! TO.C,SW2*
X164516666Y-130654761D02*
X164659523Y-130702380D01*
X164897619Y-130702380D01*
X164992857Y-130654761D01*
X165040476Y-130607142D01*
X165088095Y-130511904D01*
X165088095Y-130416666D01*
X165040476Y-130321428D01*
X164992857Y-130273809D01*
X164897619Y-130226190D01*
X164707142Y-130178571D01*
X164611904Y-130130952D01*
X164564285Y-130083333D01*
X164516666Y-129988095D01*
X164516666Y-129892857D01*
X164564285Y-129797619D01*
X164611904Y-129750000D01*
X164707142Y-129702380D01*
X164945238Y-129702380D01*
X165088095Y-129750000D01*
X165421428Y-129702380D02*
X165659523Y-130702380D01*
X165850000Y-129988095D01*
X166040476Y-130702380D01*
X166278571Y-129702380D01*
X166611904Y-129797619D02*
X166659523Y-129750000D01*
X166754761Y-129702380D01*
X166992857Y-129702380D01*
X167088095Y-129750000D01*
X167135714Y-129797619D01*
X167183333Y-129892857D01*
X167183333Y-129988095D01*
X167135714Y-130130952D01*
X166564285Y-130702380D01*
X167183333Y-130702380D01*
G04 #@! TO.C,SW1*
X147016666Y-130904761D02*
X147159523Y-130952380D01*
X147397619Y-130952380D01*
X147492857Y-130904761D01*
X147540476Y-130857142D01*
X147588095Y-130761904D01*
X147588095Y-130666666D01*
X147540476Y-130571428D01*
X147492857Y-130523809D01*
X147397619Y-130476190D01*
X147207142Y-130428571D01*
X147111904Y-130380952D01*
X147064285Y-130333333D01*
X147016666Y-130238095D01*
X147016666Y-130142857D01*
X147064285Y-130047619D01*
X147111904Y-130000000D01*
X147207142Y-129952380D01*
X147445238Y-129952380D01*
X147588095Y-130000000D01*
X147921428Y-129952380D02*
X148159523Y-130952380D01*
X148350000Y-130238095D01*
X148540476Y-130952380D01*
X148778571Y-129952380D01*
X149683333Y-130952380D02*
X149111904Y-130952380D01*
X149397619Y-130952380D02*
X149397619Y-129952380D01*
X149302380Y-130095238D01*
X149207142Y-130190476D01*
X149111904Y-130238095D01*
G04 #@! TO.C,C2*
X114183333Y-66957142D02*
X114135714Y-67004761D01*
X113992857Y-67052380D01*
X113897619Y-67052380D01*
X113754761Y-67004761D01*
X113659523Y-66909523D01*
X113611904Y-66814285D01*
X113564285Y-66623809D01*
X113564285Y-66480952D01*
X113611904Y-66290476D01*
X113659523Y-66195238D01*
X113754761Y-66100000D01*
X113897619Y-66052380D01*
X113992857Y-66052380D01*
X114135714Y-66100000D01*
X114183333Y-66147619D01*
X114564285Y-66147619D02*
X114611904Y-66100000D01*
X114707142Y-66052380D01*
X114945238Y-66052380D01*
X115040476Y-66100000D01*
X115088095Y-66147619D01*
X115135714Y-66242857D01*
X115135714Y-66338095D01*
X115088095Y-66480952D01*
X114516666Y-67052380D01*
X115135714Y-67052380D01*
G04 #@! TO.C,C3*
X106683333Y-54457142D02*
X106635714Y-54504761D01*
X106492857Y-54552380D01*
X106397619Y-54552380D01*
X106254761Y-54504761D01*
X106159523Y-54409523D01*
X106111904Y-54314285D01*
X106064285Y-54123809D01*
X106064285Y-53980952D01*
X106111904Y-53790476D01*
X106159523Y-53695238D01*
X106254761Y-53600000D01*
X106397619Y-53552380D01*
X106492857Y-53552380D01*
X106635714Y-53600000D01*
X106683333Y-53647619D01*
X107016666Y-53552380D02*
X107635714Y-53552380D01*
X107302380Y-53933333D01*
X107445238Y-53933333D01*
X107540476Y-53980952D01*
X107588095Y-54028571D01*
X107635714Y-54123809D01*
X107635714Y-54361904D01*
X107588095Y-54457142D01*
X107540476Y-54504761D01*
X107445238Y-54552380D01*
X107159523Y-54552380D01*
X107064285Y-54504761D01*
X107016666Y-54457142D01*
G04 #@! TO.C,C5*
X161683333Y-54307142D02*
X161635714Y-54354761D01*
X161492857Y-54402380D01*
X161397619Y-54402380D01*
X161254761Y-54354761D01*
X161159523Y-54259523D01*
X161111904Y-54164285D01*
X161064285Y-53973809D01*
X161064285Y-53830952D01*
X161111904Y-53640476D01*
X161159523Y-53545238D01*
X161254761Y-53450000D01*
X161397619Y-53402380D01*
X161492857Y-53402380D01*
X161635714Y-53450000D01*
X161683333Y-53497619D01*
X162588095Y-53402380D02*
X162111904Y-53402380D01*
X162064285Y-53878571D01*
X162111904Y-53830952D01*
X162207142Y-53783333D01*
X162445238Y-53783333D01*
X162540476Y-53830952D01*
X162588095Y-53878571D01*
X162635714Y-53973809D01*
X162635714Y-54211904D01*
X162588095Y-54307142D01*
X162540476Y-54354761D01*
X162445238Y-54402380D01*
X162207142Y-54402380D01*
X162111904Y-54354761D01*
X162064285Y-54307142D01*
G04 #@! TO.C,C6*
X165433333Y-59607142D02*
X165385714Y-59654761D01*
X165242857Y-59702380D01*
X165147619Y-59702380D01*
X165004761Y-59654761D01*
X164909523Y-59559523D01*
X164861904Y-59464285D01*
X164814285Y-59273809D01*
X164814285Y-59130952D01*
X164861904Y-58940476D01*
X164909523Y-58845238D01*
X165004761Y-58750000D01*
X165147619Y-58702380D01*
X165242857Y-58702380D01*
X165385714Y-58750000D01*
X165433333Y-58797619D01*
X166290476Y-58702380D02*
X166100000Y-58702380D01*
X166004761Y-58750000D01*
X165957142Y-58797619D01*
X165861904Y-58940476D01*
X165814285Y-59130952D01*
X165814285Y-59511904D01*
X165861904Y-59607142D01*
X165909523Y-59654761D01*
X166004761Y-59702380D01*
X166195238Y-59702380D01*
X166290476Y-59654761D01*
X166338095Y-59607142D01*
X166385714Y-59511904D01*
X166385714Y-59273809D01*
X166338095Y-59178571D01*
X166290476Y-59130952D01*
X166195238Y-59083333D01*
X166004761Y-59083333D01*
X165909523Y-59130952D01*
X165861904Y-59178571D01*
X165814285Y-59273809D01*
G04 #@! TO.C,C1*
X174183333Y-115907142D02*
X174135714Y-115954761D01*
X173992857Y-116002380D01*
X173897619Y-116002380D01*
X173754761Y-115954761D01*
X173659523Y-115859523D01*
X173611904Y-115764285D01*
X173564285Y-115573809D01*
X173564285Y-115430952D01*
X173611904Y-115240476D01*
X173659523Y-115145238D01*
X173754761Y-115050000D01*
X173897619Y-115002380D01*
X173992857Y-115002380D01*
X174135714Y-115050000D01*
X174183333Y-115097619D01*
X175135714Y-116002380D02*
X174564285Y-116002380D01*
X174850000Y-116002380D02*
X174850000Y-115002380D01*
X174754761Y-115145238D01*
X174659523Y-115240476D01*
X174564285Y-115288095D01*
G04 #@! TO.C,J1*
X170766666Y-46952380D02*
X170766666Y-47666666D01*
X170719047Y-47809523D01*
X170623809Y-47904761D01*
X170480952Y-47952380D01*
X170385714Y-47952380D01*
X171766666Y-47952380D02*
X171195238Y-47952380D01*
X171480952Y-47952380D02*
X171480952Y-46952380D01*
X171385714Y-47095238D01*
X171290476Y-47190476D01*
X171195238Y-47238095D01*
G04 #@! TO.C,J3*
X90266666Y-70702380D02*
X90266666Y-71416666D01*
X90219047Y-71559523D01*
X90123809Y-71654761D01*
X89980952Y-71702380D01*
X89885714Y-71702380D01*
X90647619Y-70702380D02*
X91266666Y-70702380D01*
X90933333Y-71083333D01*
X91076190Y-71083333D01*
X91171428Y-71130952D01*
X91219047Y-71178571D01*
X91266666Y-71273809D01*
X91266666Y-71511904D01*
X91219047Y-71607142D01*
X91171428Y-71654761D01*
X91076190Y-71702380D01*
X90790476Y-71702380D01*
X90695238Y-71654761D01*
X90647619Y-71607142D01*
G04 #@! TO.C,J4*
X92762847Y-59992608D02*
X93172545Y-60577717D01*
X93215477Y-60722052D01*
X93192089Y-60854693D01*
X93102380Y-60975639D01*
X93024366Y-61030266D01*
X93695177Y-59746709D02*
X94077561Y-60292810D01*
X93281636Y-59571217D02*
X93496297Y-60292891D01*
X94003391Y-59937820D01*
G04 #@! TO.C,J5*
X90266666Y-83452380D02*
X90266666Y-84166666D01*
X90219047Y-84309523D01*
X90123809Y-84404761D01*
X89980952Y-84452380D01*
X89885714Y-84452380D01*
X91219047Y-83452380D02*
X90742857Y-83452380D01*
X90695238Y-83928571D01*
X90742857Y-83880952D01*
X90838095Y-83833333D01*
X91076190Y-83833333D01*
X91171428Y-83880952D01*
X91219047Y-83928571D01*
X91266666Y-84023809D01*
X91266666Y-84261904D01*
X91219047Y-84357142D01*
X91171428Y-84404761D01*
X91076190Y-84452380D01*
X90838095Y-84452380D01*
X90742857Y-84404761D01*
X90695238Y-84357142D01*
G04 #@! TO.C,M1*
X104790476Y-46202380D02*
X104790476Y-45202380D01*
X105123809Y-45916666D01*
X105457142Y-45202380D01*
X105457142Y-46202380D01*
X106457142Y-46202380D02*
X105885714Y-46202380D01*
X106171428Y-46202380D02*
X106171428Y-45202380D01*
X106076190Y-45345238D01*
X105980952Y-45440476D01*
X105885714Y-45488095D01*
G04 #@! TO.C,M2*
X120040476Y-46202380D02*
X120040476Y-45202380D01*
X120373809Y-45916666D01*
X120707142Y-45202380D01*
X120707142Y-46202380D01*
X121135714Y-45297619D02*
X121183333Y-45250000D01*
X121278571Y-45202380D01*
X121516666Y-45202380D01*
X121611904Y-45250000D01*
X121659523Y-45297619D01*
X121707142Y-45392857D01*
X121707142Y-45488095D01*
X121659523Y-45630952D01*
X121088095Y-46202380D01*
X121707142Y-46202380D01*
G04 #@! TO.C,M3*
X136290476Y-46202380D02*
X136290476Y-45202380D01*
X136623809Y-45916666D01*
X136957142Y-45202380D01*
X136957142Y-46202380D01*
X137338095Y-45202380D02*
X137957142Y-45202380D01*
X137623809Y-45583333D01*
X137766666Y-45583333D01*
X137861904Y-45630952D01*
X137909523Y-45678571D01*
X137957142Y-45773809D01*
X137957142Y-46011904D01*
X137909523Y-46107142D01*
X137861904Y-46154761D01*
X137766666Y-46202380D01*
X137480952Y-46202380D01*
X137385714Y-46154761D01*
X137338095Y-46107142D01*
G04 #@! TO.C,RV1*
X177754761Y-64452380D02*
X177421428Y-63976190D01*
X177183333Y-64452380D02*
X177183333Y-63452380D01*
X177564285Y-63452380D01*
X177659523Y-63500000D01*
X177707142Y-63547619D01*
X177754761Y-63642857D01*
X177754761Y-63785714D01*
X177707142Y-63880952D01*
X177659523Y-63928571D01*
X177564285Y-63976190D01*
X177183333Y-63976190D01*
X178040476Y-63452380D02*
X178373809Y-64452380D01*
X178707142Y-63452380D01*
X179564285Y-64452380D02*
X178992857Y-64452380D01*
X179278571Y-64452380D02*
X179278571Y-63452380D01*
X179183333Y-63595238D01*
X179088095Y-63690476D01*
X178992857Y-63738095D01*
G04 #@! TO.C,R1*
X147243333Y-118032380D02*
X146910000Y-117556190D01*
X146671904Y-118032380D02*
X146671904Y-117032380D01*
X147052857Y-117032380D01*
X147148095Y-117080000D01*
X147195714Y-117127619D01*
X147243333Y-117222857D01*
X147243333Y-117365714D01*
X147195714Y-117460952D01*
X147148095Y-117508571D01*
X147052857Y-117556190D01*
X146671904Y-117556190D01*
X148195714Y-118032380D02*
X147624285Y-118032380D01*
X147910000Y-118032380D02*
X147910000Y-117032380D01*
X147814761Y-117175238D01*
X147719523Y-117270476D01*
X147624285Y-117318095D01*
G04 #@! TO.C,R2*
X164243333Y-118032380D02*
X163910000Y-117556190D01*
X163671904Y-118032380D02*
X163671904Y-117032380D01*
X164052857Y-117032380D01*
X164148095Y-117080000D01*
X164195714Y-117127619D01*
X164243333Y-117222857D01*
X164243333Y-117365714D01*
X164195714Y-117460952D01*
X164148095Y-117508571D01*
X164052857Y-117556190D01*
X163671904Y-117556190D01*
X164624285Y-117127619D02*
X164671904Y-117080000D01*
X164767142Y-117032380D01*
X165005238Y-117032380D01*
X165100476Y-117080000D01*
X165148095Y-117127619D01*
X165195714Y-117222857D01*
X165195714Y-117318095D01*
X165148095Y-117460952D01*
X164576666Y-118032380D01*
X165195714Y-118032380D01*
G04 #@! TO.C,R3*
X97933333Y-71452380D02*
X97600000Y-70976190D01*
X97361904Y-71452380D02*
X97361904Y-70452380D01*
X97742857Y-70452380D01*
X97838095Y-70500000D01*
X97885714Y-70547619D01*
X97933333Y-70642857D01*
X97933333Y-70785714D01*
X97885714Y-70880952D01*
X97838095Y-70928571D01*
X97742857Y-70976190D01*
X97361904Y-70976190D01*
X98266666Y-70452380D02*
X98885714Y-70452380D01*
X98552380Y-70833333D01*
X98695238Y-70833333D01*
X98790476Y-70880952D01*
X98838095Y-70928571D01*
X98885714Y-71023809D01*
X98885714Y-71261904D01*
X98838095Y-71357142D01*
X98790476Y-71404761D01*
X98695238Y-71452380D01*
X98409523Y-71452380D01*
X98314285Y-71404761D01*
X98266666Y-71357142D01*
G04 #@! TO.C,R4*
X98183333Y-66452380D02*
X97850000Y-65976190D01*
X97611904Y-66452380D02*
X97611904Y-65452380D01*
X97992857Y-65452380D01*
X98088095Y-65500000D01*
X98135714Y-65547619D01*
X98183333Y-65642857D01*
X98183333Y-65785714D01*
X98135714Y-65880952D01*
X98088095Y-65928571D01*
X97992857Y-65976190D01*
X97611904Y-65976190D01*
X99040476Y-65785714D02*
X99040476Y-66452380D01*
X98802380Y-65404761D02*
X98564285Y-66119047D01*
X99183333Y-66119047D01*
G04 #@! TO.C,U3*
X99438095Y-100252380D02*
X99438095Y-101061904D01*
X99485714Y-101157142D01*
X99533333Y-101204761D01*
X99628571Y-101252380D01*
X99819047Y-101252380D01*
X99914285Y-101204761D01*
X99961904Y-101157142D01*
X100009523Y-101061904D01*
X100009523Y-100252380D01*
X100390476Y-100252380D02*
X101009523Y-100252380D01*
X100676190Y-100633333D01*
X100819047Y-100633333D01*
X100914285Y-100680952D01*
X100961904Y-100728571D01*
X101009523Y-100823809D01*
X101009523Y-101061904D01*
X100961904Y-101157142D01*
X100914285Y-101204761D01*
X100819047Y-101252380D01*
X100533333Y-101252380D01*
X100438095Y-101204761D01*
X100390476Y-101157142D01*
X122632380Y-108363333D02*
X123632380Y-108030000D01*
X122632380Y-107696666D01*
X123537142Y-106791904D02*
X123584761Y-106839523D01*
X123632380Y-106982380D01*
X123632380Y-107077619D01*
X123584761Y-107220476D01*
X123489523Y-107315714D01*
X123394285Y-107363333D01*
X123203809Y-107410952D01*
X123060952Y-107410952D01*
X122870476Y-107363333D01*
X122775238Y-107315714D01*
X122680000Y-107220476D01*
X122632380Y-107077619D01*
X122632380Y-106982380D01*
X122680000Y-106839523D01*
X122727619Y-106791904D01*
X123537142Y-105791904D02*
X123584761Y-105839523D01*
X123632380Y-105982380D01*
X123632380Y-106077619D01*
X123584761Y-106220476D01*
X123489523Y-106315714D01*
X123394285Y-106363333D01*
X123203809Y-106410952D01*
X123060952Y-106410952D01*
X122870476Y-106363333D01*
X122775238Y-106315714D01*
X122680000Y-106220476D01*
X122632380Y-106077619D01*
X122632380Y-105982380D01*
X122680000Y-105839523D01*
X122727619Y-105791904D01*
X120092380Y-108625238D02*
X121092380Y-107958571D01*
X120092380Y-107958571D02*
X121092380Y-108625238D01*
X120092380Y-107387142D02*
X120092380Y-107196666D01*
X120140000Y-107101428D01*
X120235238Y-107006190D01*
X120425714Y-106958571D01*
X120759047Y-106958571D01*
X120949523Y-107006190D01*
X121044761Y-107101428D01*
X121092380Y-107196666D01*
X121092380Y-107387142D01*
X121044761Y-107482380D01*
X120949523Y-107577619D01*
X120759047Y-107625238D01*
X120425714Y-107625238D01*
X120235238Y-107577619D01*
X120140000Y-107482380D01*
X120092380Y-107387142D01*
X120425714Y-106101428D02*
X121092380Y-106101428D01*
X120425714Y-106530000D02*
X120949523Y-106530000D01*
X121044761Y-106482380D01*
X121092380Y-106387142D01*
X121092380Y-106244285D01*
X121044761Y-106149047D01*
X120997142Y-106101428D01*
X120425714Y-105768095D02*
X120425714Y-105387142D01*
X120092380Y-105625238D02*
X120949523Y-105625238D01*
X121044761Y-105577619D01*
X121092380Y-105482380D01*
X121092380Y-105387142D01*
X118076190Y-108291904D02*
X118552380Y-108291904D01*
X117552380Y-108625238D02*
X118076190Y-108291904D01*
X117552380Y-107958571D01*
X117552380Y-107434761D02*
X117552380Y-107244285D01*
X117600000Y-107149047D01*
X117695238Y-107053809D01*
X117885714Y-107006190D01*
X118219047Y-107006190D01*
X118409523Y-107053809D01*
X118504761Y-107149047D01*
X118552380Y-107244285D01*
X118552380Y-107434761D01*
X118504761Y-107530000D01*
X118409523Y-107625238D01*
X118219047Y-107672857D01*
X117885714Y-107672857D01*
X117695238Y-107625238D01*
X117600000Y-107530000D01*
X117552380Y-107434761D01*
X117885714Y-106149047D02*
X118552380Y-106149047D01*
X117885714Y-106577619D02*
X118409523Y-106577619D01*
X118504761Y-106530000D01*
X118552380Y-106434761D01*
X118552380Y-106291904D01*
X118504761Y-106196666D01*
X118457142Y-106149047D01*
X117885714Y-105815714D02*
X117885714Y-105434761D01*
X117552380Y-105672857D02*
X118409523Y-105672857D01*
X118504761Y-105625238D01*
X118552380Y-105530000D01*
X118552380Y-105434761D01*
X115964761Y-108006190D02*
X116012380Y-107863333D01*
X116012380Y-107625238D01*
X115964761Y-107530000D01*
X115917142Y-107482380D01*
X115821904Y-107434761D01*
X115726666Y-107434761D01*
X115631428Y-107482380D01*
X115583809Y-107530000D01*
X115536190Y-107625238D01*
X115488571Y-107815714D01*
X115440952Y-107910952D01*
X115393333Y-107958571D01*
X115298095Y-108006190D01*
X115202857Y-108006190D01*
X115107619Y-107958571D01*
X115060000Y-107910952D01*
X115012380Y-107815714D01*
X115012380Y-107577619D01*
X115060000Y-107434761D01*
X115964761Y-106625238D02*
X116012380Y-106720476D01*
X116012380Y-106910952D01*
X115964761Y-107006190D01*
X115869523Y-107053809D01*
X115488571Y-107053809D01*
X115393333Y-107006190D01*
X115345714Y-106910952D01*
X115345714Y-106720476D01*
X115393333Y-106625238D01*
X115488571Y-106577619D01*
X115583809Y-106577619D01*
X115679047Y-107053809D01*
X116012380Y-106006190D02*
X115964761Y-106101428D01*
X115869523Y-106149047D01*
X115012380Y-106149047D01*
X112520000Y-107791904D02*
X112472380Y-107887142D01*
X112472380Y-108030000D01*
X112520000Y-108172857D01*
X112615238Y-108268095D01*
X112710476Y-108315714D01*
X112900952Y-108363333D01*
X113043809Y-108363333D01*
X113234285Y-108315714D01*
X113329523Y-108268095D01*
X113424761Y-108172857D01*
X113472380Y-108030000D01*
X113472380Y-107934761D01*
X113424761Y-107791904D01*
X113377142Y-107744285D01*
X113043809Y-107744285D01*
X113043809Y-107934761D01*
X113472380Y-107315714D02*
X112472380Y-107315714D01*
X113472380Y-106744285D01*
X112472380Y-106744285D01*
X113472380Y-106268095D02*
X112472380Y-106268095D01*
X112472380Y-106030000D01*
X112520000Y-105887142D01*
X112615238Y-105791904D01*
X112710476Y-105744285D01*
X112900952Y-105696666D01*
X113043809Y-105696666D01*
X113234285Y-105744285D01*
X113329523Y-105791904D01*
X113424761Y-105887142D01*
X113472380Y-106030000D01*
X113472380Y-106268095D01*
G04 #@! TO.C,U2*
X122588095Y-56202380D02*
X122588095Y-57011904D01*
X122635714Y-57107142D01*
X122683333Y-57154761D01*
X122778571Y-57202380D01*
X122969047Y-57202380D01*
X123064285Y-57154761D01*
X123111904Y-57107142D01*
X123159523Y-57011904D01*
X123159523Y-56202380D01*
X123588095Y-56297619D02*
X123635714Y-56250000D01*
X123730952Y-56202380D01*
X123969047Y-56202380D01*
X124064285Y-56250000D01*
X124111904Y-56297619D01*
X124159523Y-56392857D01*
X124159523Y-56488095D01*
X124111904Y-56630952D01*
X123540476Y-57202380D01*
X124159523Y-57202380D01*
X123622380Y-73587857D02*
X124622380Y-73254523D01*
X123622380Y-72921190D01*
X124622380Y-72587857D02*
X123622380Y-72587857D01*
X124336666Y-72254523D01*
X123622380Y-71921190D01*
X124622380Y-71921190D01*
X124622380Y-71302142D02*
X124574761Y-71397380D01*
X124527142Y-71445000D01*
X124431904Y-71492619D01*
X124146190Y-71492619D01*
X124050952Y-71445000D01*
X124003333Y-71397380D01*
X123955714Y-71302142D01*
X123955714Y-71159285D01*
X124003333Y-71064047D01*
X124050952Y-71016428D01*
X124146190Y-70968809D01*
X124431904Y-70968809D01*
X124527142Y-71016428D01*
X124574761Y-71064047D01*
X124622380Y-71159285D01*
X124622380Y-71302142D01*
X123955714Y-70683095D02*
X123955714Y-70302142D01*
X123622380Y-70540238D02*
X124479523Y-70540238D01*
X124574761Y-70492619D01*
X124622380Y-70397380D01*
X124622380Y-70302142D01*
X126162380Y-73135476D02*
X127162380Y-72802142D01*
X126162380Y-72468809D01*
X127114761Y-71706904D02*
X127162380Y-71802142D01*
X127162380Y-71992619D01*
X127114761Y-72087857D01*
X127067142Y-72135476D01*
X126971904Y-72183095D01*
X126686190Y-72183095D01*
X126590952Y-72135476D01*
X126543333Y-72087857D01*
X126495714Y-71992619D01*
X126495714Y-71802142D01*
X126543333Y-71706904D01*
X127114761Y-70849761D02*
X127162380Y-70945000D01*
X127162380Y-71135476D01*
X127114761Y-71230714D01*
X127067142Y-71278333D01*
X126971904Y-71325952D01*
X126686190Y-71325952D01*
X126590952Y-71278333D01*
X126543333Y-71230714D01*
X126495714Y-71135476D01*
X126495714Y-70945000D01*
X126543333Y-70849761D01*
X128750000Y-72706904D02*
X128702380Y-72802142D01*
X128702380Y-72945000D01*
X128750000Y-73087857D01*
X128845238Y-73183095D01*
X128940476Y-73230714D01*
X129130952Y-73278333D01*
X129273809Y-73278333D01*
X129464285Y-73230714D01*
X129559523Y-73183095D01*
X129654761Y-73087857D01*
X129702380Y-72945000D01*
X129702380Y-72849761D01*
X129654761Y-72706904D01*
X129607142Y-72659285D01*
X129273809Y-72659285D01*
X129273809Y-72849761D01*
X129702380Y-72230714D02*
X128702380Y-72230714D01*
X129702380Y-71659285D01*
X128702380Y-71659285D01*
X129702380Y-71183095D02*
X128702380Y-71183095D01*
X128702380Y-70945000D01*
X128750000Y-70802142D01*
X128845238Y-70706904D01*
X128940476Y-70659285D01*
X129130952Y-70611666D01*
X129273809Y-70611666D01*
X129464285Y-70659285D01*
X129559523Y-70706904D01*
X129654761Y-70802142D01*
X129702380Y-70945000D01*
X129702380Y-71183095D01*
X132242380Y-73849761D02*
X131242380Y-73849761D01*
X131242380Y-73468809D01*
X131290000Y-73373571D01*
X131337619Y-73325952D01*
X131432857Y-73278333D01*
X131575714Y-73278333D01*
X131670952Y-73325952D01*
X131718571Y-73373571D01*
X131766190Y-73468809D01*
X131766190Y-73849761D01*
X131242380Y-72945000D02*
X132242380Y-72706904D01*
X131528095Y-72516428D01*
X132242380Y-72325952D01*
X131242380Y-72087857D01*
X132242380Y-71706904D02*
X131242380Y-71706904D01*
X131956666Y-71373571D01*
X131242380Y-71040238D01*
X132242380Y-71040238D01*
X131718571Y-70230714D02*
X131766190Y-70087857D01*
X131813809Y-70040238D01*
X131909047Y-69992619D01*
X132051904Y-69992619D01*
X132147142Y-70040238D01*
X132194761Y-70087857D01*
X132242380Y-70183095D01*
X132242380Y-70564047D01*
X131242380Y-70564047D01*
X131242380Y-70230714D01*
X131290000Y-70135476D01*
X131337619Y-70087857D01*
X131432857Y-70040238D01*
X131528095Y-70040238D01*
X131623333Y-70087857D01*
X131670952Y-70135476D01*
X131718571Y-70230714D01*
X131718571Y-70564047D01*
X134258571Y-73040238D02*
X134306190Y-72897380D01*
X134353809Y-72849761D01*
X134449047Y-72802142D01*
X134591904Y-72802142D01*
X134687142Y-72849761D01*
X134734761Y-72897380D01*
X134782380Y-72992619D01*
X134782380Y-73373571D01*
X133782380Y-73373571D01*
X133782380Y-73040238D01*
X133830000Y-72945000D01*
X133877619Y-72897380D01*
X133972857Y-72849761D01*
X134068095Y-72849761D01*
X134163333Y-72897380D01*
X134210952Y-72945000D01*
X134258571Y-73040238D01*
X134258571Y-73373571D01*
X134782380Y-72373571D02*
X133782380Y-72373571D01*
X134115714Y-71897380D02*
X134782380Y-71897380D01*
X134210952Y-71897380D02*
X134163333Y-71849761D01*
X134115714Y-71754523D01*
X134115714Y-71611666D01*
X134163333Y-71516428D01*
X134258571Y-71468809D01*
X134782380Y-71468809D01*
X133877619Y-71040238D02*
X133830000Y-70992619D01*
X133782380Y-70897380D01*
X133782380Y-70659285D01*
X133830000Y-70564047D01*
X133877619Y-70516428D01*
X133972857Y-70468809D01*
X134068095Y-70468809D01*
X134210952Y-70516428D01*
X134782380Y-71087857D01*
X134782380Y-70468809D01*
X136798571Y-73040238D02*
X136846190Y-72897380D01*
X136893809Y-72849761D01*
X136989047Y-72802142D01*
X137131904Y-72802142D01*
X137227142Y-72849761D01*
X137274761Y-72897380D01*
X137322380Y-72992619D01*
X137322380Y-73373571D01*
X136322380Y-73373571D01*
X136322380Y-73040238D01*
X136370000Y-72945000D01*
X136417619Y-72897380D01*
X136512857Y-72849761D01*
X136608095Y-72849761D01*
X136703333Y-72897380D01*
X136750952Y-72945000D01*
X136798571Y-73040238D01*
X136798571Y-73373571D01*
X137322380Y-72373571D02*
X136322380Y-72373571D01*
X136655714Y-71897380D02*
X137322380Y-71897380D01*
X136750952Y-71897380D02*
X136703333Y-71849761D01*
X136655714Y-71754523D01*
X136655714Y-71611666D01*
X136703333Y-71516428D01*
X136798571Y-71468809D01*
X137322380Y-71468809D01*
X137322380Y-70468809D02*
X137322380Y-71040238D01*
X137322380Y-70754523D02*
X136322380Y-70754523D01*
X136465238Y-70849761D01*
X136560476Y-70945000D01*
X136608095Y-71040238D01*
X139814761Y-73540238D02*
X139862380Y-73397380D01*
X139862380Y-73159285D01*
X139814761Y-73064047D01*
X139767142Y-73016428D01*
X139671904Y-72968809D01*
X139576666Y-72968809D01*
X139481428Y-73016428D01*
X139433809Y-73064047D01*
X139386190Y-73159285D01*
X139338571Y-73349761D01*
X139290952Y-73445000D01*
X139243333Y-73492619D01*
X139148095Y-73540238D01*
X139052857Y-73540238D01*
X138957619Y-73492619D01*
X138910000Y-73445000D01*
X138862380Y-73349761D01*
X138862380Y-73111666D01*
X138910000Y-72968809D01*
X138862380Y-72683095D02*
X138862380Y-72111666D01*
X139862380Y-72397380D02*
X138862380Y-72397380D01*
X139338571Y-71445000D02*
X139386190Y-71302142D01*
X139433809Y-71254523D01*
X139529047Y-71206904D01*
X139671904Y-71206904D01*
X139767142Y-71254523D01*
X139814761Y-71302142D01*
X139862380Y-71397380D01*
X139862380Y-71778333D01*
X138862380Y-71778333D01*
X138862380Y-71445000D01*
X138910000Y-71349761D01*
X138957619Y-71302142D01*
X139052857Y-71254523D01*
X139148095Y-71254523D01*
X139243333Y-71302142D01*
X139290952Y-71349761D01*
X139338571Y-71445000D01*
X139338571Y-71778333D01*
X139386190Y-70587857D02*
X139862380Y-70587857D01*
X138862380Y-70921190D02*
X139386190Y-70587857D01*
X138862380Y-70254523D01*
X142116666Y-73349761D02*
X142116666Y-72873571D01*
X142402380Y-73445000D02*
X141402380Y-73111666D01*
X142402380Y-72778333D01*
X142402380Y-72445000D02*
X141402380Y-72445000D01*
X141735714Y-71968809D02*
X142402380Y-71968809D01*
X141830952Y-71968809D02*
X141783333Y-71921190D01*
X141735714Y-71825952D01*
X141735714Y-71683095D01*
X141783333Y-71587857D01*
X141878571Y-71540238D01*
X142402380Y-71540238D01*
X142402380Y-70540238D02*
X142402380Y-71111666D01*
X142402380Y-70825952D02*
X141402380Y-70825952D01*
X141545238Y-70921190D01*
X141640476Y-71016428D01*
X141688095Y-71111666D01*
X144656666Y-73349761D02*
X144656666Y-72873571D01*
X144942380Y-73445000D02*
X143942380Y-73111666D01*
X144942380Y-72778333D01*
X144942380Y-72445000D02*
X143942380Y-72445000D01*
X144275714Y-71968809D02*
X144942380Y-71968809D01*
X144370952Y-71968809D02*
X144323333Y-71921190D01*
X144275714Y-71825952D01*
X144275714Y-71683095D01*
X144323333Y-71587857D01*
X144418571Y-71540238D01*
X144942380Y-71540238D01*
X144037619Y-71111666D02*
X143990000Y-71064047D01*
X143942380Y-70968809D01*
X143942380Y-70730714D01*
X143990000Y-70635476D01*
X144037619Y-70587857D01*
X144132857Y-70540238D01*
X144228095Y-70540238D01*
X144370952Y-70587857D01*
X144942380Y-71159285D01*
X144942380Y-70540238D01*
X147482380Y-73778333D02*
X146482380Y-73778333D01*
X146482380Y-73397380D01*
X146530000Y-73302142D01*
X146577619Y-73254523D01*
X146672857Y-73206904D01*
X146815714Y-73206904D01*
X146910952Y-73254523D01*
X146958571Y-73302142D01*
X147006190Y-73397380D01*
X147006190Y-73778333D01*
X146482380Y-72873571D02*
X147482380Y-72635476D01*
X146768095Y-72445000D01*
X147482380Y-72254523D01*
X146482380Y-72016428D01*
X147482380Y-71635476D02*
X146482380Y-71635476D01*
X147196666Y-71302142D01*
X146482380Y-70968809D01*
X147482380Y-70968809D01*
X147196666Y-70540238D02*
X147196666Y-70064047D01*
X147482380Y-70635476D02*
X146482380Y-70302142D01*
X147482380Y-69968809D01*
X142402380Y-65412142D02*
X141402380Y-65412142D01*
X142116666Y-65078809D01*
X141402380Y-64745476D01*
X142402380Y-64745476D01*
X142402380Y-64126428D02*
X142354761Y-64221666D01*
X142307142Y-64269285D01*
X142211904Y-64316904D01*
X141926190Y-64316904D01*
X141830952Y-64269285D01*
X141783333Y-64221666D01*
X141735714Y-64126428D01*
X141735714Y-63983571D01*
X141783333Y-63888333D01*
X141830952Y-63840714D01*
X141926190Y-63793095D01*
X142211904Y-63793095D01*
X142307142Y-63840714D01*
X142354761Y-63888333D01*
X142402380Y-63983571D01*
X142402380Y-64126428D01*
X141735714Y-63507380D02*
X141735714Y-63126428D01*
X141402380Y-63364523D02*
X142259523Y-63364523D01*
X142354761Y-63316904D01*
X142402380Y-63221666D01*
X142402380Y-63126428D01*
X142497619Y-63031190D02*
X142497619Y-62269285D01*
X142116666Y-62078809D02*
X142116666Y-61602619D01*
X142402380Y-62174047D02*
X141402380Y-61840714D01*
X142402380Y-61507380D01*
X142402380Y-60650238D02*
X142402380Y-61221666D01*
X142402380Y-60935952D02*
X141402380Y-60935952D01*
X141545238Y-61031190D01*
X141640476Y-61126428D01*
X141688095Y-61221666D01*
X139862380Y-65412142D02*
X138862380Y-65412142D01*
X139576666Y-65078809D01*
X138862380Y-64745476D01*
X139862380Y-64745476D01*
X139862380Y-64126428D02*
X139814761Y-64221666D01*
X139767142Y-64269285D01*
X139671904Y-64316904D01*
X139386190Y-64316904D01*
X139290952Y-64269285D01*
X139243333Y-64221666D01*
X139195714Y-64126428D01*
X139195714Y-63983571D01*
X139243333Y-63888333D01*
X139290952Y-63840714D01*
X139386190Y-63793095D01*
X139671904Y-63793095D01*
X139767142Y-63840714D01*
X139814761Y-63888333D01*
X139862380Y-63983571D01*
X139862380Y-64126428D01*
X139195714Y-63507380D02*
X139195714Y-63126428D01*
X138862380Y-63364523D02*
X139719523Y-63364523D01*
X139814761Y-63316904D01*
X139862380Y-63221666D01*
X139862380Y-63126428D01*
X139957619Y-63031190D02*
X139957619Y-62269285D01*
X139576666Y-62078809D02*
X139576666Y-61602619D01*
X139862380Y-62174047D02*
X138862380Y-61840714D01*
X139862380Y-61507380D01*
X138957619Y-61221666D02*
X138910000Y-61174047D01*
X138862380Y-61078809D01*
X138862380Y-60840714D01*
X138910000Y-60745476D01*
X138957619Y-60697857D01*
X139052857Y-60650238D01*
X139148095Y-60650238D01*
X139290952Y-60697857D01*
X139862380Y-61269285D01*
X139862380Y-60650238D01*
X136370000Y-62546904D02*
X136322380Y-62642142D01*
X136322380Y-62785000D01*
X136370000Y-62927857D01*
X136465238Y-63023095D01*
X136560476Y-63070714D01*
X136750952Y-63118333D01*
X136893809Y-63118333D01*
X137084285Y-63070714D01*
X137179523Y-63023095D01*
X137274761Y-62927857D01*
X137322380Y-62785000D01*
X137322380Y-62689761D01*
X137274761Y-62546904D01*
X137227142Y-62499285D01*
X136893809Y-62499285D01*
X136893809Y-62689761D01*
X137322380Y-62070714D02*
X136322380Y-62070714D01*
X137322380Y-61499285D01*
X136322380Y-61499285D01*
X137322380Y-61023095D02*
X136322380Y-61023095D01*
X136322380Y-60785000D01*
X136370000Y-60642142D01*
X136465238Y-60546904D01*
X136560476Y-60499285D01*
X136750952Y-60451666D01*
X136893809Y-60451666D01*
X137084285Y-60499285D01*
X137179523Y-60546904D01*
X137274761Y-60642142D01*
X137322380Y-60785000D01*
X137322380Y-61023095D01*
X133830000Y-62546904D02*
X133782380Y-62642142D01*
X133782380Y-62785000D01*
X133830000Y-62927857D01*
X133925238Y-63023095D01*
X134020476Y-63070714D01*
X134210952Y-63118333D01*
X134353809Y-63118333D01*
X134544285Y-63070714D01*
X134639523Y-63023095D01*
X134734761Y-62927857D01*
X134782380Y-62785000D01*
X134782380Y-62689761D01*
X134734761Y-62546904D01*
X134687142Y-62499285D01*
X134353809Y-62499285D01*
X134353809Y-62689761D01*
X134782380Y-62070714D02*
X133782380Y-62070714D01*
X134782380Y-61499285D01*
X133782380Y-61499285D01*
X134782380Y-61023095D02*
X133782380Y-61023095D01*
X133782380Y-60785000D01*
X133830000Y-60642142D01*
X133925238Y-60546904D01*
X134020476Y-60499285D01*
X134210952Y-60451666D01*
X134353809Y-60451666D01*
X134544285Y-60499285D01*
X134639523Y-60546904D01*
X134734761Y-60642142D01*
X134782380Y-60785000D01*
X134782380Y-61023095D01*
X132242380Y-65483571D02*
X131242380Y-65483571D01*
X131956666Y-65150238D01*
X131242380Y-64816904D01*
X132242380Y-64816904D01*
X132242380Y-64197857D02*
X132194761Y-64293095D01*
X132147142Y-64340714D01*
X132051904Y-64388333D01*
X131766190Y-64388333D01*
X131670952Y-64340714D01*
X131623333Y-64293095D01*
X131575714Y-64197857D01*
X131575714Y-64055000D01*
X131623333Y-63959761D01*
X131670952Y-63912142D01*
X131766190Y-63864523D01*
X132051904Y-63864523D01*
X132147142Y-63912142D01*
X132194761Y-63959761D01*
X132242380Y-64055000D01*
X132242380Y-64197857D01*
X131575714Y-63578809D02*
X131575714Y-63197857D01*
X131242380Y-63435952D02*
X132099523Y-63435952D01*
X132194761Y-63388333D01*
X132242380Y-63293095D01*
X132242380Y-63197857D01*
X132337619Y-63102619D02*
X132337619Y-62340714D01*
X131718571Y-61769285D02*
X131766190Y-61626428D01*
X131813809Y-61578809D01*
X131909047Y-61531190D01*
X132051904Y-61531190D01*
X132147142Y-61578809D01*
X132194761Y-61626428D01*
X132242380Y-61721666D01*
X132242380Y-62102619D01*
X131242380Y-62102619D01*
X131242380Y-61769285D01*
X131290000Y-61674047D01*
X131337619Y-61626428D01*
X131432857Y-61578809D01*
X131528095Y-61578809D01*
X131623333Y-61626428D01*
X131670952Y-61674047D01*
X131718571Y-61769285D01*
X131718571Y-62102619D01*
X131337619Y-61150238D02*
X131290000Y-61102619D01*
X131242380Y-61007380D01*
X131242380Y-60769285D01*
X131290000Y-60674047D01*
X131337619Y-60626428D01*
X131432857Y-60578809D01*
X131528095Y-60578809D01*
X131670952Y-60626428D01*
X132242380Y-61197857D01*
X132242380Y-60578809D01*
X129702380Y-65483571D02*
X128702380Y-65483571D01*
X129416666Y-65150238D01*
X128702380Y-64816904D01*
X129702380Y-64816904D01*
X129702380Y-64197857D02*
X129654761Y-64293095D01*
X129607142Y-64340714D01*
X129511904Y-64388333D01*
X129226190Y-64388333D01*
X129130952Y-64340714D01*
X129083333Y-64293095D01*
X129035714Y-64197857D01*
X129035714Y-64055000D01*
X129083333Y-63959761D01*
X129130952Y-63912142D01*
X129226190Y-63864523D01*
X129511904Y-63864523D01*
X129607142Y-63912142D01*
X129654761Y-63959761D01*
X129702380Y-64055000D01*
X129702380Y-64197857D01*
X129035714Y-63578809D02*
X129035714Y-63197857D01*
X128702380Y-63435952D02*
X129559523Y-63435952D01*
X129654761Y-63388333D01*
X129702380Y-63293095D01*
X129702380Y-63197857D01*
X129797619Y-63102619D02*
X129797619Y-62340714D01*
X129178571Y-61769285D02*
X129226190Y-61626428D01*
X129273809Y-61578809D01*
X129369047Y-61531190D01*
X129511904Y-61531190D01*
X129607142Y-61578809D01*
X129654761Y-61626428D01*
X129702380Y-61721666D01*
X129702380Y-62102619D01*
X128702380Y-62102619D01*
X128702380Y-61769285D01*
X128750000Y-61674047D01*
X128797619Y-61626428D01*
X128892857Y-61578809D01*
X128988095Y-61578809D01*
X129083333Y-61626428D01*
X129130952Y-61674047D01*
X129178571Y-61769285D01*
X129178571Y-62102619D01*
X129702380Y-60578809D02*
X129702380Y-61150238D01*
X129702380Y-60864523D02*
X128702380Y-60864523D01*
X128845238Y-60959761D01*
X128940476Y-61055000D01*
X128988095Y-61150238D01*
G04 #@! TO.C,*
G04 #@! TD*
M02*
