M48
;DRILL file {KiCad (5.0.2)-1} date 02-Jul-21 12:36:49 PM
;FORMAT={-:-/ absolute / inch / decimal}
FMAT,2
INCH,TZ
T1C0.0157
T2C0.0197
T3C0.0276
T4C0.0315
T5C0.0320
T6C0.0354
T7C0.0394
T8C0.0433
T9C0.0630
T10C0.1260
T11C0.0787
%
G90
G05
T1
X3.7146Y-3.7795
X3.8031Y-4.065
X3.813Y-3.5335
X3.8228Y-5.1673
X4.0098Y-2.3425
X4.4134Y-3.4843
X4.4921Y-3.5236
X4.502Y-5.5118
X4.5118Y-4.7638
X4.5807Y-4.6457
X4.6201Y-3.7992
X4.6496Y-2.1161
X4.7087Y-3.6319
X4.7283Y-2.9232
X4.9154Y-3.6122
X4.9449Y-3.1201
X4.9744Y-2.5984
X5.0728Y-3.3071
X5.0827Y-3.2382
X5.2106Y-2.0571
X5.2697Y-3.3957
X5.3386Y-3.3268
X5.3484Y-2.1358
X5.5945Y-3.1693
X5.6043Y-3.2382
X5.8406Y-3.2382
X5.8406Y-5.1969
X5.9291Y-3.1693
X6.0472Y-4.8228
X6.7559Y-5.2657
X6.8642Y-3.2677
X6.8642Y-4.5866
X6.9921Y-3.2087
X7.0118Y-4.6161
T2
X3.4724Y-5.4528
X3.5001Y-5.3859
X3.5001Y-5.5196
X3.5669Y-5.3583
X3.5669Y-5.5472
X3.6337Y-5.3859
X3.6337Y-5.5196
X3.6614Y-5.4528
X7.0157Y-5.4528
X7.0434Y-5.3859
X7.0434Y-5.5196
X7.1102Y-5.3583
X7.1102Y-5.5472
X7.177Y-5.3859
X7.177Y-5.5196
X7.2047Y-5.4528
X3.4724Y-1.9094
X3.5001Y-1.8426
X3.5001Y-1.9763
X3.5669Y-1.815
X3.5669Y-2.0039
X3.6337Y-1.8426
X3.6337Y-1.9763
X3.6614Y-1.9094
T3
X3.9559Y-3.8386
X4.2559Y-3.8386
X3.9559Y-2.9921
X4.2559Y-2.9921
X3.9606Y-3.3858
X4.2606Y-3.3858
X6.3281Y-4.4434
X6.6281Y-4.4434
X6.3228Y-4.7047
X6.6228Y-4.7047
X5.6535Y-4.7047
X5.9535Y-4.7047
X3.9559Y-2.5984
X4.2559Y-2.5984
X3.9559Y-2.7953
X4.2559Y-2.7953
T4
X6.5197Y-2.4016
X6.5197Y-2.5
X6.3228Y-2.2047
X6.4213Y-2.2047
X3.9606Y-3.189
X4.0591Y-3.189
X6.815Y-4.4685
X6.9134Y-4.4685
X3.9606Y-3.5827
X4.0591Y-3.5827
X6.0276Y-2.2047
X6.126Y-2.2047
X4.4528Y-2.7953
X4.5512Y-2.7953
X4.2559Y-3.189
X4.3543Y-3.189
X4.2559Y-3.5827
X4.3543Y-3.5827
X4.1575Y-2.3031
X4.2559Y-2.3031
T5
X6.4213Y-4.9606
X6.4213Y-5.4528
X6.6181Y-4.9606
X6.6181Y-5.4528
X5.7323Y-4.9606
X5.7323Y-5.4528
X5.9291Y-4.9606
X5.9291Y-5.4528
T6
X5.5929Y-4.439
X5.6929Y-4.439
T7
X4.0606Y-1.9094
X4.1606Y-1.9094
X4.2606Y-1.9094
X3.5669Y-4.0717
X3.5669Y-4.1717
X3.5669Y-4.2717
X6.7362Y-2.7224
X6.7362Y-2.8209
X6.7362Y-2.9193
X4.6512Y-1.9094
X4.7512Y-1.9094
X4.8512Y-1.9094
X3.5669Y-3.578
X3.5669Y-3.678
X3.5669Y-3.778
X3.5669Y-2.9937
X3.5669Y-3.0937
X3.5669Y-3.1937
X3.7638Y-2.3031
X3.8457Y-2.2458
X5.237Y-1.9094
X5.337Y-1.9094
X5.437Y-1.9094
X5.537Y-1.9094
X3.5669Y-2.6
X3.5669Y-2.7
X3.5669Y-4.5591
X3.5669Y-4.6591
X3.5669Y-4.7591
X3.5669Y-4.8591
X3.5669Y-4.9591
X3.5669Y-5.0591
T8
X6.1244Y-1.9094
X6.2244Y-1.9094
X6.3244Y-1.9094
X4.4496Y-4.1138
X4.5496Y-4.1138
X4.6496Y-4.1138
X4.7496Y-4.1138
X4.8496Y-4.1138
X4.8886Y-2.9325
X4.9886Y-2.9325
X5.0886Y-2.3325
X5.0886Y-2.9325
X5.1886Y-2.3325
X5.1886Y-2.9325
X5.2886Y-2.3325
X5.2886Y-2.9325
X5.3886Y-2.3325
X5.3886Y-2.9325
X5.4886Y-2.3325
X5.4886Y-2.9325
X5.5886Y-2.3325
X5.5886Y-2.9325
X5.6886Y-2.9325
X5.7886Y-2.9325
X5.8197Y-3.578
X5.8197Y-3.678
X5.8197Y-3.778
X5.8197Y-3.878
X5.8197Y-3.978
X5.8197Y-4.078
X5.8197Y-4.178
X5.9197Y-3.578
X5.9197Y-3.878
X5.9197Y-3.978
X5.9197Y-4.178
X6.0197Y-3.578
X6.0197Y-3.878
X6.0197Y-3.978
X6.0197Y-4.178
X6.1197Y-3.578
X6.1197Y-3.878
X6.1197Y-3.978
X6.1197Y-4.178
X6.2197Y-3.578
X6.2197Y-3.878
X6.2197Y-3.978
X6.2197Y-4.178
X6.3197Y-3.578
X6.3197Y-3.878
X6.3197Y-3.978
X6.3197Y-4.178
X6.4197Y-3.578
X6.4197Y-3.878
X6.4197Y-3.978
X6.4197Y-4.178
X6.5197Y-3.578
X6.5197Y-3.878
X6.5197Y-3.978
X6.5197Y-4.178
X6.6197Y-3.578
X6.6197Y-4.078
X6.6197Y-4.178
X6.7197Y-3.578
X6.7197Y-4.078
X6.7197Y-4.178
X6.8197Y-3.578
X6.8197Y-4.078
X6.8197Y-4.178
X6.8697Y-3.8689
X6.9197Y-3.578
X6.9197Y-4.178
X7.0197Y-3.578
X7.0197Y-4.078
X7.0197Y-4.178
X7.0697Y-3.8689
X7.0697Y-3.9528
X7.1197Y-3.578
X7.1197Y-4.178
T9
X6.8268Y-2.1949
X7.0118Y-2.0768
X7.0118Y-2.313
T10
X3.5669Y-5.4528
X7.1102Y-5.4528
X3.5669Y-1.9094
T11
X7.0118Y-2.6476
X7.0118Y-2.9941
T0
M30
