G04 #@! TF.GenerationSoftware,KiCad,Pcbnew,(5.0.2)-1*
G04 #@! TF.CreationDate,2021-07-02T12:35:22-04:00*
G04 #@! TF.ProjectId,PhylumScope,5068796c-756d-4536-936f-70652e6b6963,rev?*
G04 #@! TF.SameCoordinates,Original*
G04 #@! TF.FileFunction,Soldermask,Bot*
G04 #@! TF.FilePolarity,Negative*
%FSLAX46Y46*%
G04 Gerber Fmt 4.6, Leading zero omitted, Abs format (unit mm)*
G04 Created by KiCad (PCBNEW (5.0.2)-1) date 02-Jul-21 12:35:22 PM*
%MOMM*%
%LPD*%
G01*
G04 APERTURE LIST*
%ADD10C,0.100000*%
G04 APERTURE END LIST*
D10*
G36*
X181234239Y-135311467D02*
X181548282Y-135373934D01*
X182139926Y-135619001D01*
X182429523Y-135812504D01*
X182672395Y-135974786D01*
X183125214Y-136427605D01*
X183125216Y-136427608D01*
X183480999Y-136960074D01*
X183699634Y-137487906D01*
X183726066Y-137551719D01*
X183851000Y-138179803D01*
X183851000Y-138820197D01*
X183788533Y-139134239D01*
X183726066Y-139448282D01*
X183480999Y-140039926D01*
X183233265Y-140410685D01*
X183125214Y-140572395D01*
X182672395Y-141025214D01*
X182672392Y-141025216D01*
X182139926Y-141380999D01*
X181548282Y-141626066D01*
X181234239Y-141688533D01*
X180920197Y-141751000D01*
X180279803Y-141751000D01*
X179965761Y-141688533D01*
X179651718Y-141626066D01*
X179060074Y-141380999D01*
X178527608Y-141025216D01*
X178527605Y-141025214D01*
X178074786Y-140572395D01*
X177966735Y-140410685D01*
X177719001Y-140039926D01*
X177473934Y-139448282D01*
X177411467Y-139134239D01*
X177349000Y-138820197D01*
X177349000Y-138179803D01*
X177473934Y-137551719D01*
X177500366Y-137487906D01*
X177719001Y-136960074D01*
X178074784Y-136427608D01*
X178074786Y-136427605D01*
X178527605Y-135974786D01*
X178770477Y-135812504D01*
X179060074Y-135619001D01*
X179651718Y-135373934D01*
X179965761Y-135311467D01*
X180279803Y-135249000D01*
X180920197Y-135249000D01*
X181234239Y-135311467D01*
X181234239Y-135311467D01*
G37*
G36*
X91234239Y-135311467D02*
X91548282Y-135373934D01*
X92139926Y-135619001D01*
X92429523Y-135812504D01*
X92672395Y-135974786D01*
X93125214Y-136427605D01*
X93125216Y-136427608D01*
X93480999Y-136960074D01*
X93699634Y-137487906D01*
X93726066Y-137551719D01*
X93851000Y-138179803D01*
X93851000Y-138820197D01*
X93788533Y-139134239D01*
X93726066Y-139448282D01*
X93480999Y-140039926D01*
X93233265Y-140410685D01*
X93125214Y-140572395D01*
X92672395Y-141025214D01*
X92672392Y-141025216D01*
X92139926Y-141380999D01*
X91548282Y-141626066D01*
X91234239Y-141688533D01*
X90920197Y-141751000D01*
X90279803Y-141751000D01*
X89965761Y-141688533D01*
X89651718Y-141626066D01*
X89060074Y-141380999D01*
X88527608Y-141025216D01*
X88527605Y-141025214D01*
X88074786Y-140572395D01*
X87966735Y-140410685D01*
X87719001Y-140039926D01*
X87473934Y-139448282D01*
X87411467Y-139134239D01*
X87349000Y-138820197D01*
X87349000Y-138179803D01*
X87473934Y-137551719D01*
X87500366Y-137487906D01*
X87719001Y-136960074D01*
X88074784Y-136427608D01*
X88074786Y-136427605D01*
X88527605Y-135974786D01*
X88770477Y-135812504D01*
X89060074Y-135619001D01*
X89651718Y-135373934D01*
X89965761Y-135311467D01*
X90279803Y-135249000D01*
X90920197Y-135249000D01*
X91234239Y-135311467D01*
X91234239Y-135311467D01*
G37*
G36*
X168279293Y-136938233D02*
X168451695Y-136990531D01*
X168610583Y-137075458D01*
X168705382Y-137153258D01*
X168749849Y-137189751D01*
X168864141Y-137329017D01*
X168949068Y-137487904D01*
X168949069Y-137487906D01*
X169001367Y-137660306D01*
X169014600Y-137794669D01*
X169014600Y-139205331D01*
X169001367Y-139339694D01*
X168949069Y-139512094D01*
X168949068Y-139512096D01*
X168864141Y-139670983D01*
X168749849Y-139810249D01*
X168610583Y-139924541D01*
X168500415Y-139983427D01*
X168451694Y-140009469D01*
X168279294Y-140061767D01*
X168100000Y-140079425D01*
X167920707Y-140061767D01*
X167748307Y-140009469D01*
X167699586Y-139983427D01*
X167589418Y-139924541D01*
X167450152Y-139810249D01*
X167335860Y-139670983D01*
X167250933Y-139512096D01*
X167250932Y-139512094D01*
X167198634Y-139339694D01*
X167185401Y-139205331D01*
X167185400Y-137794670D01*
X167198633Y-137660307D01*
X167250931Y-137487905D01*
X167335858Y-137329017D01*
X167450151Y-137189751D01*
X167494618Y-137153258D01*
X167589417Y-137075459D01*
X167748304Y-136990532D01*
X167748306Y-136990531D01*
X167920706Y-136938233D01*
X168100000Y-136920575D01*
X168279293Y-136938233D01*
X168279293Y-136938233D01*
G37*
G36*
X163279293Y-136938233D02*
X163451695Y-136990531D01*
X163610583Y-137075458D01*
X163705382Y-137153258D01*
X163749849Y-137189751D01*
X163864141Y-137329017D01*
X163949068Y-137487904D01*
X163949069Y-137487906D01*
X164001367Y-137660306D01*
X164014600Y-137794669D01*
X164014600Y-139205331D01*
X164001367Y-139339694D01*
X163949069Y-139512094D01*
X163949068Y-139512096D01*
X163864141Y-139670983D01*
X163749849Y-139810249D01*
X163610583Y-139924541D01*
X163500415Y-139983427D01*
X163451694Y-140009469D01*
X163279294Y-140061767D01*
X163100000Y-140079425D01*
X162920707Y-140061767D01*
X162748307Y-140009469D01*
X162699586Y-139983427D01*
X162589418Y-139924541D01*
X162450152Y-139810249D01*
X162335860Y-139670983D01*
X162250933Y-139512096D01*
X162250932Y-139512094D01*
X162198634Y-139339694D01*
X162185401Y-139205331D01*
X162185400Y-137794670D01*
X162198633Y-137660307D01*
X162250931Y-137487905D01*
X162335858Y-137329017D01*
X162450151Y-137189751D01*
X162494618Y-137153258D01*
X162589417Y-137075459D01*
X162748304Y-136990532D01*
X162748306Y-136990531D01*
X162920706Y-136938233D01*
X163100000Y-136920575D01*
X163279293Y-136938233D01*
X163279293Y-136938233D01*
G37*
G36*
X145779293Y-136938233D02*
X145951695Y-136990531D01*
X146110583Y-137075458D01*
X146205382Y-137153258D01*
X146249849Y-137189751D01*
X146364141Y-137329017D01*
X146449068Y-137487904D01*
X146449069Y-137487906D01*
X146501367Y-137660306D01*
X146514600Y-137794669D01*
X146514600Y-139205331D01*
X146501367Y-139339694D01*
X146449069Y-139512094D01*
X146449068Y-139512096D01*
X146364141Y-139670983D01*
X146249849Y-139810249D01*
X146110583Y-139924541D01*
X146000415Y-139983427D01*
X145951694Y-140009469D01*
X145779294Y-140061767D01*
X145600000Y-140079425D01*
X145420707Y-140061767D01*
X145248307Y-140009469D01*
X145199586Y-139983427D01*
X145089418Y-139924541D01*
X144950152Y-139810249D01*
X144835860Y-139670983D01*
X144750933Y-139512096D01*
X144750932Y-139512094D01*
X144698634Y-139339694D01*
X144685401Y-139205331D01*
X144685400Y-137794670D01*
X144698633Y-137660307D01*
X144750931Y-137487905D01*
X144835858Y-137329017D01*
X144950151Y-137189751D01*
X144994618Y-137153258D01*
X145089417Y-137075459D01*
X145248304Y-136990532D01*
X145248306Y-136990531D01*
X145420706Y-136938233D01*
X145600000Y-136920575D01*
X145779293Y-136938233D01*
X145779293Y-136938233D01*
G37*
G36*
X150779293Y-136938233D02*
X150951695Y-136990531D01*
X151110583Y-137075458D01*
X151205382Y-137153258D01*
X151249849Y-137189751D01*
X151364141Y-137329017D01*
X151449068Y-137487904D01*
X151449069Y-137487906D01*
X151501367Y-137660306D01*
X151514600Y-137794669D01*
X151514600Y-139205331D01*
X151501367Y-139339694D01*
X151449069Y-139512094D01*
X151449068Y-139512096D01*
X151364141Y-139670983D01*
X151249849Y-139810249D01*
X151110583Y-139924541D01*
X151000415Y-139983427D01*
X150951694Y-140009469D01*
X150779294Y-140061767D01*
X150600000Y-140079425D01*
X150420707Y-140061767D01*
X150248307Y-140009469D01*
X150199586Y-139983427D01*
X150089418Y-139924541D01*
X149950152Y-139810249D01*
X149835860Y-139670983D01*
X149750933Y-139512096D01*
X149750932Y-139512094D01*
X149698634Y-139339694D01*
X149685401Y-139205331D01*
X149685400Y-137794670D01*
X149698633Y-137660307D01*
X149750931Y-137487905D01*
X149835858Y-137329017D01*
X149950151Y-137189751D01*
X149994618Y-137153258D01*
X150089417Y-137075459D01*
X150248304Y-136990532D01*
X150248306Y-136990531D01*
X150420706Y-136938233D01*
X150600000Y-136920575D01*
X150779293Y-136938233D01*
X150779293Y-136938233D01*
G37*
G36*
X91501000Y-129401000D02*
X89699000Y-129401000D01*
X89699000Y-127599000D01*
X91501000Y-127599000D01*
X91501000Y-129401000D01*
X91501000Y-129401000D01*
G37*
G36*
X168279293Y-124438233D02*
X168451695Y-124490531D01*
X168610583Y-124575458D01*
X168749849Y-124689751D01*
X168864141Y-124829017D01*
X168949068Y-124987904D01*
X168949069Y-124987906D01*
X169001367Y-125160306D01*
X169014600Y-125294669D01*
X169014600Y-126705331D01*
X169001367Y-126839694D01*
X168949069Y-127012094D01*
X168949068Y-127012096D01*
X168864141Y-127170983D01*
X168749849Y-127310249D01*
X168610583Y-127424541D01*
X168451696Y-127509468D01*
X168451694Y-127509469D01*
X168279294Y-127561767D01*
X168100000Y-127579425D01*
X167920707Y-127561767D01*
X167748307Y-127509469D01*
X167748305Y-127509468D01*
X167589418Y-127424541D01*
X167450152Y-127310249D01*
X167335860Y-127170983D01*
X167250933Y-127012096D01*
X167250932Y-127012094D01*
X167198634Y-126839694D01*
X167185401Y-126705331D01*
X167185400Y-125294670D01*
X167198633Y-125160307D01*
X167250931Y-124987905D01*
X167335858Y-124829017D01*
X167450151Y-124689751D01*
X167589416Y-124575460D01*
X167589415Y-124575460D01*
X167589417Y-124575459D01*
X167748304Y-124490532D01*
X167748306Y-124490531D01*
X167920706Y-124438233D01*
X168100000Y-124420575D01*
X168279293Y-124438233D01*
X168279293Y-124438233D01*
G37*
G36*
X150779293Y-124438233D02*
X150951695Y-124490531D01*
X151110583Y-124575458D01*
X151249849Y-124689751D01*
X151364141Y-124829017D01*
X151449068Y-124987904D01*
X151449069Y-124987906D01*
X151501367Y-125160306D01*
X151514600Y-125294669D01*
X151514600Y-126705331D01*
X151501367Y-126839694D01*
X151449069Y-127012094D01*
X151449068Y-127012096D01*
X151364141Y-127170983D01*
X151249849Y-127310249D01*
X151110583Y-127424541D01*
X150951696Y-127509468D01*
X150951694Y-127509469D01*
X150779294Y-127561767D01*
X150600000Y-127579425D01*
X150420707Y-127561767D01*
X150248307Y-127509469D01*
X150248305Y-127509468D01*
X150089418Y-127424541D01*
X149950152Y-127310249D01*
X149835860Y-127170983D01*
X149750933Y-127012096D01*
X149750932Y-127012094D01*
X149698634Y-126839694D01*
X149685401Y-126705331D01*
X149685400Y-125294670D01*
X149698633Y-125160307D01*
X149750931Y-124987905D01*
X149835858Y-124829017D01*
X149950151Y-124689751D01*
X150089416Y-124575460D01*
X150089415Y-124575460D01*
X150089417Y-124575459D01*
X150248304Y-124490532D01*
X150248306Y-124490531D01*
X150420706Y-124438233D01*
X150600000Y-124420575D01*
X150779293Y-124438233D01*
X150779293Y-124438233D01*
G37*
G36*
X145779293Y-124438233D02*
X145951695Y-124490531D01*
X146110583Y-124575458D01*
X146249849Y-124689751D01*
X146364141Y-124829017D01*
X146449068Y-124987904D01*
X146449069Y-124987906D01*
X146501367Y-125160306D01*
X146514600Y-125294669D01*
X146514600Y-126705331D01*
X146501367Y-126839694D01*
X146449069Y-127012094D01*
X146449068Y-127012096D01*
X146364141Y-127170983D01*
X146249849Y-127310249D01*
X146110583Y-127424541D01*
X145951696Y-127509468D01*
X145951694Y-127509469D01*
X145779294Y-127561767D01*
X145600000Y-127579425D01*
X145420707Y-127561767D01*
X145248307Y-127509469D01*
X145248305Y-127509468D01*
X145089418Y-127424541D01*
X144950152Y-127310249D01*
X144835860Y-127170983D01*
X144750933Y-127012096D01*
X144750932Y-127012094D01*
X144698634Y-126839694D01*
X144685401Y-126705331D01*
X144685400Y-125294670D01*
X144698633Y-125160307D01*
X144750931Y-124987905D01*
X144835858Y-124829017D01*
X144950151Y-124689751D01*
X145089416Y-124575460D01*
X145089415Y-124575460D01*
X145089417Y-124575459D01*
X145248304Y-124490532D01*
X145248306Y-124490531D01*
X145420706Y-124438233D01*
X145600000Y-124420575D01*
X145779293Y-124438233D01*
X145779293Y-124438233D01*
G37*
G36*
X163279293Y-124438233D02*
X163451695Y-124490531D01*
X163610583Y-124575458D01*
X163749849Y-124689751D01*
X163864141Y-124829017D01*
X163949068Y-124987904D01*
X163949069Y-124987906D01*
X164001367Y-125160306D01*
X164014600Y-125294669D01*
X164014600Y-126705331D01*
X164001367Y-126839694D01*
X163949069Y-127012094D01*
X163949068Y-127012096D01*
X163864141Y-127170983D01*
X163749849Y-127310249D01*
X163610583Y-127424541D01*
X163451696Y-127509468D01*
X163451694Y-127509469D01*
X163279294Y-127561767D01*
X163100000Y-127579425D01*
X162920707Y-127561767D01*
X162748307Y-127509469D01*
X162748305Y-127509468D01*
X162589418Y-127424541D01*
X162450152Y-127310249D01*
X162335860Y-127170983D01*
X162250933Y-127012096D01*
X162250932Y-127012094D01*
X162198634Y-126839694D01*
X162185401Y-126705331D01*
X162185400Y-125294670D01*
X162198633Y-125160307D01*
X162250931Y-124987905D01*
X162335858Y-124829017D01*
X162450151Y-124689751D01*
X162589416Y-124575460D01*
X162589415Y-124575460D01*
X162589417Y-124575459D01*
X162748304Y-124490532D01*
X162748306Y-124490531D01*
X162920706Y-124438233D01*
X163100000Y-124420575D01*
X163279293Y-124438233D01*
X163279293Y-124438233D01*
G37*
G36*
X90710443Y-125065519D02*
X90776627Y-125072037D01*
X90889853Y-125106384D01*
X90946467Y-125123557D01*
X91015220Y-125160307D01*
X91102991Y-125207222D01*
X91138729Y-125236552D01*
X91240186Y-125319814D01*
X91323448Y-125421271D01*
X91352778Y-125457009D01*
X91352779Y-125457011D01*
X91436443Y-125613533D01*
X91436443Y-125613534D01*
X91487963Y-125783373D01*
X91505359Y-125960000D01*
X91487963Y-126136627D01*
X91453616Y-126249853D01*
X91436443Y-126306467D01*
X91362348Y-126445087D01*
X91352778Y-126462991D01*
X91323448Y-126498729D01*
X91240186Y-126600186D01*
X91138729Y-126683448D01*
X91102991Y-126712778D01*
X91102989Y-126712779D01*
X90946467Y-126796443D01*
X90889853Y-126813616D01*
X90776627Y-126847963D01*
X90710442Y-126854482D01*
X90644260Y-126861000D01*
X90555740Y-126861000D01*
X90489558Y-126854482D01*
X90423373Y-126847963D01*
X90310147Y-126813616D01*
X90253533Y-126796443D01*
X90097011Y-126712779D01*
X90097009Y-126712778D01*
X90061271Y-126683448D01*
X89959814Y-126600186D01*
X89876552Y-126498729D01*
X89847222Y-126462991D01*
X89837652Y-126445087D01*
X89763557Y-126306467D01*
X89746384Y-126249853D01*
X89712037Y-126136627D01*
X89694641Y-125960000D01*
X89712037Y-125783373D01*
X89763557Y-125613534D01*
X89763557Y-125613533D01*
X89847221Y-125457011D01*
X89847222Y-125457009D01*
X89876552Y-125421271D01*
X89959814Y-125319814D01*
X90061271Y-125236552D01*
X90097009Y-125207222D01*
X90184780Y-125160307D01*
X90253533Y-125123557D01*
X90310147Y-125106384D01*
X90423373Y-125072037D01*
X90489557Y-125065519D01*
X90555740Y-125059000D01*
X90644260Y-125059000D01*
X90710443Y-125065519D01*
X90710443Y-125065519D01*
G37*
G36*
X90710442Y-122525518D02*
X90776627Y-122532037D01*
X90889853Y-122566384D01*
X90946467Y-122583557D01*
X91085087Y-122657652D01*
X91102991Y-122667222D01*
X91138729Y-122696552D01*
X91240186Y-122779814D01*
X91323448Y-122881271D01*
X91352778Y-122917009D01*
X91352779Y-122917011D01*
X91436443Y-123073533D01*
X91436443Y-123073534D01*
X91487963Y-123243373D01*
X91505359Y-123420000D01*
X91487963Y-123596627D01*
X91453616Y-123709853D01*
X91436443Y-123766467D01*
X91362348Y-123905087D01*
X91352778Y-123922991D01*
X91323448Y-123958729D01*
X91240186Y-124060186D01*
X91138729Y-124143448D01*
X91102991Y-124172778D01*
X91102989Y-124172779D01*
X90946467Y-124256443D01*
X90889853Y-124273616D01*
X90776627Y-124307963D01*
X90710443Y-124314481D01*
X90644260Y-124321000D01*
X90555740Y-124321000D01*
X90489557Y-124314481D01*
X90423373Y-124307963D01*
X90310147Y-124273616D01*
X90253533Y-124256443D01*
X90097011Y-124172779D01*
X90097009Y-124172778D01*
X90061271Y-124143448D01*
X89959814Y-124060186D01*
X89876552Y-123958729D01*
X89847222Y-123922991D01*
X89837652Y-123905087D01*
X89763557Y-123766467D01*
X89746384Y-123709853D01*
X89712037Y-123596627D01*
X89694641Y-123420000D01*
X89712037Y-123243373D01*
X89763557Y-123073534D01*
X89763557Y-123073533D01*
X89847221Y-122917011D01*
X89847222Y-122917009D01*
X89876552Y-122881271D01*
X89959814Y-122779814D01*
X90061271Y-122696552D01*
X90097009Y-122667222D01*
X90114913Y-122657652D01*
X90253533Y-122583557D01*
X90310147Y-122566384D01*
X90423373Y-122532037D01*
X90489558Y-122525518D01*
X90555740Y-122519000D01*
X90644260Y-122519000D01*
X90710442Y-122525518D01*
X90710442Y-122525518D01*
G37*
G36*
X90710442Y-119985518D02*
X90776627Y-119992037D01*
X90889853Y-120026384D01*
X90946467Y-120043557D01*
X91085087Y-120117652D01*
X91102991Y-120127222D01*
X91138729Y-120156552D01*
X91240186Y-120239814D01*
X91323448Y-120341271D01*
X91352778Y-120377009D01*
X91352779Y-120377011D01*
X91436443Y-120533533D01*
X91436443Y-120533534D01*
X91487963Y-120703373D01*
X91505359Y-120880000D01*
X91487963Y-121056627D01*
X91453616Y-121169853D01*
X91436443Y-121226467D01*
X91362348Y-121365087D01*
X91352778Y-121382991D01*
X91323448Y-121418729D01*
X91240186Y-121520186D01*
X91138729Y-121603448D01*
X91102991Y-121632778D01*
X91102989Y-121632779D01*
X90946467Y-121716443D01*
X90889853Y-121733616D01*
X90776627Y-121767963D01*
X90710442Y-121774482D01*
X90644260Y-121781000D01*
X90555740Y-121781000D01*
X90489558Y-121774482D01*
X90423373Y-121767963D01*
X90310147Y-121733616D01*
X90253533Y-121716443D01*
X90097011Y-121632779D01*
X90097009Y-121632778D01*
X90061271Y-121603448D01*
X89959814Y-121520186D01*
X89876552Y-121418729D01*
X89847222Y-121382991D01*
X89837652Y-121365087D01*
X89763557Y-121226467D01*
X89746384Y-121169853D01*
X89712037Y-121056627D01*
X89694641Y-120880000D01*
X89712037Y-120703373D01*
X89763557Y-120533534D01*
X89763557Y-120533533D01*
X89847221Y-120377011D01*
X89847222Y-120377009D01*
X89876552Y-120341271D01*
X89959814Y-120239814D01*
X90061271Y-120156552D01*
X90097009Y-120127222D01*
X90114913Y-120117652D01*
X90253533Y-120043557D01*
X90310147Y-120026384D01*
X90423373Y-119992037D01*
X90489558Y-119985518D01*
X90555740Y-119979000D01*
X90644260Y-119979000D01*
X90710442Y-119985518D01*
X90710442Y-119985518D01*
G37*
G36*
X151293665Y-118752622D02*
X151367222Y-118759867D01*
X151508786Y-118802810D01*
X151639252Y-118872546D01*
X151753606Y-118966394D01*
X151847454Y-119080748D01*
X151917190Y-119211214D01*
X151960133Y-119352778D01*
X151974633Y-119500000D01*
X151960133Y-119647222D01*
X151917190Y-119788786D01*
X151847454Y-119919252D01*
X151753606Y-120033606D01*
X151639252Y-120127454D01*
X151508786Y-120197190D01*
X151367222Y-120240133D01*
X151293665Y-120247378D01*
X151256888Y-120251000D01*
X151183112Y-120251000D01*
X151146335Y-120247378D01*
X151072778Y-120240133D01*
X150931214Y-120197190D01*
X150800748Y-120127454D01*
X150686394Y-120033606D01*
X150592546Y-119919252D01*
X150522810Y-119788786D01*
X150479867Y-119647222D01*
X150465367Y-119500000D01*
X150479867Y-119352778D01*
X150522810Y-119211214D01*
X150592546Y-119080748D01*
X150686394Y-118966394D01*
X150800748Y-118872546D01*
X150931214Y-118802810D01*
X151072778Y-118759867D01*
X151146335Y-118752622D01*
X151183112Y-118749000D01*
X151256888Y-118749000D01*
X151293665Y-118752622D01*
X151293665Y-118752622D01*
G37*
G36*
X168293665Y-118752622D02*
X168367222Y-118759867D01*
X168508786Y-118802810D01*
X168639252Y-118872546D01*
X168753606Y-118966394D01*
X168847454Y-119080748D01*
X168917190Y-119211214D01*
X168960133Y-119352778D01*
X168974633Y-119500000D01*
X168960133Y-119647222D01*
X168917190Y-119788786D01*
X168847454Y-119919252D01*
X168753606Y-120033606D01*
X168639252Y-120127454D01*
X168508786Y-120197190D01*
X168367222Y-120240133D01*
X168293665Y-120247378D01*
X168256888Y-120251000D01*
X168183112Y-120251000D01*
X168146335Y-120247378D01*
X168072778Y-120240133D01*
X167931214Y-120197190D01*
X167800748Y-120127454D01*
X167686394Y-120033606D01*
X167592546Y-119919252D01*
X167522810Y-119788786D01*
X167479867Y-119647222D01*
X167465367Y-119500000D01*
X167479867Y-119352778D01*
X167522810Y-119211214D01*
X167592546Y-119080748D01*
X167686394Y-118966394D01*
X167800748Y-118872546D01*
X167931214Y-118802810D01*
X168072778Y-118759867D01*
X168146335Y-118752622D01*
X168183112Y-118749000D01*
X168256888Y-118749000D01*
X168293665Y-118752622D01*
X168293665Y-118752622D01*
G37*
G36*
X160728600Y-118759867D02*
X160819059Y-118777860D01*
X160955732Y-118834472D01*
X161012715Y-118872547D01*
X161078738Y-118916662D01*
X161183338Y-119021262D01*
X161183340Y-119021265D01*
X161265528Y-119144268D01*
X161322140Y-119280941D01*
X161351000Y-119426033D01*
X161351000Y-119573967D01*
X161322140Y-119719059D01*
X161265528Y-119855732D01*
X161184446Y-119977079D01*
X161183338Y-119978738D01*
X161078738Y-120083338D01*
X161078735Y-120083340D01*
X160955732Y-120165528D01*
X160819059Y-120222140D01*
X160732004Y-120239456D01*
X160673969Y-120251000D01*
X160526031Y-120251000D01*
X160467996Y-120239456D01*
X160380941Y-120222140D01*
X160244268Y-120165528D01*
X160121265Y-120083340D01*
X160121262Y-120083338D01*
X160016662Y-119978738D01*
X160015554Y-119977079D01*
X159934472Y-119855732D01*
X159877860Y-119719059D01*
X159849000Y-119573967D01*
X159849000Y-119426033D01*
X159877860Y-119280941D01*
X159934472Y-119144268D01*
X160016660Y-119021265D01*
X160016662Y-119021262D01*
X160121262Y-118916662D01*
X160187285Y-118872547D01*
X160244268Y-118834472D01*
X160380941Y-118777860D01*
X160471400Y-118759867D01*
X160526031Y-118749000D01*
X160673969Y-118749000D01*
X160728600Y-118759867D01*
X160728600Y-118759867D01*
G37*
G36*
X143728600Y-118759867D02*
X143819059Y-118777860D01*
X143955732Y-118834472D01*
X144012715Y-118872547D01*
X144078738Y-118916662D01*
X144183338Y-119021262D01*
X144183340Y-119021265D01*
X144265528Y-119144268D01*
X144322140Y-119280941D01*
X144351000Y-119426033D01*
X144351000Y-119573967D01*
X144322140Y-119719059D01*
X144265528Y-119855732D01*
X144184446Y-119977079D01*
X144183338Y-119978738D01*
X144078738Y-120083338D01*
X144078735Y-120083340D01*
X143955732Y-120165528D01*
X143819059Y-120222140D01*
X143732004Y-120239456D01*
X143673969Y-120251000D01*
X143526031Y-120251000D01*
X143467996Y-120239456D01*
X143380941Y-120222140D01*
X143244268Y-120165528D01*
X143121265Y-120083340D01*
X143121262Y-120083338D01*
X143016662Y-119978738D01*
X143015554Y-119977079D01*
X142934472Y-119855732D01*
X142877860Y-119719059D01*
X142849000Y-119573967D01*
X142849000Y-119426033D01*
X142877860Y-119280941D01*
X142934472Y-119144268D01*
X143016660Y-119021265D01*
X143016662Y-119021262D01*
X143121262Y-118916662D01*
X143187285Y-118872547D01*
X143244268Y-118834472D01*
X143380941Y-118777860D01*
X143471400Y-118759867D01*
X143526031Y-118749000D01*
X143673969Y-118749000D01*
X143728600Y-118759867D01*
X143728600Y-118759867D01*
G37*
G36*
X90710443Y-117445519D02*
X90776627Y-117452037D01*
X90889853Y-117486384D01*
X90946467Y-117503557D01*
X91085087Y-117577652D01*
X91102991Y-117587222D01*
X91138729Y-117616552D01*
X91240186Y-117699814D01*
X91323448Y-117801271D01*
X91352778Y-117837009D01*
X91352779Y-117837011D01*
X91436443Y-117993533D01*
X91436443Y-117993534D01*
X91487963Y-118163373D01*
X91505359Y-118340000D01*
X91487963Y-118516627D01*
X91453616Y-118629853D01*
X91436443Y-118686467D01*
X91403018Y-118749000D01*
X91352778Y-118842991D01*
X91328523Y-118872546D01*
X91240186Y-118980186D01*
X91138729Y-119063448D01*
X91102991Y-119092778D01*
X91102989Y-119092779D01*
X90946467Y-119176443D01*
X90889853Y-119193616D01*
X90776627Y-119227963D01*
X90710442Y-119234482D01*
X90644260Y-119241000D01*
X90555740Y-119241000D01*
X90489558Y-119234482D01*
X90423373Y-119227963D01*
X90310147Y-119193616D01*
X90253533Y-119176443D01*
X90097011Y-119092779D01*
X90097009Y-119092778D01*
X90061271Y-119063448D01*
X89959814Y-118980186D01*
X89871477Y-118872546D01*
X89847222Y-118842991D01*
X89796982Y-118749000D01*
X89763557Y-118686467D01*
X89746384Y-118629853D01*
X89712037Y-118516627D01*
X89694641Y-118340000D01*
X89712037Y-118163373D01*
X89763557Y-117993534D01*
X89763557Y-117993533D01*
X89847221Y-117837011D01*
X89847222Y-117837009D01*
X89876552Y-117801271D01*
X89959814Y-117699814D01*
X90061271Y-117616552D01*
X90097009Y-117587222D01*
X90114913Y-117577652D01*
X90253533Y-117503557D01*
X90310147Y-117486384D01*
X90423373Y-117452037D01*
X90489557Y-117445519D01*
X90555740Y-117439000D01*
X90644260Y-117439000D01*
X90710443Y-117445519D01*
X90710443Y-117445519D01*
G37*
G36*
X90710443Y-114905519D02*
X90776627Y-114912037D01*
X90889853Y-114946384D01*
X90946467Y-114963557D01*
X91085087Y-115037652D01*
X91102991Y-115047222D01*
X91138729Y-115076552D01*
X91240186Y-115159814D01*
X91323448Y-115261271D01*
X91352778Y-115297009D01*
X91352779Y-115297011D01*
X91436443Y-115453533D01*
X91436443Y-115453534D01*
X91487963Y-115623373D01*
X91505359Y-115800000D01*
X91487963Y-115976627D01*
X91453616Y-116089853D01*
X91436443Y-116146467D01*
X91362348Y-116285087D01*
X91352778Y-116302991D01*
X91323448Y-116338729D01*
X91240186Y-116440186D01*
X91138729Y-116523448D01*
X91102991Y-116552778D01*
X91102989Y-116552779D01*
X90946467Y-116636443D01*
X90889853Y-116653616D01*
X90776627Y-116687963D01*
X90710443Y-116694481D01*
X90644260Y-116701000D01*
X90555740Y-116701000D01*
X90489557Y-116694481D01*
X90423373Y-116687963D01*
X90310147Y-116653616D01*
X90253533Y-116636443D01*
X90097011Y-116552779D01*
X90097009Y-116552778D01*
X90061271Y-116523448D01*
X89959814Y-116440186D01*
X89876552Y-116338729D01*
X89847222Y-116302991D01*
X89837652Y-116285087D01*
X89763557Y-116146467D01*
X89746384Y-116089853D01*
X89712037Y-115976627D01*
X89694641Y-115800000D01*
X89712037Y-115623373D01*
X89763557Y-115453534D01*
X89763557Y-115453533D01*
X89847221Y-115297011D01*
X89847222Y-115297009D01*
X89876552Y-115261271D01*
X89959814Y-115159814D01*
X90061271Y-115076552D01*
X90097009Y-115047222D01*
X90114913Y-115037652D01*
X90253533Y-114963557D01*
X90310147Y-114946384D01*
X90423373Y-114912037D01*
X90489557Y-114905519D01*
X90555740Y-114899000D01*
X90644260Y-114899000D01*
X90710443Y-114905519D01*
X90710443Y-114905519D01*
G37*
G36*
X173348228Y-112681703D02*
X173503100Y-112745853D01*
X173642481Y-112838985D01*
X173761015Y-112957519D01*
X173854147Y-113096900D01*
X173918297Y-113251772D01*
X173951000Y-113416184D01*
X173951000Y-113583816D01*
X173918297Y-113748228D01*
X173854147Y-113903100D01*
X173761015Y-114042481D01*
X173642481Y-114161015D01*
X173503100Y-114254147D01*
X173348228Y-114318297D01*
X173183816Y-114351000D01*
X173016184Y-114351000D01*
X172851772Y-114318297D01*
X172696900Y-114254147D01*
X172557519Y-114161015D01*
X172438985Y-114042481D01*
X172345853Y-113903100D01*
X172281703Y-113748228D01*
X172249000Y-113583816D01*
X172249000Y-113416184D01*
X172281703Y-113251772D01*
X172345853Y-113096900D01*
X172438985Y-112957519D01*
X172557519Y-112838985D01*
X172696900Y-112745853D01*
X172851772Y-112681703D01*
X173016184Y-112649000D01*
X173183816Y-112649000D01*
X173348228Y-112681703D01*
X173348228Y-112681703D01*
G37*
G36*
X175848228Y-112681703D02*
X176003100Y-112745853D01*
X176142481Y-112838985D01*
X176261015Y-112957519D01*
X176354147Y-113096900D01*
X176418297Y-113251772D01*
X176451000Y-113416184D01*
X176451000Y-113583816D01*
X176418297Y-113748228D01*
X176354147Y-113903100D01*
X176261015Y-114042481D01*
X176142481Y-114161015D01*
X176003100Y-114254147D01*
X175848228Y-114318297D01*
X175683816Y-114351000D01*
X175516184Y-114351000D01*
X175351772Y-114318297D01*
X175196900Y-114254147D01*
X175057519Y-114161015D01*
X174938985Y-114042481D01*
X174845853Y-113903100D01*
X174781703Y-113748228D01*
X174749000Y-113583816D01*
X174749000Y-113416184D01*
X174781703Y-113251772D01*
X174845853Y-113096900D01*
X174938985Y-112957519D01*
X175057519Y-112838985D01*
X175196900Y-112745853D01*
X175351772Y-112681703D01*
X175516184Y-112649000D01*
X175683816Y-112649000D01*
X175848228Y-112681703D01*
X175848228Y-112681703D01*
G37*
G36*
X142337396Y-111835546D02*
X142510466Y-111907234D01*
X142666230Y-112011312D01*
X142798688Y-112143770D01*
X142902766Y-112299534D01*
X142974454Y-112472604D01*
X143011000Y-112656333D01*
X143011000Y-112843667D01*
X142974454Y-113027396D01*
X142902766Y-113200466D01*
X142798688Y-113356230D01*
X142666230Y-113488688D01*
X142510466Y-113592766D01*
X142337396Y-113664454D01*
X142153667Y-113701000D01*
X141966333Y-113701000D01*
X141782604Y-113664454D01*
X141609534Y-113592766D01*
X141453770Y-113488688D01*
X141321312Y-113356230D01*
X141217234Y-113200466D01*
X141145546Y-113027396D01*
X141109000Y-112843667D01*
X141109000Y-112656333D01*
X141145546Y-112472604D01*
X141217234Y-112299534D01*
X141321312Y-112143770D01*
X141453770Y-112011312D01*
X141609534Y-111907234D01*
X141782604Y-111835546D01*
X141966333Y-111799000D01*
X142153667Y-111799000D01*
X142337396Y-111835546D01*
X142337396Y-111835546D01*
G37*
G36*
X145551000Y-113701000D02*
X143649000Y-113701000D01*
X143649000Y-111799000D01*
X145551000Y-111799000D01*
X145551000Y-113701000D01*
X145551000Y-113701000D01*
G37*
G36*
X168482600Y-112122867D02*
X168573059Y-112140860D01*
X168709732Y-112197472D01*
X168766715Y-112235547D01*
X168832738Y-112279662D01*
X168937338Y-112384262D01*
X168937340Y-112384265D01*
X169019528Y-112507268D01*
X169076140Y-112643941D01*
X169105000Y-112789033D01*
X169105000Y-112936967D01*
X169076140Y-113082059D01*
X169019528Y-113218732D01*
X168938446Y-113340079D01*
X168937338Y-113341738D01*
X168832738Y-113446338D01*
X168832735Y-113446340D01*
X168709732Y-113528528D01*
X168573059Y-113585140D01*
X168486004Y-113602456D01*
X168427969Y-113614000D01*
X168280031Y-113614000D01*
X168221996Y-113602456D01*
X168134941Y-113585140D01*
X167998268Y-113528528D01*
X167875265Y-113446340D01*
X167875262Y-113446338D01*
X167770662Y-113341738D01*
X167769554Y-113340079D01*
X167688472Y-113218732D01*
X167631860Y-113082059D01*
X167603000Y-112936967D01*
X167603000Y-112789033D01*
X167631860Y-112643941D01*
X167688472Y-112507268D01*
X167770660Y-112384265D01*
X167770662Y-112384262D01*
X167875262Y-112279662D01*
X167941285Y-112235547D01*
X167998268Y-112197472D01*
X168134941Y-112140860D01*
X168225400Y-112122867D01*
X168280031Y-112112000D01*
X168427969Y-112112000D01*
X168482600Y-112122867D01*
X168482600Y-112122867D01*
G37*
G36*
X160807665Y-112115622D02*
X160881222Y-112122867D01*
X161022786Y-112165810D01*
X161153252Y-112235546D01*
X161267606Y-112329394D01*
X161361454Y-112443748D01*
X161431190Y-112574214D01*
X161474133Y-112715778D01*
X161488633Y-112863000D01*
X161474133Y-113010222D01*
X161431190Y-113151786D01*
X161361454Y-113282252D01*
X161267606Y-113396606D01*
X161153252Y-113490454D01*
X161022786Y-113560190D01*
X160881222Y-113603133D01*
X160807665Y-113610378D01*
X160770888Y-113614000D01*
X160697112Y-113614000D01*
X160660335Y-113610378D01*
X160586778Y-113603133D01*
X160445214Y-113560190D01*
X160314748Y-113490454D01*
X160200394Y-113396606D01*
X160106546Y-113282252D01*
X160036810Y-113151786D01*
X159993867Y-113010222D01*
X159979367Y-112863000D01*
X159993867Y-112715778D01*
X160036810Y-112574214D01*
X160106546Y-112443748D01*
X160200394Y-112329394D01*
X160314748Y-112235546D01*
X160445214Y-112165810D01*
X160586778Y-112122867D01*
X160660335Y-112115622D01*
X160697112Y-112112000D01*
X160770888Y-112112000D01*
X160807665Y-112115622D01*
X160807665Y-112115622D01*
G37*
G36*
X91501000Y-109401000D02*
X89699000Y-109401000D01*
X89699000Y-107599000D01*
X91501000Y-107599000D01*
X91501000Y-109401000D01*
X91501000Y-109401000D01*
G37*
G36*
X165848228Y-105301703D02*
X166003100Y-105365853D01*
X166142481Y-105458985D01*
X166261015Y-105577519D01*
X166354147Y-105716900D01*
X166418297Y-105871772D01*
X166451000Y-106036184D01*
X166451000Y-106203816D01*
X166418297Y-106368228D01*
X166354147Y-106523100D01*
X166261015Y-106662481D01*
X166142481Y-106781015D01*
X166003100Y-106874147D01*
X165848228Y-106938297D01*
X165683816Y-106971000D01*
X165516184Y-106971000D01*
X165351772Y-106938297D01*
X165196900Y-106874147D01*
X165057519Y-106781015D01*
X164938985Y-106662481D01*
X164845853Y-106523100D01*
X164781703Y-106368228D01*
X164749000Y-106203816D01*
X164749000Y-106036184D01*
X164781703Y-105871772D01*
X164845853Y-105716900D01*
X164938985Y-105577519D01*
X165057519Y-105458985D01*
X165196900Y-105365853D01*
X165351772Y-105301703D01*
X165516184Y-105269000D01*
X165683816Y-105269000D01*
X165848228Y-105301703D01*
X165848228Y-105301703D01*
G37*
G36*
X181088228Y-105301703D02*
X181243100Y-105365853D01*
X181382481Y-105458985D01*
X181501015Y-105577519D01*
X181594147Y-105716900D01*
X181658297Y-105871772D01*
X181691000Y-106036184D01*
X181691000Y-106203816D01*
X181658297Y-106368228D01*
X181594147Y-106523100D01*
X181501015Y-106662481D01*
X181382481Y-106781015D01*
X181243100Y-106874147D01*
X181088228Y-106938297D01*
X180923816Y-106971000D01*
X180756184Y-106971000D01*
X180591772Y-106938297D01*
X180436900Y-106874147D01*
X180297519Y-106781015D01*
X180178985Y-106662481D01*
X180085853Y-106523100D01*
X180021703Y-106368228D01*
X179989000Y-106203816D01*
X179989000Y-106036184D01*
X180021703Y-105871772D01*
X180085853Y-105716900D01*
X180178985Y-105577519D01*
X180297519Y-105458985D01*
X180436900Y-105365853D01*
X180591772Y-105301703D01*
X180756184Y-105269000D01*
X180923816Y-105269000D01*
X181088228Y-105301703D01*
X181088228Y-105301703D01*
G37*
G36*
X178548228Y-105301703D02*
X178703100Y-105365853D01*
X178842481Y-105458985D01*
X178961015Y-105577519D01*
X179054147Y-105716900D01*
X179118297Y-105871772D01*
X179151000Y-106036184D01*
X179151000Y-106203816D01*
X179118297Y-106368228D01*
X179054147Y-106523100D01*
X178961015Y-106662481D01*
X178842481Y-106781015D01*
X178703100Y-106874147D01*
X178548228Y-106938297D01*
X178383816Y-106971000D01*
X178216184Y-106971000D01*
X178051772Y-106938297D01*
X177896900Y-106874147D01*
X177757519Y-106781015D01*
X177638985Y-106662481D01*
X177545853Y-106523100D01*
X177481703Y-106368228D01*
X177449000Y-106203816D01*
X177449000Y-106036184D01*
X177481703Y-105871772D01*
X177545853Y-105716900D01*
X177638985Y-105577519D01*
X177757519Y-105458985D01*
X177896900Y-105365853D01*
X178051772Y-105301703D01*
X178216184Y-105269000D01*
X178383816Y-105269000D01*
X178548228Y-105301703D01*
X178548228Y-105301703D01*
G37*
G36*
X176008228Y-105301703D02*
X176163100Y-105365853D01*
X176302481Y-105458985D01*
X176421015Y-105577519D01*
X176514147Y-105716900D01*
X176578297Y-105871772D01*
X176611000Y-106036184D01*
X176611000Y-106203816D01*
X176578297Y-106368228D01*
X176514147Y-106523100D01*
X176421015Y-106662481D01*
X176302481Y-106781015D01*
X176163100Y-106874147D01*
X176008228Y-106938297D01*
X175843816Y-106971000D01*
X175676184Y-106971000D01*
X175511772Y-106938297D01*
X175356900Y-106874147D01*
X175217519Y-106781015D01*
X175098985Y-106662481D01*
X175005853Y-106523100D01*
X174941703Y-106368228D01*
X174909000Y-106203816D01*
X174909000Y-106036184D01*
X174941703Y-105871772D01*
X175005853Y-105716900D01*
X175098985Y-105577519D01*
X175217519Y-105458985D01*
X175356900Y-105365853D01*
X175511772Y-105301703D01*
X175676184Y-105269000D01*
X175843816Y-105269000D01*
X176008228Y-105301703D01*
X176008228Y-105301703D01*
G37*
G36*
X173468228Y-105301703D02*
X173623100Y-105365853D01*
X173762481Y-105458985D01*
X173881015Y-105577519D01*
X173974147Y-105716900D01*
X174038297Y-105871772D01*
X174071000Y-106036184D01*
X174071000Y-106203816D01*
X174038297Y-106368228D01*
X173974147Y-106523100D01*
X173881015Y-106662481D01*
X173762481Y-106781015D01*
X173623100Y-106874147D01*
X173468228Y-106938297D01*
X173303816Y-106971000D01*
X173136184Y-106971000D01*
X172971772Y-106938297D01*
X172816900Y-106874147D01*
X172677519Y-106781015D01*
X172558985Y-106662481D01*
X172465853Y-106523100D01*
X172401703Y-106368228D01*
X172369000Y-106203816D01*
X172369000Y-106036184D01*
X172401703Y-105871772D01*
X172465853Y-105716900D01*
X172558985Y-105577519D01*
X172677519Y-105458985D01*
X172816900Y-105365853D01*
X172971772Y-105301703D01*
X173136184Y-105269000D01*
X173303816Y-105269000D01*
X173468228Y-105301703D01*
X173468228Y-105301703D01*
G37*
G36*
X170928228Y-105301703D02*
X171083100Y-105365853D01*
X171222481Y-105458985D01*
X171341015Y-105577519D01*
X171434147Y-105716900D01*
X171498297Y-105871772D01*
X171531000Y-106036184D01*
X171531000Y-106203816D01*
X171498297Y-106368228D01*
X171434147Y-106523100D01*
X171341015Y-106662481D01*
X171222481Y-106781015D01*
X171083100Y-106874147D01*
X170928228Y-106938297D01*
X170763816Y-106971000D01*
X170596184Y-106971000D01*
X170431772Y-106938297D01*
X170276900Y-106874147D01*
X170137519Y-106781015D01*
X170018985Y-106662481D01*
X169925853Y-106523100D01*
X169861703Y-106368228D01*
X169829000Y-106203816D01*
X169829000Y-106036184D01*
X169861703Y-105871772D01*
X169925853Y-105716900D01*
X170018985Y-105577519D01*
X170137519Y-105458985D01*
X170276900Y-105365853D01*
X170431772Y-105301703D01*
X170596184Y-105269000D01*
X170763816Y-105269000D01*
X170928228Y-105301703D01*
X170928228Y-105301703D01*
G37*
G36*
X168388228Y-105301703D02*
X168543100Y-105365853D01*
X168682481Y-105458985D01*
X168801015Y-105577519D01*
X168894147Y-105716900D01*
X168958297Y-105871772D01*
X168991000Y-106036184D01*
X168991000Y-106203816D01*
X168958297Y-106368228D01*
X168894147Y-106523100D01*
X168801015Y-106662481D01*
X168682481Y-106781015D01*
X168543100Y-106874147D01*
X168388228Y-106938297D01*
X168223816Y-106971000D01*
X168056184Y-106971000D01*
X167891772Y-106938297D01*
X167736900Y-106874147D01*
X167597519Y-106781015D01*
X167478985Y-106662481D01*
X167385853Y-106523100D01*
X167321703Y-106368228D01*
X167289000Y-106203816D01*
X167289000Y-106036184D01*
X167321703Y-105871772D01*
X167385853Y-105716900D01*
X167478985Y-105577519D01*
X167597519Y-105458985D01*
X167736900Y-105365853D01*
X167891772Y-105301703D01*
X168056184Y-105269000D01*
X168223816Y-105269000D01*
X168388228Y-105301703D01*
X168388228Y-105301703D01*
G37*
G36*
X163308228Y-105301703D02*
X163463100Y-105365853D01*
X163602481Y-105458985D01*
X163721015Y-105577519D01*
X163814147Y-105716900D01*
X163878297Y-105871772D01*
X163911000Y-106036184D01*
X163911000Y-106203816D01*
X163878297Y-106368228D01*
X163814147Y-106523100D01*
X163721015Y-106662481D01*
X163602481Y-106781015D01*
X163463100Y-106874147D01*
X163308228Y-106938297D01*
X163143816Y-106971000D01*
X162976184Y-106971000D01*
X162811772Y-106938297D01*
X162656900Y-106874147D01*
X162517519Y-106781015D01*
X162398985Y-106662481D01*
X162305853Y-106523100D01*
X162241703Y-106368228D01*
X162209000Y-106203816D01*
X162209000Y-106036184D01*
X162241703Y-105871772D01*
X162305853Y-105716900D01*
X162398985Y-105577519D01*
X162517519Y-105458985D01*
X162656900Y-105365853D01*
X162811772Y-105301703D01*
X162976184Y-105269000D01*
X163143816Y-105269000D01*
X163308228Y-105301703D01*
X163308228Y-105301703D01*
G37*
G36*
X160768228Y-105301703D02*
X160923100Y-105365853D01*
X161062481Y-105458985D01*
X161181015Y-105577519D01*
X161274147Y-105716900D01*
X161338297Y-105871772D01*
X161371000Y-106036184D01*
X161371000Y-106203816D01*
X161338297Y-106368228D01*
X161274147Y-106523100D01*
X161181015Y-106662481D01*
X161062481Y-106781015D01*
X160923100Y-106874147D01*
X160768228Y-106938297D01*
X160603816Y-106971000D01*
X160436184Y-106971000D01*
X160271772Y-106938297D01*
X160116900Y-106874147D01*
X159977519Y-106781015D01*
X159858985Y-106662481D01*
X159765853Y-106523100D01*
X159701703Y-106368228D01*
X159669000Y-106203816D01*
X159669000Y-106036184D01*
X159701703Y-105871772D01*
X159765853Y-105716900D01*
X159858985Y-105577519D01*
X159977519Y-105458985D01*
X160116900Y-105365853D01*
X160271772Y-105301703D01*
X160436184Y-105269000D01*
X160603816Y-105269000D01*
X160768228Y-105301703D01*
X160768228Y-105301703D01*
G37*
G36*
X158228228Y-105301703D02*
X158383100Y-105365853D01*
X158522481Y-105458985D01*
X158641015Y-105577519D01*
X158734147Y-105716900D01*
X158798297Y-105871772D01*
X158831000Y-106036184D01*
X158831000Y-106203816D01*
X158798297Y-106368228D01*
X158734147Y-106523100D01*
X158641015Y-106662481D01*
X158522481Y-106781015D01*
X158383100Y-106874147D01*
X158228228Y-106938297D01*
X158063816Y-106971000D01*
X157896184Y-106971000D01*
X157731772Y-106938297D01*
X157576900Y-106874147D01*
X157437519Y-106781015D01*
X157318985Y-106662481D01*
X157225853Y-106523100D01*
X157161703Y-106368228D01*
X157129000Y-106203816D01*
X157129000Y-106036184D01*
X157161703Y-105871772D01*
X157225853Y-105716900D01*
X157318985Y-105577519D01*
X157437519Y-105458985D01*
X157576900Y-105365853D01*
X157731772Y-105301703D01*
X157896184Y-105269000D01*
X158063816Y-105269000D01*
X158228228Y-105301703D01*
X158228228Y-105301703D01*
G37*
G36*
X155688228Y-105301703D02*
X155843100Y-105365853D01*
X155982481Y-105458985D01*
X156101015Y-105577519D01*
X156194147Y-105716900D01*
X156258297Y-105871772D01*
X156291000Y-106036184D01*
X156291000Y-106203816D01*
X156258297Y-106368228D01*
X156194147Y-106523100D01*
X156101015Y-106662481D01*
X155982481Y-106781015D01*
X155843100Y-106874147D01*
X155688228Y-106938297D01*
X155523816Y-106971000D01*
X155356184Y-106971000D01*
X155191772Y-106938297D01*
X155036900Y-106874147D01*
X154897519Y-106781015D01*
X154778985Y-106662481D01*
X154685853Y-106523100D01*
X154621703Y-106368228D01*
X154589000Y-106203816D01*
X154589000Y-106036184D01*
X154621703Y-105871772D01*
X154685853Y-105716900D01*
X154778985Y-105577519D01*
X154897519Y-105458985D01*
X155036900Y-105365853D01*
X155191772Y-105301703D01*
X155356184Y-105269000D01*
X155523816Y-105269000D01*
X155688228Y-105301703D01*
X155688228Y-105301703D01*
G37*
G36*
X153148228Y-105301703D02*
X153303100Y-105365853D01*
X153442481Y-105458985D01*
X153561015Y-105577519D01*
X153654147Y-105716900D01*
X153718297Y-105871772D01*
X153751000Y-106036184D01*
X153751000Y-106203816D01*
X153718297Y-106368228D01*
X153654147Y-106523100D01*
X153561015Y-106662481D01*
X153442481Y-106781015D01*
X153303100Y-106874147D01*
X153148228Y-106938297D01*
X152983816Y-106971000D01*
X152816184Y-106971000D01*
X152651772Y-106938297D01*
X152496900Y-106874147D01*
X152357519Y-106781015D01*
X152238985Y-106662481D01*
X152145853Y-106523100D01*
X152081703Y-106368228D01*
X152049000Y-106203816D01*
X152049000Y-106036184D01*
X152081703Y-105871772D01*
X152145853Y-105716900D01*
X152238985Y-105577519D01*
X152357519Y-105458985D01*
X152496900Y-105365853D01*
X152651772Y-105301703D01*
X152816184Y-105269000D01*
X152983816Y-105269000D01*
X153148228Y-105301703D01*
X153148228Y-105301703D01*
G37*
G36*
X150608228Y-105301703D02*
X150763100Y-105365853D01*
X150902481Y-105458985D01*
X151021015Y-105577519D01*
X151114147Y-105716900D01*
X151178297Y-105871772D01*
X151211000Y-106036184D01*
X151211000Y-106203816D01*
X151178297Y-106368228D01*
X151114147Y-106523100D01*
X151021015Y-106662481D01*
X150902481Y-106781015D01*
X150763100Y-106874147D01*
X150608228Y-106938297D01*
X150443816Y-106971000D01*
X150276184Y-106971000D01*
X150111772Y-106938297D01*
X149956900Y-106874147D01*
X149817519Y-106781015D01*
X149698985Y-106662481D01*
X149605853Y-106523100D01*
X149541703Y-106368228D01*
X149509000Y-106203816D01*
X149509000Y-106036184D01*
X149541703Y-105871772D01*
X149605853Y-105716900D01*
X149698985Y-105577519D01*
X149817519Y-105458985D01*
X149956900Y-105365853D01*
X150111772Y-105301703D01*
X150276184Y-105269000D01*
X150443816Y-105269000D01*
X150608228Y-105301703D01*
X150608228Y-105301703D01*
G37*
G36*
X148068228Y-105301703D02*
X148223100Y-105365853D01*
X148362481Y-105458985D01*
X148481015Y-105577519D01*
X148574147Y-105716900D01*
X148638297Y-105871772D01*
X148671000Y-106036184D01*
X148671000Y-106203816D01*
X148638297Y-106368228D01*
X148574147Y-106523100D01*
X148481015Y-106662481D01*
X148362481Y-106781015D01*
X148223100Y-106874147D01*
X148068228Y-106938297D01*
X147903816Y-106971000D01*
X147736184Y-106971000D01*
X147571772Y-106938297D01*
X147416900Y-106874147D01*
X147277519Y-106781015D01*
X147158985Y-106662481D01*
X147065853Y-106523100D01*
X147001703Y-106368228D01*
X146969000Y-106203816D01*
X146969000Y-106036184D01*
X147001703Y-105871772D01*
X147065853Y-105716900D01*
X147158985Y-105577519D01*
X147277519Y-105458985D01*
X147416900Y-105365853D01*
X147571772Y-105301703D01*
X147736184Y-105269000D01*
X147903816Y-105269000D01*
X148068228Y-105301703D01*
X148068228Y-105301703D01*
G37*
G36*
X90710443Y-105065519D02*
X90776627Y-105072037D01*
X90889853Y-105106384D01*
X90946467Y-105123557D01*
X91085087Y-105197652D01*
X91102991Y-105207222D01*
X91138729Y-105236552D01*
X91240186Y-105319814D01*
X91323448Y-105421271D01*
X91352778Y-105457009D01*
X91352779Y-105457011D01*
X91436443Y-105613533D01*
X91436443Y-105613534D01*
X91487963Y-105783373D01*
X91505359Y-105960000D01*
X91487963Y-106136627D01*
X91467581Y-106203816D01*
X91436443Y-106306467D01*
X91362348Y-106445087D01*
X91352778Y-106462991D01*
X91323448Y-106498729D01*
X91240186Y-106600186D01*
X91164278Y-106662481D01*
X91102991Y-106712778D01*
X91102989Y-106712779D01*
X90946467Y-106796443D01*
X90889853Y-106813616D01*
X90776627Y-106847963D01*
X90710442Y-106854482D01*
X90644260Y-106861000D01*
X90555740Y-106861000D01*
X90489558Y-106854482D01*
X90423373Y-106847963D01*
X90310147Y-106813616D01*
X90253533Y-106796443D01*
X90097011Y-106712779D01*
X90097009Y-106712778D01*
X90035722Y-106662481D01*
X89959814Y-106600186D01*
X89876552Y-106498729D01*
X89847222Y-106462991D01*
X89837652Y-106445087D01*
X89763557Y-106306467D01*
X89732419Y-106203816D01*
X89712037Y-106136627D01*
X89694641Y-105960000D01*
X89712037Y-105783373D01*
X89763557Y-105613534D01*
X89763557Y-105613533D01*
X89847221Y-105457011D01*
X89847222Y-105457009D01*
X89876552Y-105421271D01*
X89959814Y-105319814D01*
X90061271Y-105236552D01*
X90097009Y-105207222D01*
X90114913Y-105197652D01*
X90253533Y-105123557D01*
X90310147Y-105106384D01*
X90423373Y-105072037D01*
X90489557Y-105065519D01*
X90555740Y-105059000D01*
X90644260Y-105059000D01*
X90710443Y-105065519D01*
X90710443Y-105065519D01*
G37*
G36*
X115797142Y-103708242D02*
X115911583Y-103755646D01*
X115937708Y-103766467D01*
X115945102Y-103769530D01*
X116078258Y-103858502D01*
X116191498Y-103971742D01*
X116280470Y-104104898D01*
X116341758Y-104252858D01*
X116373000Y-104409925D01*
X116373000Y-104570075D01*
X116341758Y-104727142D01*
X116294354Y-104841583D01*
X116280471Y-104875100D01*
X116191499Y-105008257D01*
X116078257Y-105121499D01*
X116012130Y-105165683D01*
X115945102Y-105210470D01*
X115797142Y-105271758D01*
X115640075Y-105303000D01*
X115479925Y-105303000D01*
X115322858Y-105271758D01*
X115174898Y-105210470D01*
X115107870Y-105165683D01*
X115041743Y-105121499D01*
X114928501Y-105008257D01*
X114839529Y-104875100D01*
X114825646Y-104841583D01*
X114778242Y-104727142D01*
X114747000Y-104570075D01*
X114747000Y-104409925D01*
X114778242Y-104252858D01*
X114839530Y-104104898D01*
X114928502Y-103971742D01*
X115041742Y-103858502D01*
X115174898Y-103769530D01*
X115182293Y-103766467D01*
X115208417Y-103755646D01*
X115322858Y-103708242D01*
X115479925Y-103677000D01*
X115640075Y-103677000D01*
X115797142Y-103708242D01*
X115797142Y-103708242D01*
G37*
G36*
X123417142Y-103708242D02*
X123531583Y-103755646D01*
X123557708Y-103766467D01*
X123565102Y-103769530D01*
X123698258Y-103858502D01*
X123811498Y-103971742D01*
X123900470Y-104104898D01*
X123961758Y-104252858D01*
X123993000Y-104409925D01*
X123993000Y-104570075D01*
X123961758Y-104727142D01*
X123914354Y-104841583D01*
X123900471Y-104875100D01*
X123811499Y-105008257D01*
X123698257Y-105121499D01*
X123632130Y-105165683D01*
X123565102Y-105210470D01*
X123417142Y-105271758D01*
X123260075Y-105303000D01*
X123099925Y-105303000D01*
X122942858Y-105271758D01*
X122794898Y-105210470D01*
X122727870Y-105165683D01*
X122661743Y-105121499D01*
X122548501Y-105008257D01*
X122459529Y-104875100D01*
X122445646Y-104841583D01*
X122398242Y-104727142D01*
X122367000Y-104570075D01*
X122367000Y-104409925D01*
X122398242Y-104252858D01*
X122459530Y-104104898D01*
X122548502Y-103971742D01*
X122661742Y-103858502D01*
X122794898Y-103769530D01*
X122802293Y-103766467D01*
X122828417Y-103755646D01*
X122942858Y-103708242D01*
X123099925Y-103677000D01*
X123260075Y-103677000D01*
X123417142Y-103708242D01*
X123417142Y-103708242D01*
G37*
G36*
X120877142Y-103708242D02*
X120991583Y-103755646D01*
X121017708Y-103766467D01*
X121025102Y-103769530D01*
X121158258Y-103858502D01*
X121271498Y-103971742D01*
X121360470Y-104104898D01*
X121421758Y-104252858D01*
X121453000Y-104409925D01*
X121453000Y-104570075D01*
X121421758Y-104727142D01*
X121374354Y-104841583D01*
X121360471Y-104875100D01*
X121271499Y-105008257D01*
X121158257Y-105121499D01*
X121092130Y-105165683D01*
X121025102Y-105210470D01*
X120877142Y-105271758D01*
X120720075Y-105303000D01*
X120559925Y-105303000D01*
X120402858Y-105271758D01*
X120254898Y-105210470D01*
X120187870Y-105165683D01*
X120121743Y-105121499D01*
X120008501Y-105008257D01*
X119919529Y-104875100D01*
X119905646Y-104841583D01*
X119858242Y-104727142D01*
X119827000Y-104570075D01*
X119827000Y-104409925D01*
X119858242Y-104252858D01*
X119919530Y-104104898D01*
X120008502Y-103971742D01*
X120121742Y-103858502D01*
X120254898Y-103769530D01*
X120262293Y-103766467D01*
X120288417Y-103755646D01*
X120402858Y-103708242D01*
X120559925Y-103677000D01*
X120720075Y-103677000D01*
X120877142Y-103708242D01*
X120877142Y-103708242D01*
G37*
G36*
X113257142Y-103708242D02*
X113371583Y-103755646D01*
X113397708Y-103766467D01*
X113405102Y-103769530D01*
X113538258Y-103858502D01*
X113651498Y-103971742D01*
X113740470Y-104104898D01*
X113801758Y-104252858D01*
X113833000Y-104409925D01*
X113833000Y-104570075D01*
X113801758Y-104727142D01*
X113754354Y-104841583D01*
X113740471Y-104875100D01*
X113651499Y-105008257D01*
X113538257Y-105121499D01*
X113472130Y-105165683D01*
X113405102Y-105210470D01*
X113257142Y-105271758D01*
X113100075Y-105303000D01*
X112939925Y-105303000D01*
X112782858Y-105271758D01*
X112634898Y-105210470D01*
X112567870Y-105165683D01*
X112501743Y-105121499D01*
X112388501Y-105008257D01*
X112299529Y-104875100D01*
X112285646Y-104841583D01*
X112238242Y-104727142D01*
X112207000Y-104570075D01*
X112207000Y-104409925D01*
X112238242Y-104252858D01*
X112299530Y-104104898D01*
X112388502Y-103971742D01*
X112501742Y-103858502D01*
X112634898Y-103769530D01*
X112642293Y-103766467D01*
X112668417Y-103755646D01*
X112782858Y-103708242D01*
X112939925Y-103677000D01*
X113100075Y-103677000D01*
X113257142Y-103708242D01*
X113257142Y-103708242D01*
G37*
G36*
X118337142Y-103708242D02*
X118451583Y-103755646D01*
X118477708Y-103766467D01*
X118485102Y-103769530D01*
X118618258Y-103858502D01*
X118731498Y-103971742D01*
X118820470Y-104104898D01*
X118881758Y-104252858D01*
X118913000Y-104409925D01*
X118913000Y-104570075D01*
X118881758Y-104727142D01*
X118834354Y-104841583D01*
X118820471Y-104875100D01*
X118731499Y-105008257D01*
X118618257Y-105121499D01*
X118552130Y-105165683D01*
X118485102Y-105210470D01*
X118337142Y-105271758D01*
X118180075Y-105303000D01*
X118019925Y-105303000D01*
X117862858Y-105271758D01*
X117714898Y-105210470D01*
X117647870Y-105165683D01*
X117581743Y-105121499D01*
X117468501Y-105008257D01*
X117379529Y-104875100D01*
X117365646Y-104841583D01*
X117318242Y-104727142D01*
X117287000Y-104570075D01*
X117287000Y-104409925D01*
X117318242Y-104252858D01*
X117379530Y-104104898D01*
X117468502Y-103971742D01*
X117581742Y-103858502D01*
X117714898Y-103769530D01*
X117722293Y-103766467D01*
X117748417Y-103755646D01*
X117862858Y-103708242D01*
X118019925Y-103677000D01*
X118180075Y-103677000D01*
X118337142Y-103708242D01*
X118337142Y-103708242D01*
G37*
G36*
X173468228Y-102761703D02*
X173623100Y-102825853D01*
X173762481Y-102918985D01*
X173881015Y-103037519D01*
X173974147Y-103176900D01*
X174038297Y-103331772D01*
X174071000Y-103496184D01*
X174071000Y-103663816D01*
X174038297Y-103828228D01*
X173974147Y-103983100D01*
X173881015Y-104122481D01*
X173762481Y-104241015D01*
X173623100Y-104334147D01*
X173468228Y-104398297D01*
X173303816Y-104431000D01*
X173136184Y-104431000D01*
X172971772Y-104398297D01*
X172816900Y-104334147D01*
X172677519Y-104241015D01*
X172558985Y-104122481D01*
X172465853Y-103983100D01*
X172401703Y-103828228D01*
X172369000Y-103663816D01*
X172369000Y-103496184D01*
X172401703Y-103331772D01*
X172465853Y-103176900D01*
X172558985Y-103037519D01*
X172677519Y-102918985D01*
X172816900Y-102825853D01*
X172971772Y-102761703D01*
X173136184Y-102729000D01*
X173303816Y-102729000D01*
X173468228Y-102761703D01*
X173468228Y-102761703D01*
G37*
G36*
X170928228Y-102761703D02*
X171083100Y-102825853D01*
X171222481Y-102918985D01*
X171341015Y-103037519D01*
X171434147Y-103176900D01*
X171498297Y-103331772D01*
X171531000Y-103496184D01*
X171531000Y-103663816D01*
X171498297Y-103828228D01*
X171434147Y-103983100D01*
X171341015Y-104122481D01*
X171222481Y-104241015D01*
X171083100Y-104334147D01*
X170928228Y-104398297D01*
X170763816Y-104431000D01*
X170596184Y-104431000D01*
X170431772Y-104398297D01*
X170276900Y-104334147D01*
X170137519Y-104241015D01*
X170018985Y-104122481D01*
X169925853Y-103983100D01*
X169861703Y-103828228D01*
X169829000Y-103663816D01*
X169829000Y-103496184D01*
X169861703Y-103331772D01*
X169925853Y-103176900D01*
X170018985Y-103037519D01*
X170137519Y-102918985D01*
X170276900Y-102825853D01*
X170431772Y-102761703D01*
X170596184Y-102729000D01*
X170763816Y-102729000D01*
X170928228Y-102761703D01*
X170928228Y-102761703D01*
G37*
G36*
X168388228Y-102761703D02*
X168543100Y-102825853D01*
X168682481Y-102918985D01*
X168801015Y-103037519D01*
X168894147Y-103176900D01*
X168958297Y-103331772D01*
X168991000Y-103496184D01*
X168991000Y-103663816D01*
X168958297Y-103828228D01*
X168894147Y-103983100D01*
X168801015Y-104122481D01*
X168682481Y-104241015D01*
X168543100Y-104334147D01*
X168388228Y-104398297D01*
X168223816Y-104431000D01*
X168056184Y-104431000D01*
X167891772Y-104398297D01*
X167736900Y-104334147D01*
X167597519Y-104241015D01*
X167478985Y-104122481D01*
X167385853Y-103983100D01*
X167321703Y-103828228D01*
X167289000Y-103663816D01*
X167289000Y-103496184D01*
X167321703Y-103331772D01*
X167385853Y-103176900D01*
X167478985Y-103037519D01*
X167597519Y-102918985D01*
X167736900Y-102825853D01*
X167891772Y-102761703D01*
X168056184Y-102729000D01*
X168223816Y-102729000D01*
X168388228Y-102761703D01*
X168388228Y-102761703D01*
G37*
G36*
X178548228Y-102761703D02*
X178703100Y-102825853D01*
X178842481Y-102918985D01*
X178961015Y-103037519D01*
X179054147Y-103176900D01*
X179118297Y-103331772D01*
X179151000Y-103496184D01*
X179151000Y-103663816D01*
X179118297Y-103828228D01*
X179054147Y-103983100D01*
X178961015Y-104122481D01*
X178842481Y-104241015D01*
X178703100Y-104334147D01*
X178548228Y-104398297D01*
X178383816Y-104431000D01*
X178216184Y-104431000D01*
X178051772Y-104398297D01*
X177896900Y-104334147D01*
X177757519Y-104241015D01*
X177638985Y-104122481D01*
X177545853Y-103983100D01*
X177481703Y-103828228D01*
X177449000Y-103663816D01*
X177449000Y-103496184D01*
X177481703Y-103331772D01*
X177545853Y-103176900D01*
X177638985Y-103037519D01*
X177757519Y-102918985D01*
X177896900Y-102825853D01*
X178051772Y-102761703D01*
X178216184Y-102729000D01*
X178383816Y-102729000D01*
X178548228Y-102761703D01*
X178548228Y-102761703D01*
G37*
G36*
X148068228Y-102761703D02*
X148223100Y-102825853D01*
X148362481Y-102918985D01*
X148481015Y-103037519D01*
X148574147Y-103176900D01*
X148638297Y-103331772D01*
X148671000Y-103496184D01*
X148671000Y-103663816D01*
X148638297Y-103828228D01*
X148574147Y-103983100D01*
X148481015Y-104122481D01*
X148362481Y-104241015D01*
X148223100Y-104334147D01*
X148068228Y-104398297D01*
X147903816Y-104431000D01*
X147736184Y-104431000D01*
X147571772Y-104398297D01*
X147416900Y-104334147D01*
X147277519Y-104241015D01*
X147158985Y-104122481D01*
X147065853Y-103983100D01*
X147001703Y-103828228D01*
X146969000Y-103663816D01*
X146969000Y-103496184D01*
X147001703Y-103331772D01*
X147065853Y-103176900D01*
X147158985Y-103037519D01*
X147277519Y-102918985D01*
X147416900Y-102825853D01*
X147571772Y-102761703D01*
X147736184Y-102729000D01*
X147903816Y-102729000D01*
X148068228Y-102761703D01*
X148068228Y-102761703D01*
G37*
G36*
X90710442Y-102525518D02*
X90776627Y-102532037D01*
X90889853Y-102566384D01*
X90946467Y-102583557D01*
X91085087Y-102657652D01*
X91102991Y-102667222D01*
X91138729Y-102696552D01*
X91240186Y-102779814D01*
X91323448Y-102881271D01*
X91352778Y-102917009D01*
X91352779Y-102917011D01*
X91436443Y-103073533D01*
X91436443Y-103073534D01*
X91487963Y-103243373D01*
X91505359Y-103420000D01*
X91487963Y-103596627D01*
X91467581Y-103663816D01*
X91436443Y-103766467D01*
X91362348Y-103905087D01*
X91352778Y-103922991D01*
X91323448Y-103958729D01*
X91240186Y-104060186D01*
X91164278Y-104122481D01*
X91102991Y-104172778D01*
X91102989Y-104172779D01*
X90946467Y-104256443D01*
X90889853Y-104273616D01*
X90776627Y-104307963D01*
X90710443Y-104314481D01*
X90644260Y-104321000D01*
X90555740Y-104321000D01*
X90489558Y-104314482D01*
X90423373Y-104307963D01*
X90310147Y-104273616D01*
X90253533Y-104256443D01*
X90097011Y-104172779D01*
X90097009Y-104172778D01*
X90035722Y-104122481D01*
X89959814Y-104060186D01*
X89876552Y-103958729D01*
X89847222Y-103922991D01*
X89837652Y-103905087D01*
X89763557Y-103766467D01*
X89732419Y-103663816D01*
X89712037Y-103596627D01*
X89694641Y-103420000D01*
X89712037Y-103243373D01*
X89763557Y-103073534D01*
X89763557Y-103073533D01*
X89847221Y-102917011D01*
X89847222Y-102917009D01*
X89876552Y-102881271D01*
X89959814Y-102779814D01*
X90061271Y-102696552D01*
X90097009Y-102667222D01*
X90114913Y-102657652D01*
X90253533Y-102583557D01*
X90310147Y-102566384D01*
X90423373Y-102532037D01*
X90489558Y-102525518D01*
X90555740Y-102519000D01*
X90644260Y-102519000D01*
X90710442Y-102525518D01*
X90710442Y-102525518D01*
G37*
G36*
X155688228Y-100221703D02*
X155843100Y-100285853D01*
X155982481Y-100378985D01*
X156101015Y-100497519D01*
X156194147Y-100636900D01*
X156258297Y-100791772D01*
X156291000Y-100956184D01*
X156291000Y-101123816D01*
X156258297Y-101288228D01*
X156194147Y-101443100D01*
X156101015Y-101582481D01*
X155982481Y-101701015D01*
X155843100Y-101794147D01*
X155688228Y-101858297D01*
X155523816Y-101891000D01*
X155356184Y-101891000D01*
X155191772Y-101858297D01*
X155036900Y-101794147D01*
X154897519Y-101701015D01*
X154778985Y-101582481D01*
X154685853Y-101443100D01*
X154621703Y-101288228D01*
X154589000Y-101123816D01*
X154589000Y-100956184D01*
X154621703Y-100791772D01*
X154685853Y-100636900D01*
X154778985Y-100497519D01*
X154897519Y-100378985D01*
X155036900Y-100285853D01*
X155191772Y-100221703D01*
X155356184Y-100189000D01*
X155523816Y-100189000D01*
X155688228Y-100221703D01*
X155688228Y-100221703D01*
G37*
G36*
X165848228Y-100221703D02*
X166003100Y-100285853D01*
X166142481Y-100378985D01*
X166261015Y-100497519D01*
X166354147Y-100636900D01*
X166418297Y-100791772D01*
X166451000Y-100956184D01*
X166451000Y-101123816D01*
X166418297Y-101288228D01*
X166354147Y-101443100D01*
X166261015Y-101582481D01*
X166142481Y-101701015D01*
X166003100Y-101794147D01*
X165848228Y-101858297D01*
X165683816Y-101891000D01*
X165516184Y-101891000D01*
X165351772Y-101858297D01*
X165196900Y-101794147D01*
X165057519Y-101701015D01*
X164938985Y-101582481D01*
X164845853Y-101443100D01*
X164781703Y-101288228D01*
X164749000Y-101123816D01*
X164749000Y-100956184D01*
X164781703Y-100791772D01*
X164845853Y-100636900D01*
X164938985Y-100497519D01*
X165057519Y-100378985D01*
X165196900Y-100285853D01*
X165351772Y-100221703D01*
X165516184Y-100189000D01*
X165683816Y-100189000D01*
X165848228Y-100221703D01*
X165848228Y-100221703D01*
G37*
G36*
X163308228Y-100221703D02*
X163463100Y-100285853D01*
X163602481Y-100378985D01*
X163721015Y-100497519D01*
X163814147Y-100636900D01*
X163878297Y-100791772D01*
X163911000Y-100956184D01*
X163911000Y-101123816D01*
X163878297Y-101288228D01*
X163814147Y-101443100D01*
X163721015Y-101582481D01*
X163602481Y-101701015D01*
X163463100Y-101794147D01*
X163308228Y-101858297D01*
X163143816Y-101891000D01*
X162976184Y-101891000D01*
X162811772Y-101858297D01*
X162656900Y-101794147D01*
X162517519Y-101701015D01*
X162398985Y-101582481D01*
X162305853Y-101443100D01*
X162241703Y-101288228D01*
X162209000Y-101123816D01*
X162209000Y-100956184D01*
X162241703Y-100791772D01*
X162305853Y-100636900D01*
X162398985Y-100497519D01*
X162517519Y-100378985D01*
X162656900Y-100285853D01*
X162811772Y-100221703D01*
X162976184Y-100189000D01*
X163143816Y-100189000D01*
X163308228Y-100221703D01*
X163308228Y-100221703D01*
G37*
G36*
X148068228Y-100221703D02*
X148223100Y-100285853D01*
X148362481Y-100378985D01*
X148481015Y-100497519D01*
X148574147Y-100636900D01*
X148638297Y-100791772D01*
X148671000Y-100956184D01*
X148671000Y-101123816D01*
X148638297Y-101288228D01*
X148574147Y-101443100D01*
X148481015Y-101582481D01*
X148362481Y-101701015D01*
X148223100Y-101794147D01*
X148068228Y-101858297D01*
X147903816Y-101891000D01*
X147736184Y-101891000D01*
X147571772Y-101858297D01*
X147416900Y-101794147D01*
X147277519Y-101701015D01*
X147158985Y-101582481D01*
X147065853Y-101443100D01*
X147001703Y-101288228D01*
X146969000Y-101123816D01*
X146969000Y-100956184D01*
X147001703Y-100791772D01*
X147065853Y-100636900D01*
X147158985Y-100497519D01*
X147277519Y-100378985D01*
X147416900Y-100285853D01*
X147571772Y-100221703D01*
X147736184Y-100189000D01*
X147903816Y-100189000D01*
X148068228Y-100221703D01*
X148068228Y-100221703D01*
G37*
G36*
X150608228Y-100221703D02*
X150763100Y-100285853D01*
X150902481Y-100378985D01*
X151021015Y-100497519D01*
X151114147Y-100636900D01*
X151178297Y-100791772D01*
X151211000Y-100956184D01*
X151211000Y-101123816D01*
X151178297Y-101288228D01*
X151114147Y-101443100D01*
X151021015Y-101582481D01*
X150902481Y-101701015D01*
X150763100Y-101794147D01*
X150608228Y-101858297D01*
X150443816Y-101891000D01*
X150276184Y-101891000D01*
X150111772Y-101858297D01*
X149956900Y-101794147D01*
X149817519Y-101701015D01*
X149698985Y-101582481D01*
X149605853Y-101443100D01*
X149541703Y-101288228D01*
X149509000Y-101123816D01*
X149509000Y-100956184D01*
X149541703Y-100791772D01*
X149605853Y-100636900D01*
X149698985Y-100497519D01*
X149817519Y-100378985D01*
X149956900Y-100285853D01*
X150111772Y-100221703D01*
X150276184Y-100189000D01*
X150443816Y-100189000D01*
X150608228Y-100221703D01*
X150608228Y-100221703D01*
G37*
G36*
X153148228Y-100221703D02*
X153303100Y-100285853D01*
X153442481Y-100378985D01*
X153561015Y-100497519D01*
X153654147Y-100636900D01*
X153718297Y-100791772D01*
X153751000Y-100956184D01*
X153751000Y-101123816D01*
X153718297Y-101288228D01*
X153654147Y-101443100D01*
X153561015Y-101582481D01*
X153442481Y-101701015D01*
X153303100Y-101794147D01*
X153148228Y-101858297D01*
X152983816Y-101891000D01*
X152816184Y-101891000D01*
X152651772Y-101858297D01*
X152496900Y-101794147D01*
X152357519Y-101701015D01*
X152238985Y-101582481D01*
X152145853Y-101443100D01*
X152081703Y-101288228D01*
X152049000Y-101123816D01*
X152049000Y-100956184D01*
X152081703Y-100791772D01*
X152145853Y-100636900D01*
X152238985Y-100497519D01*
X152357519Y-100378985D01*
X152496900Y-100285853D01*
X152651772Y-100221703D01*
X152816184Y-100189000D01*
X152983816Y-100189000D01*
X153148228Y-100221703D01*
X153148228Y-100221703D01*
G37*
G36*
X160768228Y-100221703D02*
X160923100Y-100285853D01*
X161062481Y-100378985D01*
X161181015Y-100497519D01*
X161274147Y-100636900D01*
X161338297Y-100791772D01*
X161371000Y-100956184D01*
X161371000Y-101123816D01*
X161338297Y-101288228D01*
X161274147Y-101443100D01*
X161181015Y-101582481D01*
X161062481Y-101701015D01*
X160923100Y-101794147D01*
X160768228Y-101858297D01*
X160603816Y-101891000D01*
X160436184Y-101891000D01*
X160271772Y-101858297D01*
X160116900Y-101794147D01*
X159977519Y-101701015D01*
X159858985Y-101582481D01*
X159765853Y-101443100D01*
X159701703Y-101288228D01*
X159669000Y-101123816D01*
X159669000Y-100956184D01*
X159701703Y-100791772D01*
X159765853Y-100636900D01*
X159858985Y-100497519D01*
X159977519Y-100378985D01*
X160116900Y-100285853D01*
X160271772Y-100221703D01*
X160436184Y-100189000D01*
X160603816Y-100189000D01*
X160768228Y-100221703D01*
X160768228Y-100221703D01*
G37*
G36*
X158228228Y-100221703D02*
X158383100Y-100285853D01*
X158522481Y-100378985D01*
X158641015Y-100497519D01*
X158734147Y-100636900D01*
X158798297Y-100791772D01*
X158831000Y-100956184D01*
X158831000Y-101123816D01*
X158798297Y-101288228D01*
X158734147Y-101443100D01*
X158641015Y-101582481D01*
X158522481Y-101701015D01*
X158383100Y-101794147D01*
X158228228Y-101858297D01*
X158063816Y-101891000D01*
X157896184Y-101891000D01*
X157731772Y-101858297D01*
X157576900Y-101794147D01*
X157437519Y-101701015D01*
X157318985Y-101582481D01*
X157225853Y-101443100D01*
X157161703Y-101288228D01*
X157129000Y-101123816D01*
X157129000Y-100956184D01*
X157161703Y-100791772D01*
X157225853Y-100636900D01*
X157318985Y-100497519D01*
X157437519Y-100378985D01*
X157576900Y-100285853D01*
X157731772Y-100221703D01*
X157896184Y-100189000D01*
X158063816Y-100189000D01*
X158228228Y-100221703D01*
X158228228Y-100221703D01*
G37*
G36*
X179818228Y-99581703D02*
X179973100Y-99645853D01*
X180112481Y-99738985D01*
X180231015Y-99857519D01*
X180324147Y-99996900D01*
X180388297Y-100151772D01*
X180421000Y-100316184D01*
X180421000Y-100483816D01*
X180388297Y-100648228D01*
X180324147Y-100803100D01*
X180231015Y-100942481D01*
X180112481Y-101061015D01*
X179973100Y-101154147D01*
X179818228Y-101218297D01*
X179653816Y-101251000D01*
X179486184Y-101251000D01*
X179321772Y-101218297D01*
X179166900Y-101154147D01*
X179027519Y-101061015D01*
X178908985Y-100942481D01*
X178815853Y-100803100D01*
X178751703Y-100648228D01*
X178719000Y-100483816D01*
X178719000Y-100316184D01*
X178751703Y-100151772D01*
X178815853Y-99996900D01*
X178908985Y-99857519D01*
X179027519Y-99738985D01*
X179166900Y-99645853D01*
X179321772Y-99581703D01*
X179486184Y-99549000D01*
X179653816Y-99549000D01*
X179818228Y-99581703D01*
X179818228Y-99581703D01*
G37*
G36*
X148068228Y-97681703D02*
X148223100Y-97745853D01*
X148362481Y-97838985D01*
X148481015Y-97957519D01*
X148574147Y-98096900D01*
X148638297Y-98251772D01*
X148671000Y-98416184D01*
X148671000Y-98583816D01*
X148638297Y-98748228D01*
X148574147Y-98903100D01*
X148481015Y-99042481D01*
X148362481Y-99161015D01*
X148223100Y-99254147D01*
X148068228Y-99318297D01*
X147903816Y-99351000D01*
X147736184Y-99351000D01*
X147571772Y-99318297D01*
X147416900Y-99254147D01*
X147277519Y-99161015D01*
X147158985Y-99042481D01*
X147065853Y-98903100D01*
X147001703Y-98748228D01*
X146969000Y-98583816D01*
X146969000Y-98416184D01*
X147001703Y-98251772D01*
X147065853Y-98096900D01*
X147158985Y-97957519D01*
X147277519Y-97838985D01*
X147416900Y-97745853D01*
X147571772Y-97681703D01*
X147736184Y-97649000D01*
X147903816Y-97649000D01*
X148068228Y-97681703D01*
X148068228Y-97681703D01*
G37*
G36*
X163308228Y-97681703D02*
X163463100Y-97745853D01*
X163602481Y-97838985D01*
X163721015Y-97957519D01*
X163814147Y-98096900D01*
X163878297Y-98251772D01*
X163911000Y-98416184D01*
X163911000Y-98583816D01*
X163878297Y-98748228D01*
X163814147Y-98903100D01*
X163721015Y-99042481D01*
X163602481Y-99161015D01*
X163463100Y-99254147D01*
X163308228Y-99318297D01*
X163143816Y-99351000D01*
X162976184Y-99351000D01*
X162811772Y-99318297D01*
X162656900Y-99254147D01*
X162517519Y-99161015D01*
X162398985Y-99042481D01*
X162305853Y-98903100D01*
X162241703Y-98748228D01*
X162209000Y-98583816D01*
X162209000Y-98416184D01*
X162241703Y-98251772D01*
X162305853Y-98096900D01*
X162398985Y-97957519D01*
X162517519Y-97838985D01*
X162656900Y-97745853D01*
X162811772Y-97681703D01*
X162976184Y-97649000D01*
X163143816Y-97649000D01*
X163308228Y-97681703D01*
X163308228Y-97681703D01*
G37*
G36*
X160768228Y-97681703D02*
X160923100Y-97745853D01*
X161062481Y-97838985D01*
X161181015Y-97957519D01*
X161274147Y-98096900D01*
X161338297Y-98251772D01*
X161371000Y-98416184D01*
X161371000Y-98583816D01*
X161338297Y-98748228D01*
X161274147Y-98903100D01*
X161181015Y-99042481D01*
X161062481Y-99161015D01*
X160923100Y-99254147D01*
X160768228Y-99318297D01*
X160603816Y-99351000D01*
X160436184Y-99351000D01*
X160271772Y-99318297D01*
X160116900Y-99254147D01*
X159977519Y-99161015D01*
X159858985Y-99042481D01*
X159765853Y-98903100D01*
X159701703Y-98748228D01*
X159669000Y-98583816D01*
X159669000Y-98416184D01*
X159701703Y-98251772D01*
X159765853Y-98096900D01*
X159858985Y-97957519D01*
X159977519Y-97838985D01*
X160116900Y-97745853D01*
X160271772Y-97681703D01*
X160436184Y-97649000D01*
X160603816Y-97649000D01*
X160768228Y-97681703D01*
X160768228Y-97681703D01*
G37*
G36*
X158228228Y-97681703D02*
X158383100Y-97745853D01*
X158522481Y-97838985D01*
X158641015Y-97957519D01*
X158734147Y-98096900D01*
X158798297Y-98251772D01*
X158831000Y-98416184D01*
X158831000Y-98583816D01*
X158798297Y-98748228D01*
X158734147Y-98903100D01*
X158641015Y-99042481D01*
X158522481Y-99161015D01*
X158383100Y-99254147D01*
X158228228Y-99318297D01*
X158063816Y-99351000D01*
X157896184Y-99351000D01*
X157731772Y-99318297D01*
X157576900Y-99254147D01*
X157437519Y-99161015D01*
X157318985Y-99042481D01*
X157225853Y-98903100D01*
X157161703Y-98748228D01*
X157129000Y-98583816D01*
X157129000Y-98416184D01*
X157161703Y-98251772D01*
X157225853Y-98096900D01*
X157318985Y-97957519D01*
X157437519Y-97838985D01*
X157576900Y-97745853D01*
X157731772Y-97681703D01*
X157896184Y-97649000D01*
X158063816Y-97649000D01*
X158228228Y-97681703D01*
X158228228Y-97681703D01*
G37*
G36*
X153148228Y-97681703D02*
X153303100Y-97745853D01*
X153442481Y-97838985D01*
X153561015Y-97957519D01*
X153654147Y-98096900D01*
X153718297Y-98251772D01*
X153751000Y-98416184D01*
X153751000Y-98583816D01*
X153718297Y-98748228D01*
X153654147Y-98903100D01*
X153561015Y-99042481D01*
X153442481Y-99161015D01*
X153303100Y-99254147D01*
X153148228Y-99318297D01*
X152983816Y-99351000D01*
X152816184Y-99351000D01*
X152651772Y-99318297D01*
X152496900Y-99254147D01*
X152357519Y-99161015D01*
X152238985Y-99042481D01*
X152145853Y-98903100D01*
X152081703Y-98748228D01*
X152049000Y-98583816D01*
X152049000Y-98416184D01*
X152081703Y-98251772D01*
X152145853Y-98096900D01*
X152238985Y-97957519D01*
X152357519Y-97838985D01*
X152496900Y-97745853D01*
X152651772Y-97681703D01*
X152816184Y-97649000D01*
X152983816Y-97649000D01*
X153148228Y-97681703D01*
X153148228Y-97681703D01*
G37*
G36*
X150608228Y-97681703D02*
X150763100Y-97745853D01*
X150902481Y-97838985D01*
X151021015Y-97957519D01*
X151114147Y-98096900D01*
X151178297Y-98251772D01*
X151211000Y-98416184D01*
X151211000Y-98583816D01*
X151178297Y-98748228D01*
X151114147Y-98903100D01*
X151021015Y-99042481D01*
X150902481Y-99161015D01*
X150763100Y-99254147D01*
X150608228Y-99318297D01*
X150443816Y-99351000D01*
X150276184Y-99351000D01*
X150111772Y-99318297D01*
X149956900Y-99254147D01*
X149817519Y-99161015D01*
X149698985Y-99042481D01*
X149605853Y-98903100D01*
X149541703Y-98748228D01*
X149509000Y-98583816D01*
X149509000Y-98416184D01*
X149541703Y-98251772D01*
X149605853Y-98096900D01*
X149698985Y-97957519D01*
X149817519Y-97838985D01*
X149956900Y-97745853D01*
X150111772Y-97681703D01*
X150276184Y-97649000D01*
X150443816Y-97649000D01*
X150608228Y-97681703D01*
X150608228Y-97681703D01*
G37*
G36*
X165848228Y-97681703D02*
X166003100Y-97745853D01*
X166142481Y-97838985D01*
X166261015Y-97957519D01*
X166354147Y-98096900D01*
X166418297Y-98251772D01*
X166451000Y-98416184D01*
X166451000Y-98583816D01*
X166418297Y-98748228D01*
X166354147Y-98903100D01*
X166261015Y-99042481D01*
X166142481Y-99161015D01*
X166003100Y-99254147D01*
X165848228Y-99318297D01*
X165683816Y-99351000D01*
X165516184Y-99351000D01*
X165351772Y-99318297D01*
X165196900Y-99254147D01*
X165057519Y-99161015D01*
X164938985Y-99042481D01*
X164845853Y-98903100D01*
X164781703Y-98748228D01*
X164749000Y-98583816D01*
X164749000Y-98416184D01*
X164781703Y-98251772D01*
X164845853Y-98096900D01*
X164938985Y-97957519D01*
X165057519Y-97838985D01*
X165196900Y-97745853D01*
X165351772Y-97681703D01*
X165516184Y-97649000D01*
X165683816Y-97649000D01*
X165848228Y-97681703D01*
X165848228Y-97681703D01*
G37*
G36*
X155688228Y-97681703D02*
X155843100Y-97745853D01*
X155982481Y-97838985D01*
X156101015Y-97957519D01*
X156194147Y-98096900D01*
X156258297Y-98251772D01*
X156291000Y-98416184D01*
X156291000Y-98583816D01*
X156258297Y-98748228D01*
X156194147Y-98903100D01*
X156101015Y-99042481D01*
X155982481Y-99161015D01*
X155843100Y-99254147D01*
X155688228Y-99318297D01*
X155523816Y-99351000D01*
X155356184Y-99351000D01*
X155191772Y-99318297D01*
X155036900Y-99254147D01*
X154897519Y-99161015D01*
X154778985Y-99042481D01*
X154685853Y-98903100D01*
X154621703Y-98748228D01*
X154589000Y-98583816D01*
X154589000Y-98416184D01*
X154621703Y-98251772D01*
X154685853Y-98096900D01*
X154778985Y-97957519D01*
X154897519Y-97838985D01*
X155036900Y-97745853D01*
X155191772Y-97681703D01*
X155356184Y-97649000D01*
X155523816Y-97649000D01*
X155688228Y-97681703D01*
X155688228Y-97681703D01*
G37*
G36*
X174738228Y-97451703D02*
X174893100Y-97515853D01*
X175032481Y-97608985D01*
X175151015Y-97727519D01*
X175244147Y-97866900D01*
X175308297Y-98021772D01*
X175341000Y-98186184D01*
X175341000Y-98353816D01*
X175308297Y-98518228D01*
X175244147Y-98673100D01*
X175151015Y-98812481D01*
X175032481Y-98931015D01*
X174893100Y-99024147D01*
X174738228Y-99088297D01*
X174573816Y-99121000D01*
X174406184Y-99121000D01*
X174241772Y-99088297D01*
X174086900Y-99024147D01*
X173947519Y-98931015D01*
X173828985Y-98812481D01*
X173735853Y-98673100D01*
X173671703Y-98518228D01*
X173639000Y-98353816D01*
X173639000Y-98186184D01*
X173671703Y-98021772D01*
X173735853Y-97866900D01*
X173828985Y-97727519D01*
X173947519Y-97608985D01*
X174086900Y-97515853D01*
X174241772Y-97451703D01*
X174406184Y-97419000D01*
X174573816Y-97419000D01*
X174738228Y-97451703D01*
X174738228Y-97451703D01*
G37*
G36*
X179818228Y-97451703D02*
X179973100Y-97515853D01*
X180112481Y-97608985D01*
X180231015Y-97727519D01*
X180324147Y-97866900D01*
X180388297Y-98021772D01*
X180421000Y-98186184D01*
X180421000Y-98353816D01*
X180388297Y-98518228D01*
X180324147Y-98673100D01*
X180231015Y-98812481D01*
X180112481Y-98931015D01*
X179973100Y-99024147D01*
X179818228Y-99088297D01*
X179653816Y-99121000D01*
X179486184Y-99121000D01*
X179321772Y-99088297D01*
X179166900Y-99024147D01*
X179027519Y-98931015D01*
X178908985Y-98812481D01*
X178815853Y-98673100D01*
X178751703Y-98518228D01*
X178719000Y-98353816D01*
X178719000Y-98186184D01*
X178751703Y-98021772D01*
X178815853Y-97866900D01*
X178908985Y-97727519D01*
X179027519Y-97608985D01*
X179166900Y-97515853D01*
X179321772Y-97451703D01*
X179486184Y-97419000D01*
X179653816Y-97419000D01*
X179818228Y-97451703D01*
X179818228Y-97451703D01*
G37*
G36*
X108228600Y-96759867D02*
X108319059Y-96777860D01*
X108455732Y-96834472D01*
X108512715Y-96872547D01*
X108578738Y-96916662D01*
X108683338Y-97021262D01*
X108683340Y-97021265D01*
X108765528Y-97144268D01*
X108822140Y-97280941D01*
X108836429Y-97352778D01*
X108851000Y-97426031D01*
X108851000Y-97573969D01*
X108839456Y-97632004D01*
X108822140Y-97719059D01*
X108765528Y-97855732D01*
X108697516Y-97957519D01*
X108683338Y-97978738D01*
X108578738Y-98083338D01*
X108578735Y-98083340D01*
X108455732Y-98165528D01*
X108319059Y-98222140D01*
X108232004Y-98239456D01*
X108173969Y-98251000D01*
X108026031Y-98251000D01*
X107967996Y-98239456D01*
X107880941Y-98222140D01*
X107744268Y-98165528D01*
X107621265Y-98083340D01*
X107621262Y-98083338D01*
X107516662Y-97978738D01*
X107502484Y-97957519D01*
X107434472Y-97855732D01*
X107377860Y-97719059D01*
X107360544Y-97632004D01*
X107349000Y-97573969D01*
X107349000Y-97426031D01*
X107363571Y-97352778D01*
X107377860Y-97280941D01*
X107434472Y-97144268D01*
X107516660Y-97021265D01*
X107516662Y-97021262D01*
X107621262Y-96916662D01*
X107687285Y-96872547D01*
X107744268Y-96834472D01*
X107880941Y-96777860D01*
X107971400Y-96759867D01*
X108026031Y-96749000D01*
X108173969Y-96749000D01*
X108228600Y-96759867D01*
X108228600Y-96759867D01*
G37*
G36*
X100553665Y-96752622D02*
X100627222Y-96759867D01*
X100768786Y-96802810D01*
X100899252Y-96872546D01*
X101013606Y-96966394D01*
X101107454Y-97080748D01*
X101177190Y-97211214D01*
X101220133Y-97352778D01*
X101234633Y-97500000D01*
X101220133Y-97647222D01*
X101177190Y-97788786D01*
X101107454Y-97919252D01*
X101013606Y-98033606D01*
X100899252Y-98127454D01*
X100768786Y-98197190D01*
X100627222Y-98240133D01*
X100553665Y-98247378D01*
X100516888Y-98251000D01*
X100443112Y-98251000D01*
X100406335Y-98247378D01*
X100332778Y-98240133D01*
X100191214Y-98197190D01*
X100060748Y-98127454D01*
X99946394Y-98033606D01*
X99852546Y-97919252D01*
X99782810Y-97788786D01*
X99739867Y-97647222D01*
X99725367Y-97500000D01*
X99739867Y-97352778D01*
X99782810Y-97211214D01*
X99852546Y-97080748D01*
X99946394Y-96966394D01*
X100060748Y-96872546D01*
X100191214Y-96802810D01*
X100332778Y-96759867D01*
X100406335Y-96752622D01*
X100443112Y-96749000D01*
X100516888Y-96749000D01*
X100553665Y-96752622D01*
X100553665Y-96752622D01*
G37*
G36*
X91501000Y-96861000D02*
X89699000Y-96861000D01*
X89699000Y-95059000D01*
X91501000Y-95059000D01*
X91501000Y-96861000D01*
X91501000Y-96861000D01*
G37*
G36*
X148068228Y-95141703D02*
X148223100Y-95205853D01*
X148362481Y-95298985D01*
X148481015Y-95417519D01*
X148574147Y-95556900D01*
X148638297Y-95711772D01*
X148671000Y-95876184D01*
X148671000Y-96043816D01*
X148638297Y-96208228D01*
X148574147Y-96363100D01*
X148481015Y-96502481D01*
X148362481Y-96621015D01*
X148223100Y-96714147D01*
X148068228Y-96778297D01*
X147903816Y-96811000D01*
X147736184Y-96811000D01*
X147571772Y-96778297D01*
X147416900Y-96714147D01*
X147277519Y-96621015D01*
X147158985Y-96502481D01*
X147065853Y-96363100D01*
X147001703Y-96208228D01*
X146969000Y-96043816D01*
X146969000Y-95876184D01*
X147001703Y-95711772D01*
X147065853Y-95556900D01*
X147158985Y-95417519D01*
X147277519Y-95298985D01*
X147416900Y-95205853D01*
X147571772Y-95141703D01*
X147736184Y-95109000D01*
X147903816Y-95109000D01*
X148068228Y-95141703D01*
X148068228Y-95141703D01*
G37*
G36*
X90710442Y-92525518D02*
X90776627Y-92532037D01*
X90889853Y-92566384D01*
X90946467Y-92583557D01*
X91085087Y-92657652D01*
X91102991Y-92667222D01*
X91138729Y-92696552D01*
X91240186Y-92779814D01*
X91320369Y-92877519D01*
X91352778Y-92917009D01*
X91352779Y-92917011D01*
X91436443Y-93073533D01*
X91436443Y-93073534D01*
X91487963Y-93243373D01*
X91505359Y-93420000D01*
X91487963Y-93596627D01*
X91466243Y-93668228D01*
X91436443Y-93766467D01*
X91362348Y-93905087D01*
X91352778Y-93922991D01*
X91323448Y-93958729D01*
X91240186Y-94060186D01*
X91138729Y-94143448D01*
X91102991Y-94172778D01*
X91102989Y-94172779D01*
X90946467Y-94256443D01*
X90898478Y-94271000D01*
X90776627Y-94307963D01*
X90710443Y-94314481D01*
X90644260Y-94321000D01*
X90555740Y-94321000D01*
X90489557Y-94314481D01*
X90423373Y-94307963D01*
X90301522Y-94271000D01*
X90253533Y-94256443D01*
X90097011Y-94172779D01*
X90097009Y-94172778D01*
X90061271Y-94143448D01*
X89959814Y-94060186D01*
X89876552Y-93958729D01*
X89847222Y-93922991D01*
X89837652Y-93905087D01*
X89763557Y-93766467D01*
X89733757Y-93668228D01*
X89712037Y-93596627D01*
X89694641Y-93420000D01*
X89712037Y-93243373D01*
X89763557Y-93073534D01*
X89763557Y-93073533D01*
X89847221Y-92917011D01*
X89847222Y-92917009D01*
X89879631Y-92877519D01*
X89959814Y-92779814D01*
X90061271Y-92696552D01*
X90097009Y-92667222D01*
X90114913Y-92657652D01*
X90253533Y-92583557D01*
X90310147Y-92566384D01*
X90423373Y-92532037D01*
X90489558Y-92525518D01*
X90555740Y-92519000D01*
X90644260Y-92519000D01*
X90710442Y-92525518D01*
X90710442Y-92525518D01*
G37*
G36*
X148068228Y-92601703D02*
X148223100Y-92665853D01*
X148362481Y-92758985D01*
X148481015Y-92877519D01*
X148574147Y-93016900D01*
X148638297Y-93171772D01*
X148671000Y-93336184D01*
X148671000Y-93503816D01*
X148638297Y-93668228D01*
X148574147Y-93823100D01*
X148481015Y-93962481D01*
X148362481Y-94081015D01*
X148223100Y-94174147D01*
X148068228Y-94238297D01*
X147903816Y-94271000D01*
X147736184Y-94271000D01*
X147571772Y-94238297D01*
X147416900Y-94174147D01*
X147277519Y-94081015D01*
X147158985Y-93962481D01*
X147065853Y-93823100D01*
X147001703Y-93668228D01*
X146969000Y-93503816D01*
X146969000Y-93336184D01*
X147001703Y-93171772D01*
X147065853Y-93016900D01*
X147158985Y-92877519D01*
X147277519Y-92758985D01*
X147416900Y-92665853D01*
X147571772Y-92601703D01*
X147736184Y-92569000D01*
X147903816Y-92569000D01*
X148068228Y-92601703D01*
X148068228Y-92601703D01*
G37*
G36*
X100848228Y-90181703D02*
X101003100Y-90245853D01*
X101142481Y-90338985D01*
X101261015Y-90457519D01*
X101354147Y-90596900D01*
X101418297Y-90751772D01*
X101451000Y-90916184D01*
X101451000Y-91083816D01*
X101418297Y-91248228D01*
X101354147Y-91403100D01*
X101261015Y-91542481D01*
X101142481Y-91661015D01*
X101003100Y-91754147D01*
X100848228Y-91818297D01*
X100683816Y-91851000D01*
X100516184Y-91851000D01*
X100351772Y-91818297D01*
X100196900Y-91754147D01*
X100057519Y-91661015D01*
X99938985Y-91542481D01*
X99845853Y-91403100D01*
X99781703Y-91248228D01*
X99749000Y-91083816D01*
X99749000Y-90916184D01*
X99781703Y-90751772D01*
X99845853Y-90596900D01*
X99938985Y-90457519D01*
X100057519Y-90338985D01*
X100196900Y-90245853D01*
X100351772Y-90181703D01*
X100516184Y-90149000D01*
X100683816Y-90149000D01*
X100848228Y-90181703D01*
X100848228Y-90181703D01*
G37*
G36*
X103348228Y-90181703D02*
X103503100Y-90245853D01*
X103642481Y-90338985D01*
X103761015Y-90457519D01*
X103854147Y-90596900D01*
X103918297Y-90751772D01*
X103951000Y-90916184D01*
X103951000Y-91083816D01*
X103918297Y-91248228D01*
X103854147Y-91403100D01*
X103761015Y-91542481D01*
X103642481Y-91661015D01*
X103503100Y-91754147D01*
X103348228Y-91818297D01*
X103183816Y-91851000D01*
X103016184Y-91851000D01*
X102851772Y-91818297D01*
X102696900Y-91754147D01*
X102557519Y-91661015D01*
X102438985Y-91542481D01*
X102345853Y-91403100D01*
X102281703Y-91248228D01*
X102249000Y-91083816D01*
X102249000Y-90916184D01*
X102281703Y-90751772D01*
X102345853Y-90596900D01*
X102438985Y-90457519D01*
X102557519Y-90338985D01*
X102696900Y-90245853D01*
X102851772Y-90181703D01*
X103016184Y-90149000D01*
X103183816Y-90149000D01*
X103348228Y-90181703D01*
X103348228Y-90181703D01*
G37*
G36*
X108348228Y-90181703D02*
X108503100Y-90245853D01*
X108642481Y-90338985D01*
X108761015Y-90457519D01*
X108854147Y-90596900D01*
X108918297Y-90751772D01*
X108951000Y-90916184D01*
X108951000Y-91083816D01*
X108918297Y-91248228D01*
X108854147Y-91403100D01*
X108761015Y-91542481D01*
X108642481Y-91661015D01*
X108503100Y-91754147D01*
X108348228Y-91818297D01*
X108183816Y-91851000D01*
X108016184Y-91851000D01*
X107851772Y-91818297D01*
X107696900Y-91754147D01*
X107557519Y-91661015D01*
X107438985Y-91542481D01*
X107345853Y-91403100D01*
X107281703Y-91248228D01*
X107249000Y-91083816D01*
X107249000Y-90916184D01*
X107281703Y-90751772D01*
X107345853Y-90596900D01*
X107438985Y-90457519D01*
X107557519Y-90338985D01*
X107696900Y-90245853D01*
X107851772Y-90181703D01*
X108016184Y-90149000D01*
X108183816Y-90149000D01*
X108348228Y-90181703D01*
X108348228Y-90181703D01*
G37*
G36*
X110848228Y-90181703D02*
X111003100Y-90245853D01*
X111142481Y-90338985D01*
X111261015Y-90457519D01*
X111354147Y-90596900D01*
X111418297Y-90751772D01*
X111451000Y-90916184D01*
X111451000Y-91083816D01*
X111418297Y-91248228D01*
X111354147Y-91403100D01*
X111261015Y-91542481D01*
X111142481Y-91661015D01*
X111003100Y-91754147D01*
X110848228Y-91818297D01*
X110683816Y-91851000D01*
X110516184Y-91851000D01*
X110351772Y-91818297D01*
X110196900Y-91754147D01*
X110057519Y-91661015D01*
X109938985Y-91542481D01*
X109845853Y-91403100D01*
X109781703Y-91248228D01*
X109749000Y-91083816D01*
X109749000Y-90916184D01*
X109781703Y-90751772D01*
X109845853Y-90596900D01*
X109938985Y-90457519D01*
X110057519Y-90338985D01*
X110196900Y-90245853D01*
X110351772Y-90181703D01*
X110516184Y-90149000D01*
X110683816Y-90149000D01*
X110848228Y-90181703D01*
X110848228Y-90181703D01*
G37*
G36*
X90710443Y-89985519D02*
X90776627Y-89992037D01*
X90889853Y-90026384D01*
X90946467Y-90043557D01*
X91085087Y-90117652D01*
X91102991Y-90127222D01*
X91129527Y-90149000D01*
X91240186Y-90239814D01*
X91320369Y-90337519D01*
X91352778Y-90377009D01*
X91352779Y-90377011D01*
X91436443Y-90533533D01*
X91436443Y-90533534D01*
X91487963Y-90703373D01*
X91505359Y-90880000D01*
X91487963Y-91056627D01*
X91479715Y-91083816D01*
X91436443Y-91226467D01*
X91362348Y-91365087D01*
X91352778Y-91382991D01*
X91336275Y-91403100D01*
X91240186Y-91520186D01*
X91138729Y-91603448D01*
X91102991Y-91632778D01*
X91102989Y-91632779D01*
X90946467Y-91716443D01*
X90898478Y-91731000D01*
X90776627Y-91767963D01*
X90710442Y-91774482D01*
X90644260Y-91781000D01*
X90555740Y-91781000D01*
X90489558Y-91774482D01*
X90423373Y-91767963D01*
X90301522Y-91731000D01*
X90253533Y-91716443D01*
X90097011Y-91632779D01*
X90097009Y-91632778D01*
X90061271Y-91603448D01*
X89959814Y-91520186D01*
X89863725Y-91403100D01*
X89847222Y-91382991D01*
X89837652Y-91365087D01*
X89763557Y-91226467D01*
X89720285Y-91083816D01*
X89712037Y-91056627D01*
X89694641Y-90880000D01*
X89712037Y-90703373D01*
X89763557Y-90533534D01*
X89763557Y-90533533D01*
X89847221Y-90377011D01*
X89847222Y-90377009D01*
X89879631Y-90337519D01*
X89959814Y-90239814D01*
X90070473Y-90149000D01*
X90097009Y-90127222D01*
X90114913Y-90117652D01*
X90253533Y-90043557D01*
X90310147Y-90026384D01*
X90423373Y-89992037D01*
X90489557Y-89985519D01*
X90555740Y-89979000D01*
X90644260Y-89979000D01*
X90710443Y-89985519D01*
X90710443Y-89985519D01*
G37*
G36*
X168388228Y-90061703D02*
X168543100Y-90125853D01*
X168682481Y-90218985D01*
X168801015Y-90337519D01*
X168894147Y-90476900D01*
X168958297Y-90631772D01*
X168991000Y-90796184D01*
X168991000Y-90963816D01*
X168958297Y-91128228D01*
X168894147Y-91283100D01*
X168801015Y-91422481D01*
X168682481Y-91541015D01*
X168543100Y-91634147D01*
X168388228Y-91698297D01*
X168223816Y-91731000D01*
X168056184Y-91731000D01*
X167891772Y-91698297D01*
X167736900Y-91634147D01*
X167597519Y-91541015D01*
X167478985Y-91422481D01*
X167385853Y-91283100D01*
X167321703Y-91128228D01*
X167289000Y-90963816D01*
X167289000Y-90796184D01*
X167321703Y-90631772D01*
X167385853Y-90476900D01*
X167478985Y-90337519D01*
X167597519Y-90218985D01*
X167736900Y-90125853D01*
X167891772Y-90061703D01*
X168056184Y-90029000D01*
X168223816Y-90029000D01*
X168388228Y-90061703D01*
X168388228Y-90061703D01*
G37*
G36*
X178548228Y-90061703D02*
X178703100Y-90125853D01*
X178842481Y-90218985D01*
X178961015Y-90337519D01*
X179054147Y-90476900D01*
X179118297Y-90631772D01*
X179151000Y-90796184D01*
X179151000Y-90963816D01*
X179118297Y-91128228D01*
X179054147Y-91283100D01*
X178961015Y-91422481D01*
X178842481Y-91541015D01*
X178703100Y-91634147D01*
X178548228Y-91698297D01*
X178383816Y-91731000D01*
X178216184Y-91731000D01*
X178051772Y-91698297D01*
X177896900Y-91634147D01*
X177757519Y-91541015D01*
X177638985Y-91422481D01*
X177545853Y-91283100D01*
X177481703Y-91128228D01*
X177449000Y-90963816D01*
X177449000Y-90796184D01*
X177481703Y-90631772D01*
X177545853Y-90476900D01*
X177638985Y-90337519D01*
X177757519Y-90218985D01*
X177896900Y-90125853D01*
X178051772Y-90061703D01*
X178216184Y-90029000D01*
X178383816Y-90029000D01*
X178548228Y-90061703D01*
X178548228Y-90061703D01*
G37*
G36*
X155688228Y-90061703D02*
X155843100Y-90125853D01*
X155982481Y-90218985D01*
X156101015Y-90337519D01*
X156194147Y-90476900D01*
X156258297Y-90631772D01*
X156291000Y-90796184D01*
X156291000Y-90963816D01*
X156258297Y-91128228D01*
X156194147Y-91283100D01*
X156101015Y-91422481D01*
X155982481Y-91541015D01*
X155843100Y-91634147D01*
X155688228Y-91698297D01*
X155523816Y-91731000D01*
X155356184Y-91731000D01*
X155191772Y-91698297D01*
X155036900Y-91634147D01*
X154897519Y-91541015D01*
X154778985Y-91422481D01*
X154685853Y-91283100D01*
X154621703Y-91128228D01*
X154589000Y-90963816D01*
X154589000Y-90796184D01*
X154621703Y-90631772D01*
X154685853Y-90476900D01*
X154778985Y-90337519D01*
X154897519Y-90218985D01*
X155036900Y-90125853D01*
X155191772Y-90061703D01*
X155356184Y-90029000D01*
X155523816Y-90029000D01*
X155688228Y-90061703D01*
X155688228Y-90061703D01*
G37*
G36*
X158228228Y-90061703D02*
X158383100Y-90125853D01*
X158522481Y-90218985D01*
X158641015Y-90337519D01*
X158734147Y-90476900D01*
X158798297Y-90631772D01*
X158831000Y-90796184D01*
X158831000Y-90963816D01*
X158798297Y-91128228D01*
X158734147Y-91283100D01*
X158641015Y-91422481D01*
X158522481Y-91541015D01*
X158383100Y-91634147D01*
X158228228Y-91698297D01*
X158063816Y-91731000D01*
X157896184Y-91731000D01*
X157731772Y-91698297D01*
X157576900Y-91634147D01*
X157437519Y-91541015D01*
X157318985Y-91422481D01*
X157225853Y-91283100D01*
X157161703Y-91128228D01*
X157129000Y-90963816D01*
X157129000Y-90796184D01*
X157161703Y-90631772D01*
X157225853Y-90476900D01*
X157318985Y-90337519D01*
X157437519Y-90218985D01*
X157576900Y-90125853D01*
X157731772Y-90061703D01*
X157896184Y-90029000D01*
X158063816Y-90029000D01*
X158228228Y-90061703D01*
X158228228Y-90061703D01*
G37*
G36*
X160768228Y-90061703D02*
X160923100Y-90125853D01*
X161062481Y-90218985D01*
X161181015Y-90337519D01*
X161274147Y-90476900D01*
X161338297Y-90631772D01*
X161371000Y-90796184D01*
X161371000Y-90963816D01*
X161338297Y-91128228D01*
X161274147Y-91283100D01*
X161181015Y-91422481D01*
X161062481Y-91541015D01*
X160923100Y-91634147D01*
X160768228Y-91698297D01*
X160603816Y-91731000D01*
X160436184Y-91731000D01*
X160271772Y-91698297D01*
X160116900Y-91634147D01*
X159977519Y-91541015D01*
X159858985Y-91422481D01*
X159765853Y-91283100D01*
X159701703Y-91128228D01*
X159669000Y-90963816D01*
X159669000Y-90796184D01*
X159701703Y-90631772D01*
X159765853Y-90476900D01*
X159858985Y-90337519D01*
X159977519Y-90218985D01*
X160116900Y-90125853D01*
X160271772Y-90061703D01*
X160436184Y-90029000D01*
X160603816Y-90029000D01*
X160768228Y-90061703D01*
X160768228Y-90061703D01*
G37*
G36*
X163308228Y-90061703D02*
X163463100Y-90125853D01*
X163602481Y-90218985D01*
X163721015Y-90337519D01*
X163814147Y-90476900D01*
X163878297Y-90631772D01*
X163911000Y-90796184D01*
X163911000Y-90963816D01*
X163878297Y-91128228D01*
X163814147Y-91283100D01*
X163721015Y-91422481D01*
X163602481Y-91541015D01*
X163463100Y-91634147D01*
X163308228Y-91698297D01*
X163143816Y-91731000D01*
X162976184Y-91731000D01*
X162811772Y-91698297D01*
X162656900Y-91634147D01*
X162517519Y-91541015D01*
X162398985Y-91422481D01*
X162305853Y-91283100D01*
X162241703Y-91128228D01*
X162209000Y-90963816D01*
X162209000Y-90796184D01*
X162241703Y-90631772D01*
X162305853Y-90476900D01*
X162398985Y-90337519D01*
X162517519Y-90218985D01*
X162656900Y-90125853D01*
X162811772Y-90061703D01*
X162976184Y-90029000D01*
X163143816Y-90029000D01*
X163308228Y-90061703D01*
X163308228Y-90061703D01*
G37*
G36*
X153148228Y-90061703D02*
X153303100Y-90125853D01*
X153442481Y-90218985D01*
X153561015Y-90337519D01*
X153654147Y-90476900D01*
X153718297Y-90631772D01*
X153751000Y-90796184D01*
X153751000Y-90963816D01*
X153718297Y-91128228D01*
X153654147Y-91283100D01*
X153561015Y-91422481D01*
X153442481Y-91541015D01*
X153303100Y-91634147D01*
X153148228Y-91698297D01*
X152983816Y-91731000D01*
X152816184Y-91731000D01*
X152651772Y-91698297D01*
X152496900Y-91634147D01*
X152357519Y-91541015D01*
X152238985Y-91422481D01*
X152145853Y-91283100D01*
X152081703Y-91128228D01*
X152049000Y-90963816D01*
X152049000Y-90796184D01*
X152081703Y-90631772D01*
X152145853Y-90476900D01*
X152238985Y-90337519D01*
X152357519Y-90218985D01*
X152496900Y-90125853D01*
X152651772Y-90061703D01*
X152816184Y-90029000D01*
X152983816Y-90029000D01*
X153148228Y-90061703D01*
X153148228Y-90061703D01*
G37*
G36*
X148068228Y-90061703D02*
X148223100Y-90125853D01*
X148362481Y-90218985D01*
X148481015Y-90337519D01*
X148574147Y-90476900D01*
X148638297Y-90631772D01*
X148671000Y-90796184D01*
X148671000Y-90963816D01*
X148638297Y-91128228D01*
X148574147Y-91283100D01*
X148481015Y-91422481D01*
X148362481Y-91541015D01*
X148223100Y-91634147D01*
X148068228Y-91698297D01*
X147903816Y-91731000D01*
X147736184Y-91731000D01*
X147571772Y-91698297D01*
X147416900Y-91634147D01*
X147277519Y-91541015D01*
X147158985Y-91422481D01*
X147065853Y-91283100D01*
X147001703Y-91128228D01*
X146969000Y-90963816D01*
X146969000Y-90796184D01*
X147001703Y-90631772D01*
X147065853Y-90476900D01*
X147158985Y-90337519D01*
X147277519Y-90218985D01*
X147416900Y-90125853D01*
X147571772Y-90061703D01*
X147736184Y-90029000D01*
X147903816Y-90029000D01*
X148068228Y-90061703D01*
X148068228Y-90061703D01*
G37*
G36*
X181691000Y-91731000D02*
X179989000Y-91731000D01*
X179989000Y-90029000D01*
X181691000Y-90029000D01*
X181691000Y-91731000D01*
X181691000Y-91731000D01*
G37*
G36*
X150608228Y-90061703D02*
X150763100Y-90125853D01*
X150902481Y-90218985D01*
X151021015Y-90337519D01*
X151114147Y-90476900D01*
X151178297Y-90631772D01*
X151211000Y-90796184D01*
X151211000Y-90963816D01*
X151178297Y-91128228D01*
X151114147Y-91283100D01*
X151021015Y-91422481D01*
X150902481Y-91541015D01*
X150763100Y-91634147D01*
X150608228Y-91698297D01*
X150443816Y-91731000D01*
X150276184Y-91731000D01*
X150111772Y-91698297D01*
X149956900Y-91634147D01*
X149817519Y-91541015D01*
X149698985Y-91422481D01*
X149605853Y-91283100D01*
X149541703Y-91128228D01*
X149509000Y-90963816D01*
X149509000Y-90796184D01*
X149541703Y-90631772D01*
X149605853Y-90476900D01*
X149698985Y-90337519D01*
X149817519Y-90218985D01*
X149956900Y-90125853D01*
X150111772Y-90061703D01*
X150276184Y-90029000D01*
X150443816Y-90029000D01*
X150608228Y-90061703D01*
X150608228Y-90061703D01*
G37*
G36*
X170928228Y-90061703D02*
X171083100Y-90125853D01*
X171222481Y-90218985D01*
X171341015Y-90337519D01*
X171434147Y-90476900D01*
X171498297Y-90631772D01*
X171531000Y-90796184D01*
X171531000Y-90963816D01*
X171498297Y-91128228D01*
X171434147Y-91283100D01*
X171341015Y-91422481D01*
X171222481Y-91541015D01*
X171083100Y-91634147D01*
X170928228Y-91698297D01*
X170763816Y-91731000D01*
X170596184Y-91731000D01*
X170431772Y-91698297D01*
X170276900Y-91634147D01*
X170137519Y-91541015D01*
X170018985Y-91422481D01*
X169925853Y-91283100D01*
X169861703Y-91128228D01*
X169829000Y-90963816D01*
X169829000Y-90796184D01*
X169861703Y-90631772D01*
X169925853Y-90476900D01*
X170018985Y-90337519D01*
X170137519Y-90218985D01*
X170276900Y-90125853D01*
X170431772Y-90061703D01*
X170596184Y-90029000D01*
X170763816Y-90029000D01*
X170928228Y-90061703D01*
X170928228Y-90061703D01*
G37*
G36*
X173468228Y-90061703D02*
X173623100Y-90125853D01*
X173762481Y-90218985D01*
X173881015Y-90337519D01*
X173974147Y-90476900D01*
X174038297Y-90631772D01*
X174071000Y-90796184D01*
X174071000Y-90963816D01*
X174038297Y-91128228D01*
X173974147Y-91283100D01*
X173881015Y-91422481D01*
X173762481Y-91541015D01*
X173623100Y-91634147D01*
X173468228Y-91698297D01*
X173303816Y-91731000D01*
X173136184Y-91731000D01*
X172971772Y-91698297D01*
X172816900Y-91634147D01*
X172677519Y-91541015D01*
X172558985Y-91422481D01*
X172465853Y-91283100D01*
X172401703Y-91128228D01*
X172369000Y-90963816D01*
X172369000Y-90796184D01*
X172401703Y-90631772D01*
X172465853Y-90476900D01*
X172558985Y-90337519D01*
X172677519Y-90218985D01*
X172816900Y-90125853D01*
X172971772Y-90061703D01*
X173136184Y-90029000D01*
X173303816Y-90029000D01*
X173468228Y-90061703D01*
X173468228Y-90061703D01*
G37*
G36*
X165848228Y-90061703D02*
X166003100Y-90125853D01*
X166142481Y-90218985D01*
X166261015Y-90337519D01*
X166354147Y-90476900D01*
X166418297Y-90631772D01*
X166451000Y-90796184D01*
X166451000Y-90963816D01*
X166418297Y-91128228D01*
X166354147Y-91283100D01*
X166261015Y-91422481D01*
X166142481Y-91541015D01*
X166003100Y-91634147D01*
X165848228Y-91698297D01*
X165683816Y-91731000D01*
X165516184Y-91731000D01*
X165351772Y-91698297D01*
X165196900Y-91634147D01*
X165057519Y-91541015D01*
X164938985Y-91422481D01*
X164845853Y-91283100D01*
X164781703Y-91128228D01*
X164749000Y-90963816D01*
X164749000Y-90796184D01*
X164781703Y-90631772D01*
X164845853Y-90476900D01*
X164938985Y-90337519D01*
X165057519Y-90218985D01*
X165196900Y-90125853D01*
X165351772Y-90061703D01*
X165516184Y-90029000D01*
X165683816Y-90029000D01*
X165848228Y-90061703D01*
X165848228Y-90061703D01*
G37*
G36*
X176008228Y-90061703D02*
X176163100Y-90125853D01*
X176302481Y-90218985D01*
X176421015Y-90337519D01*
X176514147Y-90476900D01*
X176578297Y-90631772D01*
X176611000Y-90796184D01*
X176611000Y-90963816D01*
X176578297Y-91128228D01*
X176514147Y-91283100D01*
X176421015Y-91422481D01*
X176302481Y-91541015D01*
X176163100Y-91634147D01*
X176008228Y-91698297D01*
X175843816Y-91731000D01*
X175676184Y-91731000D01*
X175511772Y-91698297D01*
X175356900Y-91634147D01*
X175217519Y-91541015D01*
X175098985Y-91422481D01*
X175005853Y-91283100D01*
X174941703Y-91128228D01*
X174909000Y-90963816D01*
X174909000Y-90796184D01*
X174941703Y-90631772D01*
X175005853Y-90476900D01*
X175098985Y-90337519D01*
X175217519Y-90218985D01*
X175356900Y-90125853D01*
X175511772Y-90061703D01*
X175676184Y-90029000D01*
X175843816Y-90029000D01*
X176008228Y-90061703D01*
X176008228Y-90061703D01*
G37*
G36*
X108293665Y-85252622D02*
X108367222Y-85259867D01*
X108508786Y-85302810D01*
X108639252Y-85372546D01*
X108753606Y-85466394D01*
X108847454Y-85580748D01*
X108917190Y-85711214D01*
X108960133Y-85852778D01*
X108974633Y-86000000D01*
X108960133Y-86147222D01*
X108917190Y-86288786D01*
X108847454Y-86419252D01*
X108753606Y-86533606D01*
X108639252Y-86627454D01*
X108508786Y-86697190D01*
X108367222Y-86740133D01*
X108293665Y-86747378D01*
X108256888Y-86751000D01*
X108183112Y-86751000D01*
X108146335Y-86747378D01*
X108072778Y-86740133D01*
X107931214Y-86697190D01*
X107800748Y-86627454D01*
X107686394Y-86533606D01*
X107592546Y-86419252D01*
X107522810Y-86288786D01*
X107479867Y-86147222D01*
X107465367Y-86000000D01*
X107479867Y-85852778D01*
X107522810Y-85711214D01*
X107592546Y-85580748D01*
X107686394Y-85466394D01*
X107800748Y-85372546D01*
X107931214Y-85302810D01*
X108072778Y-85259867D01*
X108146335Y-85252622D01*
X108183112Y-85249000D01*
X108256888Y-85249000D01*
X108293665Y-85252622D01*
X108293665Y-85252622D01*
G37*
G36*
X100728600Y-85259867D02*
X100819059Y-85277860D01*
X100955732Y-85334472D01*
X101012715Y-85372547D01*
X101078738Y-85416662D01*
X101183338Y-85521262D01*
X101183340Y-85521265D01*
X101265528Y-85644268D01*
X101322140Y-85780941D01*
X101351000Y-85926033D01*
X101351000Y-86073967D01*
X101322140Y-86219059D01*
X101265528Y-86355732D01*
X101184446Y-86477079D01*
X101183338Y-86478738D01*
X101078738Y-86583338D01*
X101078735Y-86583340D01*
X100955732Y-86665528D01*
X100819059Y-86722140D01*
X100732004Y-86739456D01*
X100673969Y-86751000D01*
X100526031Y-86751000D01*
X100467996Y-86739456D01*
X100380941Y-86722140D01*
X100244268Y-86665528D01*
X100121265Y-86583340D01*
X100121262Y-86583338D01*
X100016662Y-86478738D01*
X100015554Y-86477079D01*
X99934472Y-86355732D01*
X99877860Y-86219059D01*
X99849000Y-86073967D01*
X99849000Y-85926033D01*
X99877860Y-85780941D01*
X99934472Y-85644268D01*
X100016660Y-85521265D01*
X100016662Y-85521262D01*
X100121262Y-85416662D01*
X100187285Y-85372547D01*
X100244268Y-85334472D01*
X100380941Y-85277860D01*
X100471400Y-85259867D01*
X100526031Y-85249000D01*
X100673969Y-85249000D01*
X100728600Y-85259867D01*
X100728600Y-85259867D01*
G37*
G36*
X91501000Y-82021000D02*
X89699000Y-82021000D01*
X89699000Y-80219000D01*
X91501000Y-80219000D01*
X91501000Y-82021000D01*
X91501000Y-82021000D01*
G37*
G36*
X103348228Y-80181703D02*
X103503100Y-80245853D01*
X103642481Y-80338985D01*
X103761015Y-80457519D01*
X103854147Y-80596900D01*
X103918297Y-80751772D01*
X103951000Y-80916184D01*
X103951000Y-81083816D01*
X103918297Y-81248228D01*
X103854147Y-81403100D01*
X103761015Y-81542481D01*
X103642481Y-81661015D01*
X103503100Y-81754147D01*
X103348228Y-81818297D01*
X103183816Y-81851000D01*
X103016184Y-81851000D01*
X102851772Y-81818297D01*
X102696900Y-81754147D01*
X102557519Y-81661015D01*
X102438985Y-81542481D01*
X102345853Y-81403100D01*
X102281703Y-81248228D01*
X102249000Y-81083816D01*
X102249000Y-80916184D01*
X102281703Y-80751772D01*
X102345853Y-80596900D01*
X102438985Y-80457519D01*
X102557519Y-80338985D01*
X102696900Y-80245853D01*
X102851772Y-80181703D01*
X103016184Y-80149000D01*
X103183816Y-80149000D01*
X103348228Y-80181703D01*
X103348228Y-80181703D01*
G37*
G36*
X100848228Y-80181703D02*
X101003100Y-80245853D01*
X101142481Y-80338985D01*
X101261015Y-80457519D01*
X101354147Y-80596900D01*
X101418297Y-80751772D01*
X101451000Y-80916184D01*
X101451000Y-81083816D01*
X101418297Y-81248228D01*
X101354147Y-81403100D01*
X101261015Y-81542481D01*
X101142481Y-81661015D01*
X101003100Y-81754147D01*
X100848228Y-81818297D01*
X100683816Y-81851000D01*
X100516184Y-81851000D01*
X100351772Y-81818297D01*
X100196900Y-81754147D01*
X100057519Y-81661015D01*
X99938985Y-81542481D01*
X99845853Y-81403100D01*
X99781703Y-81248228D01*
X99749000Y-81083816D01*
X99749000Y-80916184D01*
X99781703Y-80751772D01*
X99845853Y-80596900D01*
X99938985Y-80457519D01*
X100057519Y-80338985D01*
X100196900Y-80245853D01*
X100351772Y-80181703D01*
X100516184Y-80149000D01*
X100683816Y-80149000D01*
X100848228Y-80181703D01*
X100848228Y-80181703D01*
G37*
G36*
X108348228Y-80181703D02*
X108503100Y-80245853D01*
X108642481Y-80338985D01*
X108761015Y-80457519D01*
X108854147Y-80596900D01*
X108918297Y-80751772D01*
X108951000Y-80916184D01*
X108951000Y-81083816D01*
X108918297Y-81248228D01*
X108854147Y-81403100D01*
X108761015Y-81542481D01*
X108642481Y-81661015D01*
X108503100Y-81754147D01*
X108348228Y-81818297D01*
X108183816Y-81851000D01*
X108016184Y-81851000D01*
X107851772Y-81818297D01*
X107696900Y-81754147D01*
X107557519Y-81661015D01*
X107438985Y-81542481D01*
X107345853Y-81403100D01*
X107281703Y-81248228D01*
X107249000Y-81083816D01*
X107249000Y-80916184D01*
X107281703Y-80751772D01*
X107345853Y-80596900D01*
X107438985Y-80457519D01*
X107557519Y-80338985D01*
X107696900Y-80245853D01*
X107851772Y-80181703D01*
X108016184Y-80149000D01*
X108183816Y-80149000D01*
X108348228Y-80181703D01*
X108348228Y-80181703D01*
G37*
G36*
X110848228Y-80181703D02*
X111003100Y-80245853D01*
X111142481Y-80338985D01*
X111261015Y-80457519D01*
X111354147Y-80596900D01*
X111418297Y-80751772D01*
X111451000Y-80916184D01*
X111451000Y-81083816D01*
X111418297Y-81248228D01*
X111354147Y-81403100D01*
X111261015Y-81542481D01*
X111142481Y-81661015D01*
X111003100Y-81754147D01*
X110848228Y-81818297D01*
X110683816Y-81851000D01*
X110516184Y-81851000D01*
X110351772Y-81818297D01*
X110196900Y-81754147D01*
X110057519Y-81661015D01*
X109938985Y-81542481D01*
X109845853Y-81403100D01*
X109781703Y-81248228D01*
X109749000Y-81083816D01*
X109749000Y-80916184D01*
X109781703Y-80751772D01*
X109845853Y-80596900D01*
X109938985Y-80457519D01*
X110057519Y-80338985D01*
X110196900Y-80245853D01*
X110351772Y-80181703D01*
X110516184Y-80149000D01*
X110683816Y-80149000D01*
X110848228Y-80181703D01*
X110848228Y-80181703D01*
G37*
G36*
X90710443Y-77685519D02*
X90776627Y-77692037D01*
X90889853Y-77726384D01*
X90946467Y-77743557D01*
X91085087Y-77817652D01*
X91102991Y-77827222D01*
X91138729Y-77856552D01*
X91240186Y-77939814D01*
X91323448Y-78041271D01*
X91352778Y-78077009D01*
X91352779Y-78077011D01*
X91436443Y-78233533D01*
X91436443Y-78233534D01*
X91487963Y-78403373D01*
X91505359Y-78580000D01*
X91487963Y-78756627D01*
X91453616Y-78869853D01*
X91436443Y-78926467D01*
X91362348Y-79065087D01*
X91352778Y-79082991D01*
X91323448Y-79118729D01*
X91240186Y-79220186D01*
X91138729Y-79303448D01*
X91102991Y-79332778D01*
X91102989Y-79332779D01*
X90946467Y-79416443D01*
X90889853Y-79433616D01*
X90776627Y-79467963D01*
X90710443Y-79474481D01*
X90644260Y-79481000D01*
X90555740Y-79481000D01*
X90489557Y-79474481D01*
X90423373Y-79467963D01*
X90310147Y-79433616D01*
X90253533Y-79416443D01*
X90097011Y-79332779D01*
X90097009Y-79332778D01*
X90061271Y-79303448D01*
X89959814Y-79220186D01*
X89876552Y-79118729D01*
X89847222Y-79082991D01*
X89837652Y-79065087D01*
X89763557Y-78926467D01*
X89746384Y-78869853D01*
X89712037Y-78756627D01*
X89694641Y-78580000D01*
X89712037Y-78403373D01*
X89763557Y-78233534D01*
X89763557Y-78233533D01*
X89847221Y-78077011D01*
X89847222Y-78077009D01*
X89876552Y-78041271D01*
X89959814Y-77939814D01*
X90061271Y-77856552D01*
X90097009Y-77827222D01*
X90114913Y-77817652D01*
X90253533Y-77743557D01*
X90310147Y-77726384D01*
X90423373Y-77692037D01*
X90489557Y-77685519D01*
X90555740Y-77679000D01*
X90644260Y-77679000D01*
X90710443Y-77685519D01*
X90710443Y-77685519D01*
G37*
G36*
X178698252Y-74077818D02*
X178698254Y-74077819D01*
X178698255Y-74077819D01*
X179071513Y-74232427D01*
X179363304Y-74427396D01*
X179407439Y-74456886D01*
X179693114Y-74742561D01*
X179693116Y-74742564D01*
X179917573Y-75078487D01*
X180050671Y-75399815D01*
X180072182Y-75451748D01*
X180151000Y-75847993D01*
X180151000Y-76252007D01*
X180085094Y-76583340D01*
X180072181Y-76648255D01*
X179917573Y-77021513D01*
X179917572Y-77021514D01*
X179693114Y-77357439D01*
X179407439Y-77643114D01*
X179407436Y-77643116D01*
X179071513Y-77867573D01*
X178698255Y-78022181D01*
X178698254Y-78022181D01*
X178698252Y-78022182D01*
X178302007Y-78101000D01*
X177897993Y-78101000D01*
X177501748Y-78022182D01*
X177501746Y-78022181D01*
X177501745Y-78022181D01*
X177128487Y-77867573D01*
X176792564Y-77643116D01*
X176792561Y-77643114D01*
X176506886Y-77357439D01*
X176282428Y-77021514D01*
X176282427Y-77021513D01*
X176127819Y-76648255D01*
X176114907Y-76583340D01*
X176049000Y-76252007D01*
X176049000Y-75847993D01*
X176127818Y-75451748D01*
X176149329Y-75399815D01*
X176282427Y-75078487D01*
X176506884Y-74742564D01*
X176506886Y-74742561D01*
X176792561Y-74456886D01*
X176836696Y-74427396D01*
X177128487Y-74232427D01*
X177501745Y-74077819D01*
X177501746Y-74077819D01*
X177501748Y-74077818D01*
X177897993Y-73999000D01*
X178302007Y-73999000D01*
X178698252Y-74077818D01*
X178698252Y-74077818D01*
G37*
G36*
X90710442Y-75145518D02*
X90776627Y-75152037D01*
X90889853Y-75186384D01*
X90946467Y-75203557D01*
X91051814Y-75259867D01*
X91102991Y-75287222D01*
X91121985Y-75302810D01*
X91240186Y-75399814D01*
X91323448Y-75501271D01*
X91352778Y-75537009D01*
X91352779Y-75537011D01*
X91436443Y-75693533D01*
X91436443Y-75693534D01*
X91487963Y-75863373D01*
X91505359Y-76040000D01*
X91487963Y-76216627D01*
X91466074Y-76288786D01*
X91436443Y-76386467D01*
X91418918Y-76419253D01*
X91352778Y-76542991D01*
X91323448Y-76578729D01*
X91240186Y-76680186D01*
X91138729Y-76763448D01*
X91102991Y-76792778D01*
X91102989Y-76792779D01*
X90946467Y-76876443D01*
X90889853Y-76893616D01*
X90776627Y-76927963D01*
X90710443Y-76934481D01*
X90644260Y-76941000D01*
X90555740Y-76941000D01*
X90489557Y-76934481D01*
X90423373Y-76927963D01*
X90310147Y-76893616D01*
X90253533Y-76876443D01*
X90097011Y-76792779D01*
X90097009Y-76792778D01*
X90061271Y-76763448D01*
X89959814Y-76680186D01*
X89876552Y-76578729D01*
X89847222Y-76542991D01*
X89781082Y-76419253D01*
X89763557Y-76386467D01*
X89733926Y-76288786D01*
X89712037Y-76216627D01*
X89694641Y-76040000D01*
X89712037Y-75863373D01*
X89763557Y-75693534D01*
X89763557Y-75693533D01*
X89847221Y-75537011D01*
X89847222Y-75537009D01*
X89876552Y-75501271D01*
X89959814Y-75399814D01*
X90078015Y-75302810D01*
X90097009Y-75287222D01*
X90148186Y-75259867D01*
X90253533Y-75203557D01*
X90310147Y-75186384D01*
X90423373Y-75152037D01*
X90489558Y-75145518D01*
X90555740Y-75139000D01*
X90644260Y-75139000D01*
X90710442Y-75145518D01*
X90710442Y-75145518D01*
G37*
G36*
X108173665Y-75252622D02*
X108247222Y-75259867D01*
X108388786Y-75302810D01*
X108519252Y-75372546D01*
X108633606Y-75466394D01*
X108727454Y-75580748D01*
X108797190Y-75711214D01*
X108840133Y-75852778D01*
X108854633Y-76000000D01*
X108840133Y-76147222D01*
X108797190Y-76288786D01*
X108727454Y-76419252D01*
X108633606Y-76533606D01*
X108519252Y-76627454D01*
X108388786Y-76697190D01*
X108247222Y-76740133D01*
X108173665Y-76747378D01*
X108136888Y-76751000D01*
X108063112Y-76751000D01*
X108026335Y-76747378D01*
X107952778Y-76740133D01*
X107811214Y-76697190D01*
X107680748Y-76627454D01*
X107566394Y-76533606D01*
X107472546Y-76419252D01*
X107402810Y-76288786D01*
X107359867Y-76147222D01*
X107345367Y-76000000D01*
X107359867Y-75852778D01*
X107402810Y-75711214D01*
X107472546Y-75580748D01*
X107566394Y-75466394D01*
X107680748Y-75372546D01*
X107811214Y-75302810D01*
X107952778Y-75259867D01*
X108026335Y-75252622D01*
X108063112Y-75249000D01*
X108136888Y-75249000D01*
X108173665Y-75252622D01*
X108173665Y-75252622D01*
G37*
G36*
X100608600Y-75259867D02*
X100699059Y-75277860D01*
X100835732Y-75334472D01*
X100892715Y-75372547D01*
X100958738Y-75416662D01*
X101063338Y-75521262D01*
X101063340Y-75521265D01*
X101145528Y-75644268D01*
X101202140Y-75780941D01*
X101231000Y-75926033D01*
X101231000Y-76073967D01*
X101202140Y-76219059D01*
X101145528Y-76355732D01*
X101064446Y-76477079D01*
X101063338Y-76478738D01*
X100958738Y-76583338D01*
X100958735Y-76583340D01*
X100835732Y-76665528D01*
X100699059Y-76722140D01*
X100612004Y-76739456D01*
X100553969Y-76751000D01*
X100406031Y-76751000D01*
X100347996Y-76739456D01*
X100260941Y-76722140D01*
X100124268Y-76665528D01*
X100001265Y-76583340D01*
X100001262Y-76583338D01*
X99896662Y-76478738D01*
X99895554Y-76477079D01*
X99814472Y-76355732D01*
X99757860Y-76219059D01*
X99729000Y-76073967D01*
X99729000Y-75926033D01*
X99757860Y-75780941D01*
X99814472Y-75644268D01*
X99896660Y-75521265D01*
X99896662Y-75521262D01*
X100001262Y-75416662D01*
X100067285Y-75372547D01*
X100124268Y-75334472D01*
X100260941Y-75277860D01*
X100351400Y-75259867D01*
X100406031Y-75249000D01*
X100553969Y-75249000D01*
X100608600Y-75259867D01*
X100608600Y-75259867D01*
G37*
G36*
X142187142Y-73703242D02*
X142335102Y-73764530D01*
X142468258Y-73853502D01*
X142581498Y-73966742D01*
X142670470Y-74099898D01*
X142731758Y-74247858D01*
X142763000Y-74404925D01*
X142763000Y-74565075D01*
X142731758Y-74722142D01*
X142717639Y-74756227D01*
X142670471Y-74870100D01*
X142581499Y-75003257D01*
X142468257Y-75116499D01*
X142415070Y-75152037D01*
X142335102Y-75205470D01*
X142187142Y-75266758D01*
X142030075Y-75298000D01*
X141869925Y-75298000D01*
X141712858Y-75266758D01*
X141564898Y-75205470D01*
X141484930Y-75152037D01*
X141431743Y-75116499D01*
X141318501Y-75003257D01*
X141229529Y-74870100D01*
X141182361Y-74756227D01*
X141168242Y-74722142D01*
X141137000Y-74565075D01*
X141137000Y-74404925D01*
X141168242Y-74247858D01*
X141229530Y-74099898D01*
X141318502Y-73966742D01*
X141431742Y-73853502D01*
X141564898Y-73764530D01*
X141712858Y-73703242D01*
X141869925Y-73672000D01*
X142030075Y-73672000D01*
X142187142Y-73703242D01*
X142187142Y-73703242D01*
G37*
G36*
X139647142Y-73703242D02*
X139795102Y-73764530D01*
X139928258Y-73853502D01*
X140041498Y-73966742D01*
X140130470Y-74099898D01*
X140191758Y-74247858D01*
X140223000Y-74404925D01*
X140223000Y-74565075D01*
X140191758Y-74722142D01*
X140177639Y-74756227D01*
X140130471Y-74870100D01*
X140041499Y-75003257D01*
X139928257Y-75116499D01*
X139875070Y-75152037D01*
X139795102Y-75205470D01*
X139647142Y-75266758D01*
X139490075Y-75298000D01*
X139329925Y-75298000D01*
X139172858Y-75266758D01*
X139024898Y-75205470D01*
X138944930Y-75152037D01*
X138891743Y-75116499D01*
X138778501Y-75003257D01*
X138689529Y-74870100D01*
X138642361Y-74756227D01*
X138628242Y-74722142D01*
X138597000Y-74565075D01*
X138597000Y-74404925D01*
X138628242Y-74247858D01*
X138689530Y-74099898D01*
X138778502Y-73966742D01*
X138891742Y-73853502D01*
X139024898Y-73764530D01*
X139172858Y-73703242D01*
X139329925Y-73672000D01*
X139490075Y-73672000D01*
X139647142Y-73703242D01*
X139647142Y-73703242D01*
G37*
G36*
X137107142Y-73703242D02*
X137255102Y-73764530D01*
X137388258Y-73853502D01*
X137501498Y-73966742D01*
X137590470Y-74099898D01*
X137651758Y-74247858D01*
X137683000Y-74404925D01*
X137683000Y-74565075D01*
X137651758Y-74722142D01*
X137637639Y-74756227D01*
X137590471Y-74870100D01*
X137501499Y-75003257D01*
X137388257Y-75116499D01*
X137335070Y-75152037D01*
X137255102Y-75205470D01*
X137107142Y-75266758D01*
X136950075Y-75298000D01*
X136789925Y-75298000D01*
X136632858Y-75266758D01*
X136484898Y-75205470D01*
X136404930Y-75152037D01*
X136351743Y-75116499D01*
X136238501Y-75003257D01*
X136149529Y-74870100D01*
X136102361Y-74756227D01*
X136088242Y-74722142D01*
X136057000Y-74565075D01*
X136057000Y-74404925D01*
X136088242Y-74247858D01*
X136149530Y-74099898D01*
X136238502Y-73966742D01*
X136351742Y-73853502D01*
X136484898Y-73764530D01*
X136632858Y-73703242D01*
X136789925Y-73672000D01*
X136950075Y-73672000D01*
X137107142Y-73703242D01*
X137107142Y-73703242D01*
G37*
G36*
X144727142Y-73703242D02*
X144875102Y-73764530D01*
X145008258Y-73853502D01*
X145121498Y-73966742D01*
X145210470Y-74099898D01*
X145271758Y-74247858D01*
X145303000Y-74404925D01*
X145303000Y-74565075D01*
X145271758Y-74722142D01*
X145257639Y-74756227D01*
X145210471Y-74870100D01*
X145121499Y-75003257D01*
X145008257Y-75116499D01*
X144955070Y-75152037D01*
X144875102Y-75205470D01*
X144727142Y-75266758D01*
X144570075Y-75298000D01*
X144409925Y-75298000D01*
X144252858Y-75266758D01*
X144104898Y-75205470D01*
X144024930Y-75152037D01*
X143971743Y-75116499D01*
X143858501Y-75003257D01*
X143769529Y-74870100D01*
X143722361Y-74756227D01*
X143708242Y-74722142D01*
X143677000Y-74565075D01*
X143677000Y-74404925D01*
X143708242Y-74247858D01*
X143769530Y-74099898D01*
X143858502Y-73966742D01*
X143971742Y-73853502D01*
X144104898Y-73764530D01*
X144252858Y-73703242D01*
X144409925Y-73672000D01*
X144570075Y-73672000D01*
X144727142Y-73703242D01*
X144727142Y-73703242D01*
G37*
G36*
X147267142Y-73703242D02*
X147415102Y-73764530D01*
X147548258Y-73853502D01*
X147661498Y-73966742D01*
X147750470Y-74099898D01*
X147811758Y-74247858D01*
X147843000Y-74404925D01*
X147843000Y-74565075D01*
X147811758Y-74722142D01*
X147797639Y-74756227D01*
X147750471Y-74870100D01*
X147661499Y-75003257D01*
X147548257Y-75116499D01*
X147495070Y-75152037D01*
X147415102Y-75205470D01*
X147267142Y-75266758D01*
X147110075Y-75298000D01*
X146949925Y-75298000D01*
X146792858Y-75266758D01*
X146644898Y-75205470D01*
X146564930Y-75152037D01*
X146511743Y-75116499D01*
X146398501Y-75003257D01*
X146309529Y-74870100D01*
X146262361Y-74756227D01*
X146248242Y-74722142D01*
X146217000Y-74565075D01*
X146217000Y-74404925D01*
X146248242Y-74247858D01*
X146309530Y-74099898D01*
X146398502Y-73966742D01*
X146511742Y-73853502D01*
X146644898Y-73764530D01*
X146792858Y-73703242D01*
X146949925Y-73672000D01*
X147110075Y-73672000D01*
X147267142Y-73703242D01*
X147267142Y-73703242D01*
G37*
G36*
X134567142Y-73703242D02*
X134715102Y-73764530D01*
X134848258Y-73853502D01*
X134961498Y-73966742D01*
X135050470Y-74099898D01*
X135111758Y-74247858D01*
X135143000Y-74404925D01*
X135143000Y-74565075D01*
X135111758Y-74722142D01*
X135097639Y-74756227D01*
X135050471Y-74870100D01*
X134961499Y-75003257D01*
X134848257Y-75116499D01*
X134795070Y-75152037D01*
X134715102Y-75205470D01*
X134567142Y-75266758D01*
X134410075Y-75298000D01*
X134249925Y-75298000D01*
X134092858Y-75266758D01*
X133944898Y-75205470D01*
X133864930Y-75152037D01*
X133811743Y-75116499D01*
X133698501Y-75003257D01*
X133609529Y-74870100D01*
X133562361Y-74756227D01*
X133548242Y-74722142D01*
X133517000Y-74565075D01*
X133517000Y-74404925D01*
X133548242Y-74247858D01*
X133609530Y-74099898D01*
X133698502Y-73966742D01*
X133811742Y-73853502D01*
X133944898Y-73764530D01*
X134092858Y-73703242D01*
X134249925Y-73672000D01*
X134410075Y-73672000D01*
X134567142Y-73703242D01*
X134567142Y-73703242D01*
G37*
G36*
X132027142Y-73703242D02*
X132175102Y-73764530D01*
X132308258Y-73853502D01*
X132421498Y-73966742D01*
X132510470Y-74099898D01*
X132571758Y-74247858D01*
X132603000Y-74404925D01*
X132603000Y-74565075D01*
X132571758Y-74722142D01*
X132557639Y-74756227D01*
X132510471Y-74870100D01*
X132421499Y-75003257D01*
X132308257Y-75116499D01*
X132255070Y-75152037D01*
X132175102Y-75205470D01*
X132027142Y-75266758D01*
X131870075Y-75298000D01*
X131709925Y-75298000D01*
X131552858Y-75266758D01*
X131404898Y-75205470D01*
X131324930Y-75152037D01*
X131271743Y-75116499D01*
X131158501Y-75003257D01*
X131069529Y-74870100D01*
X131022361Y-74756227D01*
X131008242Y-74722142D01*
X130977000Y-74565075D01*
X130977000Y-74404925D01*
X131008242Y-74247858D01*
X131069530Y-74099898D01*
X131158502Y-73966742D01*
X131271742Y-73853502D01*
X131404898Y-73764530D01*
X131552858Y-73703242D01*
X131709925Y-73672000D01*
X131870075Y-73672000D01*
X132027142Y-73703242D01*
X132027142Y-73703242D01*
G37*
G36*
X129487142Y-73703242D02*
X129635102Y-73764530D01*
X129768258Y-73853502D01*
X129881498Y-73966742D01*
X129970470Y-74099898D01*
X130031758Y-74247858D01*
X130063000Y-74404925D01*
X130063000Y-74565075D01*
X130031758Y-74722142D01*
X130017639Y-74756227D01*
X129970471Y-74870100D01*
X129881499Y-75003257D01*
X129768257Y-75116499D01*
X129715070Y-75152037D01*
X129635102Y-75205470D01*
X129487142Y-75266758D01*
X129330075Y-75298000D01*
X129169925Y-75298000D01*
X129012858Y-75266758D01*
X128864898Y-75205470D01*
X128784930Y-75152037D01*
X128731743Y-75116499D01*
X128618501Y-75003257D01*
X128529529Y-74870100D01*
X128482361Y-74756227D01*
X128468242Y-74722142D01*
X128437000Y-74565075D01*
X128437000Y-74404925D01*
X128468242Y-74247858D01*
X128529530Y-74099898D01*
X128618502Y-73966742D01*
X128731742Y-73853502D01*
X128864898Y-73764530D01*
X129012858Y-73703242D01*
X129169925Y-73672000D01*
X129330075Y-73672000D01*
X129487142Y-73703242D01*
X129487142Y-73703242D01*
G37*
G36*
X126947142Y-73703242D02*
X127095102Y-73764530D01*
X127228258Y-73853502D01*
X127341498Y-73966742D01*
X127430470Y-74099898D01*
X127491758Y-74247858D01*
X127523000Y-74404925D01*
X127523000Y-74565075D01*
X127491758Y-74722142D01*
X127477639Y-74756227D01*
X127430471Y-74870100D01*
X127341499Y-75003257D01*
X127228257Y-75116499D01*
X127175070Y-75152037D01*
X127095102Y-75205470D01*
X126947142Y-75266758D01*
X126790075Y-75298000D01*
X126629925Y-75298000D01*
X126472858Y-75266758D01*
X126324898Y-75205470D01*
X126244930Y-75152037D01*
X126191743Y-75116499D01*
X126078501Y-75003257D01*
X125989529Y-74870100D01*
X125942361Y-74756227D01*
X125928242Y-74722142D01*
X125897000Y-74565075D01*
X125897000Y-74404925D01*
X125928242Y-74247858D01*
X125989530Y-74099898D01*
X126078502Y-73966742D01*
X126191742Y-73853502D01*
X126324898Y-73764530D01*
X126472858Y-73703242D01*
X126629925Y-73672000D01*
X126790075Y-73672000D01*
X126947142Y-73703242D01*
X126947142Y-73703242D01*
G37*
G36*
X124407142Y-73703242D02*
X124555102Y-73764530D01*
X124688258Y-73853502D01*
X124801498Y-73966742D01*
X124890470Y-74099898D01*
X124951758Y-74247858D01*
X124983000Y-74404925D01*
X124983000Y-74565075D01*
X124951758Y-74722142D01*
X124937639Y-74756227D01*
X124890471Y-74870100D01*
X124801499Y-75003257D01*
X124688257Y-75116499D01*
X124635070Y-75152037D01*
X124555102Y-75205470D01*
X124407142Y-75266758D01*
X124250075Y-75298000D01*
X124089925Y-75298000D01*
X123932858Y-75266758D01*
X123784898Y-75205470D01*
X123704930Y-75152037D01*
X123651743Y-75116499D01*
X123538501Y-75003257D01*
X123449529Y-74870100D01*
X123402361Y-74756227D01*
X123388242Y-74722142D01*
X123357000Y-74565075D01*
X123357000Y-74404925D01*
X123388242Y-74247858D01*
X123449530Y-74099898D01*
X123538502Y-73966742D01*
X123651742Y-73853502D01*
X123784898Y-73764530D01*
X123932858Y-73703242D01*
X124089925Y-73672000D01*
X124250075Y-73672000D01*
X124407142Y-73703242D01*
X124407142Y-73703242D01*
G37*
G36*
X171377396Y-73235546D02*
X171550466Y-73307234D01*
X171706230Y-73411312D01*
X171838688Y-73543770D01*
X171942766Y-73699534D01*
X172014454Y-73872604D01*
X172051000Y-74056333D01*
X172051000Y-74243667D01*
X172014454Y-74427396D01*
X171942766Y-74600466D01*
X171838688Y-74756230D01*
X171706230Y-74888688D01*
X171550466Y-74992766D01*
X171377396Y-75064454D01*
X171193667Y-75101000D01*
X171006333Y-75101000D01*
X170822604Y-75064454D01*
X170649534Y-74992766D01*
X170493770Y-74888688D01*
X170361312Y-74756230D01*
X170257234Y-74600466D01*
X170185546Y-74427396D01*
X170149000Y-74243667D01*
X170149000Y-74056333D01*
X170185546Y-73872604D01*
X170257234Y-73699534D01*
X170361312Y-73543770D01*
X170493770Y-73411312D01*
X170649534Y-73307234D01*
X170822604Y-73235546D01*
X171006333Y-73199000D01*
X171193667Y-73199000D01*
X171377396Y-73235546D01*
X171377396Y-73235546D01*
G37*
G36*
X171377396Y-70735546D02*
X171550466Y-70807234D01*
X171706230Y-70911312D01*
X171838688Y-71043770D01*
X171942766Y-71199534D01*
X172014454Y-71372604D01*
X172051000Y-71556333D01*
X172051000Y-71743667D01*
X172014454Y-71927396D01*
X171942766Y-72100466D01*
X171838688Y-72256230D01*
X171706230Y-72388688D01*
X171550466Y-72492766D01*
X171377396Y-72564454D01*
X171193667Y-72601000D01*
X171006333Y-72601000D01*
X170822604Y-72564454D01*
X170649534Y-72492766D01*
X170493770Y-72388688D01*
X170361312Y-72256230D01*
X170257234Y-72100466D01*
X170185546Y-71927396D01*
X170149000Y-71743667D01*
X170149000Y-71556333D01*
X170185546Y-71372604D01*
X170257234Y-71199534D01*
X170361312Y-71043770D01*
X170493770Y-70911312D01*
X170649534Y-70807234D01*
X170822604Y-70735546D01*
X171006333Y-70699000D01*
X171193667Y-70699000D01*
X171377396Y-70735546D01*
X171377396Y-70735546D01*
G37*
G36*
X113951000Y-71851000D02*
X112249000Y-71851000D01*
X112249000Y-70149000D01*
X113951000Y-70149000D01*
X113951000Y-71851000D01*
X113951000Y-71851000D01*
G37*
G36*
X115848228Y-70181703D02*
X116003100Y-70245853D01*
X116142481Y-70338985D01*
X116261015Y-70457519D01*
X116354147Y-70596900D01*
X116418297Y-70751772D01*
X116451000Y-70916184D01*
X116451000Y-71083816D01*
X116418297Y-71248228D01*
X116354147Y-71403100D01*
X116261015Y-71542481D01*
X116142481Y-71661015D01*
X116003100Y-71754147D01*
X115848228Y-71818297D01*
X115683816Y-71851000D01*
X115516184Y-71851000D01*
X115351772Y-71818297D01*
X115196900Y-71754147D01*
X115057519Y-71661015D01*
X114938985Y-71542481D01*
X114845853Y-71403100D01*
X114781703Y-71248228D01*
X114749000Y-71083816D01*
X114749000Y-70916184D01*
X114781703Y-70751772D01*
X114845853Y-70596900D01*
X114938985Y-70457519D01*
X115057519Y-70338985D01*
X115196900Y-70245853D01*
X115351772Y-70181703D01*
X115516184Y-70149000D01*
X115683816Y-70149000D01*
X115848228Y-70181703D01*
X115848228Y-70181703D01*
G37*
G36*
X108228600Y-70259867D02*
X108319059Y-70277860D01*
X108455732Y-70334472D01*
X108512715Y-70372547D01*
X108578738Y-70416662D01*
X108683338Y-70521262D01*
X108683340Y-70521265D01*
X108765528Y-70644268D01*
X108822140Y-70780941D01*
X108827370Y-70807235D01*
X108848072Y-70911310D01*
X108851000Y-70926033D01*
X108851000Y-71073967D01*
X108822140Y-71219059D01*
X108765528Y-71355732D01*
X108684446Y-71477079D01*
X108683338Y-71478738D01*
X108578738Y-71583338D01*
X108578735Y-71583340D01*
X108455732Y-71665528D01*
X108319059Y-71722140D01*
X108232004Y-71739456D01*
X108173969Y-71751000D01*
X108026031Y-71751000D01*
X107967996Y-71739456D01*
X107880941Y-71722140D01*
X107744268Y-71665528D01*
X107621265Y-71583340D01*
X107621262Y-71583338D01*
X107516662Y-71478738D01*
X107515554Y-71477079D01*
X107434472Y-71355732D01*
X107377860Y-71219059D01*
X107349000Y-71073967D01*
X107349000Y-70926033D01*
X107351929Y-70911310D01*
X107372630Y-70807235D01*
X107377860Y-70780941D01*
X107434472Y-70644268D01*
X107516660Y-70521265D01*
X107516662Y-70521262D01*
X107621262Y-70416662D01*
X107687285Y-70372547D01*
X107744268Y-70334472D01*
X107880941Y-70277860D01*
X107971400Y-70259867D01*
X108026031Y-70249000D01*
X108173969Y-70249000D01*
X108228600Y-70259867D01*
X108228600Y-70259867D01*
G37*
G36*
X100553665Y-70252622D02*
X100627222Y-70259867D01*
X100768786Y-70302810D01*
X100899252Y-70372546D01*
X101013606Y-70466394D01*
X101107454Y-70580748D01*
X101177190Y-70711214D01*
X101220133Y-70852778D01*
X101234633Y-71000000D01*
X101220133Y-71147222D01*
X101177190Y-71288786D01*
X101107454Y-71419252D01*
X101013606Y-71533606D01*
X100899252Y-71627454D01*
X100768786Y-71697190D01*
X100627222Y-71740133D01*
X100553665Y-71747378D01*
X100516888Y-71751000D01*
X100443112Y-71751000D01*
X100406335Y-71747378D01*
X100332778Y-71740133D01*
X100191214Y-71697190D01*
X100060748Y-71627454D01*
X99946394Y-71533606D01*
X99852546Y-71419252D01*
X99782810Y-71288786D01*
X99739867Y-71147222D01*
X99725367Y-71000000D01*
X99739867Y-70852778D01*
X99782810Y-70711214D01*
X99852546Y-70580748D01*
X99946394Y-70466394D01*
X100060748Y-70372546D01*
X100191214Y-70302810D01*
X100332778Y-70259867D01*
X100406335Y-70252622D01*
X100443112Y-70249000D01*
X100516888Y-70249000D01*
X100553665Y-70252622D01*
X100553665Y-70252622D01*
G37*
G36*
X171377396Y-68235546D02*
X171550466Y-68307234D01*
X171706230Y-68411312D01*
X171838688Y-68543770D01*
X171942766Y-68699534D01*
X172014454Y-68872604D01*
X172051000Y-69056333D01*
X172051000Y-69243667D01*
X172014454Y-69427396D01*
X171942766Y-69600466D01*
X171838688Y-69756230D01*
X171706230Y-69888688D01*
X171550466Y-69992766D01*
X171377396Y-70064454D01*
X171193667Y-70101000D01*
X171006333Y-70101000D01*
X170822604Y-70064454D01*
X170649534Y-69992766D01*
X170493770Y-69888688D01*
X170361312Y-69756230D01*
X170257234Y-69600466D01*
X170185546Y-69427396D01*
X170149000Y-69243667D01*
X170149000Y-69056333D01*
X170185546Y-68872604D01*
X170257234Y-68699534D01*
X170361312Y-68543770D01*
X170493770Y-68411312D01*
X170649534Y-68307234D01*
X170822604Y-68235546D01*
X171006333Y-68199000D01*
X171193667Y-68199000D01*
X171377396Y-68235546D01*
X171377396Y-68235546D01*
G37*
G36*
X91501000Y-69481000D02*
X89699000Y-69481000D01*
X89699000Y-67679000D01*
X91501000Y-67679000D01*
X91501000Y-69481000D01*
X91501000Y-69481000D01*
G37*
G36*
X178698252Y-65277818D02*
X178698254Y-65277819D01*
X178698255Y-65277819D01*
X179071513Y-65432427D01*
X179388553Y-65644267D01*
X179407439Y-65656886D01*
X179693114Y-65942561D01*
X179693116Y-65942564D01*
X179917573Y-66278487D01*
X180043846Y-66583338D01*
X180072182Y-66651748D01*
X180129718Y-66941000D01*
X180151000Y-67047994D01*
X180151000Y-67452006D01*
X180072181Y-67848255D01*
X179917573Y-68221513D01*
X179860296Y-68307234D01*
X179693114Y-68557439D01*
X179407439Y-68843114D01*
X179407436Y-68843116D01*
X179071513Y-69067573D01*
X178698255Y-69222181D01*
X178698254Y-69222181D01*
X178698252Y-69222182D01*
X178302007Y-69301000D01*
X177897993Y-69301000D01*
X177501748Y-69222182D01*
X177501746Y-69222181D01*
X177501745Y-69222181D01*
X177128487Y-69067573D01*
X176792564Y-68843116D01*
X176792561Y-68843114D01*
X176506886Y-68557439D01*
X176339704Y-68307234D01*
X176282427Y-68221513D01*
X176127819Y-67848255D01*
X176049000Y-67452006D01*
X176049000Y-67047994D01*
X176070282Y-66941000D01*
X176127818Y-66651748D01*
X176156154Y-66583338D01*
X176282427Y-66278487D01*
X176506884Y-65942564D01*
X176506886Y-65942561D01*
X176792561Y-65656886D01*
X176811447Y-65644267D01*
X177128487Y-65432427D01*
X177501745Y-65277819D01*
X177501746Y-65277819D01*
X177501748Y-65277818D01*
X177897993Y-65199000D01*
X178302007Y-65199000D01*
X178698252Y-65277818D01*
X178698252Y-65277818D01*
G37*
G36*
X90710442Y-65145518D02*
X90776627Y-65152037D01*
X90889853Y-65186384D01*
X90946467Y-65203557D01*
X91051814Y-65259867D01*
X91102991Y-65287222D01*
X91121985Y-65302810D01*
X91240186Y-65399814D01*
X91323448Y-65501271D01*
X91352778Y-65537009D01*
X91352779Y-65537011D01*
X91436443Y-65693533D01*
X91436443Y-65693534D01*
X91487963Y-65863373D01*
X91505359Y-66040000D01*
X91487963Y-66216627D01*
X91487226Y-66219056D01*
X91436443Y-66386467D01*
X91418918Y-66419253D01*
X91352778Y-66542991D01*
X91323448Y-66578729D01*
X91240186Y-66680186D01*
X91138729Y-66763448D01*
X91102991Y-66792778D01*
X91102989Y-66792779D01*
X90946467Y-66876443D01*
X90889853Y-66893616D01*
X90776627Y-66927963D01*
X90710442Y-66934482D01*
X90644260Y-66941000D01*
X90555740Y-66941000D01*
X90489558Y-66934482D01*
X90423373Y-66927963D01*
X90310147Y-66893616D01*
X90253533Y-66876443D01*
X90097011Y-66792779D01*
X90097009Y-66792778D01*
X90061271Y-66763448D01*
X89959814Y-66680186D01*
X89876552Y-66578729D01*
X89847222Y-66542991D01*
X89781082Y-66419253D01*
X89763557Y-66386467D01*
X89712774Y-66219056D01*
X89712037Y-66216627D01*
X89694641Y-66040000D01*
X89712037Y-65863373D01*
X89763557Y-65693534D01*
X89763557Y-65693533D01*
X89847221Y-65537011D01*
X89847222Y-65537009D01*
X89876552Y-65501271D01*
X89959814Y-65399814D01*
X90078015Y-65302810D01*
X90097009Y-65287222D01*
X90148186Y-65259867D01*
X90253533Y-65203557D01*
X90310147Y-65186384D01*
X90423373Y-65152037D01*
X90489558Y-65145518D01*
X90555740Y-65139000D01*
X90644260Y-65139000D01*
X90710442Y-65145518D01*
X90710442Y-65145518D01*
G37*
G36*
X108228600Y-65259867D02*
X108319059Y-65277860D01*
X108455732Y-65334472D01*
X108512715Y-65372547D01*
X108578738Y-65416662D01*
X108683338Y-65521262D01*
X108683340Y-65521265D01*
X108765528Y-65644268D01*
X108822140Y-65780941D01*
X108851000Y-65926033D01*
X108851000Y-66073967D01*
X108822140Y-66219059D01*
X108765528Y-66355732D01*
X108684446Y-66477079D01*
X108683338Y-66478738D01*
X108578738Y-66583338D01*
X108578735Y-66583340D01*
X108455732Y-66665528D01*
X108319059Y-66722140D01*
X108232004Y-66739456D01*
X108173969Y-66751000D01*
X108026031Y-66751000D01*
X107967996Y-66739456D01*
X107880941Y-66722140D01*
X107744268Y-66665528D01*
X107621265Y-66583340D01*
X107621262Y-66583338D01*
X107516662Y-66478738D01*
X107515554Y-66477079D01*
X107434472Y-66355732D01*
X107377860Y-66219059D01*
X107349000Y-66073967D01*
X107349000Y-65926033D01*
X107377860Y-65780941D01*
X107434472Y-65644268D01*
X107516660Y-65521265D01*
X107516662Y-65521262D01*
X107621262Y-65416662D01*
X107687285Y-65372547D01*
X107744268Y-65334472D01*
X107880941Y-65277860D01*
X107971400Y-65259867D01*
X108026031Y-65249000D01*
X108173969Y-65249000D01*
X108228600Y-65259867D01*
X108228600Y-65259867D01*
G37*
G36*
X100553665Y-65252622D02*
X100627222Y-65259867D01*
X100768786Y-65302810D01*
X100899252Y-65372546D01*
X101013606Y-65466394D01*
X101107454Y-65580748D01*
X101177190Y-65711214D01*
X101220133Y-65852778D01*
X101234633Y-66000000D01*
X101220133Y-66147222D01*
X101177190Y-66288786D01*
X101107454Y-66419252D01*
X101013606Y-66533606D01*
X100899252Y-66627454D01*
X100768786Y-66697190D01*
X100627222Y-66740133D01*
X100553665Y-66747378D01*
X100516888Y-66751000D01*
X100443112Y-66751000D01*
X100406335Y-66747378D01*
X100332778Y-66740133D01*
X100191214Y-66697190D01*
X100060748Y-66627454D01*
X99946394Y-66533606D01*
X99852546Y-66419252D01*
X99782810Y-66288786D01*
X99739867Y-66147222D01*
X99725367Y-66000000D01*
X99739867Y-65852778D01*
X99782810Y-65711214D01*
X99852546Y-65580748D01*
X99946394Y-65466394D01*
X100060748Y-65372546D01*
X100191214Y-65302810D01*
X100332778Y-65259867D01*
X100406335Y-65252622D01*
X100443112Y-65249000D01*
X100516888Y-65249000D01*
X100553665Y-65252622D01*
X100553665Y-65252622D01*
G37*
G36*
X165848228Y-62681703D02*
X166003100Y-62745853D01*
X166142481Y-62838985D01*
X166261015Y-62957519D01*
X166354147Y-63096900D01*
X166418297Y-63251772D01*
X166451000Y-63416184D01*
X166451000Y-63583816D01*
X166418297Y-63748228D01*
X166354147Y-63903100D01*
X166261015Y-64042481D01*
X166142481Y-64161015D01*
X166003100Y-64254147D01*
X165848228Y-64318297D01*
X165683816Y-64351000D01*
X165516184Y-64351000D01*
X165351772Y-64318297D01*
X165196900Y-64254147D01*
X165057519Y-64161015D01*
X164938985Y-64042481D01*
X164845853Y-63903100D01*
X164781703Y-63748228D01*
X164749000Y-63583816D01*
X164749000Y-63416184D01*
X164781703Y-63251772D01*
X164845853Y-63096900D01*
X164938985Y-62957519D01*
X165057519Y-62838985D01*
X165196900Y-62745853D01*
X165351772Y-62681703D01*
X165516184Y-62649000D01*
X165683816Y-62649000D01*
X165848228Y-62681703D01*
X165848228Y-62681703D01*
G37*
G36*
X165848228Y-60181703D02*
X166003100Y-60245853D01*
X166142481Y-60338985D01*
X166261015Y-60457519D01*
X166354147Y-60596900D01*
X166418297Y-60751772D01*
X166451000Y-60916184D01*
X166451000Y-61083816D01*
X166418297Y-61248228D01*
X166354147Y-61403100D01*
X166261015Y-61542481D01*
X166142481Y-61661015D01*
X166003100Y-61754147D01*
X165848228Y-61818297D01*
X165683816Y-61851000D01*
X165516184Y-61851000D01*
X165351772Y-61818297D01*
X165196900Y-61754147D01*
X165057519Y-61661015D01*
X164938985Y-61542481D01*
X164845853Y-61403100D01*
X164781703Y-61248228D01*
X164749000Y-61083816D01*
X164749000Y-60916184D01*
X164781703Y-60751772D01*
X164845853Y-60596900D01*
X164938985Y-60457519D01*
X165057519Y-60338985D01*
X165196900Y-60245853D01*
X165351772Y-60181703D01*
X165516184Y-60149000D01*
X165683816Y-60149000D01*
X165848228Y-60181703D01*
X165848228Y-60181703D01*
G37*
G36*
X179451000Y-60101000D02*
X176749000Y-60101000D01*
X176749000Y-57399000D01*
X179451000Y-57399000D01*
X179451000Y-60101000D01*
X179451000Y-60101000D01*
G37*
G36*
X142187142Y-58463242D02*
X142335102Y-58524530D01*
X142402130Y-58569317D01*
X142468257Y-58613501D01*
X142581499Y-58726743D01*
X142625683Y-58792870D01*
X142670470Y-58859898D01*
X142731758Y-59007858D01*
X142763000Y-59164925D01*
X142763000Y-59325075D01*
X142731758Y-59482142D01*
X142684354Y-59596583D01*
X142670471Y-59630100D01*
X142587118Y-59754848D01*
X142581498Y-59763258D01*
X142468258Y-59876498D01*
X142335102Y-59965470D01*
X142187142Y-60026758D01*
X142030075Y-60058000D01*
X141869925Y-60058000D01*
X141712858Y-60026758D01*
X141564898Y-59965470D01*
X141431742Y-59876498D01*
X141318502Y-59763258D01*
X141312883Y-59754848D01*
X141229529Y-59630100D01*
X141215646Y-59596583D01*
X141168242Y-59482142D01*
X141137000Y-59325075D01*
X141137000Y-59164925D01*
X141168242Y-59007858D01*
X141229530Y-58859898D01*
X141274317Y-58792870D01*
X141318501Y-58726743D01*
X141431743Y-58613501D01*
X141497870Y-58569317D01*
X141564898Y-58524530D01*
X141712858Y-58463242D01*
X141869925Y-58432000D01*
X142030075Y-58432000D01*
X142187142Y-58463242D01*
X142187142Y-58463242D01*
G37*
G36*
X132027142Y-58463242D02*
X132175102Y-58524530D01*
X132242130Y-58569317D01*
X132308257Y-58613501D01*
X132421499Y-58726743D01*
X132465683Y-58792870D01*
X132510470Y-58859898D01*
X132571758Y-59007858D01*
X132603000Y-59164925D01*
X132603000Y-59325075D01*
X132571758Y-59482142D01*
X132524354Y-59596583D01*
X132510471Y-59630100D01*
X132427118Y-59754848D01*
X132421498Y-59763258D01*
X132308258Y-59876498D01*
X132175102Y-59965470D01*
X132027142Y-60026758D01*
X131870075Y-60058000D01*
X131709925Y-60058000D01*
X131552858Y-60026758D01*
X131404898Y-59965470D01*
X131271742Y-59876498D01*
X131158502Y-59763258D01*
X131152883Y-59754848D01*
X131069529Y-59630100D01*
X131055646Y-59596583D01*
X131008242Y-59482142D01*
X130977000Y-59325075D01*
X130977000Y-59164925D01*
X131008242Y-59007858D01*
X131069530Y-58859898D01*
X131114317Y-58792870D01*
X131158501Y-58726743D01*
X131271743Y-58613501D01*
X131337870Y-58569317D01*
X131404898Y-58524530D01*
X131552858Y-58463242D01*
X131709925Y-58432000D01*
X131870075Y-58432000D01*
X132027142Y-58463242D01*
X132027142Y-58463242D01*
G37*
G36*
X129487142Y-58463242D02*
X129635102Y-58524530D01*
X129702130Y-58569317D01*
X129768257Y-58613501D01*
X129881499Y-58726743D01*
X129925683Y-58792870D01*
X129970470Y-58859898D01*
X130031758Y-59007858D01*
X130063000Y-59164925D01*
X130063000Y-59325075D01*
X130031758Y-59482142D01*
X129984354Y-59596583D01*
X129970471Y-59630100D01*
X129887118Y-59754848D01*
X129881498Y-59763258D01*
X129768258Y-59876498D01*
X129635102Y-59965470D01*
X129487142Y-60026758D01*
X129330075Y-60058000D01*
X129169925Y-60058000D01*
X129012858Y-60026758D01*
X128864898Y-59965470D01*
X128731742Y-59876498D01*
X128618502Y-59763258D01*
X128612883Y-59754848D01*
X128529529Y-59630100D01*
X128515646Y-59596583D01*
X128468242Y-59482142D01*
X128437000Y-59325075D01*
X128437000Y-59164925D01*
X128468242Y-59007858D01*
X128529530Y-58859898D01*
X128574317Y-58792870D01*
X128618501Y-58726743D01*
X128731743Y-58613501D01*
X128797870Y-58569317D01*
X128864898Y-58524530D01*
X129012858Y-58463242D01*
X129169925Y-58432000D01*
X129330075Y-58432000D01*
X129487142Y-58463242D01*
X129487142Y-58463242D01*
G37*
G36*
X137107142Y-58463242D02*
X137255102Y-58524530D01*
X137322130Y-58569317D01*
X137388257Y-58613501D01*
X137501499Y-58726743D01*
X137545683Y-58792870D01*
X137590470Y-58859898D01*
X137651758Y-59007858D01*
X137683000Y-59164925D01*
X137683000Y-59325075D01*
X137651758Y-59482142D01*
X137604354Y-59596583D01*
X137590471Y-59630100D01*
X137507118Y-59754848D01*
X137501498Y-59763258D01*
X137388258Y-59876498D01*
X137255102Y-59965470D01*
X137107142Y-60026758D01*
X136950075Y-60058000D01*
X136789925Y-60058000D01*
X136632858Y-60026758D01*
X136484898Y-59965470D01*
X136351742Y-59876498D01*
X136238502Y-59763258D01*
X136232883Y-59754848D01*
X136149529Y-59630100D01*
X136135646Y-59596583D01*
X136088242Y-59482142D01*
X136057000Y-59325075D01*
X136057000Y-59164925D01*
X136088242Y-59007858D01*
X136149530Y-58859898D01*
X136194317Y-58792870D01*
X136238501Y-58726743D01*
X136351743Y-58613501D01*
X136417870Y-58569317D01*
X136484898Y-58524530D01*
X136632858Y-58463242D01*
X136789925Y-58432000D01*
X136950075Y-58432000D01*
X137107142Y-58463242D01*
X137107142Y-58463242D01*
G37*
G36*
X134567142Y-58463242D02*
X134715102Y-58524530D01*
X134782130Y-58569317D01*
X134848257Y-58613501D01*
X134961499Y-58726743D01*
X135005683Y-58792870D01*
X135050470Y-58859898D01*
X135111758Y-59007858D01*
X135143000Y-59164925D01*
X135143000Y-59325075D01*
X135111758Y-59482142D01*
X135064354Y-59596583D01*
X135050471Y-59630100D01*
X134967118Y-59754848D01*
X134961498Y-59763258D01*
X134848258Y-59876498D01*
X134715102Y-59965470D01*
X134567142Y-60026758D01*
X134410075Y-60058000D01*
X134249925Y-60058000D01*
X134092858Y-60026758D01*
X133944898Y-59965470D01*
X133811742Y-59876498D01*
X133698502Y-59763258D01*
X133692883Y-59754848D01*
X133609529Y-59630100D01*
X133595646Y-59596583D01*
X133548242Y-59482142D01*
X133517000Y-59325075D01*
X133517000Y-59164925D01*
X133548242Y-59007858D01*
X133609530Y-58859898D01*
X133654317Y-58792870D01*
X133698501Y-58726743D01*
X133811743Y-58613501D01*
X133877870Y-58569317D01*
X133944898Y-58524530D01*
X134092858Y-58463242D01*
X134249925Y-58432000D01*
X134410075Y-58432000D01*
X134567142Y-58463242D01*
X134567142Y-58463242D01*
G37*
G36*
X139647142Y-58463242D02*
X139795102Y-58524530D01*
X139862130Y-58569317D01*
X139928257Y-58613501D01*
X140041499Y-58726743D01*
X140085683Y-58792870D01*
X140130470Y-58859898D01*
X140191758Y-59007858D01*
X140223000Y-59164925D01*
X140223000Y-59325075D01*
X140191758Y-59482142D01*
X140144354Y-59596583D01*
X140130471Y-59630100D01*
X140047118Y-59754848D01*
X140041498Y-59763258D01*
X139928258Y-59876498D01*
X139795102Y-59965470D01*
X139647142Y-60026758D01*
X139490075Y-60058000D01*
X139329925Y-60058000D01*
X139172858Y-60026758D01*
X139024898Y-59965470D01*
X138891742Y-59876498D01*
X138778502Y-59763258D01*
X138772883Y-59754848D01*
X138689529Y-59630100D01*
X138675646Y-59596583D01*
X138628242Y-59482142D01*
X138597000Y-59325075D01*
X138597000Y-59164925D01*
X138628242Y-59007858D01*
X138689530Y-58859898D01*
X138734317Y-58792870D01*
X138778501Y-58726743D01*
X138891743Y-58613501D01*
X138957870Y-58569317D01*
X139024898Y-58524530D01*
X139172858Y-58463242D01*
X139329925Y-58432000D01*
X139490075Y-58432000D01*
X139647142Y-58463242D01*
X139647142Y-58463242D01*
G37*
G36*
X96854848Y-58721264D02*
X95378736Y-59754848D01*
X94345152Y-58278736D01*
X95821264Y-57245152D01*
X96854848Y-58721264D01*
X96854848Y-58721264D01*
G37*
G36*
X106451000Y-59351000D02*
X104749000Y-59351000D01*
X104749000Y-57649000D01*
X106451000Y-57649000D01*
X106451000Y-59351000D01*
X106451000Y-59351000D01*
G37*
G36*
X108348228Y-57681703D02*
X108503100Y-57745853D01*
X108642481Y-57838985D01*
X108761015Y-57957519D01*
X108854147Y-58096900D01*
X108918297Y-58251772D01*
X108951000Y-58416184D01*
X108951000Y-58583816D01*
X108918297Y-58748228D01*
X108854147Y-58903100D01*
X108761015Y-59042481D01*
X108642481Y-59161015D01*
X108503100Y-59254147D01*
X108348228Y-59318297D01*
X108183816Y-59351000D01*
X108016184Y-59351000D01*
X107851772Y-59318297D01*
X107696900Y-59254147D01*
X107557519Y-59161015D01*
X107438985Y-59042481D01*
X107345853Y-58903100D01*
X107281703Y-58748228D01*
X107249000Y-58583816D01*
X107249000Y-58416184D01*
X107281703Y-58251772D01*
X107345853Y-58096900D01*
X107438985Y-57957519D01*
X107557519Y-57838985D01*
X107696900Y-57745853D01*
X107851772Y-57681703D01*
X108016184Y-57649000D01*
X108183816Y-57649000D01*
X108348228Y-57681703D01*
X108348228Y-57681703D01*
G37*
G36*
X97791089Y-56148635D02*
X97857273Y-56155153D01*
X97970499Y-56189500D01*
X98027113Y-56206673D01*
X98165733Y-56280768D01*
X98183637Y-56290338D01*
X98219375Y-56319668D01*
X98320832Y-56402930D01*
X98404094Y-56504387D01*
X98433424Y-56540125D01*
X98433425Y-56540127D01*
X98517089Y-56696649D01*
X98517089Y-56696650D01*
X98568609Y-56866489D01*
X98586005Y-57043116D01*
X98568609Y-57219743D01*
X98560901Y-57245152D01*
X98517089Y-57389583D01*
X98512055Y-57399000D01*
X98433424Y-57546107D01*
X98404094Y-57581845D01*
X98320832Y-57683302D01*
X98219375Y-57766564D01*
X98183637Y-57795894D01*
X98183635Y-57795895D01*
X98027113Y-57879559D01*
X97970499Y-57896732D01*
X97857273Y-57931079D01*
X97791089Y-57937597D01*
X97724906Y-57944116D01*
X97636386Y-57944116D01*
X97570203Y-57937597D01*
X97504019Y-57931079D01*
X97390793Y-57896732D01*
X97334179Y-57879559D01*
X97177657Y-57795895D01*
X97177655Y-57795894D01*
X97141917Y-57766564D01*
X97040460Y-57683302D01*
X96957198Y-57581845D01*
X96927868Y-57546107D01*
X96849237Y-57399000D01*
X96844203Y-57389583D01*
X96800391Y-57245152D01*
X96792683Y-57219743D01*
X96775287Y-57043116D01*
X96792683Y-56866489D01*
X96844203Y-56696650D01*
X96844203Y-56696649D01*
X96927867Y-56540127D01*
X96927868Y-56540125D01*
X96957198Y-56504387D01*
X97040460Y-56402930D01*
X97141917Y-56319668D01*
X97177655Y-56290338D01*
X97195559Y-56280768D01*
X97334179Y-56206673D01*
X97390793Y-56189500D01*
X97504019Y-56155153D01*
X97570203Y-56148635D01*
X97636386Y-56142116D01*
X97724906Y-56142116D01*
X97791089Y-56148635D01*
X97791089Y-56148635D01*
G37*
G36*
X173663567Y-54424959D02*
X173794072Y-54450918D01*
X174039939Y-54552759D01*
X174260464Y-54700110D01*
X174261215Y-54700612D01*
X174449388Y-54888785D01*
X174449390Y-54888788D01*
X174597241Y-55110061D01*
X174699082Y-55355928D01*
X174751000Y-55616938D01*
X174751000Y-55883062D01*
X174699082Y-56144072D01*
X174597241Y-56389939D01*
X174495315Y-56542481D01*
X174449388Y-56611215D01*
X174261215Y-56799388D01*
X174261212Y-56799390D01*
X174039939Y-56947241D01*
X173794072Y-57049082D01*
X173663567Y-57075041D01*
X173533063Y-57101000D01*
X173266937Y-57101000D01*
X173136433Y-57075041D01*
X173005928Y-57049082D01*
X172760061Y-56947241D01*
X172538788Y-56799390D01*
X172538785Y-56799388D01*
X172350612Y-56611215D01*
X172304685Y-56542481D01*
X172202759Y-56389939D01*
X172100918Y-56144072D01*
X172049000Y-55883062D01*
X172049000Y-55616938D01*
X172100918Y-55355928D01*
X172202759Y-55110061D01*
X172350610Y-54888788D01*
X172350612Y-54888785D01*
X172538785Y-54700612D01*
X172539536Y-54700110D01*
X172760061Y-54552759D01*
X173005928Y-54450918D01*
X173136433Y-54424959D01*
X173266937Y-54399000D01*
X173533063Y-54399000D01*
X173663567Y-54424959D01*
X173663567Y-54424959D01*
G37*
G36*
X155848228Y-55181703D02*
X156003100Y-55245853D01*
X156142481Y-55338985D01*
X156261015Y-55457519D01*
X156354147Y-55596900D01*
X156418297Y-55751772D01*
X156451000Y-55916184D01*
X156451000Y-56083816D01*
X156418297Y-56248228D01*
X156354147Y-56403100D01*
X156261015Y-56542481D01*
X156142481Y-56661015D01*
X156003100Y-56754147D01*
X155848228Y-56818297D01*
X155683816Y-56851000D01*
X155516184Y-56851000D01*
X155351772Y-56818297D01*
X155196900Y-56754147D01*
X155057519Y-56661015D01*
X154938985Y-56542481D01*
X154845853Y-56403100D01*
X154781703Y-56248228D01*
X154749000Y-56083816D01*
X154749000Y-55916184D01*
X154781703Y-55751772D01*
X154845853Y-55596900D01*
X154938985Y-55457519D01*
X155057519Y-55338985D01*
X155196900Y-55245853D01*
X155351772Y-55181703D01*
X155516184Y-55149000D01*
X155683816Y-55149000D01*
X155848228Y-55181703D01*
X155848228Y-55181703D01*
G37*
G36*
X160848228Y-55181703D02*
X161003100Y-55245853D01*
X161142481Y-55338985D01*
X161261015Y-55457519D01*
X161354147Y-55596900D01*
X161418297Y-55751772D01*
X161451000Y-55916184D01*
X161451000Y-56083816D01*
X161418297Y-56248228D01*
X161354147Y-56403100D01*
X161261015Y-56542481D01*
X161142481Y-56661015D01*
X161003100Y-56754147D01*
X160848228Y-56818297D01*
X160683816Y-56851000D01*
X160516184Y-56851000D01*
X160351772Y-56818297D01*
X160196900Y-56754147D01*
X160057519Y-56661015D01*
X159938985Y-56542481D01*
X159845853Y-56403100D01*
X159781703Y-56248228D01*
X159749000Y-56083816D01*
X159749000Y-55916184D01*
X159781703Y-55751772D01*
X159845853Y-55596900D01*
X159938985Y-55457519D01*
X160057519Y-55338985D01*
X160196900Y-55245853D01*
X160351772Y-55181703D01*
X160516184Y-55149000D01*
X160683816Y-55149000D01*
X160848228Y-55181703D01*
X160848228Y-55181703D01*
G37*
G36*
X163348228Y-55181703D02*
X163503100Y-55245853D01*
X163642481Y-55338985D01*
X163761015Y-55457519D01*
X163854147Y-55596900D01*
X163918297Y-55751772D01*
X163951000Y-55916184D01*
X163951000Y-56083816D01*
X163918297Y-56248228D01*
X163854147Y-56403100D01*
X163761015Y-56542481D01*
X163642481Y-56661015D01*
X163503100Y-56754147D01*
X163348228Y-56818297D01*
X163183816Y-56851000D01*
X163016184Y-56851000D01*
X162851772Y-56818297D01*
X162696900Y-56754147D01*
X162557519Y-56661015D01*
X162438985Y-56542481D01*
X162345853Y-56403100D01*
X162281703Y-56248228D01*
X162249000Y-56083816D01*
X162249000Y-55916184D01*
X162281703Y-55751772D01*
X162345853Y-55596900D01*
X162438985Y-55457519D01*
X162557519Y-55338985D01*
X162696900Y-55245853D01*
X162851772Y-55181703D01*
X163016184Y-55149000D01*
X163183816Y-55149000D01*
X163348228Y-55181703D01*
X163348228Y-55181703D01*
G37*
G36*
X153348228Y-55181703D02*
X153503100Y-55245853D01*
X153642481Y-55338985D01*
X153761015Y-55457519D01*
X153854147Y-55596900D01*
X153918297Y-55751772D01*
X153951000Y-55916184D01*
X153951000Y-56083816D01*
X153918297Y-56248228D01*
X153854147Y-56403100D01*
X153761015Y-56542481D01*
X153642481Y-56661015D01*
X153503100Y-56754147D01*
X153348228Y-56818297D01*
X153183816Y-56851000D01*
X153016184Y-56851000D01*
X152851772Y-56818297D01*
X152696900Y-56754147D01*
X152557519Y-56661015D01*
X152438985Y-56542481D01*
X152345853Y-56403100D01*
X152281703Y-56248228D01*
X152249000Y-56083816D01*
X152249000Y-55916184D01*
X152281703Y-55751772D01*
X152345853Y-55596900D01*
X152438985Y-55457519D01*
X152557519Y-55338985D01*
X152696900Y-55245853D01*
X152851772Y-55181703D01*
X153016184Y-55149000D01*
X153183816Y-55149000D01*
X153348228Y-55181703D01*
X153348228Y-55181703D01*
G37*
G36*
X178363567Y-51424959D02*
X178494072Y-51450918D01*
X178739939Y-51552759D01*
X178960464Y-51700110D01*
X178961215Y-51700612D01*
X179149388Y-51888785D01*
X179149390Y-51888788D01*
X179297241Y-52110061D01*
X179399082Y-52355928D01*
X179451000Y-52616938D01*
X179451000Y-52883062D01*
X179399082Y-53144072D01*
X179297241Y-53389939D01*
X179149890Y-53610464D01*
X179149388Y-53611215D01*
X178961215Y-53799388D01*
X178961212Y-53799390D01*
X178739939Y-53947241D01*
X178494072Y-54049082D01*
X178363567Y-54075041D01*
X178233063Y-54101000D01*
X177966937Y-54101000D01*
X177836433Y-54075041D01*
X177705928Y-54049082D01*
X177460061Y-53947241D01*
X177238788Y-53799390D01*
X177238785Y-53799388D01*
X177050612Y-53611215D01*
X177050110Y-53610464D01*
X176902759Y-53389939D01*
X176800918Y-53144072D01*
X176749000Y-52883062D01*
X176749000Y-52616938D01*
X176800918Y-52355928D01*
X176902759Y-52110061D01*
X177050610Y-51888788D01*
X177050612Y-51888785D01*
X177238785Y-51700612D01*
X177239536Y-51700110D01*
X177460061Y-51552759D01*
X177705928Y-51450918D01*
X177836433Y-51424959D01*
X177966937Y-51399000D01*
X178233063Y-51399000D01*
X178363567Y-51424959D01*
X178363567Y-51424959D01*
G37*
G36*
X91234239Y-45311467D02*
X91548282Y-45373934D01*
X92139926Y-45619001D01*
X92429523Y-45812504D01*
X92672395Y-45974786D01*
X93125214Y-46427605D01*
X93125216Y-46427608D01*
X93480999Y-46960074D01*
X93689533Y-47463520D01*
X93726066Y-47551719D01*
X93851000Y-48179803D01*
X93851000Y-48820197D01*
X93814640Y-49002989D01*
X93726066Y-49448282D01*
X93480999Y-50039926D01*
X93233265Y-50410685D01*
X93125214Y-50572395D01*
X92672395Y-51025214D01*
X92672392Y-51025216D01*
X92139926Y-51380999D01*
X91548282Y-51626066D01*
X91234239Y-51688533D01*
X90920197Y-51751000D01*
X90279803Y-51751000D01*
X89965761Y-51688533D01*
X89651718Y-51626066D01*
X89060074Y-51380999D01*
X88527608Y-51025216D01*
X88527605Y-51025214D01*
X88074786Y-50572395D01*
X87966735Y-50410685D01*
X87719001Y-50039926D01*
X87473934Y-49448282D01*
X87385360Y-49002989D01*
X87349000Y-48820197D01*
X87349000Y-48179803D01*
X87473934Y-47551719D01*
X87510467Y-47463520D01*
X87719001Y-46960074D01*
X88074784Y-46427608D01*
X88074786Y-46427605D01*
X88527605Y-45974786D01*
X88770477Y-45812504D01*
X89060074Y-45619001D01*
X89651718Y-45373934D01*
X89965761Y-45311467D01*
X90279803Y-45249000D01*
X90920197Y-45249000D01*
X91234239Y-45311467D01*
X91234239Y-45311467D01*
G37*
G36*
X160836719Y-47463520D02*
X161025880Y-47520901D01*
X161200212Y-47614083D01*
X161353015Y-47739485D01*
X161478417Y-47892288D01*
X161571599Y-48066619D01*
X161628980Y-48255780D01*
X161643500Y-48403206D01*
X161643500Y-48596793D01*
X161628980Y-48744219D01*
X161571599Y-48933380D01*
X161478417Y-49107712D01*
X161353015Y-49260515D01*
X161200212Y-49385917D01*
X161025881Y-49479099D01*
X160836720Y-49536480D01*
X160640000Y-49555855D01*
X160443281Y-49536480D01*
X160254120Y-49479099D01*
X160079788Y-49385917D01*
X159926985Y-49260515D01*
X159801583Y-49107712D01*
X159708401Y-48933381D01*
X159651020Y-48744220D01*
X159636500Y-48596794D01*
X159636500Y-48403207D01*
X159651020Y-48255781D01*
X159708401Y-48066620D01*
X159801583Y-47892288D01*
X159926985Y-47739485D01*
X160079788Y-47614083D01*
X160254119Y-47520901D01*
X160443280Y-47463520D01*
X160640000Y-47444145D01*
X160836719Y-47463520D01*
X160836719Y-47463520D01*
G37*
G36*
X158296719Y-47463520D02*
X158485880Y-47520901D01*
X158660212Y-47614083D01*
X158813015Y-47739485D01*
X158938417Y-47892288D01*
X159031599Y-48066619D01*
X159088980Y-48255780D01*
X159103500Y-48403206D01*
X159103500Y-48596793D01*
X159088980Y-48744219D01*
X159031599Y-48933380D01*
X158938417Y-49107712D01*
X158813015Y-49260515D01*
X158660212Y-49385917D01*
X158485881Y-49479099D01*
X158296720Y-49536480D01*
X158100000Y-49555855D01*
X157903281Y-49536480D01*
X157714120Y-49479099D01*
X157539788Y-49385917D01*
X157386985Y-49260515D01*
X157261583Y-49107712D01*
X157168401Y-48933381D01*
X157111020Y-48744220D01*
X157096500Y-48596794D01*
X157096500Y-48403207D01*
X157111020Y-48255781D01*
X157168401Y-48066620D01*
X157261583Y-47892288D01*
X157386985Y-47739485D01*
X157539788Y-47614083D01*
X157714119Y-47520901D01*
X157903280Y-47463520D01*
X158100000Y-47444145D01*
X158296719Y-47463520D01*
X158296719Y-47463520D01*
G37*
G36*
X156563500Y-49551000D02*
X154556500Y-49551000D01*
X154556500Y-47449000D01*
X156563500Y-47449000D01*
X156563500Y-49551000D01*
X156563500Y-49551000D01*
G37*
G36*
X133921000Y-49401000D02*
X132119000Y-49401000D01*
X132119000Y-47599000D01*
X133921000Y-47599000D01*
X133921000Y-49401000D01*
X133921000Y-49401000D01*
G37*
G36*
X104041000Y-49401000D02*
X102239000Y-49401000D01*
X102239000Y-47599000D01*
X104041000Y-47599000D01*
X104041000Y-49401000D01*
X104041000Y-49401000D01*
G37*
G36*
X105790442Y-47605518D02*
X105856627Y-47612037D01*
X105969853Y-47646384D01*
X106026467Y-47663557D01*
X106165087Y-47737652D01*
X106182991Y-47747222D01*
X106218729Y-47776552D01*
X106320186Y-47859814D01*
X106403448Y-47961271D01*
X106432778Y-47997009D01*
X106432779Y-47997011D01*
X106516443Y-48153533D01*
X106516443Y-48153534D01*
X106567963Y-48323373D01*
X106585359Y-48500000D01*
X106567963Y-48676627D01*
X106547460Y-48744216D01*
X106516443Y-48846467D01*
X106469832Y-48933668D01*
X106432778Y-49002991D01*
X106403448Y-49038729D01*
X106320186Y-49140186D01*
X106218729Y-49223448D01*
X106182991Y-49252778D01*
X106182989Y-49252779D01*
X106026467Y-49336443D01*
X105969853Y-49353616D01*
X105856627Y-49387963D01*
X105790442Y-49394482D01*
X105724260Y-49401000D01*
X105635740Y-49401000D01*
X105569558Y-49394482D01*
X105503373Y-49387963D01*
X105390147Y-49353616D01*
X105333533Y-49336443D01*
X105177011Y-49252779D01*
X105177009Y-49252778D01*
X105141271Y-49223448D01*
X105039814Y-49140186D01*
X104956552Y-49038729D01*
X104927222Y-49002991D01*
X104890168Y-48933668D01*
X104843557Y-48846467D01*
X104812540Y-48744216D01*
X104792037Y-48676627D01*
X104774641Y-48500000D01*
X104792037Y-48323373D01*
X104843557Y-48153534D01*
X104843557Y-48153533D01*
X104927221Y-47997011D01*
X104927222Y-47997009D01*
X104956552Y-47961271D01*
X105039814Y-47859814D01*
X105141271Y-47776552D01*
X105177009Y-47747222D01*
X105194913Y-47737652D01*
X105333533Y-47663557D01*
X105390147Y-47646384D01*
X105503373Y-47612037D01*
X105569557Y-47605519D01*
X105635740Y-47599000D01*
X105724260Y-47599000D01*
X105790442Y-47605518D01*
X105790442Y-47605518D01*
G37*
G36*
X108330442Y-47605518D02*
X108396627Y-47612037D01*
X108509853Y-47646384D01*
X108566467Y-47663557D01*
X108705087Y-47737652D01*
X108722991Y-47747222D01*
X108758729Y-47776552D01*
X108860186Y-47859814D01*
X108943448Y-47961271D01*
X108972778Y-47997009D01*
X108972779Y-47997011D01*
X109056443Y-48153533D01*
X109056443Y-48153534D01*
X109107963Y-48323373D01*
X109125359Y-48500000D01*
X109107963Y-48676627D01*
X109087460Y-48744216D01*
X109056443Y-48846467D01*
X109009832Y-48933668D01*
X108972778Y-49002991D01*
X108943448Y-49038729D01*
X108860186Y-49140186D01*
X108758729Y-49223448D01*
X108722991Y-49252778D01*
X108722989Y-49252779D01*
X108566467Y-49336443D01*
X108509853Y-49353616D01*
X108396627Y-49387963D01*
X108330442Y-49394482D01*
X108264260Y-49401000D01*
X108175740Y-49401000D01*
X108109558Y-49394482D01*
X108043373Y-49387963D01*
X107930147Y-49353616D01*
X107873533Y-49336443D01*
X107717011Y-49252779D01*
X107717009Y-49252778D01*
X107681271Y-49223448D01*
X107579814Y-49140186D01*
X107496552Y-49038729D01*
X107467222Y-49002991D01*
X107430168Y-48933668D01*
X107383557Y-48846467D01*
X107352540Y-48744216D01*
X107332037Y-48676627D01*
X107314641Y-48500000D01*
X107332037Y-48323373D01*
X107383557Y-48153534D01*
X107383557Y-48153533D01*
X107467221Y-47997011D01*
X107467222Y-47997009D01*
X107496552Y-47961271D01*
X107579814Y-47859814D01*
X107681271Y-47776552D01*
X107717009Y-47747222D01*
X107734913Y-47737652D01*
X107873533Y-47663557D01*
X107930147Y-47646384D01*
X108043373Y-47612037D01*
X108109557Y-47605519D01*
X108175740Y-47599000D01*
X108264260Y-47599000D01*
X108330442Y-47605518D01*
X108330442Y-47605518D01*
G37*
G36*
X119041000Y-49401000D02*
X117239000Y-49401000D01*
X117239000Y-47599000D01*
X119041000Y-47599000D01*
X119041000Y-49401000D01*
X119041000Y-49401000D01*
G37*
G36*
X120790442Y-47605518D02*
X120856627Y-47612037D01*
X120969853Y-47646384D01*
X121026467Y-47663557D01*
X121165087Y-47737652D01*
X121182991Y-47747222D01*
X121218729Y-47776552D01*
X121320186Y-47859814D01*
X121403448Y-47961271D01*
X121432778Y-47997009D01*
X121432779Y-47997011D01*
X121516443Y-48153533D01*
X121516443Y-48153534D01*
X121567963Y-48323373D01*
X121585359Y-48500000D01*
X121567963Y-48676627D01*
X121547460Y-48744216D01*
X121516443Y-48846467D01*
X121469832Y-48933668D01*
X121432778Y-49002991D01*
X121403448Y-49038729D01*
X121320186Y-49140186D01*
X121218729Y-49223448D01*
X121182991Y-49252778D01*
X121182989Y-49252779D01*
X121026467Y-49336443D01*
X120969853Y-49353616D01*
X120856627Y-49387963D01*
X120790442Y-49394482D01*
X120724260Y-49401000D01*
X120635740Y-49401000D01*
X120569558Y-49394482D01*
X120503373Y-49387963D01*
X120390147Y-49353616D01*
X120333533Y-49336443D01*
X120177011Y-49252779D01*
X120177009Y-49252778D01*
X120141271Y-49223448D01*
X120039814Y-49140186D01*
X119956552Y-49038729D01*
X119927222Y-49002991D01*
X119890168Y-48933668D01*
X119843557Y-48846467D01*
X119812540Y-48744216D01*
X119792037Y-48676627D01*
X119774641Y-48500000D01*
X119792037Y-48323373D01*
X119843557Y-48153534D01*
X119843557Y-48153533D01*
X119927221Y-47997011D01*
X119927222Y-47997009D01*
X119956552Y-47961271D01*
X120039814Y-47859814D01*
X120141271Y-47776552D01*
X120177009Y-47747222D01*
X120194913Y-47737652D01*
X120333533Y-47663557D01*
X120390147Y-47646384D01*
X120503373Y-47612037D01*
X120569557Y-47605519D01*
X120635740Y-47599000D01*
X120724260Y-47599000D01*
X120790442Y-47605518D01*
X120790442Y-47605518D01*
G37*
G36*
X140750442Y-47605518D02*
X140816627Y-47612037D01*
X140929853Y-47646384D01*
X140986467Y-47663557D01*
X141125087Y-47737652D01*
X141142991Y-47747222D01*
X141178729Y-47776552D01*
X141280186Y-47859814D01*
X141363448Y-47961271D01*
X141392778Y-47997009D01*
X141392779Y-47997011D01*
X141476443Y-48153533D01*
X141476443Y-48153534D01*
X141527963Y-48323373D01*
X141545359Y-48500000D01*
X141527963Y-48676627D01*
X141507460Y-48744216D01*
X141476443Y-48846467D01*
X141429832Y-48933668D01*
X141392778Y-49002991D01*
X141363448Y-49038729D01*
X141280186Y-49140186D01*
X141178729Y-49223448D01*
X141142991Y-49252778D01*
X141142989Y-49252779D01*
X140986467Y-49336443D01*
X140929853Y-49353616D01*
X140816627Y-49387963D01*
X140750442Y-49394482D01*
X140684260Y-49401000D01*
X140595740Y-49401000D01*
X140529558Y-49394482D01*
X140463373Y-49387963D01*
X140350147Y-49353616D01*
X140293533Y-49336443D01*
X140137011Y-49252779D01*
X140137009Y-49252778D01*
X140101271Y-49223448D01*
X139999814Y-49140186D01*
X139916552Y-49038729D01*
X139887222Y-49002991D01*
X139850168Y-48933668D01*
X139803557Y-48846467D01*
X139772540Y-48744216D01*
X139752037Y-48676627D01*
X139734641Y-48500000D01*
X139752037Y-48323373D01*
X139803557Y-48153534D01*
X139803557Y-48153533D01*
X139887221Y-47997011D01*
X139887222Y-47997009D01*
X139916552Y-47961271D01*
X139999814Y-47859814D01*
X140101271Y-47776552D01*
X140137009Y-47747222D01*
X140154913Y-47737652D01*
X140293533Y-47663557D01*
X140350147Y-47646384D01*
X140463373Y-47612037D01*
X140529557Y-47605519D01*
X140595740Y-47599000D01*
X140684260Y-47599000D01*
X140750442Y-47605518D01*
X140750442Y-47605518D01*
G37*
G36*
X123330442Y-47605518D02*
X123396627Y-47612037D01*
X123509853Y-47646384D01*
X123566467Y-47663557D01*
X123705087Y-47737652D01*
X123722991Y-47747222D01*
X123758729Y-47776552D01*
X123860186Y-47859814D01*
X123943448Y-47961271D01*
X123972778Y-47997009D01*
X123972779Y-47997011D01*
X124056443Y-48153533D01*
X124056443Y-48153534D01*
X124107963Y-48323373D01*
X124125359Y-48500000D01*
X124107963Y-48676627D01*
X124087460Y-48744216D01*
X124056443Y-48846467D01*
X124009832Y-48933668D01*
X123972778Y-49002991D01*
X123943448Y-49038729D01*
X123860186Y-49140186D01*
X123758729Y-49223448D01*
X123722991Y-49252778D01*
X123722989Y-49252779D01*
X123566467Y-49336443D01*
X123509853Y-49353616D01*
X123396627Y-49387963D01*
X123330442Y-49394482D01*
X123264260Y-49401000D01*
X123175740Y-49401000D01*
X123109558Y-49394482D01*
X123043373Y-49387963D01*
X122930147Y-49353616D01*
X122873533Y-49336443D01*
X122717011Y-49252779D01*
X122717009Y-49252778D01*
X122681271Y-49223448D01*
X122579814Y-49140186D01*
X122496552Y-49038729D01*
X122467222Y-49002991D01*
X122430168Y-48933668D01*
X122383557Y-48846467D01*
X122352540Y-48744216D01*
X122332037Y-48676627D01*
X122314641Y-48500000D01*
X122332037Y-48323373D01*
X122383557Y-48153534D01*
X122383557Y-48153533D01*
X122467221Y-47997011D01*
X122467222Y-47997009D01*
X122496552Y-47961271D01*
X122579814Y-47859814D01*
X122681271Y-47776552D01*
X122717009Y-47747222D01*
X122734913Y-47737652D01*
X122873533Y-47663557D01*
X122930147Y-47646384D01*
X123043373Y-47612037D01*
X123109557Y-47605519D01*
X123175740Y-47599000D01*
X123264260Y-47599000D01*
X123330442Y-47605518D01*
X123330442Y-47605518D01*
G37*
G36*
X138210442Y-47605518D02*
X138276627Y-47612037D01*
X138389853Y-47646384D01*
X138446467Y-47663557D01*
X138585087Y-47737652D01*
X138602991Y-47747222D01*
X138638729Y-47776552D01*
X138740186Y-47859814D01*
X138823448Y-47961271D01*
X138852778Y-47997009D01*
X138852779Y-47997011D01*
X138936443Y-48153533D01*
X138936443Y-48153534D01*
X138987963Y-48323373D01*
X139005359Y-48500000D01*
X138987963Y-48676627D01*
X138967460Y-48744216D01*
X138936443Y-48846467D01*
X138889832Y-48933668D01*
X138852778Y-49002991D01*
X138823448Y-49038729D01*
X138740186Y-49140186D01*
X138638729Y-49223448D01*
X138602991Y-49252778D01*
X138602989Y-49252779D01*
X138446467Y-49336443D01*
X138389853Y-49353616D01*
X138276627Y-49387963D01*
X138210442Y-49394482D01*
X138144260Y-49401000D01*
X138055740Y-49401000D01*
X137989558Y-49394482D01*
X137923373Y-49387963D01*
X137810147Y-49353616D01*
X137753533Y-49336443D01*
X137597011Y-49252779D01*
X137597009Y-49252778D01*
X137561271Y-49223448D01*
X137459814Y-49140186D01*
X137376552Y-49038729D01*
X137347222Y-49002991D01*
X137310168Y-48933668D01*
X137263557Y-48846467D01*
X137232540Y-48744216D01*
X137212037Y-48676627D01*
X137194641Y-48500000D01*
X137212037Y-48323373D01*
X137263557Y-48153534D01*
X137263557Y-48153533D01*
X137347221Y-47997011D01*
X137347222Y-47997009D01*
X137376552Y-47961271D01*
X137459814Y-47859814D01*
X137561271Y-47776552D01*
X137597009Y-47747222D01*
X137614913Y-47737652D01*
X137753533Y-47663557D01*
X137810147Y-47646384D01*
X137923373Y-47612037D01*
X137989557Y-47605519D01*
X138055740Y-47599000D01*
X138144260Y-47599000D01*
X138210442Y-47605518D01*
X138210442Y-47605518D01*
G37*
G36*
X135670442Y-47605518D02*
X135736627Y-47612037D01*
X135849853Y-47646384D01*
X135906467Y-47663557D01*
X136045087Y-47737652D01*
X136062991Y-47747222D01*
X136098729Y-47776552D01*
X136200186Y-47859814D01*
X136283448Y-47961271D01*
X136312778Y-47997009D01*
X136312779Y-47997011D01*
X136396443Y-48153533D01*
X136396443Y-48153534D01*
X136447963Y-48323373D01*
X136465359Y-48500000D01*
X136447963Y-48676627D01*
X136427460Y-48744216D01*
X136396443Y-48846467D01*
X136349832Y-48933668D01*
X136312778Y-49002991D01*
X136283448Y-49038729D01*
X136200186Y-49140186D01*
X136098729Y-49223448D01*
X136062991Y-49252778D01*
X136062989Y-49252779D01*
X135906467Y-49336443D01*
X135849853Y-49353616D01*
X135736627Y-49387963D01*
X135670442Y-49394482D01*
X135604260Y-49401000D01*
X135515740Y-49401000D01*
X135449558Y-49394482D01*
X135383373Y-49387963D01*
X135270147Y-49353616D01*
X135213533Y-49336443D01*
X135057011Y-49252779D01*
X135057009Y-49252778D01*
X135021271Y-49223448D01*
X134919814Y-49140186D01*
X134836552Y-49038729D01*
X134807222Y-49002991D01*
X134770168Y-48933668D01*
X134723557Y-48846467D01*
X134692540Y-48744216D01*
X134672037Y-48676627D01*
X134654641Y-48500000D01*
X134672037Y-48323373D01*
X134723557Y-48153534D01*
X134723557Y-48153533D01*
X134807221Y-47997011D01*
X134807222Y-47997009D01*
X134836552Y-47961271D01*
X134919814Y-47859814D01*
X135021271Y-47776552D01*
X135057009Y-47747222D01*
X135074913Y-47737652D01*
X135213533Y-47663557D01*
X135270147Y-47646384D01*
X135383373Y-47612037D01*
X135449557Y-47605519D01*
X135515740Y-47599000D01*
X135604260Y-47599000D01*
X135670442Y-47605518D01*
X135670442Y-47605518D01*
G37*
M02*
