M48
;DRILL file {KiCad (5.0.2)-1} date 21-Jul-21 1:37:40 PM
;FORMAT={-:-/ absolute / inch / decimal}
FMAT,2
INCH,TZ
T1C0.0157
T2C0.0354
T3C0.0394
T4C0.0433
T5C0.1260
%
G90
G05
T1
X5.3543Y-2.7559
X6.2205Y-2.0079
T2
X5.6874Y-2.0079
X5.7874Y-2.0079
T3
X4.9213Y-4.7244
X4.9213Y-4.8244
X4.9213Y-4.9244
X3.937Y-4.7244
X3.937Y-4.8244
X3.937Y-4.9244
X4.252Y-4.7244
X4.252Y-4.8244
X4.252Y-4.9244
X5.448Y-1.6142
X5.548Y-1.6142
X5.648Y-1.6142
X5.748Y-1.6142
X5.848Y-1.6142
X5.948Y-1.6142
X5.2362Y-4.7244
X5.2362Y-4.8244
X5.2362Y-4.9244
T4
X6.0429Y-2.7528
X6.0429Y-2.8528
X6.0429Y-2.9528
X6.0429Y-3.0528
X6.0429Y-3.1528
X4.0744Y-2.7528
X4.0744Y-2.8528
X4.0744Y-2.9528
X4.0744Y-3.0528
X4.0744Y-3.1528
T5
X5.2362Y-4.3602
X7.4803Y-1.5748
X7.4803Y-3.9173
X3.9567Y-3.9173
X3.937Y-1.5748
X4.252Y-4.3602
T0
M30
