G04 #@! TF.GenerationSoftware,KiCad,Pcbnew,(5.0.2)-1*
G04 #@! TF.CreationDate,2021-07-21T13:37:46-04:00*
G04 #@! TF.ProjectId,breakout,62726561-6b6f-4757-942e-6b696361645f,rev?*
G04 #@! TF.SameCoordinates,Original*
G04 #@! TF.FileFunction,Copper,L1,Top*
G04 #@! TF.FilePolarity,Positive*
%FSLAX46Y46*%
G04 Gerber Fmt 4.6, Leading zero omitted, Abs format (unit mm)*
G04 Created by KiCad (PCBNEW (5.0.2)-1) date 21-Jul-21 1:37:46 PM*
%MOMM*%
%LPD*%
G01*
G04 APERTURE LIST*
G04 #@! TA.AperFunction,ComponentPad*
%ADD10O,1.700000X1.700000*%
G04 #@! TD*
G04 #@! TA.AperFunction,ComponentPad*
%ADD11R,1.700000X1.700000*%
G04 #@! TD*
G04 #@! TA.AperFunction,ComponentPad*
%ADD12R,1.800000X1.800000*%
G04 #@! TD*
G04 #@! TA.AperFunction,ComponentPad*
%ADD13C,1.800000*%
G04 #@! TD*
G04 #@! TA.AperFunction,ComponentPad*
%ADD14C,1.524000*%
G04 #@! TD*
G04 #@! TA.AperFunction,ViaPad*
%ADD15C,0.800000*%
G04 #@! TD*
G04 #@! TA.AperFunction,Conductor*
%ADD16C,0.250000*%
G04 #@! TD*
G04 #@! TA.AperFunction,Conductor*
%ADD17C,0.254000*%
G04 #@! TD*
G04 #@! TA.AperFunction,NonConductor*
%ADD18C,0.254000*%
G04 #@! TD*
G04 APERTURE END LIST*
D10*
G04 #@! TO.P,J2,3*
G04 #@! TO.N,N/C*
X125000000Y-125080000D03*
G04 #@! TO.P,J2,2*
X125000000Y-122540000D03*
D11*
G04 #@! TO.P,J2,1*
X125000000Y-120000000D03*
G04 #@! TD*
D10*
G04 #@! TO.P,J4,3*
G04 #@! TO.N,N/C*
X133000000Y-125080000D03*
G04 #@! TO.P,J4,2*
X133000000Y-122540000D03*
D11*
G04 #@! TO.P,J4,1*
X133000000Y-120000000D03*
G04 #@! TD*
G04 #@! TO.P,J4,1*
G04 #@! TO.N,Net-(J2-Pad1)*
X108000000Y-120000000D03*
D10*
G04 #@! TO.P,J4,2*
G04 #@! TO.N,Net-(J2-Pad2)*
X108000000Y-122540000D03*
G04 #@! TO.P,J4,3*
G04 #@! TO.N,Net-(J2-Pad3)*
X108000000Y-125080000D03*
G04 #@! TD*
D11*
G04 #@! TO.P,J2,1*
G04 #@! TO.N,Net-(J2-Pad1)*
X100000000Y-120000000D03*
D10*
G04 #@! TO.P,J2,2*
G04 #@! TO.N,Net-(J2-Pad2)*
X100000000Y-122540000D03*
G04 #@! TO.P,J2,3*
G04 #@! TO.N,Net-(J2-Pad3)*
X100000000Y-125080000D03*
G04 #@! TD*
D11*
G04 #@! TO.P,J1,1*
G04 #@! TO.N,Net-(J1-Pad1)*
X138380000Y-41000000D03*
D10*
G04 #@! TO.P,J1,2*
G04 #@! TO.N,Net-(J1-Pad2)*
X140920000Y-41000000D03*
G04 #@! TO.P,J1,3*
G04 #@! TO.N,Net-(J1-Pad3)*
X143460000Y-41000000D03*
G04 #@! TO.P,J1,4*
G04 #@! TO.N,Net-(J1-Pad4)*
X146000000Y-41000000D03*
G04 #@! TO.P,J1,5*
G04 #@! TO.N,Net-(D1-Pad2)*
X148540000Y-41000000D03*
G04 #@! TO.P,J1,6*
G04 #@! TO.N,Net-(D1-Pad1)*
X151080000Y-41000000D03*
G04 #@! TD*
D12*
G04 #@! TO.P,D1,1*
G04 #@! TO.N,Net-(D1-Pad1)*
X147000000Y-51000000D03*
D13*
G04 #@! TO.P,D1,2*
G04 #@! TO.N,Net-(D1-Pad2)*
X144460000Y-51000000D03*
G04 #@! TD*
D14*
G04 #@! TO.P,U2,1*
G04 #@! TO.N,Net-(J1-Pad1)*
X153490000Y-69920000D03*
G04 #@! TO.P,U2,2*
G04 #@! TO.N,Net-(J1-Pad4)*
X153490000Y-72460000D03*
G04 #@! TO.P,U2,3*
G04 #@! TO.N,Net-(U2-Pad3)*
X153490000Y-75000000D03*
G04 #@! TO.P,U2,4*
G04 #@! TO.N,Net-(U2-Pad4)*
X153490000Y-77540000D03*
G04 #@! TO.P,U2,5*
G04 #@! TO.N,Net-(D1-Pad1)*
X153490000Y-80080000D03*
G04 #@! TD*
G04 #@! TO.P,U1,5*
G04 #@! TO.N,Net-(D1-Pad1)*
X103490000Y-80080000D03*
G04 #@! TO.P,U1,4*
G04 #@! TO.N,Net-(U1-Pad4)*
X103490000Y-77540000D03*
G04 #@! TO.P,U1,3*
G04 #@! TO.N,Net-(J1-Pad3)*
X103490000Y-75000000D03*
G04 #@! TO.P,U1,2*
G04 #@! TO.N,Net-(J1-Pad2)*
X103490000Y-72460000D03*
G04 #@! TO.P,U1,1*
G04 #@! TO.N,Net-(J1-Pad1)*
X103490000Y-69920000D03*
G04 #@! TD*
D15*
G04 #@! TO.N,Net-(D1-Pad1)*
X158000000Y-51000000D03*
G04 #@! TO.N,Net-(J1-Pad1)*
X136000000Y-70000000D03*
G04 #@! TD*
D16*
G04 #@! TO.N,Net-(D1-Pad1)*
X158000000Y-51000000D02*
X164000000Y-51000000D01*
X164000000Y-51000000D02*
X166000000Y-53000000D01*
X166000000Y-53000000D02*
X166000000Y-79000000D01*
X164920000Y-80080000D02*
X153490000Y-80080000D01*
X166000000Y-79000000D02*
X164920000Y-80080000D01*
G04 #@! TO.N,Net-(J1-Pad1)*
X153490000Y-69920000D02*
X136080000Y-69920000D01*
X136080000Y-69920000D02*
X136000000Y-70000000D01*
G04 #@! TD*
D17*
G04 #@! TO.N,Net-(D1-Pad1)*
G36*
X194290000Y-104290000D02*
X145069926Y-104290000D01*
X145000000Y-104276091D01*
X144930075Y-104290000D01*
X143069926Y-104290000D01*
X143000000Y-104276091D01*
X142930075Y-104290000D01*
X120069926Y-104290000D01*
X120000000Y-104276091D01*
X119930075Y-104290000D01*
X118069926Y-104290000D01*
X118000000Y-104276091D01*
X117930075Y-104290000D01*
X95710000Y-104290000D01*
X95710000Y-99055431D01*
X98265000Y-99055431D01*
X98265000Y-99944569D01*
X98605259Y-100766026D01*
X99233974Y-101394741D01*
X100055431Y-101735000D01*
X100944569Y-101735000D01*
X101766026Y-101394741D01*
X102394741Y-100766026D01*
X102735000Y-99944569D01*
X102735000Y-99055431D01*
X187765000Y-99055431D01*
X187765000Y-99944569D01*
X188105259Y-100766026D01*
X188733974Y-101394741D01*
X189555431Y-101735000D01*
X190444569Y-101735000D01*
X191266026Y-101394741D01*
X191894741Y-100766026D01*
X192235000Y-99944569D01*
X192235000Y-99055431D01*
X191894741Y-98233974D01*
X191266026Y-97605259D01*
X190444569Y-97265000D01*
X189555431Y-97265000D01*
X188733974Y-97605259D01*
X188105259Y-98233974D01*
X187765000Y-99055431D01*
X102735000Y-99055431D01*
X102394741Y-98233974D01*
X101766026Y-97605259D01*
X100944569Y-97265000D01*
X100055431Y-97265000D01*
X99233974Y-97605259D01*
X98605259Y-98233974D01*
X98265000Y-99055431D01*
X95710000Y-99055431D01*
X95710000Y-81060213D01*
X102689392Y-81060213D01*
X102758857Y-81302397D01*
X103282302Y-81489144D01*
X103837368Y-81461362D01*
X104221143Y-81302397D01*
X104290608Y-81060213D01*
X152689392Y-81060213D01*
X152758857Y-81302397D01*
X153282302Y-81489144D01*
X153837368Y-81461362D01*
X154221143Y-81302397D01*
X154290608Y-81060213D01*
X153490000Y-80259605D01*
X152689392Y-81060213D01*
X104290608Y-81060213D01*
X103490000Y-80259605D01*
X102689392Y-81060213D01*
X95710000Y-81060213D01*
X95710000Y-79872302D01*
X102080856Y-79872302D01*
X102108638Y-80427368D01*
X102267603Y-80811143D01*
X102509787Y-80880608D01*
X103310395Y-80080000D01*
X103669605Y-80080000D01*
X104470213Y-80880608D01*
X104712397Y-80811143D01*
X104899144Y-80287698D01*
X104878353Y-79872302D01*
X152080856Y-79872302D01*
X152108638Y-80427368D01*
X152267603Y-80811143D01*
X152509787Y-80880608D01*
X153310395Y-80080000D01*
X153669605Y-80080000D01*
X154470213Y-80880608D01*
X154712397Y-80811143D01*
X154899144Y-80287698D01*
X154871362Y-79732632D01*
X154712397Y-79348857D01*
X154470213Y-79279392D01*
X153669605Y-80080000D01*
X153310395Y-80080000D01*
X152509787Y-79279392D01*
X152267603Y-79348857D01*
X152080856Y-79872302D01*
X104878353Y-79872302D01*
X104871362Y-79732632D01*
X104712397Y-79348857D01*
X104470213Y-79279392D01*
X103669605Y-80080000D01*
X103310395Y-80080000D01*
X102509787Y-79279392D01*
X102267603Y-79348857D01*
X102080856Y-79872302D01*
X95710000Y-79872302D01*
X95710000Y-69642119D01*
X102093000Y-69642119D01*
X102093000Y-70197881D01*
X102305680Y-70711337D01*
X102698663Y-71104320D01*
X102905513Y-71190000D01*
X102698663Y-71275680D01*
X102305680Y-71668663D01*
X102093000Y-72182119D01*
X102093000Y-72737881D01*
X102305680Y-73251337D01*
X102698663Y-73644320D01*
X102905513Y-73730000D01*
X102698663Y-73815680D01*
X102305680Y-74208663D01*
X102093000Y-74722119D01*
X102093000Y-75277881D01*
X102305680Y-75791337D01*
X102698663Y-76184320D01*
X102905513Y-76270000D01*
X102698663Y-76355680D01*
X102305680Y-76748663D01*
X102093000Y-77262119D01*
X102093000Y-77817881D01*
X102305680Y-78331337D01*
X102698663Y-78724320D01*
X102889647Y-78803428D01*
X102758857Y-78857603D01*
X102689392Y-79099787D01*
X103490000Y-79900395D01*
X104290608Y-79099787D01*
X104221143Y-78857603D01*
X104080607Y-78807465D01*
X104281337Y-78724320D01*
X104674320Y-78331337D01*
X104887000Y-77817881D01*
X104887000Y-77262119D01*
X104674320Y-76748663D01*
X104281337Y-76355680D01*
X104074487Y-76270000D01*
X104281337Y-76184320D01*
X104674320Y-75791337D01*
X104887000Y-75277881D01*
X104887000Y-74722119D01*
X104674320Y-74208663D01*
X104281337Y-73815680D01*
X104074487Y-73730000D01*
X104281337Y-73644320D01*
X104674320Y-73251337D01*
X104887000Y-72737881D01*
X104887000Y-72182119D01*
X104674320Y-71668663D01*
X104281337Y-71275680D01*
X104074487Y-71190000D01*
X104281337Y-71104320D01*
X104674320Y-70711337D01*
X104887000Y-70197881D01*
X104887000Y-69794126D01*
X134965000Y-69794126D01*
X134965000Y-70205874D01*
X135122569Y-70586280D01*
X135413720Y-70877431D01*
X135794126Y-71035000D01*
X136205874Y-71035000D01*
X136586280Y-70877431D01*
X136783711Y-70680000D01*
X152292700Y-70680000D01*
X152305680Y-70711337D01*
X152698663Y-71104320D01*
X152905513Y-71190000D01*
X152698663Y-71275680D01*
X152305680Y-71668663D01*
X152093000Y-72182119D01*
X152093000Y-72737881D01*
X152305680Y-73251337D01*
X152698663Y-73644320D01*
X152905513Y-73730000D01*
X152698663Y-73815680D01*
X152305680Y-74208663D01*
X152093000Y-74722119D01*
X152093000Y-75277881D01*
X152305680Y-75791337D01*
X152698663Y-76184320D01*
X152905513Y-76270000D01*
X152698663Y-76355680D01*
X152305680Y-76748663D01*
X152093000Y-77262119D01*
X152093000Y-77817881D01*
X152305680Y-78331337D01*
X152698663Y-78724320D01*
X152889647Y-78803428D01*
X152758857Y-78857603D01*
X152689392Y-79099787D01*
X153490000Y-79900395D01*
X154290608Y-79099787D01*
X154221143Y-78857603D01*
X154080607Y-78807465D01*
X154281337Y-78724320D01*
X154674320Y-78331337D01*
X154887000Y-77817881D01*
X154887000Y-77262119D01*
X154674320Y-76748663D01*
X154281337Y-76355680D01*
X154074487Y-76270000D01*
X154281337Y-76184320D01*
X154674320Y-75791337D01*
X154887000Y-75277881D01*
X154887000Y-74722119D01*
X154674320Y-74208663D01*
X154281337Y-73815680D01*
X154074487Y-73730000D01*
X154281337Y-73644320D01*
X154674320Y-73251337D01*
X154887000Y-72737881D01*
X154887000Y-72182119D01*
X154674320Y-71668663D01*
X154281337Y-71275680D01*
X154074487Y-71190000D01*
X154281337Y-71104320D01*
X154674320Y-70711337D01*
X154887000Y-70197881D01*
X154887000Y-69642119D01*
X154674320Y-69128663D01*
X154281337Y-68735680D01*
X153767881Y-68523000D01*
X153212119Y-68523000D01*
X152698663Y-68735680D01*
X152305680Y-69128663D01*
X152292700Y-69160000D01*
X136623711Y-69160000D01*
X136586280Y-69122569D01*
X136205874Y-68965000D01*
X135794126Y-68965000D01*
X135413720Y-69122569D01*
X135122569Y-69413720D01*
X134965000Y-69794126D01*
X104887000Y-69794126D01*
X104887000Y-69642119D01*
X104674320Y-69128663D01*
X104281337Y-68735680D01*
X103767881Y-68523000D01*
X103212119Y-68523000D01*
X102698663Y-68735680D01*
X102305680Y-69128663D01*
X102093000Y-69642119D01*
X95710000Y-69642119D01*
X95710000Y-50694670D01*
X142925000Y-50694670D01*
X142925000Y-51305330D01*
X143158690Y-51869507D01*
X143590493Y-52301310D01*
X144154670Y-52535000D01*
X144765330Y-52535000D01*
X145329507Y-52301310D01*
X145505861Y-52124956D01*
X145561673Y-52259699D01*
X145740302Y-52438327D01*
X145973691Y-52535000D01*
X146714250Y-52535000D01*
X146873000Y-52376250D01*
X146873000Y-51127000D01*
X147127000Y-51127000D01*
X147127000Y-52376250D01*
X147285750Y-52535000D01*
X148026309Y-52535000D01*
X148259698Y-52438327D01*
X148438327Y-52259699D01*
X148535000Y-52026310D01*
X148535000Y-51285750D01*
X148376250Y-51127000D01*
X147127000Y-51127000D01*
X146873000Y-51127000D01*
X146853000Y-51127000D01*
X146853000Y-50873000D01*
X146873000Y-50873000D01*
X146873000Y-49623750D01*
X147127000Y-49623750D01*
X147127000Y-50873000D01*
X148376250Y-50873000D01*
X148535000Y-50714250D01*
X148535000Y-49973690D01*
X148438327Y-49740301D01*
X148259698Y-49561673D01*
X148026309Y-49465000D01*
X147285750Y-49465000D01*
X147127000Y-49623750D01*
X146873000Y-49623750D01*
X146714250Y-49465000D01*
X145973691Y-49465000D01*
X145740302Y-49561673D01*
X145561673Y-49740301D01*
X145505861Y-49875044D01*
X145329507Y-49698690D01*
X144765330Y-49465000D01*
X144154670Y-49465000D01*
X143590493Y-49698690D01*
X143158690Y-50130493D01*
X142925000Y-50694670D01*
X95710000Y-50694670D01*
X95710000Y-39555431D01*
X97765000Y-39555431D01*
X97765000Y-40444569D01*
X98105259Y-41266026D01*
X98733974Y-41894741D01*
X99555431Y-42235000D01*
X100444569Y-42235000D01*
X101266026Y-41894741D01*
X101894741Y-41266026D01*
X102235000Y-40444569D01*
X102235000Y-40150000D01*
X136882560Y-40150000D01*
X136882560Y-41850000D01*
X136931843Y-42097765D01*
X137072191Y-42307809D01*
X137282235Y-42448157D01*
X137530000Y-42497440D01*
X139230000Y-42497440D01*
X139477765Y-42448157D01*
X139687809Y-42307809D01*
X139828157Y-42097765D01*
X139837184Y-42052381D01*
X139849375Y-42070625D01*
X140340582Y-42398839D01*
X140773744Y-42485000D01*
X141066256Y-42485000D01*
X141499418Y-42398839D01*
X141990625Y-42070625D01*
X142190000Y-41772239D01*
X142389375Y-42070625D01*
X142880582Y-42398839D01*
X143313744Y-42485000D01*
X143606256Y-42485000D01*
X144039418Y-42398839D01*
X144530625Y-42070625D01*
X144730000Y-41772239D01*
X144929375Y-42070625D01*
X145420582Y-42398839D01*
X145853744Y-42485000D01*
X146146256Y-42485000D01*
X146579418Y-42398839D01*
X147070625Y-42070625D01*
X147270000Y-41772239D01*
X147469375Y-42070625D01*
X147960582Y-42398839D01*
X148393744Y-42485000D01*
X148686256Y-42485000D01*
X149119418Y-42398839D01*
X149610625Y-42070625D01*
X149823843Y-41751522D01*
X149884817Y-41881358D01*
X150313076Y-42271645D01*
X150723110Y-42441476D01*
X150953000Y-42320155D01*
X150953000Y-41127000D01*
X151207000Y-41127000D01*
X151207000Y-42320155D01*
X151436890Y-42441476D01*
X151846924Y-42271645D01*
X152275183Y-41881358D01*
X152521486Y-41356892D01*
X152400819Y-41127000D01*
X151207000Y-41127000D01*
X150953000Y-41127000D01*
X150933000Y-41127000D01*
X150933000Y-40873000D01*
X150953000Y-40873000D01*
X150953000Y-39679845D01*
X151207000Y-39679845D01*
X151207000Y-40873000D01*
X152400819Y-40873000D01*
X152521486Y-40643108D01*
X152275183Y-40118642D01*
X151846924Y-39728355D01*
X151436890Y-39558524D01*
X151207000Y-39679845D01*
X150953000Y-39679845D01*
X150723110Y-39558524D01*
X150313076Y-39728355D01*
X149884817Y-40118642D01*
X149823843Y-40248478D01*
X149610625Y-39929375D01*
X149119418Y-39601161D01*
X148889518Y-39555431D01*
X187765000Y-39555431D01*
X187765000Y-40444569D01*
X188105259Y-41266026D01*
X188733974Y-41894741D01*
X189555431Y-42235000D01*
X190444569Y-42235000D01*
X191266026Y-41894741D01*
X191894741Y-41266026D01*
X192235000Y-40444569D01*
X192235000Y-39555431D01*
X191894741Y-38733974D01*
X191266026Y-38105259D01*
X190444569Y-37765000D01*
X189555431Y-37765000D01*
X188733974Y-38105259D01*
X188105259Y-38733974D01*
X187765000Y-39555431D01*
X148889518Y-39555431D01*
X148686256Y-39515000D01*
X148393744Y-39515000D01*
X147960582Y-39601161D01*
X147469375Y-39929375D01*
X147270000Y-40227761D01*
X147070625Y-39929375D01*
X146579418Y-39601161D01*
X146146256Y-39515000D01*
X145853744Y-39515000D01*
X145420582Y-39601161D01*
X144929375Y-39929375D01*
X144730000Y-40227761D01*
X144530625Y-39929375D01*
X144039418Y-39601161D01*
X143606256Y-39515000D01*
X143313744Y-39515000D01*
X142880582Y-39601161D01*
X142389375Y-39929375D01*
X142190000Y-40227761D01*
X141990625Y-39929375D01*
X141499418Y-39601161D01*
X141066256Y-39515000D01*
X140773744Y-39515000D01*
X140340582Y-39601161D01*
X139849375Y-39929375D01*
X139837184Y-39947619D01*
X139828157Y-39902235D01*
X139687809Y-39692191D01*
X139477765Y-39551843D01*
X139230000Y-39502560D01*
X137530000Y-39502560D01*
X137282235Y-39551843D01*
X137072191Y-39692191D01*
X136931843Y-39902235D01*
X136882560Y-40150000D01*
X102235000Y-40150000D01*
X102235000Y-39555431D01*
X101894741Y-38733974D01*
X101266026Y-38105259D01*
X100444569Y-37765000D01*
X99555431Y-37765000D01*
X98733974Y-38105259D01*
X98105259Y-38733974D01*
X97765000Y-39555431D01*
X95710000Y-39555431D01*
X95710000Y-35710000D01*
X194290001Y-35710000D01*
X194290000Y-104290000D01*
X194290000Y-104290000D01*
G37*
X194290000Y-104290000D02*
X145069926Y-104290000D01*
X145000000Y-104276091D01*
X144930075Y-104290000D01*
X143069926Y-104290000D01*
X143000000Y-104276091D01*
X142930075Y-104290000D01*
X120069926Y-104290000D01*
X120000000Y-104276091D01*
X119930075Y-104290000D01*
X118069926Y-104290000D01*
X118000000Y-104276091D01*
X117930075Y-104290000D01*
X95710000Y-104290000D01*
X95710000Y-99055431D01*
X98265000Y-99055431D01*
X98265000Y-99944569D01*
X98605259Y-100766026D01*
X99233974Y-101394741D01*
X100055431Y-101735000D01*
X100944569Y-101735000D01*
X101766026Y-101394741D01*
X102394741Y-100766026D01*
X102735000Y-99944569D01*
X102735000Y-99055431D01*
X187765000Y-99055431D01*
X187765000Y-99944569D01*
X188105259Y-100766026D01*
X188733974Y-101394741D01*
X189555431Y-101735000D01*
X190444569Y-101735000D01*
X191266026Y-101394741D01*
X191894741Y-100766026D01*
X192235000Y-99944569D01*
X192235000Y-99055431D01*
X191894741Y-98233974D01*
X191266026Y-97605259D01*
X190444569Y-97265000D01*
X189555431Y-97265000D01*
X188733974Y-97605259D01*
X188105259Y-98233974D01*
X187765000Y-99055431D01*
X102735000Y-99055431D01*
X102394741Y-98233974D01*
X101766026Y-97605259D01*
X100944569Y-97265000D01*
X100055431Y-97265000D01*
X99233974Y-97605259D01*
X98605259Y-98233974D01*
X98265000Y-99055431D01*
X95710000Y-99055431D01*
X95710000Y-81060213D01*
X102689392Y-81060213D01*
X102758857Y-81302397D01*
X103282302Y-81489144D01*
X103837368Y-81461362D01*
X104221143Y-81302397D01*
X104290608Y-81060213D01*
X152689392Y-81060213D01*
X152758857Y-81302397D01*
X153282302Y-81489144D01*
X153837368Y-81461362D01*
X154221143Y-81302397D01*
X154290608Y-81060213D01*
X153490000Y-80259605D01*
X152689392Y-81060213D01*
X104290608Y-81060213D01*
X103490000Y-80259605D01*
X102689392Y-81060213D01*
X95710000Y-81060213D01*
X95710000Y-79872302D01*
X102080856Y-79872302D01*
X102108638Y-80427368D01*
X102267603Y-80811143D01*
X102509787Y-80880608D01*
X103310395Y-80080000D01*
X103669605Y-80080000D01*
X104470213Y-80880608D01*
X104712397Y-80811143D01*
X104899144Y-80287698D01*
X104878353Y-79872302D01*
X152080856Y-79872302D01*
X152108638Y-80427368D01*
X152267603Y-80811143D01*
X152509787Y-80880608D01*
X153310395Y-80080000D01*
X153669605Y-80080000D01*
X154470213Y-80880608D01*
X154712397Y-80811143D01*
X154899144Y-80287698D01*
X154871362Y-79732632D01*
X154712397Y-79348857D01*
X154470213Y-79279392D01*
X153669605Y-80080000D01*
X153310395Y-80080000D01*
X152509787Y-79279392D01*
X152267603Y-79348857D01*
X152080856Y-79872302D01*
X104878353Y-79872302D01*
X104871362Y-79732632D01*
X104712397Y-79348857D01*
X104470213Y-79279392D01*
X103669605Y-80080000D01*
X103310395Y-80080000D01*
X102509787Y-79279392D01*
X102267603Y-79348857D01*
X102080856Y-79872302D01*
X95710000Y-79872302D01*
X95710000Y-69642119D01*
X102093000Y-69642119D01*
X102093000Y-70197881D01*
X102305680Y-70711337D01*
X102698663Y-71104320D01*
X102905513Y-71190000D01*
X102698663Y-71275680D01*
X102305680Y-71668663D01*
X102093000Y-72182119D01*
X102093000Y-72737881D01*
X102305680Y-73251337D01*
X102698663Y-73644320D01*
X102905513Y-73730000D01*
X102698663Y-73815680D01*
X102305680Y-74208663D01*
X102093000Y-74722119D01*
X102093000Y-75277881D01*
X102305680Y-75791337D01*
X102698663Y-76184320D01*
X102905513Y-76270000D01*
X102698663Y-76355680D01*
X102305680Y-76748663D01*
X102093000Y-77262119D01*
X102093000Y-77817881D01*
X102305680Y-78331337D01*
X102698663Y-78724320D01*
X102889647Y-78803428D01*
X102758857Y-78857603D01*
X102689392Y-79099787D01*
X103490000Y-79900395D01*
X104290608Y-79099787D01*
X104221143Y-78857603D01*
X104080607Y-78807465D01*
X104281337Y-78724320D01*
X104674320Y-78331337D01*
X104887000Y-77817881D01*
X104887000Y-77262119D01*
X104674320Y-76748663D01*
X104281337Y-76355680D01*
X104074487Y-76270000D01*
X104281337Y-76184320D01*
X104674320Y-75791337D01*
X104887000Y-75277881D01*
X104887000Y-74722119D01*
X104674320Y-74208663D01*
X104281337Y-73815680D01*
X104074487Y-73730000D01*
X104281337Y-73644320D01*
X104674320Y-73251337D01*
X104887000Y-72737881D01*
X104887000Y-72182119D01*
X104674320Y-71668663D01*
X104281337Y-71275680D01*
X104074487Y-71190000D01*
X104281337Y-71104320D01*
X104674320Y-70711337D01*
X104887000Y-70197881D01*
X104887000Y-69794126D01*
X134965000Y-69794126D01*
X134965000Y-70205874D01*
X135122569Y-70586280D01*
X135413720Y-70877431D01*
X135794126Y-71035000D01*
X136205874Y-71035000D01*
X136586280Y-70877431D01*
X136783711Y-70680000D01*
X152292700Y-70680000D01*
X152305680Y-70711337D01*
X152698663Y-71104320D01*
X152905513Y-71190000D01*
X152698663Y-71275680D01*
X152305680Y-71668663D01*
X152093000Y-72182119D01*
X152093000Y-72737881D01*
X152305680Y-73251337D01*
X152698663Y-73644320D01*
X152905513Y-73730000D01*
X152698663Y-73815680D01*
X152305680Y-74208663D01*
X152093000Y-74722119D01*
X152093000Y-75277881D01*
X152305680Y-75791337D01*
X152698663Y-76184320D01*
X152905513Y-76270000D01*
X152698663Y-76355680D01*
X152305680Y-76748663D01*
X152093000Y-77262119D01*
X152093000Y-77817881D01*
X152305680Y-78331337D01*
X152698663Y-78724320D01*
X152889647Y-78803428D01*
X152758857Y-78857603D01*
X152689392Y-79099787D01*
X153490000Y-79900395D01*
X154290608Y-79099787D01*
X154221143Y-78857603D01*
X154080607Y-78807465D01*
X154281337Y-78724320D01*
X154674320Y-78331337D01*
X154887000Y-77817881D01*
X154887000Y-77262119D01*
X154674320Y-76748663D01*
X154281337Y-76355680D01*
X154074487Y-76270000D01*
X154281337Y-76184320D01*
X154674320Y-75791337D01*
X154887000Y-75277881D01*
X154887000Y-74722119D01*
X154674320Y-74208663D01*
X154281337Y-73815680D01*
X154074487Y-73730000D01*
X154281337Y-73644320D01*
X154674320Y-73251337D01*
X154887000Y-72737881D01*
X154887000Y-72182119D01*
X154674320Y-71668663D01*
X154281337Y-71275680D01*
X154074487Y-71190000D01*
X154281337Y-71104320D01*
X154674320Y-70711337D01*
X154887000Y-70197881D01*
X154887000Y-69642119D01*
X154674320Y-69128663D01*
X154281337Y-68735680D01*
X153767881Y-68523000D01*
X153212119Y-68523000D01*
X152698663Y-68735680D01*
X152305680Y-69128663D01*
X152292700Y-69160000D01*
X136623711Y-69160000D01*
X136586280Y-69122569D01*
X136205874Y-68965000D01*
X135794126Y-68965000D01*
X135413720Y-69122569D01*
X135122569Y-69413720D01*
X134965000Y-69794126D01*
X104887000Y-69794126D01*
X104887000Y-69642119D01*
X104674320Y-69128663D01*
X104281337Y-68735680D01*
X103767881Y-68523000D01*
X103212119Y-68523000D01*
X102698663Y-68735680D01*
X102305680Y-69128663D01*
X102093000Y-69642119D01*
X95710000Y-69642119D01*
X95710000Y-50694670D01*
X142925000Y-50694670D01*
X142925000Y-51305330D01*
X143158690Y-51869507D01*
X143590493Y-52301310D01*
X144154670Y-52535000D01*
X144765330Y-52535000D01*
X145329507Y-52301310D01*
X145505861Y-52124956D01*
X145561673Y-52259699D01*
X145740302Y-52438327D01*
X145973691Y-52535000D01*
X146714250Y-52535000D01*
X146873000Y-52376250D01*
X146873000Y-51127000D01*
X147127000Y-51127000D01*
X147127000Y-52376250D01*
X147285750Y-52535000D01*
X148026309Y-52535000D01*
X148259698Y-52438327D01*
X148438327Y-52259699D01*
X148535000Y-52026310D01*
X148535000Y-51285750D01*
X148376250Y-51127000D01*
X147127000Y-51127000D01*
X146873000Y-51127000D01*
X146853000Y-51127000D01*
X146853000Y-50873000D01*
X146873000Y-50873000D01*
X146873000Y-49623750D01*
X147127000Y-49623750D01*
X147127000Y-50873000D01*
X148376250Y-50873000D01*
X148535000Y-50714250D01*
X148535000Y-49973690D01*
X148438327Y-49740301D01*
X148259698Y-49561673D01*
X148026309Y-49465000D01*
X147285750Y-49465000D01*
X147127000Y-49623750D01*
X146873000Y-49623750D01*
X146714250Y-49465000D01*
X145973691Y-49465000D01*
X145740302Y-49561673D01*
X145561673Y-49740301D01*
X145505861Y-49875044D01*
X145329507Y-49698690D01*
X144765330Y-49465000D01*
X144154670Y-49465000D01*
X143590493Y-49698690D01*
X143158690Y-50130493D01*
X142925000Y-50694670D01*
X95710000Y-50694670D01*
X95710000Y-39555431D01*
X97765000Y-39555431D01*
X97765000Y-40444569D01*
X98105259Y-41266026D01*
X98733974Y-41894741D01*
X99555431Y-42235000D01*
X100444569Y-42235000D01*
X101266026Y-41894741D01*
X101894741Y-41266026D01*
X102235000Y-40444569D01*
X102235000Y-40150000D01*
X136882560Y-40150000D01*
X136882560Y-41850000D01*
X136931843Y-42097765D01*
X137072191Y-42307809D01*
X137282235Y-42448157D01*
X137530000Y-42497440D01*
X139230000Y-42497440D01*
X139477765Y-42448157D01*
X139687809Y-42307809D01*
X139828157Y-42097765D01*
X139837184Y-42052381D01*
X139849375Y-42070625D01*
X140340582Y-42398839D01*
X140773744Y-42485000D01*
X141066256Y-42485000D01*
X141499418Y-42398839D01*
X141990625Y-42070625D01*
X142190000Y-41772239D01*
X142389375Y-42070625D01*
X142880582Y-42398839D01*
X143313744Y-42485000D01*
X143606256Y-42485000D01*
X144039418Y-42398839D01*
X144530625Y-42070625D01*
X144730000Y-41772239D01*
X144929375Y-42070625D01*
X145420582Y-42398839D01*
X145853744Y-42485000D01*
X146146256Y-42485000D01*
X146579418Y-42398839D01*
X147070625Y-42070625D01*
X147270000Y-41772239D01*
X147469375Y-42070625D01*
X147960582Y-42398839D01*
X148393744Y-42485000D01*
X148686256Y-42485000D01*
X149119418Y-42398839D01*
X149610625Y-42070625D01*
X149823843Y-41751522D01*
X149884817Y-41881358D01*
X150313076Y-42271645D01*
X150723110Y-42441476D01*
X150953000Y-42320155D01*
X150953000Y-41127000D01*
X151207000Y-41127000D01*
X151207000Y-42320155D01*
X151436890Y-42441476D01*
X151846924Y-42271645D01*
X152275183Y-41881358D01*
X152521486Y-41356892D01*
X152400819Y-41127000D01*
X151207000Y-41127000D01*
X150953000Y-41127000D01*
X150933000Y-41127000D01*
X150933000Y-40873000D01*
X150953000Y-40873000D01*
X150953000Y-39679845D01*
X151207000Y-39679845D01*
X151207000Y-40873000D01*
X152400819Y-40873000D01*
X152521486Y-40643108D01*
X152275183Y-40118642D01*
X151846924Y-39728355D01*
X151436890Y-39558524D01*
X151207000Y-39679845D01*
X150953000Y-39679845D01*
X150723110Y-39558524D01*
X150313076Y-39728355D01*
X149884817Y-40118642D01*
X149823843Y-40248478D01*
X149610625Y-39929375D01*
X149119418Y-39601161D01*
X148889518Y-39555431D01*
X187765000Y-39555431D01*
X187765000Y-40444569D01*
X188105259Y-41266026D01*
X188733974Y-41894741D01*
X189555431Y-42235000D01*
X190444569Y-42235000D01*
X191266026Y-41894741D01*
X191894741Y-41266026D01*
X192235000Y-40444569D01*
X192235000Y-39555431D01*
X191894741Y-38733974D01*
X191266026Y-38105259D01*
X190444569Y-37765000D01*
X189555431Y-37765000D01*
X188733974Y-38105259D01*
X188105259Y-38733974D01*
X187765000Y-39555431D01*
X148889518Y-39555431D01*
X148686256Y-39515000D01*
X148393744Y-39515000D01*
X147960582Y-39601161D01*
X147469375Y-39929375D01*
X147270000Y-40227761D01*
X147070625Y-39929375D01*
X146579418Y-39601161D01*
X146146256Y-39515000D01*
X145853744Y-39515000D01*
X145420582Y-39601161D01*
X144929375Y-39929375D01*
X144730000Y-40227761D01*
X144530625Y-39929375D01*
X144039418Y-39601161D01*
X143606256Y-39515000D01*
X143313744Y-39515000D01*
X142880582Y-39601161D01*
X142389375Y-39929375D01*
X142190000Y-40227761D01*
X141990625Y-39929375D01*
X141499418Y-39601161D01*
X141066256Y-39515000D01*
X140773744Y-39515000D01*
X140340582Y-39601161D01*
X139849375Y-39929375D01*
X139837184Y-39947619D01*
X139828157Y-39902235D01*
X139687809Y-39692191D01*
X139477765Y-39551843D01*
X139230000Y-39502560D01*
X137530000Y-39502560D01*
X137282235Y-39551843D01*
X137072191Y-39692191D01*
X136931843Y-39902235D01*
X136882560Y-40150000D01*
X102235000Y-40150000D01*
X102235000Y-39555431D01*
X101894741Y-38733974D01*
X101266026Y-38105259D01*
X100444569Y-37765000D01*
X99555431Y-37765000D01*
X98733974Y-38105259D01*
X98105259Y-38733974D01*
X97765000Y-39555431D01*
X95710000Y-39555431D01*
X95710000Y-35710000D01*
X194290001Y-35710000D01*
X194290000Y-104290000D01*
G04 #@! TO.N,Net-(J2-Pad2)*
G36*
X117290000Y-109930074D02*
X117276091Y-110000000D01*
X117290000Y-110069925D01*
X117290001Y-129930069D01*
X117276091Y-130000000D01*
X117290000Y-130069926D01*
X117290001Y-134290000D01*
X95710000Y-134290000D01*
X95710000Y-125080000D01*
X98485908Y-125080000D01*
X98601161Y-125659418D01*
X98929375Y-126150625D01*
X99420582Y-126478839D01*
X99853744Y-126565000D01*
X100146256Y-126565000D01*
X100579418Y-126478839D01*
X101070625Y-126150625D01*
X101398839Y-125659418D01*
X101514092Y-125080000D01*
X106485908Y-125080000D01*
X106601161Y-125659418D01*
X106929375Y-126150625D01*
X107420582Y-126478839D01*
X107853744Y-126565000D01*
X108146256Y-126565000D01*
X108579418Y-126478839D01*
X109070625Y-126150625D01*
X109398839Y-125659418D01*
X109514092Y-125080000D01*
X109398839Y-124500582D01*
X109070625Y-124009375D01*
X108751522Y-123796157D01*
X108881358Y-123735183D01*
X109271645Y-123306924D01*
X109441476Y-122896890D01*
X109320155Y-122667000D01*
X108127000Y-122667000D01*
X108127000Y-122687000D01*
X107873000Y-122687000D01*
X107873000Y-122667000D01*
X106679845Y-122667000D01*
X106558524Y-122896890D01*
X106728355Y-123306924D01*
X107118642Y-123735183D01*
X107248478Y-123796157D01*
X106929375Y-124009375D01*
X106601161Y-124500582D01*
X106485908Y-125080000D01*
X101514092Y-125080000D01*
X101398839Y-124500582D01*
X101070625Y-124009375D01*
X100751522Y-123796157D01*
X100881358Y-123735183D01*
X101271645Y-123306924D01*
X101441476Y-122896890D01*
X101320155Y-122667000D01*
X100127000Y-122667000D01*
X100127000Y-122687000D01*
X99873000Y-122687000D01*
X99873000Y-122667000D01*
X98679845Y-122667000D01*
X98558524Y-122896890D01*
X98728355Y-123306924D01*
X99118642Y-123735183D01*
X99248478Y-123796157D01*
X98929375Y-124009375D01*
X98601161Y-124500582D01*
X98485908Y-125080000D01*
X95710000Y-125080000D01*
X95710000Y-119150000D01*
X98502560Y-119150000D01*
X98502560Y-120850000D01*
X98551843Y-121097765D01*
X98692191Y-121307809D01*
X98902235Y-121448157D01*
X99005708Y-121468739D01*
X98728355Y-121773076D01*
X98558524Y-122183110D01*
X98679845Y-122413000D01*
X99873000Y-122413000D01*
X99873000Y-122393000D01*
X100127000Y-122393000D01*
X100127000Y-122413000D01*
X101320155Y-122413000D01*
X101441476Y-122183110D01*
X101271645Y-121773076D01*
X100994292Y-121468739D01*
X101097765Y-121448157D01*
X101307809Y-121307809D01*
X101448157Y-121097765D01*
X101497440Y-120850000D01*
X101497440Y-119150000D01*
X106502560Y-119150000D01*
X106502560Y-120850000D01*
X106551843Y-121097765D01*
X106692191Y-121307809D01*
X106902235Y-121448157D01*
X107005708Y-121468739D01*
X106728355Y-121773076D01*
X106558524Y-122183110D01*
X106679845Y-122413000D01*
X107873000Y-122413000D01*
X107873000Y-122393000D01*
X108127000Y-122393000D01*
X108127000Y-122413000D01*
X109320155Y-122413000D01*
X109441476Y-122183110D01*
X109271645Y-121773076D01*
X108994292Y-121468739D01*
X109097765Y-121448157D01*
X109307809Y-121307809D01*
X109448157Y-121097765D01*
X109497440Y-120850000D01*
X109497440Y-119150000D01*
X109448157Y-118902235D01*
X109307809Y-118692191D01*
X109097765Y-118551843D01*
X108850000Y-118502560D01*
X107150000Y-118502560D01*
X106902235Y-118551843D01*
X106692191Y-118692191D01*
X106551843Y-118902235D01*
X106502560Y-119150000D01*
X101497440Y-119150000D01*
X101448157Y-118902235D01*
X101307809Y-118692191D01*
X101097765Y-118551843D01*
X100850000Y-118502560D01*
X99150000Y-118502560D01*
X98902235Y-118551843D01*
X98692191Y-118692191D01*
X98551843Y-118902235D01*
X98502560Y-119150000D01*
X95710000Y-119150000D01*
X95710000Y-110305431D01*
X105765000Y-110305431D01*
X105765000Y-111194569D01*
X106105259Y-112016026D01*
X106733974Y-112644741D01*
X107555431Y-112985000D01*
X108444569Y-112985000D01*
X109266026Y-112644741D01*
X109894741Y-112016026D01*
X110235000Y-111194569D01*
X110235000Y-110305431D01*
X109894741Y-109483974D01*
X109266026Y-108855259D01*
X108444569Y-108515000D01*
X107555431Y-108515000D01*
X106733974Y-108855259D01*
X106105259Y-109483974D01*
X105765000Y-110305431D01*
X95710000Y-110305431D01*
X95710000Y-105710000D01*
X117290001Y-105710000D01*
X117290000Y-109930074D01*
X117290000Y-109930074D01*
G37*
X117290000Y-109930074D02*
X117276091Y-110000000D01*
X117290000Y-110069925D01*
X117290001Y-129930069D01*
X117276091Y-130000000D01*
X117290000Y-130069926D01*
X117290001Y-134290000D01*
X95710000Y-134290000D01*
X95710000Y-125080000D01*
X98485908Y-125080000D01*
X98601161Y-125659418D01*
X98929375Y-126150625D01*
X99420582Y-126478839D01*
X99853744Y-126565000D01*
X100146256Y-126565000D01*
X100579418Y-126478839D01*
X101070625Y-126150625D01*
X101398839Y-125659418D01*
X101514092Y-125080000D01*
X106485908Y-125080000D01*
X106601161Y-125659418D01*
X106929375Y-126150625D01*
X107420582Y-126478839D01*
X107853744Y-126565000D01*
X108146256Y-126565000D01*
X108579418Y-126478839D01*
X109070625Y-126150625D01*
X109398839Y-125659418D01*
X109514092Y-125080000D01*
X109398839Y-124500582D01*
X109070625Y-124009375D01*
X108751522Y-123796157D01*
X108881358Y-123735183D01*
X109271645Y-123306924D01*
X109441476Y-122896890D01*
X109320155Y-122667000D01*
X108127000Y-122667000D01*
X108127000Y-122687000D01*
X107873000Y-122687000D01*
X107873000Y-122667000D01*
X106679845Y-122667000D01*
X106558524Y-122896890D01*
X106728355Y-123306924D01*
X107118642Y-123735183D01*
X107248478Y-123796157D01*
X106929375Y-124009375D01*
X106601161Y-124500582D01*
X106485908Y-125080000D01*
X101514092Y-125080000D01*
X101398839Y-124500582D01*
X101070625Y-124009375D01*
X100751522Y-123796157D01*
X100881358Y-123735183D01*
X101271645Y-123306924D01*
X101441476Y-122896890D01*
X101320155Y-122667000D01*
X100127000Y-122667000D01*
X100127000Y-122687000D01*
X99873000Y-122687000D01*
X99873000Y-122667000D01*
X98679845Y-122667000D01*
X98558524Y-122896890D01*
X98728355Y-123306924D01*
X99118642Y-123735183D01*
X99248478Y-123796157D01*
X98929375Y-124009375D01*
X98601161Y-124500582D01*
X98485908Y-125080000D01*
X95710000Y-125080000D01*
X95710000Y-119150000D01*
X98502560Y-119150000D01*
X98502560Y-120850000D01*
X98551843Y-121097765D01*
X98692191Y-121307809D01*
X98902235Y-121448157D01*
X99005708Y-121468739D01*
X98728355Y-121773076D01*
X98558524Y-122183110D01*
X98679845Y-122413000D01*
X99873000Y-122413000D01*
X99873000Y-122393000D01*
X100127000Y-122393000D01*
X100127000Y-122413000D01*
X101320155Y-122413000D01*
X101441476Y-122183110D01*
X101271645Y-121773076D01*
X100994292Y-121468739D01*
X101097765Y-121448157D01*
X101307809Y-121307809D01*
X101448157Y-121097765D01*
X101497440Y-120850000D01*
X101497440Y-119150000D01*
X106502560Y-119150000D01*
X106502560Y-120850000D01*
X106551843Y-121097765D01*
X106692191Y-121307809D01*
X106902235Y-121448157D01*
X107005708Y-121468739D01*
X106728355Y-121773076D01*
X106558524Y-122183110D01*
X106679845Y-122413000D01*
X107873000Y-122413000D01*
X107873000Y-122393000D01*
X108127000Y-122393000D01*
X108127000Y-122413000D01*
X109320155Y-122413000D01*
X109441476Y-122183110D01*
X109271645Y-121773076D01*
X108994292Y-121468739D01*
X109097765Y-121448157D01*
X109307809Y-121307809D01*
X109448157Y-121097765D01*
X109497440Y-120850000D01*
X109497440Y-119150000D01*
X109448157Y-118902235D01*
X109307809Y-118692191D01*
X109097765Y-118551843D01*
X108850000Y-118502560D01*
X107150000Y-118502560D01*
X106902235Y-118551843D01*
X106692191Y-118692191D01*
X106551843Y-118902235D01*
X106502560Y-119150000D01*
X101497440Y-119150000D01*
X101448157Y-118902235D01*
X101307809Y-118692191D01*
X101097765Y-118551843D01*
X100850000Y-118502560D01*
X99150000Y-118502560D01*
X98902235Y-118551843D01*
X98692191Y-118692191D01*
X98551843Y-118902235D01*
X98502560Y-119150000D01*
X95710000Y-119150000D01*
X95710000Y-110305431D01*
X105765000Y-110305431D01*
X105765000Y-111194569D01*
X106105259Y-112016026D01*
X106733974Y-112644741D01*
X107555431Y-112985000D01*
X108444569Y-112985000D01*
X109266026Y-112644741D01*
X109894741Y-112016026D01*
X110235000Y-111194569D01*
X110235000Y-110305431D01*
X109894741Y-109483974D01*
X109266026Y-108855259D01*
X108444569Y-108515000D01*
X107555431Y-108515000D01*
X106733974Y-108855259D01*
X106105259Y-109483974D01*
X105765000Y-110305431D01*
X95710000Y-110305431D01*
X95710000Y-105710000D01*
X117290001Y-105710000D01*
X117290000Y-109930074D01*
D18*
G36*
X142290000Y-109930074D02*
X142276091Y-110000000D01*
X142290000Y-110069925D01*
X142290001Y-129930069D01*
X142276091Y-130000000D01*
X142290000Y-130069926D01*
X142290001Y-134290000D01*
X120710000Y-134290000D01*
X120710000Y-130069926D01*
X120723909Y-130000000D01*
X120710000Y-129930074D01*
X120710000Y-122540000D01*
X123485908Y-122540000D01*
X123601161Y-123119418D01*
X123929375Y-123610625D01*
X124227761Y-123810000D01*
X123929375Y-124009375D01*
X123601161Y-124500582D01*
X123485908Y-125080000D01*
X123601161Y-125659418D01*
X123929375Y-126150625D01*
X124420582Y-126478839D01*
X124853744Y-126565000D01*
X125146256Y-126565000D01*
X125579418Y-126478839D01*
X126070625Y-126150625D01*
X126398839Y-125659418D01*
X126514092Y-125080000D01*
X126398839Y-124500582D01*
X126070625Y-124009375D01*
X125772239Y-123810000D01*
X126070625Y-123610625D01*
X126398839Y-123119418D01*
X126514092Y-122540000D01*
X131485908Y-122540000D01*
X131601161Y-123119418D01*
X131929375Y-123610625D01*
X132227761Y-123810000D01*
X131929375Y-124009375D01*
X131601161Y-124500582D01*
X131485908Y-125080000D01*
X131601161Y-125659418D01*
X131929375Y-126150625D01*
X132420582Y-126478839D01*
X132853744Y-126565000D01*
X133146256Y-126565000D01*
X133579418Y-126478839D01*
X134070625Y-126150625D01*
X134398839Y-125659418D01*
X134514092Y-125080000D01*
X134398839Y-124500582D01*
X134070625Y-124009375D01*
X133772239Y-123810000D01*
X134070625Y-123610625D01*
X134398839Y-123119418D01*
X134514092Y-122540000D01*
X134398839Y-121960582D01*
X134070625Y-121469375D01*
X134052381Y-121457184D01*
X134097765Y-121448157D01*
X134150786Y-121412729D01*
X134209698Y-121388327D01*
X134254789Y-121343236D01*
X134307809Y-121307809D01*
X134343235Y-121254791D01*
X134388327Y-121209699D01*
X134412730Y-121150785D01*
X134448157Y-121097765D01*
X134460597Y-121035224D01*
X134485000Y-120976310D01*
X134485000Y-120912541D01*
X134497440Y-120850000D01*
X134497440Y-119150000D01*
X134485000Y-119087459D01*
X134485000Y-119023690D01*
X134460597Y-118964776D01*
X134448157Y-118902235D01*
X134412730Y-118849215D01*
X134388327Y-118790301D01*
X134343235Y-118745209D01*
X134307809Y-118692191D01*
X134254789Y-118656764D01*
X134209698Y-118611673D01*
X134150786Y-118587271D01*
X134097765Y-118551843D01*
X134035222Y-118539403D01*
X133976309Y-118515000D01*
X133912541Y-118515000D01*
X133850000Y-118502560D01*
X132150000Y-118502560D01*
X132087459Y-118515000D01*
X132023691Y-118515000D01*
X131964778Y-118539403D01*
X131902235Y-118551843D01*
X131849214Y-118587271D01*
X131790302Y-118611673D01*
X131745211Y-118656764D01*
X131692191Y-118692191D01*
X131656765Y-118745209D01*
X131611673Y-118790301D01*
X131587270Y-118849215D01*
X131551843Y-118902235D01*
X131539403Y-118964776D01*
X131515000Y-119023690D01*
X131515000Y-119087459D01*
X131502560Y-119150000D01*
X131502560Y-120850000D01*
X131515000Y-120912541D01*
X131515000Y-120976310D01*
X131539403Y-121035224D01*
X131551843Y-121097765D01*
X131587270Y-121150785D01*
X131611673Y-121209699D01*
X131656765Y-121254791D01*
X131692191Y-121307809D01*
X131745211Y-121343236D01*
X131790302Y-121388327D01*
X131849214Y-121412729D01*
X131902235Y-121448157D01*
X131947619Y-121457184D01*
X131929375Y-121469375D01*
X131601161Y-121960582D01*
X131485908Y-122540000D01*
X126514092Y-122540000D01*
X126398839Y-121960582D01*
X126070625Y-121469375D01*
X126052381Y-121457184D01*
X126097765Y-121448157D01*
X126150786Y-121412729D01*
X126209698Y-121388327D01*
X126254789Y-121343236D01*
X126307809Y-121307809D01*
X126343235Y-121254791D01*
X126388327Y-121209699D01*
X126412730Y-121150785D01*
X126448157Y-121097765D01*
X126460597Y-121035224D01*
X126485000Y-120976310D01*
X126485000Y-120912541D01*
X126497440Y-120850000D01*
X126497440Y-119150000D01*
X126485000Y-119087459D01*
X126485000Y-119023690D01*
X126460597Y-118964776D01*
X126448157Y-118902235D01*
X126412730Y-118849215D01*
X126388327Y-118790301D01*
X126343235Y-118745209D01*
X126307809Y-118692191D01*
X126254789Y-118656764D01*
X126209698Y-118611673D01*
X126150786Y-118587271D01*
X126097765Y-118551843D01*
X126035222Y-118539403D01*
X125976309Y-118515000D01*
X125912541Y-118515000D01*
X125850000Y-118502560D01*
X124150000Y-118502560D01*
X124087459Y-118515000D01*
X124023691Y-118515000D01*
X123964778Y-118539403D01*
X123902235Y-118551843D01*
X123849214Y-118587271D01*
X123790302Y-118611673D01*
X123745211Y-118656764D01*
X123692191Y-118692191D01*
X123656765Y-118745209D01*
X123611673Y-118790301D01*
X123587270Y-118849215D01*
X123551843Y-118902235D01*
X123539403Y-118964776D01*
X123515000Y-119023690D01*
X123515000Y-119087459D01*
X123502560Y-119150000D01*
X123502560Y-120850000D01*
X123515000Y-120912541D01*
X123515000Y-120976310D01*
X123539403Y-121035224D01*
X123551843Y-121097765D01*
X123587270Y-121150785D01*
X123611673Y-121209699D01*
X123656765Y-121254791D01*
X123692191Y-121307809D01*
X123745211Y-121343236D01*
X123790302Y-121388327D01*
X123849214Y-121412729D01*
X123902235Y-121448157D01*
X123947619Y-121457184D01*
X123929375Y-121469375D01*
X123601161Y-121960582D01*
X123485908Y-122540000D01*
X120710000Y-122540000D01*
X120710000Y-110342346D01*
X130757974Y-110342346D01*
X130765000Y-110768390D01*
X130765000Y-111194569D01*
X130772320Y-111212240D01*
X130772635Y-111231363D01*
X131084640Y-111984610D01*
X131094347Y-111989682D01*
X131105259Y-112016026D01*
X131733974Y-112644741D01*
X131760318Y-112655653D01*
X131765390Y-112665360D01*
X132161708Y-112821914D01*
X132555431Y-112985000D01*
X132574560Y-112985000D01*
X132592346Y-112992026D01*
X133018390Y-112985000D01*
X133444569Y-112985000D01*
X133462240Y-112977680D01*
X133481363Y-112977365D01*
X134234610Y-112665360D01*
X134239682Y-112655653D01*
X134266026Y-112644741D01*
X134894741Y-112016026D01*
X134905653Y-111989682D01*
X134915360Y-111984610D01*
X135071914Y-111588292D01*
X135235000Y-111194569D01*
X135235000Y-111175440D01*
X135242026Y-111157654D01*
X135235000Y-110731610D01*
X135235000Y-110305431D01*
X135227680Y-110287760D01*
X135227365Y-110268637D01*
X134915360Y-109515390D01*
X134905653Y-109510318D01*
X134894741Y-109483974D01*
X134266026Y-108855259D01*
X134239682Y-108844347D01*
X134234610Y-108834640D01*
X133838292Y-108678086D01*
X133444569Y-108515000D01*
X133425440Y-108515000D01*
X133407654Y-108507974D01*
X132981610Y-108515000D01*
X132555431Y-108515000D01*
X132537760Y-108522320D01*
X132518637Y-108522635D01*
X131765390Y-108834640D01*
X131760318Y-108844347D01*
X131733974Y-108855259D01*
X131105259Y-109483974D01*
X131094347Y-109510318D01*
X131084640Y-109515390D01*
X130928086Y-109911708D01*
X130765000Y-110305431D01*
X130765000Y-110324560D01*
X130757974Y-110342346D01*
X120710000Y-110342346D01*
X120710000Y-110069925D01*
X120723909Y-110000000D01*
X120710000Y-109930074D01*
X120710000Y-105710000D01*
X142290001Y-105710000D01*
X142290000Y-109930074D01*
X142290000Y-109930074D01*
G37*
X142290000Y-109930074D02*
X142276091Y-110000000D01*
X142290000Y-110069925D01*
X142290001Y-129930069D01*
X142276091Y-130000000D01*
X142290000Y-130069926D01*
X142290001Y-134290000D01*
X120710000Y-134290000D01*
X120710000Y-130069926D01*
X120723909Y-130000000D01*
X120710000Y-129930074D01*
X120710000Y-122540000D01*
X123485908Y-122540000D01*
X123601161Y-123119418D01*
X123929375Y-123610625D01*
X124227761Y-123810000D01*
X123929375Y-124009375D01*
X123601161Y-124500582D01*
X123485908Y-125080000D01*
X123601161Y-125659418D01*
X123929375Y-126150625D01*
X124420582Y-126478839D01*
X124853744Y-126565000D01*
X125146256Y-126565000D01*
X125579418Y-126478839D01*
X126070625Y-126150625D01*
X126398839Y-125659418D01*
X126514092Y-125080000D01*
X126398839Y-124500582D01*
X126070625Y-124009375D01*
X125772239Y-123810000D01*
X126070625Y-123610625D01*
X126398839Y-123119418D01*
X126514092Y-122540000D01*
X131485908Y-122540000D01*
X131601161Y-123119418D01*
X131929375Y-123610625D01*
X132227761Y-123810000D01*
X131929375Y-124009375D01*
X131601161Y-124500582D01*
X131485908Y-125080000D01*
X131601161Y-125659418D01*
X131929375Y-126150625D01*
X132420582Y-126478839D01*
X132853744Y-126565000D01*
X133146256Y-126565000D01*
X133579418Y-126478839D01*
X134070625Y-126150625D01*
X134398839Y-125659418D01*
X134514092Y-125080000D01*
X134398839Y-124500582D01*
X134070625Y-124009375D01*
X133772239Y-123810000D01*
X134070625Y-123610625D01*
X134398839Y-123119418D01*
X134514092Y-122540000D01*
X134398839Y-121960582D01*
X134070625Y-121469375D01*
X134052381Y-121457184D01*
X134097765Y-121448157D01*
X134150786Y-121412729D01*
X134209698Y-121388327D01*
X134254789Y-121343236D01*
X134307809Y-121307809D01*
X134343235Y-121254791D01*
X134388327Y-121209699D01*
X134412730Y-121150785D01*
X134448157Y-121097765D01*
X134460597Y-121035224D01*
X134485000Y-120976310D01*
X134485000Y-120912541D01*
X134497440Y-120850000D01*
X134497440Y-119150000D01*
X134485000Y-119087459D01*
X134485000Y-119023690D01*
X134460597Y-118964776D01*
X134448157Y-118902235D01*
X134412730Y-118849215D01*
X134388327Y-118790301D01*
X134343235Y-118745209D01*
X134307809Y-118692191D01*
X134254789Y-118656764D01*
X134209698Y-118611673D01*
X134150786Y-118587271D01*
X134097765Y-118551843D01*
X134035222Y-118539403D01*
X133976309Y-118515000D01*
X133912541Y-118515000D01*
X133850000Y-118502560D01*
X132150000Y-118502560D01*
X132087459Y-118515000D01*
X132023691Y-118515000D01*
X131964778Y-118539403D01*
X131902235Y-118551843D01*
X131849214Y-118587271D01*
X131790302Y-118611673D01*
X131745211Y-118656764D01*
X131692191Y-118692191D01*
X131656765Y-118745209D01*
X131611673Y-118790301D01*
X131587270Y-118849215D01*
X131551843Y-118902235D01*
X131539403Y-118964776D01*
X131515000Y-119023690D01*
X131515000Y-119087459D01*
X131502560Y-119150000D01*
X131502560Y-120850000D01*
X131515000Y-120912541D01*
X131515000Y-120976310D01*
X131539403Y-121035224D01*
X131551843Y-121097765D01*
X131587270Y-121150785D01*
X131611673Y-121209699D01*
X131656765Y-121254791D01*
X131692191Y-121307809D01*
X131745211Y-121343236D01*
X131790302Y-121388327D01*
X131849214Y-121412729D01*
X131902235Y-121448157D01*
X131947619Y-121457184D01*
X131929375Y-121469375D01*
X131601161Y-121960582D01*
X131485908Y-122540000D01*
X126514092Y-122540000D01*
X126398839Y-121960582D01*
X126070625Y-121469375D01*
X126052381Y-121457184D01*
X126097765Y-121448157D01*
X126150786Y-121412729D01*
X126209698Y-121388327D01*
X126254789Y-121343236D01*
X126307809Y-121307809D01*
X126343235Y-121254791D01*
X126388327Y-121209699D01*
X126412730Y-121150785D01*
X126448157Y-121097765D01*
X126460597Y-121035224D01*
X126485000Y-120976310D01*
X126485000Y-120912541D01*
X126497440Y-120850000D01*
X126497440Y-119150000D01*
X126485000Y-119087459D01*
X126485000Y-119023690D01*
X126460597Y-118964776D01*
X126448157Y-118902235D01*
X126412730Y-118849215D01*
X126388327Y-118790301D01*
X126343235Y-118745209D01*
X126307809Y-118692191D01*
X126254789Y-118656764D01*
X126209698Y-118611673D01*
X126150786Y-118587271D01*
X126097765Y-118551843D01*
X126035222Y-118539403D01*
X125976309Y-118515000D01*
X125912541Y-118515000D01*
X125850000Y-118502560D01*
X124150000Y-118502560D01*
X124087459Y-118515000D01*
X124023691Y-118515000D01*
X123964778Y-118539403D01*
X123902235Y-118551843D01*
X123849214Y-118587271D01*
X123790302Y-118611673D01*
X123745211Y-118656764D01*
X123692191Y-118692191D01*
X123656765Y-118745209D01*
X123611673Y-118790301D01*
X123587270Y-118849215D01*
X123551843Y-118902235D01*
X123539403Y-118964776D01*
X123515000Y-119023690D01*
X123515000Y-119087459D01*
X123502560Y-119150000D01*
X123502560Y-120850000D01*
X123515000Y-120912541D01*
X123515000Y-120976310D01*
X123539403Y-121035224D01*
X123551843Y-121097765D01*
X123587270Y-121150785D01*
X123611673Y-121209699D01*
X123656765Y-121254791D01*
X123692191Y-121307809D01*
X123745211Y-121343236D01*
X123790302Y-121388327D01*
X123849214Y-121412729D01*
X123902235Y-121448157D01*
X123947619Y-121457184D01*
X123929375Y-121469375D01*
X123601161Y-121960582D01*
X123485908Y-122540000D01*
X120710000Y-122540000D01*
X120710000Y-110342346D01*
X130757974Y-110342346D01*
X130765000Y-110768390D01*
X130765000Y-111194569D01*
X130772320Y-111212240D01*
X130772635Y-111231363D01*
X131084640Y-111984610D01*
X131094347Y-111989682D01*
X131105259Y-112016026D01*
X131733974Y-112644741D01*
X131760318Y-112655653D01*
X131765390Y-112665360D01*
X132161708Y-112821914D01*
X132555431Y-112985000D01*
X132574560Y-112985000D01*
X132592346Y-112992026D01*
X133018390Y-112985000D01*
X133444569Y-112985000D01*
X133462240Y-112977680D01*
X133481363Y-112977365D01*
X134234610Y-112665360D01*
X134239682Y-112655653D01*
X134266026Y-112644741D01*
X134894741Y-112016026D01*
X134905653Y-111989682D01*
X134915360Y-111984610D01*
X135071914Y-111588292D01*
X135235000Y-111194569D01*
X135235000Y-111175440D01*
X135242026Y-111157654D01*
X135235000Y-110731610D01*
X135235000Y-110305431D01*
X135227680Y-110287760D01*
X135227365Y-110268637D01*
X134915360Y-109515390D01*
X134905653Y-109510318D01*
X134894741Y-109483974D01*
X134266026Y-108855259D01*
X134239682Y-108844347D01*
X134234610Y-108834640D01*
X133838292Y-108678086D01*
X133444569Y-108515000D01*
X133425440Y-108515000D01*
X133407654Y-108507974D01*
X132981610Y-108515000D01*
X132555431Y-108515000D01*
X132537760Y-108522320D01*
X132518637Y-108522635D01*
X131765390Y-108834640D01*
X131760318Y-108844347D01*
X131733974Y-108855259D01*
X131105259Y-109483974D01*
X131094347Y-109510318D01*
X131084640Y-109515390D01*
X130928086Y-109911708D01*
X130765000Y-110305431D01*
X130765000Y-110324560D01*
X130757974Y-110342346D01*
X120710000Y-110342346D01*
X120710000Y-110069925D01*
X120723909Y-110000000D01*
X120710000Y-109930074D01*
X120710000Y-105710000D01*
X142290001Y-105710000D01*
X142290000Y-109930074D01*
G04 #@! TD*
M02*
