G04 #@! TF.GenerationSoftware,KiCad,Pcbnew,(5.0.2)-1*
G04 #@! TF.CreationDate,2021-07-21T13:37:46-04:00*
G04 #@! TF.ProjectId,breakout,62726561-6b6f-4757-942e-6b696361645f,rev?*
G04 #@! TF.SameCoordinates,Original*
G04 #@! TF.FileFunction,Legend,Top*
G04 #@! TF.FilePolarity,Positive*
%FSLAX46Y46*%
G04 Gerber Fmt 4.6, Leading zero omitted, Abs format (unit mm)*
G04 Created by KiCad (PCBNEW (5.0.2)-1) date 21-Jul-21 1:37:46 PM*
%MOMM*%
%LPD*%
G01*
G04 APERTURE LIST*
%ADD10C,0.300000*%
%ADD11C,0.120000*%
%ADD12C,0.150000*%
%ADD13C,3.302000*%
%ADD14O,1.802000X1.802000*%
%ADD15R,1.802000X1.802000*%
%ADD16R,1.902000X1.902000*%
%ADD17C,1.902000*%
%ADD18C,1.626000*%
G04 APERTURE END LIST*
D10*
X125250000Y-131928571D02*
X125250000Y-130428571D01*
X125250000Y-131142857D02*
X126107142Y-131142857D01*
X126107142Y-131928571D02*
X126107142Y-130428571D01*
X127464285Y-131928571D02*
X127464285Y-131142857D01*
X127392857Y-131000000D01*
X127250000Y-130928571D01*
X126964285Y-130928571D01*
X126821428Y-131000000D01*
X127464285Y-131857142D02*
X127321428Y-131928571D01*
X126964285Y-131928571D01*
X126821428Y-131857142D01*
X126750000Y-131714285D01*
X126750000Y-131571428D01*
X126821428Y-131428571D01*
X126964285Y-131357142D01*
X127321428Y-131357142D01*
X127464285Y-131285714D01*
X128392857Y-131928571D02*
X128250000Y-131857142D01*
X128178571Y-131714285D01*
X128178571Y-130428571D01*
X129178571Y-131928571D02*
X129035714Y-131857142D01*
X128964285Y-131714285D01*
X128964285Y-130428571D01*
X130821428Y-131857142D02*
X131035714Y-131928571D01*
X131392857Y-131928571D01*
X131535714Y-131857142D01*
X131607142Y-131785714D01*
X131678571Y-131642857D01*
X131678571Y-131500000D01*
X131607142Y-131357142D01*
X131535714Y-131285714D01*
X131392857Y-131214285D01*
X131107142Y-131142857D01*
X130964285Y-131071428D01*
X130892857Y-131000000D01*
X130821428Y-130857142D01*
X130821428Y-130714285D01*
X130892857Y-130571428D01*
X130964285Y-130500000D01*
X131107142Y-130428571D01*
X131464285Y-130428571D01*
X131678571Y-130500000D01*
X132892857Y-131857142D02*
X132750000Y-131928571D01*
X132464285Y-131928571D01*
X132321428Y-131857142D01*
X132250000Y-131714285D01*
X132250000Y-131142857D01*
X132321428Y-131000000D01*
X132464285Y-130928571D01*
X132750000Y-130928571D01*
X132892857Y-131000000D01*
X132964285Y-131142857D01*
X132964285Y-131285714D01*
X132250000Y-131428571D01*
X133607142Y-130928571D02*
X133607142Y-131928571D01*
X133607142Y-131071428D02*
X133678571Y-131000000D01*
X133821428Y-130928571D01*
X134035714Y-130928571D01*
X134178571Y-131000000D01*
X134250000Y-131142857D01*
X134250000Y-131928571D01*
X134892857Y-131857142D02*
X135035714Y-131928571D01*
X135321428Y-131928571D01*
X135464285Y-131857142D01*
X135535714Y-131714285D01*
X135535714Y-131642857D01*
X135464285Y-131500000D01*
X135321428Y-131428571D01*
X135107142Y-131428571D01*
X134964285Y-131357142D01*
X134892857Y-131214285D01*
X134892857Y-131142857D01*
X134964285Y-131000000D01*
X135107142Y-130928571D01*
X135321428Y-130928571D01*
X135464285Y-131000000D01*
X136392857Y-131928571D02*
X136250000Y-131857142D01*
X136178571Y-131785714D01*
X136107142Y-131642857D01*
X136107142Y-131214285D01*
X136178571Y-131071428D01*
X136250000Y-131000000D01*
X136392857Y-130928571D01*
X136607142Y-130928571D01*
X136750000Y-131000000D01*
X136821428Y-131071428D01*
X136892857Y-131214285D01*
X136892857Y-131642857D01*
X136821428Y-131785714D01*
X136750000Y-131857142D01*
X136607142Y-131928571D01*
X136392857Y-131928571D01*
X137535714Y-131928571D02*
X137535714Y-130928571D01*
X137535714Y-131214285D02*
X137607142Y-131071428D01*
X137678571Y-131000000D01*
X137821428Y-130928571D01*
X137964285Y-130928571D01*
X136178571Y-98178571D02*
X136178571Y-99250000D01*
X136107142Y-99464285D01*
X135964285Y-99607142D01*
X135750000Y-99678571D01*
X135607142Y-99678571D01*
X137107142Y-99678571D02*
X136964285Y-99607142D01*
X136892857Y-99535714D01*
X136821428Y-99392857D01*
X136821428Y-98964285D01*
X136892857Y-98821428D01*
X136964285Y-98750000D01*
X137107142Y-98678571D01*
X137321428Y-98678571D01*
X137464285Y-98750000D01*
X137535714Y-98821428D01*
X137607142Y-98964285D01*
X137607142Y-99392857D01*
X137535714Y-99535714D01*
X137464285Y-99607142D01*
X137321428Y-99678571D01*
X137107142Y-99678571D01*
X138107142Y-98678571D02*
X138464285Y-99678571D01*
X138821428Y-98678571D02*
X138464285Y-99678571D01*
X138321428Y-100035714D01*
X138250000Y-100107142D01*
X138107142Y-100178571D01*
X139321428Y-99607142D02*
X139464285Y-99678571D01*
X139750000Y-99678571D01*
X139892857Y-99607142D01*
X139964285Y-99464285D01*
X139964285Y-99392857D01*
X139892857Y-99250000D01*
X139750000Y-99178571D01*
X139535714Y-99178571D01*
X139392857Y-99107142D01*
X139321428Y-98964285D01*
X139321428Y-98892857D01*
X139392857Y-98750000D01*
X139535714Y-98678571D01*
X139750000Y-98678571D01*
X139892857Y-98750000D01*
X140392857Y-98678571D02*
X140964285Y-98678571D01*
X140607142Y-98178571D02*
X140607142Y-99464285D01*
X140678571Y-99607142D01*
X140821428Y-99678571D01*
X140964285Y-99678571D01*
X141464285Y-99678571D02*
X141464285Y-98678571D01*
X141464285Y-98178571D02*
X141392857Y-98250000D01*
X141464285Y-98321428D01*
X141535714Y-98250000D01*
X141464285Y-98178571D01*
X141464285Y-98321428D01*
X142821428Y-99607142D02*
X142678571Y-99678571D01*
X142392857Y-99678571D01*
X142250000Y-99607142D01*
X142178571Y-99535714D01*
X142107142Y-99392857D01*
X142107142Y-98964285D01*
X142178571Y-98821428D01*
X142250000Y-98750000D01*
X142392857Y-98678571D01*
X142678571Y-98678571D01*
X142821428Y-98750000D01*
X143464285Y-99678571D02*
X143464285Y-98178571D01*
X143607142Y-99107142D02*
X144035714Y-99678571D01*
X144035714Y-98678571D02*
X143464285Y-99250000D01*
X146678571Y-99535714D02*
X146607142Y-99607142D01*
X146392857Y-99678571D01*
X146250000Y-99678571D01*
X146035714Y-99607142D01*
X145892857Y-99464285D01*
X145821428Y-99321428D01*
X145750000Y-99035714D01*
X145750000Y-98821428D01*
X145821428Y-98535714D01*
X145892857Y-98392857D01*
X146035714Y-98250000D01*
X146250000Y-98178571D01*
X146392857Y-98178571D01*
X146607142Y-98250000D01*
X146678571Y-98321428D01*
X147535714Y-99678571D02*
X147392857Y-99607142D01*
X147321428Y-99535714D01*
X147250000Y-99392857D01*
X147250000Y-98964285D01*
X147321428Y-98821428D01*
X147392857Y-98750000D01*
X147535714Y-98678571D01*
X147750000Y-98678571D01*
X147892857Y-98750000D01*
X147964285Y-98821428D01*
X148035714Y-98964285D01*
X148035714Y-99392857D01*
X147964285Y-99535714D01*
X147892857Y-99607142D01*
X147750000Y-99678571D01*
X147535714Y-99678571D01*
X148678571Y-98678571D02*
X148678571Y-99678571D01*
X148678571Y-98821428D02*
X148750000Y-98750000D01*
X148892857Y-98678571D01*
X149107142Y-98678571D01*
X149250000Y-98750000D01*
X149321428Y-98892857D01*
X149321428Y-99678571D01*
X149821428Y-98678571D02*
X150392857Y-98678571D01*
X150035714Y-98178571D02*
X150035714Y-99464285D01*
X150107142Y-99607142D01*
X150250000Y-99678571D01*
X150392857Y-99678571D01*
X150892857Y-99678571D02*
X150892857Y-98678571D01*
X150892857Y-98964285D02*
X150964285Y-98821428D01*
X151035714Y-98750000D01*
X151178571Y-98678571D01*
X151321428Y-98678571D01*
X152035714Y-99678571D02*
X151892857Y-99607142D01*
X151821428Y-99535714D01*
X151750000Y-99392857D01*
X151750000Y-98964285D01*
X151821428Y-98821428D01*
X151892857Y-98750000D01*
X152035714Y-98678571D01*
X152250000Y-98678571D01*
X152392857Y-98750000D01*
X152464285Y-98821428D01*
X152535714Y-98964285D01*
X152535714Y-99392857D01*
X152464285Y-99535714D01*
X152392857Y-99607142D01*
X152250000Y-99678571D01*
X152035714Y-99678571D01*
X153392857Y-99678571D02*
X153250000Y-99607142D01*
X153178571Y-99464285D01*
X153178571Y-98178571D01*
X154178571Y-99678571D02*
X154035714Y-99607142D01*
X153964285Y-99464285D01*
X153964285Y-98178571D01*
X155321428Y-99607142D02*
X155178571Y-99678571D01*
X154892857Y-99678571D01*
X154750000Y-99607142D01*
X154678571Y-99464285D01*
X154678571Y-98892857D01*
X154750000Y-98750000D01*
X154892857Y-98678571D01*
X155178571Y-98678571D01*
X155321428Y-98750000D01*
X155392857Y-98892857D01*
X155392857Y-99035714D01*
X154678571Y-99178571D01*
X156035714Y-99678571D02*
X156035714Y-98678571D01*
X156035714Y-98964285D02*
X156107142Y-98821428D01*
X156178571Y-98750000D01*
X156321428Y-98678571D01*
X156464285Y-98678571D01*
X99750000Y-131678571D02*
X99750000Y-130178571D01*
X99750000Y-130892857D02*
X100607142Y-130892857D01*
X100607142Y-131678571D02*
X100607142Y-130178571D01*
X101964285Y-131678571D02*
X101964285Y-130892857D01*
X101892857Y-130750000D01*
X101750000Y-130678571D01*
X101464285Y-130678571D01*
X101321428Y-130750000D01*
X101964285Y-131607142D02*
X101821428Y-131678571D01*
X101464285Y-131678571D01*
X101321428Y-131607142D01*
X101250000Y-131464285D01*
X101250000Y-131321428D01*
X101321428Y-131178571D01*
X101464285Y-131107142D01*
X101821428Y-131107142D01*
X101964285Y-131035714D01*
X102892857Y-131678571D02*
X102750000Y-131607142D01*
X102678571Y-131464285D01*
X102678571Y-130178571D01*
X103678571Y-131678571D02*
X103535714Y-131607142D01*
X103464285Y-131464285D01*
X103464285Y-130178571D01*
X105321428Y-131607142D02*
X105535714Y-131678571D01*
X105892857Y-131678571D01*
X106035714Y-131607142D01*
X106107142Y-131535714D01*
X106178571Y-131392857D01*
X106178571Y-131250000D01*
X106107142Y-131107142D01*
X106035714Y-131035714D01*
X105892857Y-130964285D01*
X105607142Y-130892857D01*
X105464285Y-130821428D01*
X105392857Y-130750000D01*
X105321428Y-130607142D01*
X105321428Y-130464285D01*
X105392857Y-130321428D01*
X105464285Y-130250000D01*
X105607142Y-130178571D01*
X105964285Y-130178571D01*
X106178571Y-130250000D01*
X107392857Y-131607142D02*
X107250000Y-131678571D01*
X106964285Y-131678571D01*
X106821428Y-131607142D01*
X106750000Y-131464285D01*
X106750000Y-130892857D01*
X106821428Y-130750000D01*
X106964285Y-130678571D01*
X107250000Y-130678571D01*
X107392857Y-130750000D01*
X107464285Y-130892857D01*
X107464285Y-131035714D01*
X106750000Y-131178571D01*
X108107142Y-130678571D02*
X108107142Y-131678571D01*
X108107142Y-130821428D02*
X108178571Y-130750000D01*
X108321428Y-130678571D01*
X108535714Y-130678571D01*
X108678571Y-130750000D01*
X108750000Y-130892857D01*
X108750000Y-131678571D01*
X109392857Y-131607142D02*
X109535714Y-131678571D01*
X109821428Y-131678571D01*
X109964285Y-131607142D01*
X110035714Y-131464285D01*
X110035714Y-131392857D01*
X109964285Y-131250000D01*
X109821428Y-131178571D01*
X109607142Y-131178571D01*
X109464285Y-131107142D01*
X109392857Y-130964285D01*
X109392857Y-130892857D01*
X109464285Y-130750000D01*
X109607142Y-130678571D01*
X109821428Y-130678571D01*
X109964285Y-130750000D01*
X110892857Y-131678571D02*
X110750000Y-131607142D01*
X110678571Y-131535714D01*
X110607142Y-131392857D01*
X110607142Y-130964285D01*
X110678571Y-130821428D01*
X110750000Y-130750000D01*
X110892857Y-130678571D01*
X111107142Y-130678571D01*
X111250000Y-130750000D01*
X111321428Y-130821428D01*
X111392857Y-130964285D01*
X111392857Y-131392857D01*
X111321428Y-131535714D01*
X111250000Y-131607142D01*
X111107142Y-131678571D01*
X110892857Y-131678571D01*
X112035714Y-131678571D02*
X112035714Y-130678571D01*
X112035714Y-130964285D02*
X112107142Y-130821428D01*
X112178571Y-130750000D01*
X112321428Y-130678571D01*
X112464285Y-130678571D01*
D11*
G04 #@! TO.C,J2*
X123670000Y-118670000D02*
X125000000Y-118670000D01*
X123670000Y-120000000D02*
X123670000Y-118670000D01*
X123670000Y-121270000D02*
X126330000Y-121270000D01*
X126330000Y-121270000D02*
X126330000Y-126410000D01*
X123670000Y-121270000D02*
X123670000Y-126410000D01*
X123670000Y-126410000D02*
X126330000Y-126410000D01*
G04 #@! TO.C,J4*
X131670000Y-118670000D02*
X133000000Y-118670000D01*
X131670000Y-120000000D02*
X131670000Y-118670000D01*
X131670000Y-121270000D02*
X134330000Y-121270000D01*
X134330000Y-121270000D02*
X134330000Y-126410000D01*
X131670000Y-121270000D02*
X131670000Y-126410000D01*
X131670000Y-126410000D02*
X134330000Y-126410000D01*
X106670000Y-126410000D02*
X109330000Y-126410000D01*
X106670000Y-121270000D02*
X106670000Y-126410000D01*
X109330000Y-121270000D02*
X109330000Y-126410000D01*
X106670000Y-121270000D02*
X109330000Y-121270000D01*
X106670000Y-120000000D02*
X106670000Y-118670000D01*
X106670000Y-118670000D02*
X108000000Y-118670000D01*
G04 #@! TO.C,J2*
X98670000Y-126410000D02*
X101330000Y-126410000D01*
X98670000Y-121270000D02*
X98670000Y-126410000D01*
X101330000Y-121270000D02*
X101330000Y-126410000D01*
X98670000Y-121270000D02*
X101330000Y-121270000D01*
X98670000Y-120000000D02*
X98670000Y-118670000D01*
X98670000Y-118670000D02*
X100000000Y-118670000D01*
G04 #@! TO.C,J1*
X152410000Y-42330000D02*
X152410000Y-39670000D01*
X139650000Y-42330000D02*
X152410000Y-42330000D01*
X139650000Y-39670000D02*
X152410000Y-39670000D01*
X139650000Y-42330000D02*
X139650000Y-39670000D01*
X138380000Y-42330000D02*
X137050000Y-42330000D01*
X137050000Y-42330000D02*
X137050000Y-41000000D01*
G04 #@! TO.C,D1*
X142740000Y-50999538D02*
G75*
G03X148290000Y-52544830I2990000J-462D01*
G01*
X142740000Y-51000462D02*
G75*
G02X148290000Y-49455170I2990000J462D01*
G01*
X148230000Y-51000000D02*
G75*
G03X148230000Y-51000000I-2500000J0D01*
G01*
X148290000Y-52545000D02*
X148290000Y-49455000D01*
D12*
G04 #@! TO.C,U2*
X150950000Y-55950000D02*
X189050000Y-55950000D01*
X189050000Y-94050000D02*
X150950000Y-94050000D01*
X150950000Y-94050000D02*
X150950000Y-55950000D01*
X189050000Y-55950000D02*
X189050000Y-94050000D01*
X180776307Y-75000000D02*
G75*
G03X180776307Y-75000000I-10776307J0D01*
G01*
X156556051Y-59760000D02*
G75*
G03X156556051Y-59760000I-1796051J0D01*
G01*
X156556051Y-90240000D02*
G75*
G03X156556051Y-90240000I-1796051J0D01*
G01*
X187036051Y-59760000D02*
G75*
G03X187036051Y-59760000I-1796051J0D01*
G01*
X187036051Y-90240000D02*
G75*
G03X187036051Y-90240000I-1796051J0D01*
G01*
G04 #@! TO.C,U1*
X137036051Y-90240000D02*
G75*
G03X137036051Y-90240000I-1796051J0D01*
G01*
X137036051Y-59760000D02*
G75*
G03X137036051Y-59760000I-1796051J0D01*
G01*
X106556051Y-90240000D02*
G75*
G03X106556051Y-90240000I-1796051J0D01*
G01*
X106556051Y-59760000D02*
G75*
G03X106556051Y-59760000I-1796051J0D01*
G01*
X130776307Y-75000000D02*
G75*
G03X130776307Y-75000000I-10776307J0D01*
G01*
X139050000Y-55950000D02*
X139050000Y-94050000D01*
X100950000Y-94050000D02*
X100950000Y-55950000D01*
X139050000Y-94050000D02*
X100950000Y-94050000D01*
X100950000Y-55950000D02*
X139050000Y-55950000D01*
G04 #@! TO.C,*
G04 #@! TO.C,J2*
X124666666Y-117122380D02*
X124666666Y-117836666D01*
X124619047Y-117979523D01*
X124523809Y-118074761D01*
X124380952Y-118122380D01*
X124285714Y-118122380D01*
X125095238Y-117217619D02*
X125142857Y-117170000D01*
X125238095Y-117122380D01*
X125476190Y-117122380D01*
X125571428Y-117170000D01*
X125619047Y-117217619D01*
X125666666Y-117312857D01*
X125666666Y-117408095D01*
X125619047Y-117550952D01*
X125047619Y-118122380D01*
X125666666Y-118122380D01*
G04 #@! TO.C,J4*
X132666666Y-117122380D02*
X132666666Y-117836666D01*
X132619047Y-117979523D01*
X132523809Y-118074761D01*
X132380952Y-118122380D01*
X132285714Y-118122380D01*
X133571428Y-117455714D02*
X133571428Y-118122380D01*
X133333333Y-117074761D02*
X133095238Y-117789047D01*
X133714285Y-117789047D01*
G04 #@! TO.C,*
G04 #@! TO.C,J4*
X107666666Y-117122380D02*
X107666666Y-117836666D01*
X107619047Y-117979523D01*
X107523809Y-118074761D01*
X107380952Y-118122380D01*
X107285714Y-118122380D01*
X108571428Y-117455714D02*
X108571428Y-118122380D01*
X108333333Y-117074761D02*
X108095238Y-117789047D01*
X108714285Y-117789047D01*
G04 #@! TO.C,J2*
X99666666Y-117122380D02*
X99666666Y-117836666D01*
X99619047Y-117979523D01*
X99523809Y-118074761D01*
X99380952Y-118122380D01*
X99285714Y-118122380D01*
X100095238Y-117217619D02*
X100142857Y-117170000D01*
X100238095Y-117122380D01*
X100476190Y-117122380D01*
X100571428Y-117170000D01*
X100619047Y-117217619D01*
X100666666Y-117312857D01*
X100666666Y-117408095D01*
X100619047Y-117550952D01*
X100047619Y-118122380D01*
X100666666Y-118122380D01*
G04 #@! TO.C,J1*
X134916666Y-40452380D02*
X134916666Y-41166666D01*
X134869047Y-41309523D01*
X134773809Y-41404761D01*
X134630952Y-41452380D01*
X134535714Y-41452380D01*
X135916666Y-41452380D02*
X135345238Y-41452380D01*
X135630952Y-41452380D02*
X135630952Y-40452380D01*
X135535714Y-40595238D01*
X135440476Y-40690476D01*
X135345238Y-40738095D01*
G04 #@! TO.C,D1*
X144991904Y-55412380D02*
X144991904Y-54412380D01*
X145230000Y-54412380D01*
X145372857Y-54460000D01*
X145468095Y-54555238D01*
X145515714Y-54650476D01*
X145563333Y-54840952D01*
X145563333Y-54983809D01*
X145515714Y-55174285D01*
X145468095Y-55269523D01*
X145372857Y-55364761D01*
X145230000Y-55412380D01*
X144991904Y-55412380D01*
X146515714Y-55412380D02*
X145944285Y-55412380D01*
X146230000Y-55412380D02*
X146230000Y-54412380D01*
X146134761Y-54555238D01*
X146039523Y-54650476D01*
X145944285Y-54698095D01*
G04 #@! TO.C,U2*
X169238095Y-54132380D02*
X169238095Y-54941904D01*
X169285714Y-55037142D01*
X169333333Y-55084761D01*
X169428571Y-55132380D01*
X169619047Y-55132380D01*
X169714285Y-55084761D01*
X169761904Y-55037142D01*
X169809523Y-54941904D01*
X169809523Y-54132380D01*
X170238095Y-54227619D02*
X170285714Y-54180000D01*
X170380952Y-54132380D01*
X170619047Y-54132380D01*
X170714285Y-54180000D01*
X170761904Y-54227619D01*
X170809523Y-54322857D01*
X170809523Y-54418095D01*
X170761904Y-54560952D01*
X170190476Y-55132380D01*
X170809523Y-55132380D01*
X155268095Y-79580000D02*
X155172857Y-79532380D01*
X155030000Y-79532380D01*
X154887142Y-79580000D01*
X154791904Y-79675238D01*
X154744285Y-79770476D01*
X154696666Y-79960952D01*
X154696666Y-80103809D01*
X154744285Y-80294285D01*
X154791904Y-80389523D01*
X154887142Y-80484761D01*
X155030000Y-80532380D01*
X155125238Y-80532380D01*
X155268095Y-80484761D01*
X155315714Y-80437142D01*
X155315714Y-80103809D01*
X155125238Y-80103809D01*
X155744285Y-80532380D02*
X155744285Y-79532380D01*
X156315714Y-80532380D01*
X156315714Y-79532380D01*
X156791904Y-80532380D02*
X156791904Y-79532380D01*
X157030000Y-79532380D01*
X157172857Y-79580000D01*
X157268095Y-79675238D01*
X157315714Y-79770476D01*
X157363333Y-79960952D01*
X157363333Y-80103809D01*
X157315714Y-80294285D01*
X157268095Y-80389523D01*
X157172857Y-80484761D01*
X157030000Y-80532380D01*
X156791904Y-80532380D01*
X155053809Y-77944761D02*
X155196666Y-77992380D01*
X155434761Y-77992380D01*
X155530000Y-77944761D01*
X155577619Y-77897142D01*
X155625238Y-77801904D01*
X155625238Y-77706666D01*
X155577619Y-77611428D01*
X155530000Y-77563809D01*
X155434761Y-77516190D01*
X155244285Y-77468571D01*
X155149047Y-77420952D01*
X155101428Y-77373333D01*
X155053809Y-77278095D01*
X155053809Y-77182857D01*
X155101428Y-77087619D01*
X155149047Y-77040000D01*
X155244285Y-76992380D01*
X155482380Y-76992380D01*
X155625238Y-77040000D01*
X156434761Y-77944761D02*
X156339523Y-77992380D01*
X156149047Y-77992380D01*
X156053809Y-77944761D01*
X156006190Y-77849523D01*
X156006190Y-77468571D01*
X156053809Y-77373333D01*
X156149047Y-77325714D01*
X156339523Y-77325714D01*
X156434761Y-77373333D01*
X156482380Y-77468571D01*
X156482380Y-77563809D01*
X156006190Y-77659047D01*
X157053809Y-77992380D02*
X156958571Y-77944761D01*
X156910952Y-77849523D01*
X156910952Y-76992380D01*
X154768095Y-74976190D02*
X154768095Y-75452380D01*
X154434761Y-74452380D02*
X154768095Y-74976190D01*
X155101428Y-74452380D01*
X155625238Y-74452380D02*
X155815714Y-74452380D01*
X155910952Y-74500000D01*
X156006190Y-74595238D01*
X156053809Y-74785714D01*
X156053809Y-75119047D01*
X156006190Y-75309523D01*
X155910952Y-75404761D01*
X155815714Y-75452380D01*
X155625238Y-75452380D01*
X155530000Y-75404761D01*
X155434761Y-75309523D01*
X155387142Y-75119047D01*
X155387142Y-74785714D01*
X155434761Y-74595238D01*
X155530000Y-74500000D01*
X155625238Y-74452380D01*
X156910952Y-74785714D02*
X156910952Y-75452380D01*
X156482380Y-74785714D02*
X156482380Y-75309523D01*
X156530000Y-75404761D01*
X156625238Y-75452380D01*
X156768095Y-75452380D01*
X156863333Y-75404761D01*
X156910952Y-75357142D01*
X157244285Y-74785714D02*
X157625238Y-74785714D01*
X157387142Y-74452380D02*
X157387142Y-75309523D01*
X157434761Y-75404761D01*
X157530000Y-75452380D01*
X157625238Y-75452380D01*
X154434761Y-71912380D02*
X155101428Y-72912380D01*
X155101428Y-71912380D02*
X154434761Y-72912380D01*
X155672857Y-71912380D02*
X155863333Y-71912380D01*
X155958571Y-71960000D01*
X156053809Y-72055238D01*
X156101428Y-72245714D01*
X156101428Y-72579047D01*
X156053809Y-72769523D01*
X155958571Y-72864761D01*
X155863333Y-72912380D01*
X155672857Y-72912380D01*
X155577619Y-72864761D01*
X155482380Y-72769523D01*
X155434761Y-72579047D01*
X155434761Y-72245714D01*
X155482380Y-72055238D01*
X155577619Y-71960000D01*
X155672857Y-71912380D01*
X156958571Y-72245714D02*
X156958571Y-72912380D01*
X156530000Y-72245714D02*
X156530000Y-72769523D01*
X156577619Y-72864761D01*
X156672857Y-72912380D01*
X156815714Y-72912380D01*
X156910952Y-72864761D01*
X156958571Y-72817142D01*
X157291904Y-72245714D02*
X157672857Y-72245714D01*
X157434761Y-71912380D02*
X157434761Y-72769523D01*
X157482380Y-72864761D01*
X157577619Y-72912380D01*
X157672857Y-72912380D01*
X154696666Y-69372380D02*
X155030000Y-70372380D01*
X155363333Y-69372380D01*
X156268095Y-70277142D02*
X156220476Y-70324761D01*
X156077619Y-70372380D01*
X155982380Y-70372380D01*
X155839523Y-70324761D01*
X155744285Y-70229523D01*
X155696666Y-70134285D01*
X155649047Y-69943809D01*
X155649047Y-69800952D01*
X155696666Y-69610476D01*
X155744285Y-69515238D01*
X155839523Y-69420000D01*
X155982380Y-69372380D01*
X156077619Y-69372380D01*
X156220476Y-69420000D01*
X156268095Y-69467619D01*
X157268095Y-70277142D02*
X157220476Y-70324761D01*
X157077619Y-70372380D01*
X156982380Y-70372380D01*
X156839523Y-70324761D01*
X156744285Y-70229523D01*
X156696666Y-70134285D01*
X156649047Y-69943809D01*
X156649047Y-69800952D01*
X156696666Y-69610476D01*
X156744285Y-69515238D01*
X156839523Y-69420000D01*
X156982380Y-69372380D01*
X157077619Y-69372380D01*
X157220476Y-69420000D01*
X157268095Y-69467619D01*
G04 #@! TO.C,U1*
X119238095Y-54132380D02*
X119238095Y-54941904D01*
X119285714Y-55037142D01*
X119333333Y-55084761D01*
X119428571Y-55132380D01*
X119619047Y-55132380D01*
X119714285Y-55084761D01*
X119761904Y-55037142D01*
X119809523Y-54941904D01*
X119809523Y-54132380D01*
X120809523Y-55132380D02*
X120238095Y-55132380D01*
X120523809Y-55132380D02*
X120523809Y-54132380D01*
X120428571Y-54275238D01*
X120333333Y-54370476D01*
X120238095Y-54418095D01*
X104696666Y-69372380D02*
X105030000Y-70372380D01*
X105363333Y-69372380D01*
X106268095Y-70277142D02*
X106220476Y-70324761D01*
X106077619Y-70372380D01*
X105982380Y-70372380D01*
X105839523Y-70324761D01*
X105744285Y-70229523D01*
X105696666Y-70134285D01*
X105649047Y-69943809D01*
X105649047Y-69800952D01*
X105696666Y-69610476D01*
X105744285Y-69515238D01*
X105839523Y-69420000D01*
X105982380Y-69372380D01*
X106077619Y-69372380D01*
X106220476Y-69420000D01*
X106268095Y-69467619D01*
X107268095Y-70277142D02*
X107220476Y-70324761D01*
X107077619Y-70372380D01*
X106982380Y-70372380D01*
X106839523Y-70324761D01*
X106744285Y-70229523D01*
X106696666Y-70134285D01*
X106649047Y-69943809D01*
X106649047Y-69800952D01*
X106696666Y-69610476D01*
X106744285Y-69515238D01*
X106839523Y-69420000D01*
X106982380Y-69372380D01*
X107077619Y-69372380D01*
X107220476Y-69420000D01*
X107268095Y-69467619D01*
X104434761Y-71912380D02*
X105101428Y-72912380D01*
X105101428Y-71912380D02*
X104434761Y-72912380D01*
X105672857Y-71912380D02*
X105863333Y-71912380D01*
X105958571Y-71960000D01*
X106053809Y-72055238D01*
X106101428Y-72245714D01*
X106101428Y-72579047D01*
X106053809Y-72769523D01*
X105958571Y-72864761D01*
X105863333Y-72912380D01*
X105672857Y-72912380D01*
X105577619Y-72864761D01*
X105482380Y-72769523D01*
X105434761Y-72579047D01*
X105434761Y-72245714D01*
X105482380Y-72055238D01*
X105577619Y-71960000D01*
X105672857Y-71912380D01*
X106958571Y-72245714D02*
X106958571Y-72912380D01*
X106530000Y-72245714D02*
X106530000Y-72769523D01*
X106577619Y-72864761D01*
X106672857Y-72912380D01*
X106815714Y-72912380D01*
X106910952Y-72864761D01*
X106958571Y-72817142D01*
X107291904Y-72245714D02*
X107672857Y-72245714D01*
X107434761Y-71912380D02*
X107434761Y-72769523D01*
X107482380Y-72864761D01*
X107577619Y-72912380D01*
X107672857Y-72912380D01*
X104768095Y-74976190D02*
X104768095Y-75452380D01*
X104434761Y-74452380D02*
X104768095Y-74976190D01*
X105101428Y-74452380D01*
X105625238Y-74452380D02*
X105815714Y-74452380D01*
X105910952Y-74500000D01*
X106006190Y-74595238D01*
X106053809Y-74785714D01*
X106053809Y-75119047D01*
X106006190Y-75309523D01*
X105910952Y-75404761D01*
X105815714Y-75452380D01*
X105625238Y-75452380D01*
X105530000Y-75404761D01*
X105434761Y-75309523D01*
X105387142Y-75119047D01*
X105387142Y-74785714D01*
X105434761Y-74595238D01*
X105530000Y-74500000D01*
X105625238Y-74452380D01*
X106910952Y-74785714D02*
X106910952Y-75452380D01*
X106482380Y-74785714D02*
X106482380Y-75309523D01*
X106530000Y-75404761D01*
X106625238Y-75452380D01*
X106768095Y-75452380D01*
X106863333Y-75404761D01*
X106910952Y-75357142D01*
X107244285Y-74785714D02*
X107625238Y-74785714D01*
X107387142Y-74452380D02*
X107387142Y-75309523D01*
X107434761Y-75404761D01*
X107530000Y-75452380D01*
X107625238Y-75452380D01*
X105053809Y-77944761D02*
X105196666Y-77992380D01*
X105434761Y-77992380D01*
X105530000Y-77944761D01*
X105577619Y-77897142D01*
X105625238Y-77801904D01*
X105625238Y-77706666D01*
X105577619Y-77611428D01*
X105530000Y-77563809D01*
X105434761Y-77516190D01*
X105244285Y-77468571D01*
X105149047Y-77420952D01*
X105101428Y-77373333D01*
X105053809Y-77278095D01*
X105053809Y-77182857D01*
X105101428Y-77087619D01*
X105149047Y-77040000D01*
X105244285Y-76992380D01*
X105482380Y-76992380D01*
X105625238Y-77040000D01*
X106434761Y-77944761D02*
X106339523Y-77992380D01*
X106149047Y-77992380D01*
X106053809Y-77944761D01*
X106006190Y-77849523D01*
X106006190Y-77468571D01*
X106053809Y-77373333D01*
X106149047Y-77325714D01*
X106339523Y-77325714D01*
X106434761Y-77373333D01*
X106482380Y-77468571D01*
X106482380Y-77563809D01*
X106006190Y-77659047D01*
X107053809Y-77992380D02*
X106958571Y-77944761D01*
X106910952Y-77849523D01*
X106910952Y-76992380D01*
X105268095Y-79580000D02*
X105172857Y-79532380D01*
X105030000Y-79532380D01*
X104887142Y-79580000D01*
X104791904Y-79675238D01*
X104744285Y-79770476D01*
X104696666Y-79960952D01*
X104696666Y-80103809D01*
X104744285Y-80294285D01*
X104791904Y-80389523D01*
X104887142Y-80484761D01*
X105030000Y-80532380D01*
X105125238Y-80532380D01*
X105268095Y-80484761D01*
X105315714Y-80437142D01*
X105315714Y-80103809D01*
X105125238Y-80103809D01*
X105744285Y-80532380D02*
X105744285Y-79532380D01*
X106315714Y-80532380D01*
X106315714Y-79532380D01*
X106791904Y-80532380D02*
X106791904Y-79532380D01*
X107030000Y-79532380D01*
X107172857Y-79580000D01*
X107268095Y-79675238D01*
X107315714Y-79770476D01*
X107363333Y-79960952D01*
X107363333Y-80103809D01*
X107315714Y-80294285D01*
X107268095Y-80389523D01*
X107172857Y-80484761D01*
X107030000Y-80532380D01*
X106791904Y-80532380D01*
G04 #@! TO.C,*
G04 #@! TD*
%LPC*%
D13*
G04 #@! TO.C,*
X133000000Y-110750000D03*
G04 #@! TD*
D14*
G04 #@! TO.C,J2*
X125000000Y-125080000D03*
X125000000Y-122540000D03*
D15*
X125000000Y-120000000D03*
G04 #@! TD*
D14*
G04 #@! TO.C,J4*
X133000000Y-125080000D03*
X133000000Y-122540000D03*
D15*
X133000000Y-120000000D03*
G04 #@! TD*
D13*
G04 #@! TO.C,*
X108000000Y-110750000D03*
G04 #@! TD*
G04 #@! TO.C,*
X100500000Y-99500000D03*
G04 #@! TD*
G04 #@! TO.C,*
X190000000Y-99500000D03*
G04 #@! TD*
G04 #@! TO.C,*
X190000000Y-40000000D03*
G04 #@! TD*
D15*
G04 #@! TO.C,J4*
X108000000Y-120000000D03*
D14*
X108000000Y-122540000D03*
X108000000Y-125080000D03*
G04 #@! TD*
D15*
G04 #@! TO.C,J2*
X100000000Y-120000000D03*
D14*
X100000000Y-122540000D03*
X100000000Y-125080000D03*
G04 #@! TD*
D15*
G04 #@! TO.C,J1*
X138380000Y-41000000D03*
D14*
X140920000Y-41000000D03*
X143460000Y-41000000D03*
X146000000Y-41000000D03*
X148540000Y-41000000D03*
X151080000Y-41000000D03*
G04 #@! TD*
D16*
G04 #@! TO.C,D1*
X147000000Y-51000000D03*
D17*
X144460000Y-51000000D03*
G04 #@! TD*
D18*
G04 #@! TO.C,U2*
X153490000Y-69920000D03*
X153490000Y-72460000D03*
X153490000Y-75000000D03*
X153490000Y-77540000D03*
X153490000Y-80080000D03*
G04 #@! TD*
G04 #@! TO.C,U1*
X103490000Y-80080000D03*
X103490000Y-77540000D03*
X103490000Y-75000000D03*
X103490000Y-72460000D03*
X103490000Y-69920000D03*
G04 #@! TD*
D13*
G04 #@! TO.C,*
X100000000Y-40000000D03*
G04 #@! TD*
M02*
