G04 #@! TF.GenerationSoftware,KiCad,Pcbnew,(5.0.2)-1*
G04 #@! TF.CreationDate,2021-07-21T13:37:46-04:00*
G04 #@! TF.ProjectId,breakout,62726561-6b6f-4757-942e-6b696361645f,rev?*
G04 #@! TF.SameCoordinates,Original*
G04 #@! TF.FileFunction,Soldermask,Top*
G04 #@! TF.FilePolarity,Negative*
%FSLAX46Y46*%
G04 Gerber Fmt 4.6, Leading zero omitted, Abs format (unit mm)*
G04 Created by KiCad (PCBNEW (5.0.2)-1) date 21-Jul-21 1:37:46 PM*
%MOMM*%
%LPD*%
G01*
G04 APERTURE LIST*
%ADD10C,0.100000*%
G04 APERTURE END LIST*
D10*
G36*
X133110443Y-124185519D02*
X133176627Y-124192037D01*
X133289853Y-124226384D01*
X133346467Y-124243557D01*
X133485087Y-124317652D01*
X133502991Y-124327222D01*
X133538729Y-124356552D01*
X133640186Y-124439814D01*
X133723448Y-124541271D01*
X133752778Y-124577009D01*
X133752779Y-124577011D01*
X133836443Y-124733533D01*
X133836443Y-124733534D01*
X133887963Y-124903373D01*
X133905359Y-125080000D01*
X133887963Y-125256627D01*
X133853616Y-125369853D01*
X133836443Y-125426467D01*
X133762348Y-125565087D01*
X133752778Y-125582991D01*
X133723448Y-125618729D01*
X133640186Y-125720186D01*
X133538729Y-125803448D01*
X133502991Y-125832778D01*
X133502989Y-125832779D01*
X133346467Y-125916443D01*
X133289853Y-125933616D01*
X133176627Y-125967963D01*
X133110443Y-125974481D01*
X133044260Y-125981000D01*
X132955740Y-125981000D01*
X132889557Y-125974481D01*
X132823373Y-125967963D01*
X132710147Y-125933616D01*
X132653533Y-125916443D01*
X132497011Y-125832779D01*
X132497009Y-125832778D01*
X132461271Y-125803448D01*
X132359814Y-125720186D01*
X132276552Y-125618729D01*
X132247222Y-125582991D01*
X132237652Y-125565087D01*
X132163557Y-125426467D01*
X132146384Y-125369853D01*
X132112037Y-125256627D01*
X132094641Y-125080000D01*
X132112037Y-124903373D01*
X132163557Y-124733534D01*
X132163557Y-124733533D01*
X132247221Y-124577011D01*
X132247222Y-124577009D01*
X132276552Y-124541271D01*
X132359814Y-124439814D01*
X132461271Y-124356552D01*
X132497009Y-124327222D01*
X132514913Y-124317652D01*
X132653533Y-124243557D01*
X132710147Y-124226384D01*
X132823373Y-124192037D01*
X132889557Y-124185519D01*
X132955740Y-124179000D01*
X133044260Y-124179000D01*
X133110443Y-124185519D01*
X133110443Y-124185519D01*
G37*
G36*
X125110443Y-124185519D02*
X125176627Y-124192037D01*
X125289853Y-124226384D01*
X125346467Y-124243557D01*
X125485087Y-124317652D01*
X125502991Y-124327222D01*
X125538729Y-124356552D01*
X125640186Y-124439814D01*
X125723448Y-124541271D01*
X125752778Y-124577009D01*
X125752779Y-124577011D01*
X125836443Y-124733533D01*
X125836443Y-124733534D01*
X125887963Y-124903373D01*
X125905359Y-125080000D01*
X125887963Y-125256627D01*
X125853616Y-125369853D01*
X125836443Y-125426467D01*
X125762348Y-125565087D01*
X125752778Y-125582991D01*
X125723448Y-125618729D01*
X125640186Y-125720186D01*
X125538729Y-125803448D01*
X125502991Y-125832778D01*
X125502989Y-125832779D01*
X125346467Y-125916443D01*
X125289853Y-125933616D01*
X125176627Y-125967963D01*
X125110443Y-125974481D01*
X125044260Y-125981000D01*
X124955740Y-125981000D01*
X124889557Y-125974481D01*
X124823373Y-125967963D01*
X124710147Y-125933616D01*
X124653533Y-125916443D01*
X124497011Y-125832779D01*
X124497009Y-125832778D01*
X124461271Y-125803448D01*
X124359814Y-125720186D01*
X124276552Y-125618729D01*
X124247222Y-125582991D01*
X124237652Y-125565087D01*
X124163557Y-125426467D01*
X124146384Y-125369853D01*
X124112037Y-125256627D01*
X124094641Y-125080000D01*
X124112037Y-124903373D01*
X124163557Y-124733534D01*
X124163557Y-124733533D01*
X124247221Y-124577011D01*
X124247222Y-124577009D01*
X124276552Y-124541271D01*
X124359814Y-124439814D01*
X124461271Y-124356552D01*
X124497009Y-124327222D01*
X124514913Y-124317652D01*
X124653533Y-124243557D01*
X124710147Y-124226384D01*
X124823373Y-124192037D01*
X124889557Y-124185519D01*
X124955740Y-124179000D01*
X125044260Y-124179000D01*
X125110443Y-124185519D01*
X125110443Y-124185519D01*
G37*
G36*
X100110443Y-124185519D02*
X100176627Y-124192037D01*
X100289853Y-124226384D01*
X100346467Y-124243557D01*
X100485087Y-124317652D01*
X100502991Y-124327222D01*
X100538729Y-124356552D01*
X100640186Y-124439814D01*
X100723448Y-124541271D01*
X100752778Y-124577009D01*
X100752779Y-124577011D01*
X100836443Y-124733533D01*
X100836443Y-124733534D01*
X100887963Y-124903373D01*
X100905359Y-125080000D01*
X100887963Y-125256627D01*
X100853616Y-125369853D01*
X100836443Y-125426467D01*
X100762348Y-125565087D01*
X100752778Y-125582991D01*
X100723448Y-125618729D01*
X100640186Y-125720186D01*
X100538729Y-125803448D01*
X100502991Y-125832778D01*
X100502989Y-125832779D01*
X100346467Y-125916443D01*
X100289853Y-125933616D01*
X100176627Y-125967963D01*
X100110443Y-125974481D01*
X100044260Y-125981000D01*
X99955740Y-125981000D01*
X99889557Y-125974481D01*
X99823373Y-125967963D01*
X99710147Y-125933616D01*
X99653533Y-125916443D01*
X99497011Y-125832779D01*
X99497009Y-125832778D01*
X99461271Y-125803448D01*
X99359814Y-125720186D01*
X99276552Y-125618729D01*
X99247222Y-125582991D01*
X99237652Y-125565087D01*
X99163557Y-125426467D01*
X99146384Y-125369853D01*
X99112037Y-125256627D01*
X99094641Y-125080000D01*
X99112037Y-124903373D01*
X99163557Y-124733534D01*
X99163557Y-124733533D01*
X99247221Y-124577011D01*
X99247222Y-124577009D01*
X99276552Y-124541271D01*
X99359814Y-124439814D01*
X99461271Y-124356552D01*
X99497009Y-124327222D01*
X99514913Y-124317652D01*
X99653533Y-124243557D01*
X99710147Y-124226384D01*
X99823373Y-124192037D01*
X99889557Y-124185519D01*
X99955740Y-124179000D01*
X100044260Y-124179000D01*
X100110443Y-124185519D01*
X100110443Y-124185519D01*
G37*
G36*
X108110443Y-124185519D02*
X108176627Y-124192037D01*
X108289853Y-124226384D01*
X108346467Y-124243557D01*
X108485087Y-124317652D01*
X108502991Y-124327222D01*
X108538729Y-124356552D01*
X108640186Y-124439814D01*
X108723448Y-124541271D01*
X108752778Y-124577009D01*
X108752779Y-124577011D01*
X108836443Y-124733533D01*
X108836443Y-124733534D01*
X108887963Y-124903373D01*
X108905359Y-125080000D01*
X108887963Y-125256627D01*
X108853616Y-125369853D01*
X108836443Y-125426467D01*
X108762348Y-125565087D01*
X108752778Y-125582991D01*
X108723448Y-125618729D01*
X108640186Y-125720186D01*
X108538729Y-125803448D01*
X108502991Y-125832778D01*
X108502989Y-125832779D01*
X108346467Y-125916443D01*
X108289853Y-125933616D01*
X108176627Y-125967963D01*
X108110443Y-125974481D01*
X108044260Y-125981000D01*
X107955740Y-125981000D01*
X107889557Y-125974481D01*
X107823373Y-125967963D01*
X107710147Y-125933616D01*
X107653533Y-125916443D01*
X107497011Y-125832779D01*
X107497009Y-125832778D01*
X107461271Y-125803448D01*
X107359814Y-125720186D01*
X107276552Y-125618729D01*
X107247222Y-125582991D01*
X107237652Y-125565087D01*
X107163557Y-125426467D01*
X107146384Y-125369853D01*
X107112037Y-125256627D01*
X107094641Y-125080000D01*
X107112037Y-124903373D01*
X107163557Y-124733534D01*
X107163557Y-124733533D01*
X107247221Y-124577011D01*
X107247222Y-124577009D01*
X107276552Y-124541271D01*
X107359814Y-124439814D01*
X107461271Y-124356552D01*
X107497009Y-124327222D01*
X107514913Y-124317652D01*
X107653533Y-124243557D01*
X107710147Y-124226384D01*
X107823373Y-124192037D01*
X107889557Y-124185519D01*
X107955740Y-124179000D01*
X108044260Y-124179000D01*
X108110443Y-124185519D01*
X108110443Y-124185519D01*
G37*
G36*
X100110442Y-121645518D02*
X100176627Y-121652037D01*
X100289853Y-121686384D01*
X100346467Y-121703557D01*
X100485087Y-121777652D01*
X100502991Y-121787222D01*
X100538729Y-121816552D01*
X100640186Y-121899814D01*
X100723448Y-122001271D01*
X100752778Y-122037009D01*
X100752779Y-122037011D01*
X100836443Y-122193533D01*
X100836443Y-122193534D01*
X100887963Y-122363373D01*
X100905359Y-122540000D01*
X100887963Y-122716627D01*
X100853616Y-122829853D01*
X100836443Y-122886467D01*
X100762348Y-123025087D01*
X100752778Y-123042991D01*
X100723448Y-123078729D01*
X100640186Y-123180186D01*
X100538729Y-123263448D01*
X100502991Y-123292778D01*
X100502989Y-123292779D01*
X100346467Y-123376443D01*
X100289853Y-123393616D01*
X100176627Y-123427963D01*
X100110442Y-123434482D01*
X100044260Y-123441000D01*
X99955740Y-123441000D01*
X99889558Y-123434482D01*
X99823373Y-123427963D01*
X99710147Y-123393616D01*
X99653533Y-123376443D01*
X99497011Y-123292779D01*
X99497009Y-123292778D01*
X99461271Y-123263448D01*
X99359814Y-123180186D01*
X99276552Y-123078729D01*
X99247222Y-123042991D01*
X99237652Y-123025087D01*
X99163557Y-122886467D01*
X99146384Y-122829853D01*
X99112037Y-122716627D01*
X99094641Y-122540000D01*
X99112037Y-122363373D01*
X99163557Y-122193534D01*
X99163557Y-122193533D01*
X99247221Y-122037011D01*
X99247222Y-122037009D01*
X99276552Y-122001271D01*
X99359814Y-121899814D01*
X99461271Y-121816552D01*
X99497009Y-121787222D01*
X99514913Y-121777652D01*
X99653533Y-121703557D01*
X99710147Y-121686384D01*
X99823373Y-121652037D01*
X99889558Y-121645518D01*
X99955740Y-121639000D01*
X100044260Y-121639000D01*
X100110442Y-121645518D01*
X100110442Y-121645518D01*
G37*
G36*
X125110442Y-121645518D02*
X125176627Y-121652037D01*
X125289853Y-121686384D01*
X125346467Y-121703557D01*
X125485087Y-121777652D01*
X125502991Y-121787222D01*
X125538729Y-121816552D01*
X125640186Y-121899814D01*
X125723448Y-122001271D01*
X125752778Y-122037009D01*
X125752779Y-122037011D01*
X125836443Y-122193533D01*
X125836443Y-122193534D01*
X125887963Y-122363373D01*
X125905359Y-122540000D01*
X125887963Y-122716627D01*
X125853616Y-122829853D01*
X125836443Y-122886467D01*
X125762348Y-123025087D01*
X125752778Y-123042991D01*
X125723448Y-123078729D01*
X125640186Y-123180186D01*
X125538729Y-123263448D01*
X125502991Y-123292778D01*
X125502989Y-123292779D01*
X125346467Y-123376443D01*
X125289853Y-123393616D01*
X125176627Y-123427963D01*
X125110442Y-123434482D01*
X125044260Y-123441000D01*
X124955740Y-123441000D01*
X124889558Y-123434482D01*
X124823373Y-123427963D01*
X124710147Y-123393616D01*
X124653533Y-123376443D01*
X124497011Y-123292779D01*
X124497009Y-123292778D01*
X124461271Y-123263448D01*
X124359814Y-123180186D01*
X124276552Y-123078729D01*
X124247222Y-123042991D01*
X124237652Y-123025087D01*
X124163557Y-122886467D01*
X124146384Y-122829853D01*
X124112037Y-122716627D01*
X124094641Y-122540000D01*
X124112037Y-122363373D01*
X124163557Y-122193534D01*
X124163557Y-122193533D01*
X124247221Y-122037011D01*
X124247222Y-122037009D01*
X124276552Y-122001271D01*
X124359814Y-121899814D01*
X124461271Y-121816552D01*
X124497009Y-121787222D01*
X124514913Y-121777652D01*
X124653533Y-121703557D01*
X124710147Y-121686384D01*
X124823373Y-121652037D01*
X124889558Y-121645518D01*
X124955740Y-121639000D01*
X125044260Y-121639000D01*
X125110442Y-121645518D01*
X125110442Y-121645518D01*
G37*
G36*
X133110442Y-121645518D02*
X133176627Y-121652037D01*
X133289853Y-121686384D01*
X133346467Y-121703557D01*
X133485087Y-121777652D01*
X133502991Y-121787222D01*
X133538729Y-121816552D01*
X133640186Y-121899814D01*
X133723448Y-122001271D01*
X133752778Y-122037009D01*
X133752779Y-122037011D01*
X133836443Y-122193533D01*
X133836443Y-122193534D01*
X133887963Y-122363373D01*
X133905359Y-122540000D01*
X133887963Y-122716627D01*
X133853616Y-122829853D01*
X133836443Y-122886467D01*
X133762348Y-123025087D01*
X133752778Y-123042991D01*
X133723448Y-123078729D01*
X133640186Y-123180186D01*
X133538729Y-123263448D01*
X133502991Y-123292778D01*
X133502989Y-123292779D01*
X133346467Y-123376443D01*
X133289853Y-123393616D01*
X133176627Y-123427963D01*
X133110442Y-123434482D01*
X133044260Y-123441000D01*
X132955740Y-123441000D01*
X132889558Y-123434482D01*
X132823373Y-123427963D01*
X132710147Y-123393616D01*
X132653533Y-123376443D01*
X132497011Y-123292779D01*
X132497009Y-123292778D01*
X132461271Y-123263448D01*
X132359814Y-123180186D01*
X132276552Y-123078729D01*
X132247222Y-123042991D01*
X132237652Y-123025087D01*
X132163557Y-122886467D01*
X132146384Y-122829853D01*
X132112037Y-122716627D01*
X132094641Y-122540000D01*
X132112037Y-122363373D01*
X132163557Y-122193534D01*
X132163557Y-122193533D01*
X132247221Y-122037011D01*
X132247222Y-122037009D01*
X132276552Y-122001271D01*
X132359814Y-121899814D01*
X132461271Y-121816552D01*
X132497009Y-121787222D01*
X132514913Y-121777652D01*
X132653533Y-121703557D01*
X132710147Y-121686384D01*
X132823373Y-121652037D01*
X132889558Y-121645518D01*
X132955740Y-121639000D01*
X133044260Y-121639000D01*
X133110442Y-121645518D01*
X133110442Y-121645518D01*
G37*
G36*
X108110442Y-121645518D02*
X108176627Y-121652037D01*
X108289853Y-121686384D01*
X108346467Y-121703557D01*
X108485087Y-121777652D01*
X108502991Y-121787222D01*
X108538729Y-121816552D01*
X108640186Y-121899814D01*
X108723448Y-122001271D01*
X108752778Y-122037009D01*
X108752779Y-122037011D01*
X108836443Y-122193533D01*
X108836443Y-122193534D01*
X108887963Y-122363373D01*
X108905359Y-122540000D01*
X108887963Y-122716627D01*
X108853616Y-122829853D01*
X108836443Y-122886467D01*
X108762348Y-123025087D01*
X108752778Y-123042991D01*
X108723448Y-123078729D01*
X108640186Y-123180186D01*
X108538729Y-123263448D01*
X108502991Y-123292778D01*
X108502989Y-123292779D01*
X108346467Y-123376443D01*
X108289853Y-123393616D01*
X108176627Y-123427963D01*
X108110442Y-123434482D01*
X108044260Y-123441000D01*
X107955740Y-123441000D01*
X107889558Y-123434482D01*
X107823373Y-123427963D01*
X107710147Y-123393616D01*
X107653533Y-123376443D01*
X107497011Y-123292779D01*
X107497009Y-123292778D01*
X107461271Y-123263448D01*
X107359814Y-123180186D01*
X107276552Y-123078729D01*
X107247222Y-123042991D01*
X107237652Y-123025087D01*
X107163557Y-122886467D01*
X107146384Y-122829853D01*
X107112037Y-122716627D01*
X107094641Y-122540000D01*
X107112037Y-122363373D01*
X107163557Y-122193534D01*
X107163557Y-122193533D01*
X107247221Y-122037011D01*
X107247222Y-122037009D01*
X107276552Y-122001271D01*
X107359814Y-121899814D01*
X107461271Y-121816552D01*
X107497009Y-121787222D01*
X107514913Y-121777652D01*
X107653533Y-121703557D01*
X107710147Y-121686384D01*
X107823373Y-121652037D01*
X107889558Y-121645518D01*
X107955740Y-121639000D01*
X108044260Y-121639000D01*
X108110442Y-121645518D01*
X108110442Y-121645518D01*
G37*
G36*
X100901000Y-120901000D02*
X99099000Y-120901000D01*
X99099000Y-119099000D01*
X100901000Y-119099000D01*
X100901000Y-120901000D01*
X100901000Y-120901000D01*
G37*
G36*
X108901000Y-120901000D02*
X107099000Y-120901000D01*
X107099000Y-119099000D01*
X108901000Y-119099000D01*
X108901000Y-120901000D01*
X108901000Y-120901000D01*
G37*
G36*
X133901000Y-120901000D02*
X132099000Y-120901000D01*
X132099000Y-119099000D01*
X133901000Y-119099000D01*
X133901000Y-120901000D01*
X133901000Y-120901000D01*
G37*
G36*
X125901000Y-120901000D02*
X124099000Y-120901000D01*
X124099000Y-119099000D01*
X125901000Y-119099000D01*
X125901000Y-120901000D01*
X125901000Y-120901000D01*
G37*
G36*
X108375256Y-109141298D02*
X108481579Y-109162447D01*
X108782042Y-109286903D01*
X109048852Y-109465180D01*
X109052454Y-109467587D01*
X109282413Y-109697546D01*
X109463098Y-109967960D01*
X109587553Y-110268422D01*
X109651000Y-110587389D01*
X109651000Y-110912611D01*
X109587553Y-111231578D01*
X109463098Y-111532040D01*
X109282413Y-111802454D01*
X109052454Y-112032413D01*
X109052451Y-112032415D01*
X108782042Y-112213097D01*
X108481579Y-112337553D01*
X108375256Y-112358702D01*
X108162611Y-112401000D01*
X107837389Y-112401000D01*
X107624744Y-112358702D01*
X107518421Y-112337553D01*
X107217958Y-112213097D01*
X106947549Y-112032415D01*
X106947546Y-112032413D01*
X106717587Y-111802454D01*
X106536902Y-111532040D01*
X106412447Y-111231578D01*
X106349000Y-110912611D01*
X106349000Y-110587389D01*
X106412447Y-110268422D01*
X106536902Y-109967960D01*
X106717587Y-109697546D01*
X106947546Y-109467587D01*
X106951148Y-109465180D01*
X107217958Y-109286903D01*
X107518421Y-109162447D01*
X107624744Y-109141298D01*
X107837389Y-109099000D01*
X108162611Y-109099000D01*
X108375256Y-109141298D01*
X108375256Y-109141298D01*
G37*
G36*
X133375256Y-109141298D02*
X133481579Y-109162447D01*
X133782042Y-109286903D01*
X134048852Y-109465180D01*
X134052454Y-109467587D01*
X134282413Y-109697546D01*
X134463098Y-109967960D01*
X134587553Y-110268422D01*
X134651000Y-110587389D01*
X134651000Y-110912611D01*
X134587553Y-111231578D01*
X134463098Y-111532040D01*
X134282413Y-111802454D01*
X134052454Y-112032413D01*
X134052451Y-112032415D01*
X133782042Y-112213097D01*
X133481579Y-112337553D01*
X133375256Y-112358702D01*
X133162611Y-112401000D01*
X132837389Y-112401000D01*
X132624744Y-112358702D01*
X132518421Y-112337553D01*
X132217958Y-112213097D01*
X131947549Y-112032415D01*
X131947546Y-112032413D01*
X131717587Y-111802454D01*
X131536902Y-111532040D01*
X131412447Y-111231578D01*
X131349000Y-110912611D01*
X131349000Y-110587389D01*
X131412447Y-110268422D01*
X131536902Y-109967960D01*
X131717587Y-109697546D01*
X131947546Y-109467587D01*
X131951148Y-109465180D01*
X132217958Y-109286903D01*
X132518421Y-109162447D01*
X132624744Y-109141298D01*
X132837389Y-109099000D01*
X133162611Y-109099000D01*
X133375256Y-109141298D01*
X133375256Y-109141298D01*
G37*
G36*
X190375256Y-97891298D02*
X190481579Y-97912447D01*
X190782042Y-98036903D01*
X191048852Y-98215180D01*
X191052454Y-98217587D01*
X191282413Y-98447546D01*
X191463098Y-98717960D01*
X191587553Y-99018422D01*
X191651000Y-99337389D01*
X191651000Y-99662611D01*
X191587553Y-99981578D01*
X191463098Y-100282040D01*
X191282413Y-100552454D01*
X191052454Y-100782413D01*
X191052451Y-100782415D01*
X190782042Y-100963097D01*
X190481579Y-101087553D01*
X190375256Y-101108702D01*
X190162611Y-101151000D01*
X189837389Y-101151000D01*
X189624744Y-101108702D01*
X189518421Y-101087553D01*
X189217958Y-100963097D01*
X188947549Y-100782415D01*
X188947546Y-100782413D01*
X188717587Y-100552454D01*
X188536902Y-100282040D01*
X188412447Y-99981578D01*
X188349000Y-99662611D01*
X188349000Y-99337389D01*
X188412447Y-99018422D01*
X188536902Y-98717960D01*
X188717587Y-98447546D01*
X188947546Y-98217587D01*
X188951148Y-98215180D01*
X189217958Y-98036903D01*
X189518421Y-97912447D01*
X189624744Y-97891298D01*
X189837389Y-97849000D01*
X190162611Y-97849000D01*
X190375256Y-97891298D01*
X190375256Y-97891298D01*
G37*
G36*
X100875256Y-97891298D02*
X100981579Y-97912447D01*
X101282042Y-98036903D01*
X101548852Y-98215180D01*
X101552454Y-98217587D01*
X101782413Y-98447546D01*
X101963098Y-98717960D01*
X102087553Y-99018422D01*
X102151000Y-99337389D01*
X102151000Y-99662611D01*
X102087553Y-99981578D01*
X101963098Y-100282040D01*
X101782413Y-100552454D01*
X101552454Y-100782413D01*
X101552451Y-100782415D01*
X101282042Y-100963097D01*
X100981579Y-101087553D01*
X100875256Y-101108702D01*
X100662611Y-101151000D01*
X100337389Y-101151000D01*
X100124744Y-101108702D01*
X100018421Y-101087553D01*
X99717958Y-100963097D01*
X99447549Y-100782415D01*
X99447546Y-100782413D01*
X99217587Y-100552454D01*
X99036902Y-100282040D01*
X98912447Y-99981578D01*
X98849000Y-99662611D01*
X98849000Y-99337389D01*
X98912447Y-99018422D01*
X99036902Y-98717960D01*
X99217587Y-98447546D01*
X99447546Y-98217587D01*
X99451148Y-98215180D01*
X99717958Y-98036903D01*
X100018421Y-97912447D01*
X100124744Y-97891298D01*
X100337389Y-97849000D01*
X100662611Y-97849000D01*
X100875256Y-97891298D01*
X100875256Y-97891298D01*
G37*
G36*
X153727142Y-79298242D02*
X153875102Y-79359530D01*
X154008258Y-79448502D01*
X154121498Y-79561742D01*
X154210470Y-79694898D01*
X154271758Y-79842858D01*
X154303000Y-79999925D01*
X154303000Y-80160075D01*
X154271758Y-80317142D01*
X154210470Y-80465102D01*
X154121498Y-80598258D01*
X154008258Y-80711498D01*
X153875102Y-80800470D01*
X153727142Y-80861758D01*
X153570075Y-80893000D01*
X153409925Y-80893000D01*
X153252858Y-80861758D01*
X153104898Y-80800470D01*
X152971742Y-80711498D01*
X152858502Y-80598258D01*
X152769530Y-80465102D01*
X152708242Y-80317142D01*
X152677000Y-80160075D01*
X152677000Y-79999925D01*
X152708242Y-79842858D01*
X152769530Y-79694898D01*
X152858502Y-79561742D01*
X152971742Y-79448502D01*
X153104898Y-79359530D01*
X153252858Y-79298242D01*
X153409925Y-79267000D01*
X153570075Y-79267000D01*
X153727142Y-79298242D01*
X153727142Y-79298242D01*
G37*
G36*
X103727142Y-79298242D02*
X103875102Y-79359530D01*
X104008258Y-79448502D01*
X104121498Y-79561742D01*
X104210470Y-79694898D01*
X104271758Y-79842858D01*
X104303000Y-79999925D01*
X104303000Y-80160075D01*
X104271758Y-80317142D01*
X104210470Y-80465102D01*
X104121498Y-80598258D01*
X104008258Y-80711498D01*
X103875102Y-80800470D01*
X103727142Y-80861758D01*
X103570075Y-80893000D01*
X103409925Y-80893000D01*
X103252858Y-80861758D01*
X103104898Y-80800470D01*
X102971742Y-80711498D01*
X102858502Y-80598258D01*
X102769530Y-80465102D01*
X102708242Y-80317142D01*
X102677000Y-80160075D01*
X102677000Y-79999925D01*
X102708242Y-79842858D01*
X102769530Y-79694898D01*
X102858502Y-79561742D01*
X102971742Y-79448502D01*
X103104898Y-79359530D01*
X103252858Y-79298242D01*
X103409925Y-79267000D01*
X103570075Y-79267000D01*
X103727142Y-79298242D01*
X103727142Y-79298242D01*
G37*
G36*
X153727142Y-76758242D02*
X153875102Y-76819530D01*
X154008258Y-76908502D01*
X154121498Y-77021742D01*
X154210470Y-77154898D01*
X154271758Y-77302858D01*
X154303000Y-77459925D01*
X154303000Y-77620075D01*
X154271758Y-77777142D01*
X154210470Y-77925102D01*
X154121498Y-78058258D01*
X154008258Y-78171498D01*
X153875102Y-78260470D01*
X153727142Y-78321758D01*
X153570075Y-78353000D01*
X153409925Y-78353000D01*
X153252858Y-78321758D01*
X153104898Y-78260470D01*
X152971742Y-78171498D01*
X152858502Y-78058258D01*
X152769530Y-77925102D01*
X152708242Y-77777142D01*
X152677000Y-77620075D01*
X152677000Y-77459925D01*
X152708242Y-77302858D01*
X152769530Y-77154898D01*
X152858502Y-77021742D01*
X152971742Y-76908502D01*
X153104898Y-76819530D01*
X153252858Y-76758242D01*
X153409925Y-76727000D01*
X153570075Y-76727000D01*
X153727142Y-76758242D01*
X153727142Y-76758242D01*
G37*
G36*
X103727142Y-76758242D02*
X103875102Y-76819530D01*
X104008258Y-76908502D01*
X104121498Y-77021742D01*
X104210470Y-77154898D01*
X104271758Y-77302858D01*
X104303000Y-77459925D01*
X104303000Y-77620075D01*
X104271758Y-77777142D01*
X104210470Y-77925102D01*
X104121498Y-78058258D01*
X104008258Y-78171498D01*
X103875102Y-78260470D01*
X103727142Y-78321758D01*
X103570075Y-78353000D01*
X103409925Y-78353000D01*
X103252858Y-78321758D01*
X103104898Y-78260470D01*
X102971742Y-78171498D01*
X102858502Y-78058258D01*
X102769530Y-77925102D01*
X102708242Y-77777142D01*
X102677000Y-77620075D01*
X102677000Y-77459925D01*
X102708242Y-77302858D01*
X102769530Y-77154898D01*
X102858502Y-77021742D01*
X102971742Y-76908502D01*
X103104898Y-76819530D01*
X103252858Y-76758242D01*
X103409925Y-76727000D01*
X103570075Y-76727000D01*
X103727142Y-76758242D01*
X103727142Y-76758242D01*
G37*
G36*
X103727142Y-74218242D02*
X103875102Y-74279530D01*
X104008258Y-74368502D01*
X104121498Y-74481742D01*
X104210470Y-74614898D01*
X104271758Y-74762858D01*
X104303000Y-74919925D01*
X104303000Y-75080075D01*
X104271758Y-75237142D01*
X104210470Y-75385102D01*
X104121498Y-75518258D01*
X104008258Y-75631498D01*
X103875102Y-75720470D01*
X103727142Y-75781758D01*
X103570075Y-75813000D01*
X103409925Y-75813000D01*
X103252858Y-75781758D01*
X103104898Y-75720470D01*
X102971742Y-75631498D01*
X102858502Y-75518258D01*
X102769530Y-75385102D01*
X102708242Y-75237142D01*
X102677000Y-75080075D01*
X102677000Y-74919925D01*
X102708242Y-74762858D01*
X102769530Y-74614898D01*
X102858502Y-74481742D01*
X102971742Y-74368502D01*
X103104898Y-74279530D01*
X103252858Y-74218242D01*
X103409925Y-74187000D01*
X103570075Y-74187000D01*
X103727142Y-74218242D01*
X103727142Y-74218242D01*
G37*
G36*
X153727142Y-74218242D02*
X153875102Y-74279530D01*
X154008258Y-74368502D01*
X154121498Y-74481742D01*
X154210470Y-74614898D01*
X154271758Y-74762858D01*
X154303000Y-74919925D01*
X154303000Y-75080075D01*
X154271758Y-75237142D01*
X154210470Y-75385102D01*
X154121498Y-75518258D01*
X154008258Y-75631498D01*
X153875102Y-75720470D01*
X153727142Y-75781758D01*
X153570075Y-75813000D01*
X153409925Y-75813000D01*
X153252858Y-75781758D01*
X153104898Y-75720470D01*
X152971742Y-75631498D01*
X152858502Y-75518258D01*
X152769530Y-75385102D01*
X152708242Y-75237142D01*
X152677000Y-75080075D01*
X152677000Y-74919925D01*
X152708242Y-74762858D01*
X152769530Y-74614898D01*
X152858502Y-74481742D01*
X152971742Y-74368502D01*
X153104898Y-74279530D01*
X153252858Y-74218242D01*
X153409925Y-74187000D01*
X153570075Y-74187000D01*
X153727142Y-74218242D01*
X153727142Y-74218242D01*
G37*
G36*
X153727142Y-71678242D02*
X153875102Y-71739530D01*
X154008258Y-71828502D01*
X154121498Y-71941742D01*
X154210470Y-72074898D01*
X154271758Y-72222858D01*
X154303000Y-72379925D01*
X154303000Y-72540075D01*
X154271758Y-72697142D01*
X154210470Y-72845102D01*
X154121498Y-72978258D01*
X154008258Y-73091498D01*
X153875102Y-73180470D01*
X153727142Y-73241758D01*
X153570075Y-73273000D01*
X153409925Y-73273000D01*
X153252858Y-73241758D01*
X153104898Y-73180470D01*
X152971742Y-73091498D01*
X152858502Y-72978258D01*
X152769530Y-72845102D01*
X152708242Y-72697142D01*
X152677000Y-72540075D01*
X152677000Y-72379925D01*
X152708242Y-72222858D01*
X152769530Y-72074898D01*
X152858502Y-71941742D01*
X152971742Y-71828502D01*
X153104898Y-71739530D01*
X153252858Y-71678242D01*
X153409925Y-71647000D01*
X153570075Y-71647000D01*
X153727142Y-71678242D01*
X153727142Y-71678242D01*
G37*
G36*
X103727142Y-71678242D02*
X103875102Y-71739530D01*
X104008258Y-71828502D01*
X104121498Y-71941742D01*
X104210470Y-72074898D01*
X104271758Y-72222858D01*
X104303000Y-72379925D01*
X104303000Y-72540075D01*
X104271758Y-72697142D01*
X104210470Y-72845102D01*
X104121498Y-72978258D01*
X104008258Y-73091498D01*
X103875102Y-73180470D01*
X103727142Y-73241758D01*
X103570075Y-73273000D01*
X103409925Y-73273000D01*
X103252858Y-73241758D01*
X103104898Y-73180470D01*
X102971742Y-73091498D01*
X102858502Y-72978258D01*
X102769530Y-72845102D01*
X102708242Y-72697142D01*
X102677000Y-72540075D01*
X102677000Y-72379925D01*
X102708242Y-72222858D01*
X102769530Y-72074898D01*
X102858502Y-71941742D01*
X102971742Y-71828502D01*
X103104898Y-71739530D01*
X103252858Y-71678242D01*
X103409925Y-71647000D01*
X103570075Y-71647000D01*
X103727142Y-71678242D01*
X103727142Y-71678242D01*
G37*
G36*
X103727142Y-69138242D02*
X103875102Y-69199530D01*
X104008258Y-69288502D01*
X104121498Y-69401742D01*
X104210470Y-69534898D01*
X104271758Y-69682858D01*
X104303000Y-69839925D01*
X104303000Y-70000075D01*
X104271758Y-70157142D01*
X104210470Y-70305102D01*
X104121498Y-70438258D01*
X104008258Y-70551498D01*
X103875102Y-70640470D01*
X103727142Y-70701758D01*
X103570075Y-70733000D01*
X103409925Y-70733000D01*
X103252858Y-70701758D01*
X103104898Y-70640470D01*
X102971742Y-70551498D01*
X102858502Y-70438258D01*
X102769530Y-70305102D01*
X102708242Y-70157142D01*
X102677000Y-70000075D01*
X102677000Y-69839925D01*
X102708242Y-69682858D01*
X102769530Y-69534898D01*
X102858502Y-69401742D01*
X102971742Y-69288502D01*
X103104898Y-69199530D01*
X103252858Y-69138242D01*
X103409925Y-69107000D01*
X103570075Y-69107000D01*
X103727142Y-69138242D01*
X103727142Y-69138242D01*
G37*
G36*
X153727142Y-69138242D02*
X153875102Y-69199530D01*
X154008258Y-69288502D01*
X154121498Y-69401742D01*
X154210470Y-69534898D01*
X154271758Y-69682858D01*
X154303000Y-69839925D01*
X154303000Y-70000075D01*
X154271758Y-70157142D01*
X154210470Y-70305102D01*
X154121498Y-70438258D01*
X154008258Y-70551498D01*
X153875102Y-70640470D01*
X153727142Y-70701758D01*
X153570075Y-70733000D01*
X153409925Y-70733000D01*
X153252858Y-70701758D01*
X153104898Y-70640470D01*
X152971742Y-70551498D01*
X152858502Y-70438258D01*
X152769530Y-70305102D01*
X152708242Y-70157142D01*
X152677000Y-70000075D01*
X152677000Y-69839925D01*
X152708242Y-69682858D01*
X152769530Y-69534898D01*
X152858502Y-69401742D01*
X152971742Y-69288502D01*
X153104898Y-69199530D01*
X153252858Y-69138242D01*
X153409925Y-69107000D01*
X153570075Y-69107000D01*
X153727142Y-69138242D01*
X153727142Y-69138242D01*
G37*
G36*
X147951000Y-51951000D02*
X146049000Y-51951000D01*
X146049000Y-50049000D01*
X147951000Y-50049000D01*
X147951000Y-51951000D01*
X147951000Y-51951000D01*
G37*
G36*
X144737396Y-50085546D02*
X144910466Y-50157234D01*
X145066230Y-50261312D01*
X145198688Y-50393770D01*
X145302766Y-50549534D01*
X145374454Y-50722604D01*
X145411000Y-50906333D01*
X145411000Y-51093667D01*
X145374454Y-51277396D01*
X145302766Y-51450466D01*
X145198688Y-51606230D01*
X145066230Y-51738688D01*
X144910466Y-51842766D01*
X144737396Y-51914454D01*
X144553667Y-51951000D01*
X144366333Y-51951000D01*
X144182604Y-51914454D01*
X144009534Y-51842766D01*
X143853770Y-51738688D01*
X143721312Y-51606230D01*
X143617234Y-51450466D01*
X143545546Y-51277396D01*
X143509000Y-51093667D01*
X143509000Y-50906333D01*
X143545546Y-50722604D01*
X143617234Y-50549534D01*
X143721312Y-50393770D01*
X143853770Y-50261312D01*
X144009534Y-50157234D01*
X144182604Y-50085546D01*
X144366333Y-50049000D01*
X144553667Y-50049000D01*
X144737396Y-50085546D01*
X144737396Y-50085546D01*
G37*
G36*
X146110443Y-40105519D02*
X146176627Y-40112037D01*
X146289853Y-40146384D01*
X146346467Y-40163557D01*
X146485087Y-40237652D01*
X146502991Y-40247222D01*
X146538729Y-40276552D01*
X146640186Y-40359814D01*
X146723448Y-40461271D01*
X146752778Y-40497009D01*
X146752779Y-40497011D01*
X146836443Y-40653533D01*
X146836443Y-40653534D01*
X146887963Y-40823373D01*
X146905359Y-41000000D01*
X146887963Y-41176627D01*
X146855873Y-41282413D01*
X146836443Y-41346467D01*
X146762348Y-41485087D01*
X146752778Y-41502991D01*
X146723448Y-41538729D01*
X146640186Y-41640186D01*
X146538729Y-41723448D01*
X146502991Y-41752778D01*
X146502989Y-41752779D01*
X146346467Y-41836443D01*
X146289853Y-41853616D01*
X146176627Y-41887963D01*
X146110443Y-41894481D01*
X146044260Y-41901000D01*
X145955740Y-41901000D01*
X145889557Y-41894481D01*
X145823373Y-41887963D01*
X145710147Y-41853616D01*
X145653533Y-41836443D01*
X145497011Y-41752779D01*
X145497009Y-41752778D01*
X145461271Y-41723448D01*
X145359814Y-41640186D01*
X145276552Y-41538729D01*
X145247222Y-41502991D01*
X145237652Y-41485087D01*
X145163557Y-41346467D01*
X145144127Y-41282413D01*
X145112037Y-41176627D01*
X145094641Y-41000000D01*
X145112037Y-40823373D01*
X145163557Y-40653534D01*
X145163557Y-40653533D01*
X145247221Y-40497011D01*
X145247222Y-40497009D01*
X145276552Y-40461271D01*
X145359814Y-40359814D01*
X145461271Y-40276552D01*
X145497009Y-40247222D01*
X145514913Y-40237652D01*
X145653533Y-40163557D01*
X145710147Y-40146384D01*
X145823373Y-40112037D01*
X145889557Y-40105519D01*
X145955740Y-40099000D01*
X146044260Y-40099000D01*
X146110443Y-40105519D01*
X146110443Y-40105519D01*
G37*
G36*
X148650443Y-40105519D02*
X148716627Y-40112037D01*
X148829853Y-40146384D01*
X148886467Y-40163557D01*
X149025087Y-40237652D01*
X149042991Y-40247222D01*
X149078729Y-40276552D01*
X149180186Y-40359814D01*
X149263448Y-40461271D01*
X149292778Y-40497009D01*
X149292779Y-40497011D01*
X149376443Y-40653533D01*
X149376443Y-40653534D01*
X149427963Y-40823373D01*
X149445359Y-41000000D01*
X149427963Y-41176627D01*
X149395873Y-41282413D01*
X149376443Y-41346467D01*
X149302348Y-41485087D01*
X149292778Y-41502991D01*
X149263448Y-41538729D01*
X149180186Y-41640186D01*
X149078729Y-41723448D01*
X149042991Y-41752778D01*
X149042989Y-41752779D01*
X148886467Y-41836443D01*
X148829853Y-41853616D01*
X148716627Y-41887963D01*
X148650443Y-41894481D01*
X148584260Y-41901000D01*
X148495740Y-41901000D01*
X148429557Y-41894481D01*
X148363373Y-41887963D01*
X148250147Y-41853616D01*
X148193533Y-41836443D01*
X148037011Y-41752779D01*
X148037009Y-41752778D01*
X148001271Y-41723448D01*
X147899814Y-41640186D01*
X147816552Y-41538729D01*
X147787222Y-41502991D01*
X147777652Y-41485087D01*
X147703557Y-41346467D01*
X147684127Y-41282413D01*
X147652037Y-41176627D01*
X147634641Y-41000000D01*
X147652037Y-40823373D01*
X147703557Y-40653534D01*
X147703557Y-40653533D01*
X147787221Y-40497011D01*
X147787222Y-40497009D01*
X147816552Y-40461271D01*
X147899814Y-40359814D01*
X148001271Y-40276552D01*
X148037009Y-40247222D01*
X148054913Y-40237652D01*
X148193533Y-40163557D01*
X148250147Y-40146384D01*
X148363373Y-40112037D01*
X148429557Y-40105519D01*
X148495740Y-40099000D01*
X148584260Y-40099000D01*
X148650443Y-40105519D01*
X148650443Y-40105519D01*
G37*
G36*
X151190443Y-40105519D02*
X151256627Y-40112037D01*
X151369853Y-40146384D01*
X151426467Y-40163557D01*
X151565087Y-40237652D01*
X151582991Y-40247222D01*
X151618729Y-40276552D01*
X151720186Y-40359814D01*
X151803448Y-40461271D01*
X151832778Y-40497009D01*
X151832779Y-40497011D01*
X151916443Y-40653533D01*
X151916443Y-40653534D01*
X151967963Y-40823373D01*
X151985359Y-41000000D01*
X151967963Y-41176627D01*
X151935873Y-41282413D01*
X151916443Y-41346467D01*
X151842348Y-41485087D01*
X151832778Y-41502991D01*
X151803448Y-41538729D01*
X151720186Y-41640186D01*
X151618729Y-41723448D01*
X151582991Y-41752778D01*
X151582989Y-41752779D01*
X151426467Y-41836443D01*
X151369853Y-41853616D01*
X151256627Y-41887963D01*
X151190443Y-41894481D01*
X151124260Y-41901000D01*
X151035740Y-41901000D01*
X150969557Y-41894481D01*
X150903373Y-41887963D01*
X150790147Y-41853616D01*
X150733533Y-41836443D01*
X150577011Y-41752779D01*
X150577009Y-41752778D01*
X150541271Y-41723448D01*
X150439814Y-41640186D01*
X150356552Y-41538729D01*
X150327222Y-41502991D01*
X150317652Y-41485087D01*
X150243557Y-41346467D01*
X150224127Y-41282413D01*
X150192037Y-41176627D01*
X150174641Y-41000000D01*
X150192037Y-40823373D01*
X150243557Y-40653534D01*
X150243557Y-40653533D01*
X150327221Y-40497011D01*
X150327222Y-40497009D01*
X150356552Y-40461271D01*
X150439814Y-40359814D01*
X150541271Y-40276552D01*
X150577009Y-40247222D01*
X150594913Y-40237652D01*
X150733533Y-40163557D01*
X150790147Y-40146384D01*
X150903373Y-40112037D01*
X150969557Y-40105519D01*
X151035740Y-40099000D01*
X151124260Y-40099000D01*
X151190443Y-40105519D01*
X151190443Y-40105519D01*
G37*
G36*
X141030443Y-40105519D02*
X141096627Y-40112037D01*
X141209853Y-40146384D01*
X141266467Y-40163557D01*
X141405087Y-40237652D01*
X141422991Y-40247222D01*
X141458729Y-40276552D01*
X141560186Y-40359814D01*
X141643448Y-40461271D01*
X141672778Y-40497009D01*
X141672779Y-40497011D01*
X141756443Y-40653533D01*
X141756443Y-40653534D01*
X141807963Y-40823373D01*
X141825359Y-41000000D01*
X141807963Y-41176627D01*
X141775873Y-41282413D01*
X141756443Y-41346467D01*
X141682348Y-41485087D01*
X141672778Y-41502991D01*
X141643448Y-41538729D01*
X141560186Y-41640186D01*
X141458729Y-41723448D01*
X141422991Y-41752778D01*
X141422989Y-41752779D01*
X141266467Y-41836443D01*
X141209853Y-41853616D01*
X141096627Y-41887963D01*
X141030443Y-41894481D01*
X140964260Y-41901000D01*
X140875740Y-41901000D01*
X140809557Y-41894481D01*
X140743373Y-41887963D01*
X140630147Y-41853616D01*
X140573533Y-41836443D01*
X140417011Y-41752779D01*
X140417009Y-41752778D01*
X140381271Y-41723448D01*
X140279814Y-41640186D01*
X140196552Y-41538729D01*
X140167222Y-41502991D01*
X140157652Y-41485087D01*
X140083557Y-41346467D01*
X140064127Y-41282413D01*
X140032037Y-41176627D01*
X140014641Y-41000000D01*
X140032037Y-40823373D01*
X140083557Y-40653534D01*
X140083557Y-40653533D01*
X140167221Y-40497011D01*
X140167222Y-40497009D01*
X140196552Y-40461271D01*
X140279814Y-40359814D01*
X140381271Y-40276552D01*
X140417009Y-40247222D01*
X140434913Y-40237652D01*
X140573533Y-40163557D01*
X140630147Y-40146384D01*
X140743373Y-40112037D01*
X140809557Y-40105519D01*
X140875740Y-40099000D01*
X140964260Y-40099000D01*
X141030443Y-40105519D01*
X141030443Y-40105519D01*
G37*
G36*
X139281000Y-41901000D02*
X137479000Y-41901000D01*
X137479000Y-40099000D01*
X139281000Y-40099000D01*
X139281000Y-41901000D01*
X139281000Y-41901000D01*
G37*
G36*
X143570443Y-40105519D02*
X143636627Y-40112037D01*
X143749853Y-40146384D01*
X143806467Y-40163557D01*
X143945087Y-40237652D01*
X143962991Y-40247222D01*
X143998729Y-40276552D01*
X144100186Y-40359814D01*
X144183448Y-40461271D01*
X144212778Y-40497009D01*
X144212779Y-40497011D01*
X144296443Y-40653533D01*
X144296443Y-40653534D01*
X144347963Y-40823373D01*
X144365359Y-41000000D01*
X144347963Y-41176627D01*
X144315873Y-41282413D01*
X144296443Y-41346467D01*
X144222348Y-41485087D01*
X144212778Y-41502991D01*
X144183448Y-41538729D01*
X144100186Y-41640186D01*
X143998729Y-41723448D01*
X143962991Y-41752778D01*
X143962989Y-41752779D01*
X143806467Y-41836443D01*
X143749853Y-41853616D01*
X143636627Y-41887963D01*
X143570443Y-41894481D01*
X143504260Y-41901000D01*
X143415740Y-41901000D01*
X143349557Y-41894481D01*
X143283373Y-41887963D01*
X143170147Y-41853616D01*
X143113533Y-41836443D01*
X142957011Y-41752779D01*
X142957009Y-41752778D01*
X142921271Y-41723448D01*
X142819814Y-41640186D01*
X142736552Y-41538729D01*
X142707222Y-41502991D01*
X142697652Y-41485087D01*
X142623557Y-41346467D01*
X142604127Y-41282413D01*
X142572037Y-41176627D01*
X142554641Y-41000000D01*
X142572037Y-40823373D01*
X142623557Y-40653534D01*
X142623557Y-40653533D01*
X142707221Y-40497011D01*
X142707222Y-40497009D01*
X142736552Y-40461271D01*
X142819814Y-40359814D01*
X142921271Y-40276552D01*
X142957009Y-40247222D01*
X142974913Y-40237652D01*
X143113533Y-40163557D01*
X143170147Y-40146384D01*
X143283373Y-40112037D01*
X143349557Y-40105519D01*
X143415740Y-40099000D01*
X143504260Y-40099000D01*
X143570443Y-40105519D01*
X143570443Y-40105519D01*
G37*
G36*
X100375256Y-38391298D02*
X100481579Y-38412447D01*
X100782042Y-38536903D01*
X101048852Y-38715180D01*
X101052454Y-38717587D01*
X101282413Y-38947546D01*
X101463098Y-39217960D01*
X101587553Y-39518422D01*
X101651000Y-39837389D01*
X101651000Y-40162611D01*
X101611774Y-40359814D01*
X101587553Y-40481579D01*
X101516327Y-40653533D01*
X101463098Y-40782040D01*
X101282413Y-41052454D01*
X101052454Y-41282413D01*
X101052451Y-41282415D01*
X100782042Y-41463097D01*
X100481579Y-41587553D01*
X100375256Y-41608702D01*
X100162611Y-41651000D01*
X99837389Y-41651000D01*
X99624744Y-41608702D01*
X99518421Y-41587553D01*
X99217958Y-41463097D01*
X98947549Y-41282415D01*
X98947546Y-41282413D01*
X98717587Y-41052454D01*
X98536902Y-40782040D01*
X98483673Y-40653533D01*
X98412447Y-40481579D01*
X98388226Y-40359814D01*
X98349000Y-40162611D01*
X98349000Y-39837389D01*
X98412447Y-39518422D01*
X98536902Y-39217960D01*
X98717587Y-38947546D01*
X98947546Y-38717587D01*
X98951148Y-38715180D01*
X99217958Y-38536903D01*
X99518421Y-38412447D01*
X99624744Y-38391298D01*
X99837389Y-38349000D01*
X100162611Y-38349000D01*
X100375256Y-38391298D01*
X100375256Y-38391298D01*
G37*
G36*
X190375256Y-38391298D02*
X190481579Y-38412447D01*
X190782042Y-38536903D01*
X191048852Y-38715180D01*
X191052454Y-38717587D01*
X191282413Y-38947546D01*
X191463098Y-39217960D01*
X191587553Y-39518422D01*
X191651000Y-39837389D01*
X191651000Y-40162611D01*
X191611774Y-40359814D01*
X191587553Y-40481579D01*
X191516327Y-40653533D01*
X191463098Y-40782040D01*
X191282413Y-41052454D01*
X191052454Y-41282413D01*
X191052451Y-41282415D01*
X190782042Y-41463097D01*
X190481579Y-41587553D01*
X190375256Y-41608702D01*
X190162611Y-41651000D01*
X189837389Y-41651000D01*
X189624744Y-41608702D01*
X189518421Y-41587553D01*
X189217958Y-41463097D01*
X188947549Y-41282415D01*
X188947546Y-41282413D01*
X188717587Y-41052454D01*
X188536902Y-40782040D01*
X188483673Y-40653533D01*
X188412447Y-40481579D01*
X188388226Y-40359814D01*
X188349000Y-40162611D01*
X188349000Y-39837389D01*
X188412447Y-39518422D01*
X188536902Y-39217960D01*
X188717587Y-38947546D01*
X188947546Y-38717587D01*
X188951148Y-38715180D01*
X189217958Y-38536903D01*
X189518421Y-38412447D01*
X189624744Y-38391298D01*
X189837389Y-38349000D01*
X190162611Y-38349000D01*
X190375256Y-38391298D01*
X190375256Y-38391298D01*
G37*
M02*
