M48
; DRILL file {KiCad (5.1.6-0-10_14)} date Tuesday, June 16, 2020 at 05:38:00 PM
; FORMAT={-:-/ absolute / metric / decimal}
; #@! TF.CreationDate,2020-06-16T17:38:00-04:00
; #@! TF.GenerationSoftware,Kicad,Pcbnew,(5.1.6-0-10_14)
; #@! TF.FileFunction,Plated,1,2,PTH
FMAT,2
METRIC
T1C0.500
T2C0.700
T3C0.800
T4C0.900
T5C1.000
T6C1.100
T7C1.300
T8C1.600
%
G90
G05
T1
X110.49Y-100.33
X114.3Y-100.33
T2
X124.46Y-115.57
X132.08Y-115.57
X106.68Y-115.57
X114.3Y-115.57
X166.37Y-107.95
X173.99Y-107.95
X154.94Y-107.95
X162.56Y-107.95
T3
X167.64Y-116.84
X170.14Y-116.84
X158.75Y-116.84
X161.25Y-116.84
T4
X167.64Y-128.27
X170.18Y-128.27
X158.75Y-128.27
X161.29Y-128.27
T5
X144.78Y-118.84
X147.28Y-118.84
X149.78Y-118.84
X153.67Y-78.74
X156.21Y-78.74
X158.75Y-78.74
X161.29Y-78.74
T6
X104.14Y-92.71
X104.14Y-107.95
X106.68Y-92.71
X106.68Y-95.25
X106.68Y-107.95
X109.22Y-92.71
X109.22Y-107.95
X111.76Y-92.71
X111.76Y-95.25
X111.76Y-107.95
X114.3Y-92.71
X114.3Y-95.25
X114.3Y-107.95
X116.84Y-92.71
X116.84Y-95.25
X116.84Y-107.95
X119.38Y-92.71
X119.38Y-97.79
X119.38Y-100.33
X119.38Y-107.95
X121.92Y-92.71
X121.92Y-97.79
X121.92Y-100.33
X121.92Y-107.95
X124.46Y-92.71
X124.46Y-97.79
X124.46Y-100.33
X124.46Y-107.95
X127.0Y-92.71
X127.0Y-97.79
X127.0Y-100.33
X127.0Y-107.95
X129.54Y-92.71
X129.54Y-97.79
X129.54Y-100.33
X129.54Y-107.95
X132.08Y-92.71
X132.08Y-97.79
X132.08Y-100.33
X132.08Y-107.95
X134.62Y-92.71
X134.62Y-97.79
X134.62Y-100.33
X134.62Y-107.95
X137.16Y-92.71
X137.16Y-95.25
X137.16Y-97.79
X137.16Y-100.33
X137.16Y-102.87
X137.16Y-105.41
X137.16Y-107.95
X146.05Y-100.965
X148.59Y-100.965
X151.13Y-85.725
X151.13Y-100.965
X153.67Y-85.725
X153.67Y-100.965
X156.21Y-85.725
X156.21Y-100.965
X158.75Y-85.725
X158.75Y-100.965
X161.29Y-85.725
X161.29Y-100.965
X163.83Y-85.725
X163.83Y-100.965
X166.37Y-100.965
X168.91Y-100.965
T7
X104.14Y-123.4
X104.14Y-128.4
X116.64Y-123.4
X116.64Y-128.4
X121.92Y-123.4
X121.92Y-128.4
X134.42Y-123.4
X134.42Y-128.4
T8
X109.57Y-82.55
X112.57Y-87.25
X115.57Y-82.55
T0
M30
