%TF.GenerationSoftware,KiCad,Pcbnew,(5.1.6-0-10_14)*%
%TF.CreationDate,2020-06-20T16:27:27-04:00*%
%TF.ProjectId,PhylumScope_Z,5068796c-756d-4536-936f-70655f5a2e6b,rev?*%
%TF.SameCoordinates,Original*%
%TF.FileFunction,Soldermask,Bot*%
%TF.FilePolarity,Negative*%
%FSLAX46Y46*%
G04 Gerber Fmt 4.6, Leading zero omitted, Abs format (unit mm)*
G04 Created by KiCad (PCBNEW (5.1.6-0-10_14)) date 2020-06-20 16:27:27*
%MOMM*%
%LPD*%
G01*
G04 APERTURE LIST*
%ADD10O,2.100000X2.100000*%
%ADD11R,2.100000X2.100000*%
%ADD12C,2.200000*%
%ADD13C,4.400000*%
%ADD14C,1.924000*%
%ADD15C,2.300000*%
%ADD16C,2.000000*%
%ADD17R,2.000000X2.000000*%
%ADD18O,3.448000X2.250000*%
%ADD19O,1.800000X1.800000*%
%ADD20C,1.800000*%
%ADD21R,3.000000X3.000000*%
%ADD22C,3.000000*%
%ADD23R,2.200000X2.200000*%
G04 APERTURE END LIST*
D10*
%TO.C,J2*%
X153670000Y-78740000D03*
X156210000Y-78740000D03*
X158750000Y-78740000D03*
D11*
X161290000Y-78740000D03*
%TD*%
D12*
%TO.C,RV1*%
X149780000Y-118840000D03*
X147280000Y-118840000D03*
X144780000Y-118840000D03*
D13*
X151680000Y-125840000D03*
X142880000Y-125840000D03*
%TD*%
D14*
%TO.C,U2*%
X151130000Y-85725000D03*
X153670000Y-85725000D03*
X156210000Y-85725000D03*
X158750000Y-85725000D03*
X161290000Y-85725000D03*
X163830000Y-85725000D03*
X168910000Y-100965000D03*
X166370000Y-100965000D03*
X163830000Y-100965000D03*
X161290000Y-100965000D03*
X158750000Y-100965000D03*
X156210000Y-100965000D03*
X153670000Y-100965000D03*
X151130000Y-100965000D03*
X148590000Y-100965000D03*
X146050000Y-100965000D03*
%TD*%
D15*
%TO.C,U1*%
X110490000Y-100330000D03*
X114300000Y-100330000D03*
D16*
X119380000Y-97790000D03*
X121920000Y-97790000D03*
X124460000Y-97790000D03*
X127000000Y-97790000D03*
X129540000Y-97790000D03*
X132080000Y-97790000D03*
X134620000Y-97790000D03*
X134620000Y-100330000D03*
X132080000Y-100330000D03*
X129540000Y-100330000D03*
X127000000Y-100330000D03*
X124460000Y-100330000D03*
X121920000Y-100330000D03*
X119380000Y-100330000D03*
D17*
X104140000Y-107950000D03*
D16*
X106680000Y-107950000D03*
X109220000Y-107950000D03*
X111760000Y-107950000D03*
X114300000Y-107950000D03*
X116840000Y-107950000D03*
X119380000Y-107950000D03*
X121920000Y-107950000D03*
X124460000Y-107950000D03*
X127000000Y-107950000D03*
X129540000Y-107950000D03*
X132080000Y-107950000D03*
X134620000Y-107950000D03*
X116840000Y-95250000D03*
X114300000Y-95250000D03*
X111760000Y-95250000D03*
X106680000Y-95250000D03*
X104140000Y-92710000D03*
X106680000Y-92710000D03*
X109220000Y-92710000D03*
X111760000Y-92710000D03*
X114300000Y-92710000D03*
X116840000Y-92710000D03*
X119380000Y-92710000D03*
X121920000Y-92710000D03*
X124460000Y-92710000D03*
X127000000Y-92710000D03*
X129540000Y-92710000D03*
X132080000Y-92710000D03*
X134620000Y-92710000D03*
X137160000Y-107950000D03*
X137160000Y-105410000D03*
X137160000Y-102870000D03*
X137160000Y-92710000D03*
X137160000Y-95250000D03*
X137160000Y-97790000D03*
X137160000Y-100330000D03*
%TD*%
D18*
%TO.C,SW_2*%
X121920000Y-128400000D03*
X121920000Y-123400000D03*
X134420000Y-128400000D03*
X134420000Y-123400000D03*
%TD*%
%TO.C,SW_1*%
X104140000Y-128400000D03*
X104140000Y-123400000D03*
X116640000Y-128400000D03*
X116640000Y-123400000D03*
%TD*%
D19*
%TO.C,R4*%
X173990000Y-107950000D03*
D20*
X166370000Y-107950000D03*
%TD*%
%TO.C,R3*%
X154940000Y-107950000D03*
D19*
X162560000Y-107950000D03*
%TD*%
%TO.C,R2*%
X132080000Y-115570000D03*
D20*
X124460000Y-115570000D03*
%TD*%
D19*
%TO.C,R1*%
X114300000Y-115570000D03*
D20*
X106680000Y-115570000D03*
%TD*%
D21*
%TO.C,J1*%
X115570000Y-82550000D03*
D22*
X109570000Y-82550000D03*
X112570000Y-87250000D03*
%TD*%
D12*
%TO.C,D2*%
X167640000Y-128270000D03*
D23*
X170180000Y-128270000D03*
%TD*%
D12*
%TO.C,D1*%
X158750000Y-128270000D03*
D23*
X161290000Y-128270000D03*
%TD*%
D16*
%TO.C,C2*%
X170140000Y-116840000D03*
D17*
X167640000Y-116840000D03*
%TD*%
D16*
%TO.C,C1*%
X161250000Y-116840000D03*
D17*
X158750000Y-116840000D03*
%TD*%
M02*
