%TF.GenerationSoftware,KiCad,Pcbnew,(5.1.6-0-10_14)*%
%TF.CreationDate,2020-06-20T16:27:27-04:00*%
%TF.ProjectId,PhylumScope_Z,5068796c-756d-4536-936f-70655f5a2e6b,rev?*%
%TF.SameCoordinates,Original*%
%TF.FileFunction,Copper,L2,Bot*%
%TF.FilePolarity,Positive*%
%FSLAX46Y46*%
G04 Gerber Fmt 4.6, Leading zero omitted, Abs format (unit mm)*
G04 Created by KiCad (PCBNEW (5.1.6-0-10_14)) date 2020-06-20 16:27:27*
%MOMM*%
%LPD*%
G01*
G04 APERTURE LIST*
%TA.AperFunction,ComponentPad*%
%ADD10O,1.700000X1.700000*%
%TD*%
%TA.AperFunction,ComponentPad*%
%ADD11R,1.700000X1.700000*%
%TD*%
%TA.AperFunction,ComponentPad*%
%ADD12C,1.800000*%
%TD*%
%TA.AperFunction,WasherPad*%
%ADD13C,4.000000*%
%TD*%
%TA.AperFunction,ComponentPad*%
%ADD14C,1.524000*%
%TD*%
%TA.AperFunction,ComponentPad*%
%ADD15C,1.900000*%
%TD*%
%TA.AperFunction,ComponentPad*%
%ADD16C,1.600000*%
%TD*%
%TA.AperFunction,ComponentPad*%
%ADD17R,1.600000X1.600000*%
%TD*%
%TA.AperFunction,ComponentPad*%
%ADD18O,3.048000X1.850000*%
%TD*%
%TA.AperFunction,ComponentPad*%
%ADD19O,1.400000X1.400000*%
%TD*%
%TA.AperFunction,ComponentPad*%
%ADD20C,1.400000*%
%TD*%
%TA.AperFunction,ComponentPad*%
%ADD21R,2.600000X2.600000*%
%TD*%
%TA.AperFunction,ComponentPad*%
%ADD22C,2.600000*%
%TD*%
%TA.AperFunction,ComponentPad*%
%ADD23R,1.800000X1.800000*%
%TD*%
%TA.AperFunction,Conductor*%
%ADD24C,0.500000*%
%TD*%
%TA.AperFunction,Conductor*%
%ADD25C,0.250000*%
%TD*%
%TA.AperFunction,Conductor*%
%ADD26C,0.400000*%
%TD*%
G04 APERTURE END LIST*
D10*
%TO.P,J2,4*%
%TO.N,Net-(J2-Pad4)*%
X153670000Y-78740000D03*
%TO.P,J2,3*%
%TO.N,Net-(J2-Pad3)*%
X156210000Y-78740000D03*
%TO.P,J2,2*%
%TO.N,Net-(J2-Pad2)*%
X158750000Y-78740000D03*
D11*
%TO.P,J2,1*%
%TO.N,Net-(J2-Pad1)*%
X161290000Y-78740000D03*
%TD*%
D12*
%TO.P,RV1,3*%
%TO.N,/+3.3V*%
X149780000Y-118840000D03*
%TO.P,RV1,2*%
%TO.N,Net-(RV1-Pad2)*%
X147280000Y-118840000D03*
%TO.P,RV1,1*%
%TO.N,GND*%
X144780000Y-118840000D03*
D13*
%TO.P,RV1,*%
%TO.N,*%
X151680000Y-125840000D03*
X142880000Y-125840000D03*
%TD*%
D14*
%TO.P,U2,16*%
%TO.N,Net-(J2-Pad4)*%
X151130000Y-85725000D03*
%TO.P,U2,15*%
%TO.N,Net-(J2-Pad3)*%
X153670000Y-85725000D03*
%TO.P,U2,14*%
%TO.N,GND*%
X156210000Y-85725000D03*
%TO.P,U2,13*%
X158750000Y-85725000D03*
%TO.P,U2,12*%
%TO.N,Net-(J2-Pad2)*%
X161290000Y-85725000D03*
%TO.P,U2,11*%
%TO.N,Net-(J2-Pad1)*%
X163830000Y-85725000D03*
%TO.P,U2,10*%
%TO.N,/+3.3V*%
X168910000Y-100965000D03*
%TO.P,U2,9*%
%TO.N,Net-(U1-Pad6)*%
X166370000Y-100965000D03*
%TO.P,U2,8*%
%TO.N,Net-(U1-Pad7)*%
X163830000Y-100965000D03*
%TO.P,U2,7*%
%TO.N,Net-(U2-Pad7)*%
X161290000Y-100965000D03*
%TO.P,U2,6*%
%TO.N,Net-(U1-Pad8)*%
X158750000Y-100965000D03*
%TO.P,U2,5*%
%TO.N,Net-(U1-Pad9)*%
X156210000Y-100965000D03*
%TO.P,U2,4*%
%TO.N,/+3.3V*%
X153670000Y-100965000D03*
%TO.P,U2,3*%
%TO.N,GND*%
X151130000Y-100965000D03*
%TO.P,U2,2*%
%TO.N,/+3.3V*%
X148590000Y-100965000D03*
%TO.P,U2,1*%
%TO.N,+12V*%
X146050000Y-100965000D03*
%TD*%
D15*
%TO.P,U1,52*%
%TO.N,N/C*%
X110490000Y-100330000D03*
X114300000Y-100330000D03*
D16*
%TO.P,U1,51*%
%TO.N,Net-(U1-Pad51)*%
X119380000Y-97790000D03*
%TO.P,U1,50*%
%TO.N,Net-(U1-Pad50)*%
X121920000Y-97790000D03*
%TO.P,U1,49*%
%TO.N,Net-(U1-Pad49)*%
X124460000Y-97790000D03*
%TO.P,U1,48*%
%TO.N,Net-(U1-Pad48)*%
X127000000Y-97790000D03*
%TO.P,U1,47*%
%TO.N,Net-(U1-Pad47)*%
X129540000Y-97790000D03*
%TO.P,U1,46*%
%TO.N,Net-(U1-Pad46)*%
X132080000Y-97790000D03*
%TO.P,U1,45*%
%TO.N,Net-(U1-Pad45)*%
X134620000Y-97790000D03*
%TO.P,U1,44*%
%TO.N,Net-(U1-Pad44)*%
X134620000Y-100330000D03*
%TO.P,U1,43*%
%TO.N,Net-(U1-Pad43)*%
X132080000Y-100330000D03*
%TO.P,U1,42*%
%TO.N,Net-(U1-Pad42)*%
X129540000Y-100330000D03*
%TO.P,U1,41*%
%TO.N,Net-(U1-Pad41)*%
X127000000Y-100330000D03*
%TO.P,U1,40*%
%TO.N,Net-(U1-Pad40)*%
X124460000Y-100330000D03*
%TO.P,U1,39*%
%TO.N,Net-(U1-Pad39)*%
X121920000Y-100330000D03*
%TO.P,U1,38*%
%TO.N,Net-(U1-Pad38)*%
X119380000Y-100330000D03*
D17*
%TO.P,U1,1*%
%TO.N,GND*%
X104140000Y-107950000D03*
D16*
%TO.P,U1,2*%
%TO.N,Net-(R1-Pad2)*%
X106680000Y-107950000D03*
%TO.P,U1,3*%
%TO.N,Net-(R2-Pad2)*%
X109220000Y-107950000D03*
%TO.P,U1,4*%
%TO.N,Net-(U1-Pad4)*%
X111760000Y-107950000D03*
%TO.P,U1,5*%
%TO.N,Net-(U1-Pad5)*%
X114300000Y-107950000D03*
%TO.P,U1,6*%
%TO.N,Net-(U1-Pad6)*%
X116840000Y-107950000D03*
%TO.P,U1,7*%
%TO.N,Net-(U1-Pad7)*%
X119380000Y-107950000D03*
%TO.P,U1,8*%
%TO.N,Net-(U1-Pad8)*%
X121920000Y-107950000D03*
%TO.P,U1,9*%
%TO.N,Net-(U1-Pad9)*%
X124460000Y-107950000D03*
%TO.P,U1,10*%
%TO.N,Net-(U1-Pad10)*%
X127000000Y-107950000D03*
%TO.P,U1,11*%
%TO.N,Net-(R3-Pad1)*%
X129540000Y-107950000D03*
%TO.P,U1,12*%
%TO.N,Net-(R4-Pad1)*%
X132080000Y-107950000D03*
%TO.P,U1,13*%
%TO.N,Net-(U1-Pad13)*%
X134620000Y-107950000D03*
%TO.P,U1,37*%
%TO.N,Net-(U1-Pad37)*%
X116840000Y-95250000D03*
%TO.P,U1,36*%
%TO.N,Net-(U1-Pad36)*%
X114300000Y-95250000D03*
%TO.P,U1,35*%
%TO.N,Net-(U1-Pad35)*%
X111760000Y-95250000D03*
%TO.P,U1,34*%
%TO.N,Net-(U1-Pad34)*%
X106680000Y-95250000D03*
%TO.P,U1,33*%
%TO.N,Net-(U1-Pad33)*%
X104140000Y-92710000D03*
%TO.P,U1,32*%
%TO.N,Net-(U1-Pad32)*%
X106680000Y-92710000D03*
%TO.P,U1,31*%
%TO.N,/+3.3V*%
X109220000Y-92710000D03*
%TO.P,U1,30*%
%TO.N,Net-(U1-Pad30)*%
X111760000Y-92710000D03*
%TO.P,U1,29*%
%TO.N,Net-(U1-Pad29)*%
X114300000Y-92710000D03*
%TO.P,U1,28*%
%TO.N,Net-(U1-Pad28)*%
X116840000Y-92710000D03*
%TO.P,U1,27*%
%TO.N,Net-(U1-Pad27)*%
X119380000Y-92710000D03*
%TO.P,U1,26*%
%TO.N,Net-(U1-Pad26)*%
X121920000Y-92710000D03*
%TO.P,U1,25*%
%TO.N,Net-(U1-Pad25)*%
X124460000Y-92710000D03*
%TO.P,U1,24*%
%TO.N,Net-(U1-Pad24)*%
X127000000Y-92710000D03*
%TO.P,U1,23*%
%TO.N,Net-(U1-Pad23)*%
X129540000Y-92710000D03*
%TO.P,U1,22*%
%TO.N,Net-(U1-Pad22)*%
X132080000Y-92710000D03*
%TO.P,U1,21*%
%TO.N,Net-(RV1-Pad2)*%
X134620000Y-92710000D03*
%TO.P,U1,14*%
%TO.N,Net-(U1-Pad14)*%
X137160000Y-107950000D03*
%TO.P,U1,15*%
%TO.N,Net-(U1-Pad15)*%
X137160000Y-105410000D03*
%TO.P,U1,16*%
%TO.N,Net-(U1-Pad16)*%
X137160000Y-102870000D03*
%TO.P,U1,20*%
%TO.N,Net-(U1-Pad20)*%
X137160000Y-92710000D03*
%TO.P,U1,19*%
%TO.N,Net-(U1-Pad19)*%
X137160000Y-95250000D03*
%TO.P,U1,18*%
%TO.N,Net-(U1-Pad18)*%
X137160000Y-97790000D03*
%TO.P,U1,17*%
%TO.N,Net-(U1-Pad17)*%
X137160000Y-100330000D03*
%TD*%
D18*
%TO.P,SW_2,2*%
%TO.N,Net-(R2-Pad2)*%
X121920000Y-128400000D03*
%TO.P,SW_2,1*%
%TO.N,GND*%
X121920000Y-123400000D03*
%TO.P,SW_2,2*%
%TO.N,Net-(R2-Pad2)*%
X134420000Y-128400000D03*
%TO.P,SW_2,1*%
%TO.N,GND*%
X134420000Y-123400000D03*
%TD*%
%TO.P,SW_1,2*%
%TO.N,Net-(R1-Pad2)*%
X104140000Y-128400000D03*
%TO.P,SW_1,1*%
%TO.N,GND*%
X104140000Y-123400000D03*
%TO.P,SW_1,2*%
%TO.N,Net-(R1-Pad2)*%
X116640000Y-128400000D03*
%TO.P,SW_1,1*%
%TO.N,GND*%
X116640000Y-123400000D03*
%TD*%
D19*
%TO.P,R4,2*%
%TO.N,Net-(C2-Pad1)*%
X173990000Y-107950000D03*
D20*
%TO.P,R4,1*%
%TO.N,Net-(R4-Pad1)*%
X166370000Y-107950000D03*
%TD*%
%TO.P,R3,1*%
%TO.N,Net-(R3-Pad1)*%
X154940000Y-107950000D03*
D19*
%TO.P,R3,2*%
%TO.N,Net-(C1-Pad1)*%
X162560000Y-107950000D03*
%TD*%
%TO.P,R2,2*%
%TO.N,Net-(R2-Pad2)*%
X132080000Y-115570000D03*
D20*
%TO.P,R2,1*%
%TO.N,/+3.3V*%
X124460000Y-115570000D03*
%TD*%
D19*
%TO.P,R1,2*%
%TO.N,Net-(R1-Pad2)*%
X114300000Y-115570000D03*
D20*
%TO.P,R1,1*%
%TO.N,/+3.3V*%
X106680000Y-115570000D03*
%TD*%
D21*
%TO.P,J1,1*%
%TO.N,+12V*%
X115570000Y-82550000D03*
D22*
%TO.P,J1,2*%
%TO.N,GND*%
X109570000Y-82550000D03*
%TO.P,J1,3*%
X112570000Y-87250000D03*
%TD*%
D12*
%TO.P,D2,2*%
%TO.N,Net-(C2-Pad1)*%
X167640000Y-128270000D03*
D23*
%TO.P,D2,1*%
%TO.N,GND*%
X170180000Y-128270000D03*
%TD*%
D12*
%TO.P,D1,2*%
%TO.N,Net-(C1-Pad1)*%
X158750000Y-128270000D03*
D23*
%TO.P,D1,1*%
%TO.N,GND*%
X161290000Y-128270000D03*
%TD*%
D16*
%TO.P,C2,2*%
%TO.N,GND*%
X170140000Y-116840000D03*
D17*
%TO.P,C2,1*%
%TO.N,Net-(C2-Pad1)*%
X167640000Y-116840000D03*
%TD*%
D16*
%TO.P,C1,2*%
%TO.N,GND*%
X161250000Y-116840000D03*
D17*
%TO.P,C1,1*%
%TO.N,Net-(C1-Pad1)*%
X158750000Y-116840000D03*
%TD*%
D24*
%TO.N,GND*%
X116640000Y-123400000D02*
X104140000Y-123400000D01*
X134420000Y-123400000D02*
X121920000Y-123400000D01*
X121920000Y-123400000D02*
X116640000Y-123400000D01*
X158750000Y-92200000D02*
X158750000Y-85725000D01*
X159125000Y-92575000D02*
X158750000Y-92200000D01*
X158750000Y-85725000D02*
X156210000Y-85725000D01*
X159125000Y-92575000D02*
X157800000Y-92575000D01*
X151130000Y-99245000D02*
X151130000Y-100965000D01*
X157800000Y-92575000D02*
X151130000Y-99245000D01*
X161250000Y-115850000D02*
X161250000Y-116840000D01*
X164475000Y-112625000D02*
X161250000Y-115850000D01*
X166575000Y-104700000D02*
X164750000Y-106525000D01*
X170225000Y-104700000D02*
X166575000Y-104700000D01*
X171450000Y-103475000D02*
X170225000Y-104700000D01*
X164475000Y-106825000D02*
X164475000Y-112625000D01*
X164750000Y-106550000D02*
X164475000Y-106825000D01*
X164750000Y-106525000D02*
X164750000Y-106550000D01*
X171450000Y-97750000D02*
X171450000Y-103475000D01*
X166275000Y-92575000D02*
X171450000Y-97750000D01*
X159125000Y-92575000D02*
X166275000Y-92575000D01*
D25*
%TO.N,Net-(RV1-Pad2)*%
X136398000Y-90932000D02*
X134620000Y-92710000D01*
X138938000Y-90932000D02*
X136398000Y-90932000D01*
X139065000Y-91059000D02*
X138938000Y-90932000D01*
X139065000Y-109300000D02*
X139065000Y-91059000D01*
X147280000Y-117515000D02*
X139065000Y-109300000D01*
X147280000Y-118840000D02*
X147280000Y-117515000D01*
D26*
%TO.N,/+3.3V*%
X149780000Y-102155000D02*
X148590000Y-100965000D01*
X149780000Y-118840000D02*
X149780000Y-102155000D01*
X109220000Y-92710000D02*
X109220000Y-93853000D01*
X109220000Y-93853000D02*
X108331000Y-94742000D01*
X108331000Y-94742000D02*
X108331000Y-96012000D01*
X108331000Y-96012000D02*
X107315000Y-97028000D01*
X107315000Y-97028000D02*
X102489000Y-97028000D01*
X102489000Y-97028000D02*
X102362000Y-97155000D01*
X102362000Y-111252000D02*
X106680000Y-115570000D01*
X102362000Y-97155000D02*
X102362000Y-111252000D01*
X124460000Y-115570000D02*
X123317000Y-115570000D01*
X123317000Y-115570000D02*
X123317000Y-116586000D01*
X123317000Y-116586000D02*
X122936000Y-116967000D01*
X108077000Y-116967000D02*
X106680000Y-115570000D01*
X122936000Y-116967000D02*
X108077000Y-116967000D01*
X149780000Y-102155000D02*
X150034000Y-102155000D01*
X150034000Y-102155000D02*
X150495000Y-102616000D01*
X152019000Y-102616000D02*
X153670000Y-100965000D01*
X150495000Y-102616000D02*
X152019000Y-102616000D01*
X153670000Y-100965000D02*
X155321000Y-102616000D01*
X167259000Y-102616000D02*
X168910000Y-100965000D01*
X155321000Y-102616000D02*
X167259000Y-102616000D01*
X124460000Y-115570000D02*
X124460000Y-116935000D01*
X124460000Y-116935000D02*
X125200000Y-117675000D01*
X125200000Y-117675000D02*
X140375000Y-117675000D01*
X140375000Y-117675000D02*
X144450000Y-121750000D01*
X146870000Y-121750000D02*
X149780000Y-118840000D01*
X144450000Y-121750000D02*
X146870000Y-121750000D01*
%TD*%
M02*
