%TF.GenerationSoftware,KiCad,Pcbnew,(5.1.6-0-10_14)*%
%TF.CreationDate,2020-06-20T16:27:27-04:00*%
%TF.ProjectId,PhylumScope_Z,5068796c-756d-4536-936f-70655f5a2e6b,rev?*%
%TF.SameCoordinates,Original*%
%TF.FileFunction,Legend,Top*%
%TF.FilePolarity,Positive*%
%FSLAX46Y46*%
G04 Gerber Fmt 4.6, Leading zero omitted, Abs format (unit mm)*
G04 Created by KiCad (PCBNEW (5.1.6-0-10_14)) date 2020-06-20 16:27:27*
%MOMM*%
%LPD*%
G01*
G04 APERTURE LIST*
%ADD10C,0.200000*%
%ADD11C,0.120000*%
%ADD12C,0.150000*%
G04 APERTURE END LIST*
D10*
X123803809Y-83392619D02*
X123803809Y-82292619D01*
X124222857Y-82292619D01*
X124327619Y-82345000D01*
X124380000Y-82397380D01*
X124432380Y-82502142D01*
X124432380Y-82659285D01*
X124380000Y-82764047D01*
X124327619Y-82816428D01*
X124222857Y-82868809D01*
X123803809Y-82868809D01*
X124903809Y-83392619D02*
X124903809Y-82292619D01*
X125375238Y-83392619D02*
X125375238Y-82816428D01*
X125322857Y-82711666D01*
X125218095Y-82659285D01*
X125060952Y-82659285D01*
X124956190Y-82711666D01*
X124903809Y-82764047D01*
X125794285Y-82659285D02*
X126056190Y-83392619D01*
X126318095Y-82659285D02*
X126056190Y-83392619D01*
X125951428Y-83654523D01*
X125899047Y-83706904D01*
X125794285Y-83759285D01*
X126894285Y-83392619D02*
X126789523Y-83340238D01*
X126737142Y-83235476D01*
X126737142Y-82292619D01*
X127784761Y-82659285D02*
X127784761Y-83392619D01*
X127313333Y-82659285D02*
X127313333Y-83235476D01*
X127365714Y-83340238D01*
X127470476Y-83392619D01*
X127627619Y-83392619D01*
X127732380Y-83340238D01*
X127784761Y-83287857D01*
X128308571Y-83392619D02*
X128308571Y-82659285D01*
X128308571Y-82764047D02*
X128360952Y-82711666D01*
X128465714Y-82659285D01*
X128622857Y-82659285D01*
X128727619Y-82711666D01*
X128780000Y-82816428D01*
X128780000Y-83392619D01*
X128780000Y-82816428D02*
X128832380Y-82711666D01*
X128937142Y-82659285D01*
X129094285Y-82659285D01*
X129199047Y-82711666D01*
X129251428Y-82816428D01*
X129251428Y-83392619D01*
X129722857Y-83340238D02*
X129880000Y-83392619D01*
X130141904Y-83392619D01*
X130246666Y-83340238D01*
X130299047Y-83287857D01*
X130351428Y-83183095D01*
X130351428Y-83078333D01*
X130299047Y-82973571D01*
X130246666Y-82921190D01*
X130141904Y-82868809D01*
X129932380Y-82816428D01*
X129827619Y-82764047D01*
X129775238Y-82711666D01*
X129722857Y-82606904D01*
X129722857Y-82502142D01*
X129775238Y-82397380D01*
X129827619Y-82345000D01*
X129932380Y-82292619D01*
X130194285Y-82292619D01*
X130351428Y-82345000D01*
X131294285Y-83340238D02*
X131189523Y-83392619D01*
X130980000Y-83392619D01*
X130875238Y-83340238D01*
X130822857Y-83287857D01*
X130770476Y-83183095D01*
X130770476Y-82868809D01*
X130822857Y-82764047D01*
X130875238Y-82711666D01*
X130980000Y-82659285D01*
X131189523Y-82659285D01*
X131294285Y-82711666D01*
X131922857Y-83392619D02*
X131818095Y-83340238D01*
X131765714Y-83287857D01*
X131713333Y-83183095D01*
X131713333Y-82868809D01*
X131765714Y-82764047D01*
X131818095Y-82711666D01*
X131922857Y-82659285D01*
X132080000Y-82659285D01*
X132184761Y-82711666D01*
X132237142Y-82764047D01*
X132289523Y-82868809D01*
X132289523Y-83183095D01*
X132237142Y-83287857D01*
X132184761Y-83340238D01*
X132080000Y-83392619D01*
X131922857Y-83392619D01*
X132760952Y-82659285D02*
X132760952Y-83759285D01*
X132760952Y-82711666D02*
X132865714Y-82659285D01*
X133075238Y-82659285D01*
X133180000Y-82711666D01*
X133232380Y-82764047D01*
X133284761Y-82868809D01*
X133284761Y-83183095D01*
X133232380Y-83287857D01*
X133180000Y-83340238D01*
X133075238Y-83392619D01*
X132865714Y-83392619D01*
X132760952Y-83340238D01*
X134175238Y-83340238D02*
X134070476Y-83392619D01*
X133860952Y-83392619D01*
X133756190Y-83340238D01*
X133703809Y-83235476D01*
X133703809Y-82816428D01*
X133756190Y-82711666D01*
X133860952Y-82659285D01*
X134070476Y-82659285D01*
X134175238Y-82711666D01*
X134227619Y-82816428D01*
X134227619Y-82921190D01*
X133703809Y-83025952D01*
X134437142Y-83497380D02*
X135275238Y-83497380D01*
X135432380Y-82292619D02*
X136165714Y-82292619D01*
X135432380Y-83392619D01*
X136165714Y-83392619D01*
X137318095Y-82659285D02*
X137580000Y-83392619D01*
X137841904Y-82659285D01*
X138470476Y-82292619D02*
X138575238Y-82292619D01*
X138680000Y-82345000D01*
X138732380Y-82397380D01*
X138784761Y-82502142D01*
X138837142Y-82711666D01*
X138837142Y-82973571D01*
X138784761Y-83183095D01*
X138732380Y-83287857D01*
X138680000Y-83340238D01*
X138575238Y-83392619D01*
X138470476Y-83392619D01*
X138365714Y-83340238D01*
X138313333Y-83287857D01*
X138260952Y-83183095D01*
X138208571Y-82973571D01*
X138208571Y-82711666D01*
X138260952Y-82502142D01*
X138313333Y-82397380D01*
X138365714Y-82345000D01*
X138470476Y-82292619D01*
X139308571Y-83287857D02*
X139360952Y-83340238D01*
X139308571Y-83392619D01*
X139256190Y-83340238D01*
X139308571Y-83287857D01*
X139308571Y-83392619D01*
X140408571Y-83392619D02*
X139780000Y-83392619D01*
X140094285Y-83392619D02*
X140094285Y-82292619D01*
X139989523Y-82449761D01*
X139884761Y-82554523D01*
X139780000Y-82606904D01*
X128203809Y-84509285D02*
X128203809Y-85609285D01*
X128203809Y-84561666D02*
X128308571Y-84509285D01*
X128518095Y-84509285D01*
X128622857Y-84561666D01*
X128675238Y-84614047D01*
X128727619Y-84718809D01*
X128727619Y-85033095D01*
X128675238Y-85137857D01*
X128622857Y-85190238D01*
X128518095Y-85242619D01*
X128308571Y-85242619D01*
X128203809Y-85190238D01*
X129199047Y-85242619D02*
X129199047Y-84142619D01*
X129670476Y-85242619D02*
X129670476Y-84666428D01*
X129618095Y-84561666D01*
X129513333Y-84509285D01*
X129356190Y-84509285D01*
X129251428Y-84561666D01*
X129199047Y-84614047D01*
X130089523Y-84509285D02*
X130351428Y-85242619D01*
X130613333Y-84509285D02*
X130351428Y-85242619D01*
X130246666Y-85504523D01*
X130194285Y-85556904D01*
X130089523Y-85609285D01*
X131189523Y-85242619D02*
X131084761Y-85190238D01*
X131032380Y-85085476D01*
X131032380Y-84142619D01*
X132080000Y-84509285D02*
X132080000Y-85242619D01*
X131608571Y-84509285D02*
X131608571Y-85085476D01*
X131660952Y-85190238D01*
X131765714Y-85242619D01*
X131922857Y-85242619D01*
X132027619Y-85190238D01*
X132080000Y-85137857D01*
X132603809Y-85242619D02*
X132603809Y-84509285D01*
X132603809Y-84614047D02*
X132656190Y-84561666D01*
X132760952Y-84509285D01*
X132918095Y-84509285D01*
X133022857Y-84561666D01*
X133075238Y-84666428D01*
X133075238Y-85242619D01*
X133075238Y-84666428D02*
X133127619Y-84561666D01*
X133232380Y-84509285D01*
X133389523Y-84509285D01*
X133494285Y-84561666D01*
X133546666Y-84666428D01*
X133546666Y-85242619D01*
X134070476Y-85137857D02*
X134122857Y-85190238D01*
X134070476Y-85242619D01*
X134018095Y-85190238D01*
X134070476Y-85137857D01*
X134070476Y-85242619D01*
X135065714Y-85190238D02*
X134960952Y-85242619D01*
X134751428Y-85242619D01*
X134646666Y-85190238D01*
X134594285Y-85137857D01*
X134541904Y-85033095D01*
X134541904Y-84718809D01*
X134594285Y-84614047D01*
X134646666Y-84561666D01*
X134751428Y-84509285D01*
X134960952Y-84509285D01*
X135065714Y-84561666D01*
X136008571Y-85190238D02*
X135903809Y-85242619D01*
X135694285Y-85242619D01*
X135589523Y-85190238D01*
X135537142Y-85137857D01*
X135484761Y-85033095D01*
X135484761Y-84718809D01*
X135537142Y-84614047D01*
X135589523Y-84561666D01*
X135694285Y-84509285D01*
X135903809Y-84509285D01*
X136008571Y-84561666D01*
D11*
%TO.C,J2*%
X162620000Y-77410000D02*
X162620000Y-78740000D01*
X161290000Y-77410000D02*
X162620000Y-77410000D01*
X160020000Y-77410000D02*
X160020000Y-80070000D01*
X160020000Y-80070000D02*
X152340000Y-80070000D01*
X160020000Y-77410000D02*
X152340000Y-77410000D01*
X152340000Y-77410000D02*
X152340000Y-80070000D01*
%TO.C,RV1*%
X152301000Y-119720000D02*
X152301000Y-123657000D01*
X152301000Y-128024000D02*
X152301000Y-131960000D01*
X142260000Y-119720000D02*
X142260000Y-123657000D01*
X142260000Y-128024000D02*
X142260000Y-131960000D01*
X152301000Y-119720000D02*
X150651000Y-119720000D01*
X148909000Y-119720000D02*
X148150000Y-119720000D01*
X146409000Y-119720000D02*
X145650000Y-119720000D01*
X143910000Y-119720000D02*
X142260000Y-119720000D01*
X152301000Y-131960000D02*
X142260000Y-131960000D01*
D12*
%TO.C,U2*%
X170180000Y-86360000D02*
G75*
G03*
X170180000Y-86360000I-1270000J0D01*
G01*
X147320000Y-86360000D02*
G75*
G03*
X147320000Y-86360000I-1270000J0D01*
G01*
X144145000Y-84455000D02*
X144145000Y-103505000D01*
X170815000Y-84455000D02*
X144145000Y-84455000D01*
X170815000Y-103505000D02*
X170815000Y-84455000D01*
X144145000Y-103505000D02*
X170815000Y-103505000D01*
%TO.C,U1*%
X102870000Y-104140000D02*
X101600000Y-104140000D01*
X101600000Y-104140000D02*
X101600000Y-96520000D01*
X101600000Y-96520000D02*
X102870000Y-96520000D01*
X114300000Y-105410000D02*
X118110000Y-105410000D01*
X118110000Y-105410000D02*
X118110000Y-102870000D01*
X118110000Y-102870000D02*
X114300000Y-102870000D01*
X114300000Y-102870000D02*
X114300000Y-105410000D01*
X107950000Y-104140000D02*
X107950000Y-96520000D01*
X107950000Y-96520000D02*
X102870000Y-96520000D01*
X107950000Y-104140000D02*
X102870000Y-104140000D01*
X109220000Y-105410000D02*
X111760000Y-105410000D01*
X111760000Y-105410000D02*
X111760000Y-102870000D01*
X111760000Y-102870000D02*
X109220000Y-102870000D01*
X109220000Y-102870000D02*
X109220000Y-105410000D01*
X135890000Y-97790000D02*
X135890000Y-102870000D01*
X135890000Y-102870000D02*
X133350000Y-102870000D01*
X133350000Y-102870000D02*
X133350000Y-97790000D01*
X133350000Y-97790000D02*
X135890000Y-97790000D01*
X129540000Y-105410000D02*
X129540000Y-95250000D01*
X120650000Y-95250000D02*
X120650000Y-105410000D01*
X129540000Y-95250000D02*
X120650000Y-95250000D01*
X129540000Y-105410000D02*
X120650000Y-105410000D01*
X102870000Y-91440000D02*
X138430000Y-91440000D01*
X138430000Y-91440000D02*
X138430000Y-109220000D01*
X138430000Y-109220000D02*
X102870000Y-109220000D01*
X102870000Y-109220000D02*
X102870000Y-91440000D01*
D11*
%TO.C,SW_2*%
X134320000Y-119750000D02*
X134320000Y-122470000D01*
X134320000Y-129330000D02*
X134320000Y-132050000D01*
X122020000Y-127470000D02*
X122020000Y-124330000D01*
X122020000Y-132050000D02*
X122020000Y-129330000D01*
X132849050Y-125940000D02*
G75*
G03*
X132849050Y-125940000I-4579050J0D01*
G01*
X122020000Y-122470000D02*
X122020000Y-119750000D01*
X134320000Y-132050000D02*
X122020000Y-132050000D01*
X134320000Y-124330000D02*
X134320000Y-127470000D01*
X122020000Y-119750000D02*
X134320000Y-119750000D01*
%TO.C,SW_1*%
X116540000Y-119750000D02*
X116540000Y-122470000D01*
X116540000Y-129330000D02*
X116540000Y-132050000D01*
X104240000Y-127470000D02*
X104240000Y-124330000D01*
X104240000Y-132050000D02*
X104240000Y-129330000D01*
X115069050Y-125940000D02*
G75*
G03*
X115069050Y-125940000I-4579050J0D01*
G01*
X104240000Y-122470000D02*
X104240000Y-119750000D01*
X116540000Y-132050000D02*
X104240000Y-132050000D01*
X116540000Y-124330000D02*
X116540000Y-127470000D01*
X104240000Y-119750000D02*
X116540000Y-119750000D01*
%TO.C,R4*%
X173050000Y-107950000D02*
X172100000Y-107950000D01*
X167310000Y-107950000D02*
X168260000Y-107950000D01*
X172100000Y-107030000D02*
X168260000Y-107030000D01*
X172100000Y-108870000D02*
X172100000Y-107030000D01*
X168260000Y-108870000D02*
X172100000Y-108870000D01*
X168260000Y-107030000D02*
X168260000Y-108870000D01*
%TO.C,R3*%
X156830000Y-107030000D02*
X156830000Y-108870000D01*
X156830000Y-108870000D02*
X160670000Y-108870000D01*
X160670000Y-108870000D02*
X160670000Y-107030000D01*
X160670000Y-107030000D02*
X156830000Y-107030000D01*
X155880000Y-107950000D02*
X156830000Y-107950000D01*
X161620000Y-107950000D02*
X160670000Y-107950000D01*
%TO.C,R2*%
X131140000Y-115570000D02*
X130190000Y-115570000D01*
X125400000Y-115570000D02*
X126350000Y-115570000D01*
X130190000Y-114650000D02*
X126350000Y-114650000D01*
X130190000Y-116490000D02*
X130190000Y-114650000D01*
X126350000Y-116490000D02*
X130190000Y-116490000D01*
X126350000Y-114650000D02*
X126350000Y-116490000D01*
%TO.C,R1*%
X113360000Y-115570000D02*
X112410000Y-115570000D01*
X107620000Y-115570000D02*
X108570000Y-115570000D01*
X112410000Y-114650000D02*
X108570000Y-114650000D01*
X112410000Y-116490000D02*
X112410000Y-114650000D01*
X108570000Y-116490000D02*
X112410000Y-116490000D01*
X108570000Y-114650000D02*
X108570000Y-116490000D01*
%TO.C,J1*%
X110770000Y-87150000D02*
X101770000Y-87150000D01*
X101770000Y-87150000D02*
X101770000Y-77950000D01*
X101770000Y-77950000D02*
X116370000Y-77950000D01*
X116370000Y-77950000D02*
X116370000Y-80750000D01*
X116370000Y-84350000D02*
X116370000Y-87150000D01*
X116370000Y-87150000D02*
X114370000Y-87150000D01*
X114870000Y-77710000D02*
X116610000Y-77710000D01*
X116610000Y-77710000D02*
X116610000Y-79450000D01*
%TO.C,D2*%
X171470000Y-129815000D02*
X171470000Y-126725000D01*
X171410000Y-128270000D02*
G75*
G03*
X171410000Y-128270000I-2500000J0D01*
G01*
X165920000Y-128270462D02*
G75*
G02*
X171470000Y-126725170I2990000J462D01*
G01*
X165920000Y-128269538D02*
G75*
G03*
X171470000Y-129814830I2990000J-462D01*
G01*
%TO.C,D1*%
X162580000Y-129815000D02*
X162580000Y-126725000D01*
X162520000Y-128270000D02*
G75*
G03*
X162520000Y-128270000I-2500000J0D01*
G01*
X157030000Y-128270462D02*
G75*
G02*
X162580000Y-126725170I2990000J462D01*
G01*
X157030000Y-128269538D02*
G75*
G03*
X162580000Y-129814830I2990000J-462D01*
G01*
%TO.C,C2*%
X165704759Y-114686000D02*
X165704759Y-115316000D01*
X165389759Y-115001000D02*
X166019759Y-115001000D01*
X172131000Y-116438000D02*
X172131000Y-117242000D01*
X172091000Y-116207000D02*
X172091000Y-117473000D01*
X172051000Y-116038000D02*
X172051000Y-117642000D01*
X172011000Y-115900000D02*
X172011000Y-117780000D01*
X171971000Y-115781000D02*
X171971000Y-117899000D01*
X171931000Y-115675000D02*
X171931000Y-118005000D01*
X171891000Y-115578000D02*
X171891000Y-118102000D01*
X171851000Y-115490000D02*
X171851000Y-118190000D01*
X171811000Y-115408000D02*
X171811000Y-118272000D01*
X171771000Y-115331000D02*
X171771000Y-118349000D01*
X171731000Y-115259000D02*
X171731000Y-118421000D01*
X171691000Y-115190000D02*
X171691000Y-118490000D01*
X171651000Y-115126000D02*
X171651000Y-118554000D01*
X171611000Y-115064000D02*
X171611000Y-118616000D01*
X171571000Y-115006000D02*
X171571000Y-118674000D01*
X171531000Y-114950000D02*
X171531000Y-118730000D01*
X171491000Y-114896000D02*
X171491000Y-118784000D01*
X171451000Y-114845000D02*
X171451000Y-118835000D01*
X171411000Y-114796000D02*
X171411000Y-118884000D01*
X171371000Y-114748000D02*
X171371000Y-118932000D01*
X171331000Y-114703000D02*
X171331000Y-118977000D01*
X171291000Y-114658000D02*
X171291000Y-119022000D01*
X171251000Y-114616000D02*
X171251000Y-119064000D01*
X171211000Y-114575000D02*
X171211000Y-119105000D01*
X171171000Y-117880000D02*
X171171000Y-119145000D01*
X171171000Y-114535000D02*
X171171000Y-115800000D01*
X171131000Y-117880000D02*
X171131000Y-119183000D01*
X171131000Y-114497000D02*
X171131000Y-115800000D01*
X171091000Y-117880000D02*
X171091000Y-119220000D01*
X171091000Y-114460000D02*
X171091000Y-115800000D01*
X171051000Y-117880000D02*
X171051000Y-119256000D01*
X171051000Y-114424000D02*
X171051000Y-115800000D01*
X171011000Y-117880000D02*
X171011000Y-119290000D01*
X171011000Y-114390000D02*
X171011000Y-115800000D01*
X170971000Y-117880000D02*
X170971000Y-119324000D01*
X170971000Y-114356000D02*
X170971000Y-115800000D01*
X170931000Y-117880000D02*
X170931000Y-119356000D01*
X170931000Y-114324000D02*
X170931000Y-115800000D01*
X170891000Y-117880000D02*
X170891000Y-119388000D01*
X170891000Y-114292000D02*
X170891000Y-115800000D01*
X170851000Y-117880000D02*
X170851000Y-119418000D01*
X170851000Y-114262000D02*
X170851000Y-115800000D01*
X170811000Y-117880000D02*
X170811000Y-119447000D01*
X170811000Y-114233000D02*
X170811000Y-115800000D01*
X170771000Y-117880000D02*
X170771000Y-119476000D01*
X170771000Y-114204000D02*
X170771000Y-115800000D01*
X170731000Y-117880000D02*
X170731000Y-119504000D01*
X170731000Y-114176000D02*
X170731000Y-115800000D01*
X170691000Y-117880000D02*
X170691000Y-119530000D01*
X170691000Y-114150000D02*
X170691000Y-115800000D01*
X170651000Y-117880000D02*
X170651000Y-119556000D01*
X170651000Y-114124000D02*
X170651000Y-115800000D01*
X170611000Y-117880000D02*
X170611000Y-119582000D01*
X170611000Y-114098000D02*
X170611000Y-115800000D01*
X170571000Y-117880000D02*
X170571000Y-119606000D01*
X170571000Y-114074000D02*
X170571000Y-115800000D01*
X170531000Y-117880000D02*
X170531000Y-119630000D01*
X170531000Y-114050000D02*
X170531000Y-115800000D01*
X170491000Y-117880000D02*
X170491000Y-119652000D01*
X170491000Y-114028000D02*
X170491000Y-115800000D01*
X170451000Y-117880000D02*
X170451000Y-119674000D01*
X170451000Y-114006000D02*
X170451000Y-115800000D01*
X170411000Y-117880000D02*
X170411000Y-119696000D01*
X170411000Y-113984000D02*
X170411000Y-115800000D01*
X170371000Y-117880000D02*
X170371000Y-119716000D01*
X170371000Y-113964000D02*
X170371000Y-115800000D01*
X170331000Y-117880000D02*
X170331000Y-119736000D01*
X170331000Y-113944000D02*
X170331000Y-115800000D01*
X170291000Y-117880000D02*
X170291000Y-119756000D01*
X170291000Y-113924000D02*
X170291000Y-115800000D01*
X170251000Y-117880000D02*
X170251000Y-119774000D01*
X170251000Y-113906000D02*
X170251000Y-115800000D01*
X170211000Y-117880000D02*
X170211000Y-119792000D01*
X170211000Y-113888000D02*
X170211000Y-115800000D01*
X170171000Y-117880000D02*
X170171000Y-119810000D01*
X170171000Y-113870000D02*
X170171000Y-115800000D01*
X170131000Y-117880000D02*
X170131000Y-119826000D01*
X170131000Y-113854000D02*
X170131000Y-115800000D01*
X170091000Y-117880000D02*
X170091000Y-119842000D01*
X170091000Y-113838000D02*
X170091000Y-115800000D01*
X170051000Y-117880000D02*
X170051000Y-119858000D01*
X170051000Y-113822000D02*
X170051000Y-115800000D01*
X170011000Y-117880000D02*
X170011000Y-119873000D01*
X170011000Y-113807000D02*
X170011000Y-115800000D01*
X169971000Y-117880000D02*
X169971000Y-119887000D01*
X169971000Y-113793000D02*
X169971000Y-115800000D01*
X169931000Y-117880000D02*
X169931000Y-119901000D01*
X169931000Y-113779000D02*
X169931000Y-115800000D01*
X169891000Y-117880000D02*
X169891000Y-119914000D01*
X169891000Y-113766000D02*
X169891000Y-115800000D01*
X169851000Y-117880000D02*
X169851000Y-119926000D01*
X169851000Y-113754000D02*
X169851000Y-115800000D01*
X169811000Y-117880000D02*
X169811000Y-119938000D01*
X169811000Y-113742000D02*
X169811000Y-115800000D01*
X169771000Y-117880000D02*
X169771000Y-119950000D01*
X169771000Y-113730000D02*
X169771000Y-115800000D01*
X169731000Y-117880000D02*
X169731000Y-119961000D01*
X169731000Y-113719000D02*
X169731000Y-115800000D01*
X169691000Y-117880000D02*
X169691000Y-119971000D01*
X169691000Y-113709000D02*
X169691000Y-115800000D01*
X169651000Y-117880000D02*
X169651000Y-119981000D01*
X169651000Y-113699000D02*
X169651000Y-115800000D01*
X169611000Y-117880000D02*
X169611000Y-119990000D01*
X169611000Y-113690000D02*
X169611000Y-115800000D01*
X169570000Y-117880000D02*
X169570000Y-119999000D01*
X169570000Y-113681000D02*
X169570000Y-115800000D01*
X169530000Y-117880000D02*
X169530000Y-120007000D01*
X169530000Y-113673000D02*
X169530000Y-115800000D01*
X169490000Y-117880000D02*
X169490000Y-120015000D01*
X169490000Y-113665000D02*
X169490000Y-115800000D01*
X169450000Y-117880000D02*
X169450000Y-120022000D01*
X169450000Y-113658000D02*
X169450000Y-115800000D01*
X169410000Y-117880000D02*
X169410000Y-120029000D01*
X169410000Y-113651000D02*
X169410000Y-115800000D01*
X169370000Y-117880000D02*
X169370000Y-120035000D01*
X169370000Y-113645000D02*
X169370000Y-115800000D01*
X169330000Y-117880000D02*
X169330000Y-120041000D01*
X169330000Y-113639000D02*
X169330000Y-115800000D01*
X169290000Y-117880000D02*
X169290000Y-120046000D01*
X169290000Y-113634000D02*
X169290000Y-115800000D01*
X169250000Y-117880000D02*
X169250000Y-120051000D01*
X169250000Y-113629000D02*
X169250000Y-115800000D01*
X169210000Y-117880000D02*
X169210000Y-120055000D01*
X169210000Y-113625000D02*
X169210000Y-115800000D01*
X169170000Y-117880000D02*
X169170000Y-120058000D01*
X169170000Y-113622000D02*
X169170000Y-115800000D01*
X169130000Y-117880000D02*
X169130000Y-120062000D01*
X169130000Y-113618000D02*
X169130000Y-115800000D01*
X169090000Y-113616000D02*
X169090000Y-120064000D01*
X169050000Y-113613000D02*
X169050000Y-120067000D01*
X169010000Y-113612000D02*
X169010000Y-120068000D01*
X168970000Y-113610000D02*
X168970000Y-120070000D01*
X168930000Y-113610000D02*
X168930000Y-120070000D01*
X168890000Y-113610000D02*
X168890000Y-120070000D01*
X172160000Y-116840000D02*
G75*
G03*
X172160000Y-116840000I-3270000J0D01*
G01*
%TO.C,C1*%
X156814759Y-114686000D02*
X156814759Y-115316000D01*
X156499759Y-115001000D02*
X157129759Y-115001000D01*
X163241000Y-116438000D02*
X163241000Y-117242000D01*
X163201000Y-116207000D02*
X163201000Y-117473000D01*
X163161000Y-116038000D02*
X163161000Y-117642000D01*
X163121000Y-115900000D02*
X163121000Y-117780000D01*
X163081000Y-115781000D02*
X163081000Y-117899000D01*
X163041000Y-115675000D02*
X163041000Y-118005000D01*
X163001000Y-115578000D02*
X163001000Y-118102000D01*
X162961000Y-115490000D02*
X162961000Y-118190000D01*
X162921000Y-115408000D02*
X162921000Y-118272000D01*
X162881000Y-115331000D02*
X162881000Y-118349000D01*
X162841000Y-115259000D02*
X162841000Y-118421000D01*
X162801000Y-115190000D02*
X162801000Y-118490000D01*
X162761000Y-115126000D02*
X162761000Y-118554000D01*
X162721000Y-115064000D02*
X162721000Y-118616000D01*
X162681000Y-115006000D02*
X162681000Y-118674000D01*
X162641000Y-114950000D02*
X162641000Y-118730000D01*
X162601000Y-114896000D02*
X162601000Y-118784000D01*
X162561000Y-114845000D02*
X162561000Y-118835000D01*
X162521000Y-114796000D02*
X162521000Y-118884000D01*
X162481000Y-114748000D02*
X162481000Y-118932000D01*
X162441000Y-114703000D02*
X162441000Y-118977000D01*
X162401000Y-114658000D02*
X162401000Y-119022000D01*
X162361000Y-114616000D02*
X162361000Y-119064000D01*
X162321000Y-114575000D02*
X162321000Y-119105000D01*
X162281000Y-117880000D02*
X162281000Y-119145000D01*
X162281000Y-114535000D02*
X162281000Y-115800000D01*
X162241000Y-117880000D02*
X162241000Y-119183000D01*
X162241000Y-114497000D02*
X162241000Y-115800000D01*
X162201000Y-117880000D02*
X162201000Y-119220000D01*
X162201000Y-114460000D02*
X162201000Y-115800000D01*
X162161000Y-117880000D02*
X162161000Y-119256000D01*
X162161000Y-114424000D02*
X162161000Y-115800000D01*
X162121000Y-117880000D02*
X162121000Y-119290000D01*
X162121000Y-114390000D02*
X162121000Y-115800000D01*
X162081000Y-117880000D02*
X162081000Y-119324000D01*
X162081000Y-114356000D02*
X162081000Y-115800000D01*
X162041000Y-117880000D02*
X162041000Y-119356000D01*
X162041000Y-114324000D02*
X162041000Y-115800000D01*
X162001000Y-117880000D02*
X162001000Y-119388000D01*
X162001000Y-114292000D02*
X162001000Y-115800000D01*
X161961000Y-117880000D02*
X161961000Y-119418000D01*
X161961000Y-114262000D02*
X161961000Y-115800000D01*
X161921000Y-117880000D02*
X161921000Y-119447000D01*
X161921000Y-114233000D02*
X161921000Y-115800000D01*
X161881000Y-117880000D02*
X161881000Y-119476000D01*
X161881000Y-114204000D02*
X161881000Y-115800000D01*
X161841000Y-117880000D02*
X161841000Y-119504000D01*
X161841000Y-114176000D02*
X161841000Y-115800000D01*
X161801000Y-117880000D02*
X161801000Y-119530000D01*
X161801000Y-114150000D02*
X161801000Y-115800000D01*
X161761000Y-117880000D02*
X161761000Y-119556000D01*
X161761000Y-114124000D02*
X161761000Y-115800000D01*
X161721000Y-117880000D02*
X161721000Y-119582000D01*
X161721000Y-114098000D02*
X161721000Y-115800000D01*
X161681000Y-117880000D02*
X161681000Y-119606000D01*
X161681000Y-114074000D02*
X161681000Y-115800000D01*
X161641000Y-117880000D02*
X161641000Y-119630000D01*
X161641000Y-114050000D02*
X161641000Y-115800000D01*
X161601000Y-117880000D02*
X161601000Y-119652000D01*
X161601000Y-114028000D02*
X161601000Y-115800000D01*
X161561000Y-117880000D02*
X161561000Y-119674000D01*
X161561000Y-114006000D02*
X161561000Y-115800000D01*
X161521000Y-117880000D02*
X161521000Y-119696000D01*
X161521000Y-113984000D02*
X161521000Y-115800000D01*
X161481000Y-117880000D02*
X161481000Y-119716000D01*
X161481000Y-113964000D02*
X161481000Y-115800000D01*
X161441000Y-117880000D02*
X161441000Y-119736000D01*
X161441000Y-113944000D02*
X161441000Y-115800000D01*
X161401000Y-117880000D02*
X161401000Y-119756000D01*
X161401000Y-113924000D02*
X161401000Y-115800000D01*
X161361000Y-117880000D02*
X161361000Y-119774000D01*
X161361000Y-113906000D02*
X161361000Y-115800000D01*
X161321000Y-117880000D02*
X161321000Y-119792000D01*
X161321000Y-113888000D02*
X161321000Y-115800000D01*
X161281000Y-117880000D02*
X161281000Y-119810000D01*
X161281000Y-113870000D02*
X161281000Y-115800000D01*
X161241000Y-117880000D02*
X161241000Y-119826000D01*
X161241000Y-113854000D02*
X161241000Y-115800000D01*
X161201000Y-117880000D02*
X161201000Y-119842000D01*
X161201000Y-113838000D02*
X161201000Y-115800000D01*
X161161000Y-117880000D02*
X161161000Y-119858000D01*
X161161000Y-113822000D02*
X161161000Y-115800000D01*
X161121000Y-117880000D02*
X161121000Y-119873000D01*
X161121000Y-113807000D02*
X161121000Y-115800000D01*
X161081000Y-117880000D02*
X161081000Y-119887000D01*
X161081000Y-113793000D02*
X161081000Y-115800000D01*
X161041000Y-117880000D02*
X161041000Y-119901000D01*
X161041000Y-113779000D02*
X161041000Y-115800000D01*
X161001000Y-117880000D02*
X161001000Y-119914000D01*
X161001000Y-113766000D02*
X161001000Y-115800000D01*
X160961000Y-117880000D02*
X160961000Y-119926000D01*
X160961000Y-113754000D02*
X160961000Y-115800000D01*
X160921000Y-117880000D02*
X160921000Y-119938000D01*
X160921000Y-113742000D02*
X160921000Y-115800000D01*
X160881000Y-117880000D02*
X160881000Y-119950000D01*
X160881000Y-113730000D02*
X160881000Y-115800000D01*
X160841000Y-117880000D02*
X160841000Y-119961000D01*
X160841000Y-113719000D02*
X160841000Y-115800000D01*
X160801000Y-117880000D02*
X160801000Y-119971000D01*
X160801000Y-113709000D02*
X160801000Y-115800000D01*
X160761000Y-117880000D02*
X160761000Y-119981000D01*
X160761000Y-113699000D02*
X160761000Y-115800000D01*
X160721000Y-117880000D02*
X160721000Y-119990000D01*
X160721000Y-113690000D02*
X160721000Y-115800000D01*
X160680000Y-117880000D02*
X160680000Y-119999000D01*
X160680000Y-113681000D02*
X160680000Y-115800000D01*
X160640000Y-117880000D02*
X160640000Y-120007000D01*
X160640000Y-113673000D02*
X160640000Y-115800000D01*
X160600000Y-117880000D02*
X160600000Y-120015000D01*
X160600000Y-113665000D02*
X160600000Y-115800000D01*
X160560000Y-117880000D02*
X160560000Y-120022000D01*
X160560000Y-113658000D02*
X160560000Y-115800000D01*
X160520000Y-117880000D02*
X160520000Y-120029000D01*
X160520000Y-113651000D02*
X160520000Y-115800000D01*
X160480000Y-117880000D02*
X160480000Y-120035000D01*
X160480000Y-113645000D02*
X160480000Y-115800000D01*
X160440000Y-117880000D02*
X160440000Y-120041000D01*
X160440000Y-113639000D02*
X160440000Y-115800000D01*
X160400000Y-117880000D02*
X160400000Y-120046000D01*
X160400000Y-113634000D02*
X160400000Y-115800000D01*
X160360000Y-117880000D02*
X160360000Y-120051000D01*
X160360000Y-113629000D02*
X160360000Y-115800000D01*
X160320000Y-117880000D02*
X160320000Y-120055000D01*
X160320000Y-113625000D02*
X160320000Y-115800000D01*
X160280000Y-117880000D02*
X160280000Y-120058000D01*
X160280000Y-113622000D02*
X160280000Y-115800000D01*
X160240000Y-117880000D02*
X160240000Y-120062000D01*
X160240000Y-113618000D02*
X160240000Y-115800000D01*
X160200000Y-113616000D02*
X160200000Y-120064000D01*
X160160000Y-113613000D02*
X160160000Y-120067000D01*
X160120000Y-113612000D02*
X160120000Y-120068000D01*
X160080000Y-113610000D02*
X160080000Y-120070000D01*
X160040000Y-113610000D02*
X160040000Y-120070000D01*
X160000000Y-113610000D02*
X160000000Y-120070000D01*
X163270000Y-116840000D02*
G75*
G03*
X163270000Y-116840000I-3270000J0D01*
G01*
%TO.C,J2*%
D12*
X163866666Y-78302380D02*
X163866666Y-79016666D01*
X163819047Y-79159523D01*
X163723809Y-79254761D01*
X163580952Y-79302380D01*
X163485714Y-79302380D01*
X164295238Y-78397619D02*
X164342857Y-78350000D01*
X164438095Y-78302380D01*
X164676190Y-78302380D01*
X164771428Y-78350000D01*
X164819047Y-78397619D01*
X164866666Y-78492857D01*
X164866666Y-78588095D01*
X164819047Y-78730952D01*
X164247619Y-79302380D01*
X164866666Y-79302380D01*
%TO.C,RV1*%
X155252380Y-123345238D02*
X154776190Y-123678571D01*
X155252380Y-123916666D02*
X154252380Y-123916666D01*
X154252380Y-123535714D01*
X154300000Y-123440476D01*
X154347619Y-123392857D01*
X154442857Y-123345238D01*
X154585714Y-123345238D01*
X154680952Y-123392857D01*
X154728571Y-123440476D01*
X154776190Y-123535714D01*
X154776190Y-123916666D01*
X154252380Y-123059523D02*
X155252380Y-122726190D01*
X154252380Y-122392857D01*
X155252380Y-121535714D02*
X155252380Y-122107142D01*
X155252380Y-121821428D02*
X154252380Y-121821428D01*
X154395238Y-121916666D01*
X154490476Y-122011904D01*
X154538095Y-122107142D01*
X143462857Y-133262380D02*
X142986666Y-133262380D01*
X142986666Y-132262380D01*
X143796190Y-133262380D02*
X143796190Y-132262380D01*
X144796190Y-132310000D02*
X144700952Y-132262380D01*
X144558095Y-132262380D01*
X144415238Y-132310000D01*
X144320000Y-132405238D01*
X144272380Y-132500476D01*
X144224761Y-132690952D01*
X144224761Y-132833809D01*
X144272380Y-133024285D01*
X144320000Y-133119523D01*
X144415238Y-133214761D01*
X144558095Y-133262380D01*
X144653333Y-133262380D01*
X144796190Y-133214761D01*
X144843809Y-133167142D01*
X144843809Y-132833809D01*
X144653333Y-132833809D01*
X145272380Y-133262380D02*
X145272380Y-132262380D01*
X145272380Y-132738571D02*
X145843809Y-132738571D01*
X145843809Y-133262380D02*
X145843809Y-132262380D01*
X146177142Y-132262380D02*
X146748571Y-132262380D01*
X146462857Y-133262380D02*
X146462857Y-132262380D01*
X148320000Y-133262380D02*
X147843809Y-133262380D01*
X147843809Y-132262380D01*
X148653333Y-132738571D02*
X148986666Y-132738571D01*
X149129523Y-133262380D02*
X148653333Y-133262380D01*
X148653333Y-132262380D01*
X149129523Y-132262380D01*
X149415238Y-132262380D02*
X149748571Y-133262380D01*
X150081904Y-132262380D01*
X150415238Y-132738571D02*
X150748571Y-132738571D01*
X150891428Y-133262380D02*
X150415238Y-133262380D01*
X150415238Y-132262380D01*
X150891428Y-132262380D01*
X151796190Y-133262380D02*
X151320000Y-133262380D01*
X151320000Y-132262380D01*
%TO.C,*%
%TO.C,U2*%
X146888295Y-83246980D02*
X146888295Y-84056504D01*
X146935914Y-84151742D01*
X146983533Y-84199361D01*
X147078771Y-84246980D01*
X147269247Y-84246980D01*
X147364485Y-84199361D01*
X147412104Y-84151742D01*
X147459723Y-84056504D01*
X147459723Y-83246980D01*
X147888295Y-83342219D02*
X147935914Y-83294600D01*
X148031152Y-83246980D01*
X148269247Y-83246980D01*
X148364485Y-83294600D01*
X148412104Y-83342219D01*
X148459723Y-83437457D01*
X148459723Y-83532695D01*
X148412104Y-83675552D01*
X147840676Y-84246980D01*
X148459723Y-84246980D01*
X151582380Y-91963571D02*
X150582380Y-91963571D01*
X151296666Y-91630238D01*
X150582380Y-91296904D01*
X151582380Y-91296904D01*
X151582380Y-90677857D02*
X151534761Y-90773095D01*
X151487142Y-90820714D01*
X151391904Y-90868333D01*
X151106190Y-90868333D01*
X151010952Y-90820714D01*
X150963333Y-90773095D01*
X150915714Y-90677857D01*
X150915714Y-90535000D01*
X150963333Y-90439761D01*
X151010952Y-90392142D01*
X151106190Y-90344523D01*
X151391904Y-90344523D01*
X151487142Y-90392142D01*
X151534761Y-90439761D01*
X151582380Y-90535000D01*
X151582380Y-90677857D01*
X150915714Y-90058809D02*
X150915714Y-89677857D01*
X150582380Y-89915952D02*
X151439523Y-89915952D01*
X151534761Y-89868333D01*
X151582380Y-89773095D01*
X151582380Y-89677857D01*
X151677619Y-89582619D02*
X151677619Y-88820714D01*
X151058571Y-88249285D02*
X151106190Y-88106428D01*
X151153809Y-88058809D01*
X151249047Y-88011190D01*
X151391904Y-88011190D01*
X151487142Y-88058809D01*
X151534761Y-88106428D01*
X151582380Y-88201666D01*
X151582380Y-88582619D01*
X150582380Y-88582619D01*
X150582380Y-88249285D01*
X150630000Y-88154047D01*
X150677619Y-88106428D01*
X150772857Y-88058809D01*
X150868095Y-88058809D01*
X150963333Y-88106428D01*
X151010952Y-88154047D01*
X151058571Y-88249285D01*
X151058571Y-88582619D01*
X151582380Y-87058809D02*
X151582380Y-87630238D01*
X151582380Y-87344523D02*
X150582380Y-87344523D01*
X150725238Y-87439761D01*
X150820476Y-87535000D01*
X150868095Y-87630238D01*
X154122380Y-91963571D02*
X153122380Y-91963571D01*
X153836666Y-91630238D01*
X153122380Y-91296904D01*
X154122380Y-91296904D01*
X154122380Y-90677857D02*
X154074761Y-90773095D01*
X154027142Y-90820714D01*
X153931904Y-90868333D01*
X153646190Y-90868333D01*
X153550952Y-90820714D01*
X153503333Y-90773095D01*
X153455714Y-90677857D01*
X153455714Y-90535000D01*
X153503333Y-90439761D01*
X153550952Y-90392142D01*
X153646190Y-90344523D01*
X153931904Y-90344523D01*
X154027142Y-90392142D01*
X154074761Y-90439761D01*
X154122380Y-90535000D01*
X154122380Y-90677857D01*
X153455714Y-90058809D02*
X153455714Y-89677857D01*
X153122380Y-89915952D02*
X153979523Y-89915952D01*
X154074761Y-89868333D01*
X154122380Y-89773095D01*
X154122380Y-89677857D01*
X154217619Y-89582619D02*
X154217619Y-88820714D01*
X153598571Y-88249285D02*
X153646190Y-88106428D01*
X153693809Y-88058809D01*
X153789047Y-88011190D01*
X153931904Y-88011190D01*
X154027142Y-88058809D01*
X154074761Y-88106428D01*
X154122380Y-88201666D01*
X154122380Y-88582619D01*
X153122380Y-88582619D01*
X153122380Y-88249285D01*
X153170000Y-88154047D01*
X153217619Y-88106428D01*
X153312857Y-88058809D01*
X153408095Y-88058809D01*
X153503333Y-88106428D01*
X153550952Y-88154047D01*
X153598571Y-88249285D01*
X153598571Y-88582619D01*
X153217619Y-87630238D02*
X153170000Y-87582619D01*
X153122380Y-87487380D01*
X153122380Y-87249285D01*
X153170000Y-87154047D01*
X153217619Y-87106428D01*
X153312857Y-87058809D01*
X153408095Y-87058809D01*
X153550952Y-87106428D01*
X154122380Y-87677857D01*
X154122380Y-87058809D01*
X155710000Y-89026904D02*
X155662380Y-89122142D01*
X155662380Y-89265000D01*
X155710000Y-89407857D01*
X155805238Y-89503095D01*
X155900476Y-89550714D01*
X156090952Y-89598333D01*
X156233809Y-89598333D01*
X156424285Y-89550714D01*
X156519523Y-89503095D01*
X156614761Y-89407857D01*
X156662380Y-89265000D01*
X156662380Y-89169761D01*
X156614761Y-89026904D01*
X156567142Y-88979285D01*
X156233809Y-88979285D01*
X156233809Y-89169761D01*
X156662380Y-88550714D02*
X155662380Y-88550714D01*
X156662380Y-87979285D01*
X155662380Y-87979285D01*
X156662380Y-87503095D02*
X155662380Y-87503095D01*
X155662380Y-87265000D01*
X155710000Y-87122142D01*
X155805238Y-87026904D01*
X155900476Y-86979285D01*
X156090952Y-86931666D01*
X156233809Y-86931666D01*
X156424285Y-86979285D01*
X156519523Y-87026904D01*
X156614761Y-87122142D01*
X156662380Y-87265000D01*
X156662380Y-87503095D01*
X158250000Y-89026904D02*
X158202380Y-89122142D01*
X158202380Y-89265000D01*
X158250000Y-89407857D01*
X158345238Y-89503095D01*
X158440476Y-89550714D01*
X158630952Y-89598333D01*
X158773809Y-89598333D01*
X158964285Y-89550714D01*
X159059523Y-89503095D01*
X159154761Y-89407857D01*
X159202380Y-89265000D01*
X159202380Y-89169761D01*
X159154761Y-89026904D01*
X159107142Y-88979285D01*
X158773809Y-88979285D01*
X158773809Y-89169761D01*
X159202380Y-88550714D02*
X158202380Y-88550714D01*
X159202380Y-87979285D01*
X158202380Y-87979285D01*
X159202380Y-87503095D02*
X158202380Y-87503095D01*
X158202380Y-87265000D01*
X158250000Y-87122142D01*
X158345238Y-87026904D01*
X158440476Y-86979285D01*
X158630952Y-86931666D01*
X158773809Y-86931666D01*
X158964285Y-86979285D01*
X159059523Y-87026904D01*
X159154761Y-87122142D01*
X159202380Y-87265000D01*
X159202380Y-87503095D01*
X161742380Y-91892142D02*
X160742380Y-91892142D01*
X161456666Y-91558809D01*
X160742380Y-91225476D01*
X161742380Y-91225476D01*
X161742380Y-90606428D02*
X161694761Y-90701666D01*
X161647142Y-90749285D01*
X161551904Y-90796904D01*
X161266190Y-90796904D01*
X161170952Y-90749285D01*
X161123333Y-90701666D01*
X161075714Y-90606428D01*
X161075714Y-90463571D01*
X161123333Y-90368333D01*
X161170952Y-90320714D01*
X161266190Y-90273095D01*
X161551904Y-90273095D01*
X161647142Y-90320714D01*
X161694761Y-90368333D01*
X161742380Y-90463571D01*
X161742380Y-90606428D01*
X161075714Y-89987380D02*
X161075714Y-89606428D01*
X160742380Y-89844523D02*
X161599523Y-89844523D01*
X161694761Y-89796904D01*
X161742380Y-89701666D01*
X161742380Y-89606428D01*
X161837619Y-89511190D02*
X161837619Y-88749285D01*
X161456666Y-88558809D02*
X161456666Y-88082619D01*
X161742380Y-88654047D02*
X160742380Y-88320714D01*
X161742380Y-87987380D01*
X160837619Y-87701666D02*
X160790000Y-87654047D01*
X160742380Y-87558809D01*
X160742380Y-87320714D01*
X160790000Y-87225476D01*
X160837619Y-87177857D01*
X160932857Y-87130238D01*
X161028095Y-87130238D01*
X161170952Y-87177857D01*
X161742380Y-87749285D01*
X161742380Y-87130238D01*
X164282380Y-91892142D02*
X163282380Y-91892142D01*
X163996666Y-91558809D01*
X163282380Y-91225476D01*
X164282380Y-91225476D01*
X164282380Y-90606428D02*
X164234761Y-90701666D01*
X164187142Y-90749285D01*
X164091904Y-90796904D01*
X163806190Y-90796904D01*
X163710952Y-90749285D01*
X163663333Y-90701666D01*
X163615714Y-90606428D01*
X163615714Y-90463571D01*
X163663333Y-90368333D01*
X163710952Y-90320714D01*
X163806190Y-90273095D01*
X164091904Y-90273095D01*
X164187142Y-90320714D01*
X164234761Y-90368333D01*
X164282380Y-90463571D01*
X164282380Y-90606428D01*
X163615714Y-89987380D02*
X163615714Y-89606428D01*
X163282380Y-89844523D02*
X164139523Y-89844523D01*
X164234761Y-89796904D01*
X164282380Y-89701666D01*
X164282380Y-89606428D01*
X164377619Y-89511190D02*
X164377619Y-88749285D01*
X163996666Y-88558809D02*
X163996666Y-88082619D01*
X164282380Y-88654047D02*
X163282380Y-88320714D01*
X164282380Y-87987380D01*
X164282380Y-87130238D02*
X164282380Y-87701666D01*
X164282380Y-87415952D02*
X163282380Y-87415952D01*
X163425238Y-87511190D01*
X163520476Y-87606428D01*
X163568095Y-87701666D01*
X169362380Y-100258333D02*
X168362380Y-100258333D01*
X168362380Y-99877380D01*
X168410000Y-99782142D01*
X168457619Y-99734523D01*
X168552857Y-99686904D01*
X168695714Y-99686904D01*
X168790952Y-99734523D01*
X168838571Y-99782142D01*
X168886190Y-99877380D01*
X168886190Y-100258333D01*
X168362380Y-99353571D02*
X169362380Y-99115476D01*
X168648095Y-98925000D01*
X169362380Y-98734523D01*
X168362380Y-98496428D01*
X169362380Y-98115476D02*
X168362380Y-98115476D01*
X169076666Y-97782142D01*
X168362380Y-97448809D01*
X169362380Y-97448809D01*
X169076666Y-97020238D02*
X169076666Y-96544047D01*
X169362380Y-97115476D02*
X168362380Y-96782142D01*
X169362380Y-96448809D01*
X166536666Y-99829761D02*
X166536666Y-99353571D01*
X166822380Y-99925000D02*
X165822380Y-99591666D01*
X166822380Y-99258333D01*
X166822380Y-98925000D02*
X165822380Y-98925000D01*
X166155714Y-98448809D02*
X166822380Y-98448809D01*
X166250952Y-98448809D02*
X166203333Y-98401190D01*
X166155714Y-98305952D01*
X166155714Y-98163095D01*
X166203333Y-98067857D01*
X166298571Y-98020238D01*
X166822380Y-98020238D01*
X165917619Y-97591666D02*
X165870000Y-97544047D01*
X165822380Y-97448809D01*
X165822380Y-97210714D01*
X165870000Y-97115476D01*
X165917619Y-97067857D01*
X166012857Y-97020238D01*
X166108095Y-97020238D01*
X166250952Y-97067857D01*
X166822380Y-97639285D01*
X166822380Y-97020238D01*
X163996666Y-99829761D02*
X163996666Y-99353571D01*
X164282380Y-99925000D02*
X163282380Y-99591666D01*
X164282380Y-99258333D01*
X164282380Y-98925000D02*
X163282380Y-98925000D01*
X163615714Y-98448809D02*
X164282380Y-98448809D01*
X163710952Y-98448809D02*
X163663333Y-98401190D01*
X163615714Y-98305952D01*
X163615714Y-98163095D01*
X163663333Y-98067857D01*
X163758571Y-98020238D01*
X164282380Y-98020238D01*
X164282380Y-97020238D02*
X164282380Y-97591666D01*
X164282380Y-97305952D02*
X163282380Y-97305952D01*
X163425238Y-97401190D01*
X163520476Y-97496428D01*
X163568095Y-97591666D01*
X161694761Y-100020238D02*
X161742380Y-99877380D01*
X161742380Y-99639285D01*
X161694761Y-99544047D01*
X161647142Y-99496428D01*
X161551904Y-99448809D01*
X161456666Y-99448809D01*
X161361428Y-99496428D01*
X161313809Y-99544047D01*
X161266190Y-99639285D01*
X161218571Y-99829761D01*
X161170952Y-99925000D01*
X161123333Y-99972619D01*
X161028095Y-100020238D01*
X160932857Y-100020238D01*
X160837619Y-99972619D01*
X160790000Y-99925000D01*
X160742380Y-99829761D01*
X160742380Y-99591666D01*
X160790000Y-99448809D01*
X160742380Y-99163095D02*
X160742380Y-98591666D01*
X161742380Y-98877380D02*
X160742380Y-98877380D01*
X161218571Y-97925000D02*
X161266190Y-97782142D01*
X161313809Y-97734523D01*
X161409047Y-97686904D01*
X161551904Y-97686904D01*
X161647142Y-97734523D01*
X161694761Y-97782142D01*
X161742380Y-97877380D01*
X161742380Y-98258333D01*
X160742380Y-98258333D01*
X160742380Y-97925000D01*
X160790000Y-97829761D01*
X160837619Y-97782142D01*
X160932857Y-97734523D01*
X161028095Y-97734523D01*
X161123333Y-97782142D01*
X161170952Y-97829761D01*
X161218571Y-97925000D01*
X161218571Y-98258333D01*
X161266190Y-97067857D02*
X161742380Y-97067857D01*
X160742380Y-97401190D02*
X161266190Y-97067857D01*
X160742380Y-96734523D01*
X158678571Y-99520238D02*
X158726190Y-99377380D01*
X158773809Y-99329761D01*
X158869047Y-99282142D01*
X159011904Y-99282142D01*
X159107142Y-99329761D01*
X159154761Y-99377380D01*
X159202380Y-99472619D01*
X159202380Y-99853571D01*
X158202380Y-99853571D01*
X158202380Y-99520238D01*
X158250000Y-99425000D01*
X158297619Y-99377380D01*
X158392857Y-99329761D01*
X158488095Y-99329761D01*
X158583333Y-99377380D01*
X158630952Y-99425000D01*
X158678571Y-99520238D01*
X158678571Y-99853571D01*
X159202380Y-98853571D02*
X158202380Y-98853571D01*
X158535714Y-98377380D02*
X159202380Y-98377380D01*
X158630952Y-98377380D02*
X158583333Y-98329761D01*
X158535714Y-98234523D01*
X158535714Y-98091666D01*
X158583333Y-97996428D01*
X158678571Y-97948809D01*
X159202380Y-97948809D01*
X159202380Y-96948809D02*
X159202380Y-97520238D01*
X159202380Y-97234523D02*
X158202380Y-97234523D01*
X158345238Y-97329761D01*
X158440476Y-97425000D01*
X158488095Y-97520238D01*
X156138571Y-99520238D02*
X156186190Y-99377380D01*
X156233809Y-99329761D01*
X156329047Y-99282142D01*
X156471904Y-99282142D01*
X156567142Y-99329761D01*
X156614761Y-99377380D01*
X156662380Y-99472619D01*
X156662380Y-99853571D01*
X155662380Y-99853571D01*
X155662380Y-99520238D01*
X155710000Y-99425000D01*
X155757619Y-99377380D01*
X155852857Y-99329761D01*
X155948095Y-99329761D01*
X156043333Y-99377380D01*
X156090952Y-99425000D01*
X156138571Y-99520238D01*
X156138571Y-99853571D01*
X156662380Y-98853571D02*
X155662380Y-98853571D01*
X155995714Y-98377380D02*
X156662380Y-98377380D01*
X156090952Y-98377380D02*
X156043333Y-98329761D01*
X155995714Y-98234523D01*
X155995714Y-98091666D01*
X156043333Y-97996428D01*
X156138571Y-97948809D01*
X156662380Y-97948809D01*
X155757619Y-97520238D02*
X155710000Y-97472619D01*
X155662380Y-97377380D01*
X155662380Y-97139285D01*
X155710000Y-97044047D01*
X155757619Y-96996428D01*
X155852857Y-96948809D01*
X155948095Y-96948809D01*
X156090952Y-96996428D01*
X156662380Y-97567857D01*
X156662380Y-96948809D01*
X154122380Y-100329761D02*
X153122380Y-100329761D01*
X153122380Y-99948809D01*
X153170000Y-99853571D01*
X153217619Y-99805952D01*
X153312857Y-99758333D01*
X153455714Y-99758333D01*
X153550952Y-99805952D01*
X153598571Y-99853571D01*
X153646190Y-99948809D01*
X153646190Y-100329761D01*
X153122380Y-99425000D02*
X154122380Y-99186904D01*
X153408095Y-98996428D01*
X154122380Y-98805952D01*
X153122380Y-98567857D01*
X154122380Y-98186904D02*
X153122380Y-98186904D01*
X153836666Y-97853571D01*
X153122380Y-97520238D01*
X154122380Y-97520238D01*
X153598571Y-96710714D02*
X153646190Y-96567857D01*
X153693809Y-96520238D01*
X153789047Y-96472619D01*
X153931904Y-96472619D01*
X154027142Y-96520238D01*
X154074761Y-96567857D01*
X154122380Y-96663095D01*
X154122380Y-97044047D01*
X153122380Y-97044047D01*
X153122380Y-96710714D01*
X153170000Y-96615476D01*
X153217619Y-96567857D01*
X153312857Y-96520238D01*
X153408095Y-96520238D01*
X153503333Y-96567857D01*
X153550952Y-96615476D01*
X153598571Y-96710714D01*
X153598571Y-97044047D01*
X150630000Y-99186904D02*
X150582380Y-99282142D01*
X150582380Y-99425000D01*
X150630000Y-99567857D01*
X150725238Y-99663095D01*
X150820476Y-99710714D01*
X151010952Y-99758333D01*
X151153809Y-99758333D01*
X151344285Y-99710714D01*
X151439523Y-99663095D01*
X151534761Y-99567857D01*
X151582380Y-99425000D01*
X151582380Y-99329761D01*
X151534761Y-99186904D01*
X151487142Y-99139285D01*
X151153809Y-99139285D01*
X151153809Y-99329761D01*
X151582380Y-98710714D02*
X150582380Y-98710714D01*
X151582380Y-98139285D01*
X150582380Y-98139285D01*
X151582380Y-97663095D02*
X150582380Y-97663095D01*
X150582380Y-97425000D01*
X150630000Y-97282142D01*
X150725238Y-97186904D01*
X150820476Y-97139285D01*
X151010952Y-97091666D01*
X151153809Y-97091666D01*
X151344285Y-97139285D01*
X151439523Y-97186904D01*
X151534761Y-97282142D01*
X151582380Y-97425000D01*
X151582380Y-97663095D01*
X148042380Y-99615476D02*
X149042380Y-99282142D01*
X148042380Y-98948809D01*
X148994761Y-98186904D02*
X149042380Y-98282142D01*
X149042380Y-98472619D01*
X148994761Y-98567857D01*
X148947142Y-98615476D01*
X148851904Y-98663095D01*
X148566190Y-98663095D01*
X148470952Y-98615476D01*
X148423333Y-98567857D01*
X148375714Y-98472619D01*
X148375714Y-98282142D01*
X148423333Y-98186904D01*
X148994761Y-97329761D02*
X149042380Y-97425000D01*
X149042380Y-97615476D01*
X148994761Y-97710714D01*
X148947142Y-97758333D01*
X148851904Y-97805952D01*
X148566190Y-97805952D01*
X148470952Y-97758333D01*
X148423333Y-97710714D01*
X148375714Y-97615476D01*
X148375714Y-97425000D01*
X148423333Y-97329761D01*
X145502380Y-100067857D02*
X146502380Y-99734523D01*
X145502380Y-99401190D01*
X146502380Y-99067857D02*
X145502380Y-99067857D01*
X146216666Y-98734523D01*
X145502380Y-98401190D01*
X146502380Y-98401190D01*
X146502380Y-97782142D02*
X146454761Y-97877380D01*
X146407142Y-97925000D01*
X146311904Y-97972619D01*
X146026190Y-97972619D01*
X145930952Y-97925000D01*
X145883333Y-97877380D01*
X145835714Y-97782142D01*
X145835714Y-97639285D01*
X145883333Y-97544047D01*
X145930952Y-97496428D01*
X146026190Y-97448809D01*
X146311904Y-97448809D01*
X146407142Y-97496428D01*
X146454761Y-97544047D01*
X146502380Y-97639285D01*
X146502380Y-97782142D01*
X145835714Y-97163095D02*
X145835714Y-96782142D01*
X145502380Y-97020238D02*
X146359523Y-97020238D01*
X146454761Y-96972619D01*
X146502380Y-96877380D01*
X146502380Y-96782142D01*
%TO.C,U1*%
X110769495Y-90155780D02*
X110769495Y-90965304D01*
X110817114Y-91060542D01*
X110864733Y-91108161D01*
X110959971Y-91155780D01*
X111150447Y-91155780D01*
X111245685Y-91108161D01*
X111293304Y-91060542D01*
X111340923Y-90965304D01*
X111340923Y-90155780D01*
X112340923Y-91155780D02*
X111769495Y-91155780D01*
X112055209Y-91155780D02*
X112055209Y-90155780D01*
X111959971Y-90298638D01*
X111864733Y-90393876D01*
X111769495Y-90441495D01*
X113752380Y-99266190D02*
X113752380Y-98694761D01*
X114752380Y-98980476D02*
X113752380Y-98980476D01*
X113752380Y-98456666D02*
X113752380Y-97837619D01*
X114133333Y-98170952D01*
X114133333Y-98028095D01*
X114180952Y-97932857D01*
X114228571Y-97885238D01*
X114323809Y-97837619D01*
X114561904Y-97837619D01*
X114657142Y-97885238D01*
X114704761Y-97932857D01*
X114752380Y-98028095D01*
X114752380Y-98313809D01*
X114704761Y-98409047D01*
X114657142Y-98456666D01*
X114657142Y-97409047D02*
X114704761Y-97361428D01*
X114752380Y-97409047D01*
X114704761Y-97456666D01*
X114657142Y-97409047D01*
X114752380Y-97409047D01*
X114752380Y-96409047D02*
X114752380Y-96980476D01*
X114752380Y-96694761D02*
X113752380Y-96694761D01*
X113895238Y-96790000D01*
X113990476Y-96885238D01*
X114038095Y-96980476D01*
X109942380Y-99266190D02*
X109942380Y-98694761D01*
X110942380Y-98980476D02*
X109942380Y-98980476D01*
X109942380Y-98456666D02*
X109942380Y-97837619D01*
X110323333Y-98170952D01*
X110323333Y-98028095D01*
X110370952Y-97932857D01*
X110418571Y-97885238D01*
X110513809Y-97837619D01*
X110751904Y-97837619D01*
X110847142Y-97885238D01*
X110894761Y-97932857D01*
X110942380Y-98028095D01*
X110942380Y-98313809D01*
X110894761Y-98409047D01*
X110847142Y-98456666D01*
X110847142Y-97409047D02*
X110894761Y-97361428D01*
X110942380Y-97409047D01*
X110894761Y-97456666D01*
X110847142Y-97409047D01*
X110942380Y-97409047D01*
X110037619Y-96980476D02*
X109990000Y-96932857D01*
X109942380Y-96837619D01*
X109942380Y-96599523D01*
X109990000Y-96504285D01*
X110037619Y-96456666D01*
X110132857Y-96409047D01*
X110228095Y-96409047D01*
X110370952Y-96456666D01*
X110942380Y-97028095D01*
X110942380Y-96409047D01*
%TO.C,SW_2*%
X126160714Y-119354761D02*
X126303571Y-119402380D01*
X126541666Y-119402380D01*
X126636904Y-119354761D01*
X126684523Y-119307142D01*
X126732142Y-119211904D01*
X126732142Y-119116666D01*
X126684523Y-119021428D01*
X126636904Y-118973809D01*
X126541666Y-118926190D01*
X126351190Y-118878571D01*
X126255952Y-118830952D01*
X126208333Y-118783333D01*
X126160714Y-118688095D01*
X126160714Y-118592857D01*
X126208333Y-118497619D01*
X126255952Y-118450000D01*
X126351190Y-118402380D01*
X126589285Y-118402380D01*
X126732142Y-118450000D01*
X127065476Y-118402380D02*
X127303571Y-119402380D01*
X127494047Y-118688095D01*
X127684523Y-119402380D01*
X127922619Y-118402380D01*
X128065476Y-119497619D02*
X128827380Y-119497619D01*
X129017857Y-118497619D02*
X129065476Y-118450000D01*
X129160714Y-118402380D01*
X129398809Y-118402380D01*
X129494047Y-118450000D01*
X129541666Y-118497619D01*
X129589285Y-118592857D01*
X129589285Y-118688095D01*
X129541666Y-118830952D01*
X128970238Y-119402380D01*
X129589285Y-119402380D01*
X126444047Y-133327380D02*
X126444047Y-132327380D01*
X126682142Y-132327380D01*
X126825000Y-132375000D01*
X126920238Y-132470238D01*
X126967857Y-132565476D01*
X127015476Y-132755952D01*
X127015476Y-132898809D01*
X126967857Y-133089285D01*
X126920238Y-133184523D01*
X126825000Y-133279761D01*
X126682142Y-133327380D01*
X126444047Y-133327380D01*
X127634523Y-132327380D02*
X127825000Y-132327380D01*
X127920238Y-132375000D01*
X128015476Y-132470238D01*
X128063095Y-132660714D01*
X128063095Y-132994047D01*
X128015476Y-133184523D01*
X127920238Y-133279761D01*
X127825000Y-133327380D01*
X127634523Y-133327380D01*
X127539285Y-133279761D01*
X127444047Y-133184523D01*
X127396428Y-132994047D01*
X127396428Y-132660714D01*
X127444047Y-132470238D01*
X127539285Y-132375000D01*
X127634523Y-132327380D01*
X128396428Y-132327380D02*
X128634523Y-133327380D01*
X128825000Y-132613095D01*
X129015476Y-133327380D01*
X129253571Y-132327380D01*
X129634523Y-133327380D02*
X129634523Y-132327380D01*
X130205952Y-133327380D01*
X130205952Y-132327380D01*
%TO.C,SW_1*%
X108510714Y-119354761D02*
X108653571Y-119402380D01*
X108891666Y-119402380D01*
X108986904Y-119354761D01*
X109034523Y-119307142D01*
X109082142Y-119211904D01*
X109082142Y-119116666D01*
X109034523Y-119021428D01*
X108986904Y-118973809D01*
X108891666Y-118926190D01*
X108701190Y-118878571D01*
X108605952Y-118830952D01*
X108558333Y-118783333D01*
X108510714Y-118688095D01*
X108510714Y-118592857D01*
X108558333Y-118497619D01*
X108605952Y-118450000D01*
X108701190Y-118402380D01*
X108939285Y-118402380D01*
X109082142Y-118450000D01*
X109415476Y-118402380D02*
X109653571Y-119402380D01*
X109844047Y-118688095D01*
X110034523Y-119402380D01*
X110272619Y-118402380D01*
X110415476Y-119497619D02*
X111177380Y-119497619D01*
X111939285Y-119402380D02*
X111367857Y-119402380D01*
X111653571Y-119402380D02*
X111653571Y-118402380D01*
X111558333Y-118545238D01*
X111463095Y-118640476D01*
X111367857Y-118688095D01*
X109814285Y-132327380D02*
X109814285Y-133136904D01*
X109861904Y-133232142D01*
X109909523Y-133279761D01*
X110004761Y-133327380D01*
X110195238Y-133327380D01*
X110290476Y-133279761D01*
X110338095Y-133232142D01*
X110385714Y-133136904D01*
X110385714Y-132327380D01*
X110861904Y-133327380D02*
X110861904Y-132327380D01*
X111242857Y-132327380D01*
X111338095Y-132375000D01*
X111385714Y-132422619D01*
X111433333Y-132517857D01*
X111433333Y-132660714D01*
X111385714Y-132755952D01*
X111338095Y-132803571D01*
X111242857Y-132851190D01*
X110861904Y-132851190D01*
%TO.C,R4*%
X170013333Y-106482380D02*
X169680000Y-106006190D01*
X169441904Y-106482380D02*
X169441904Y-105482380D01*
X169822857Y-105482380D01*
X169918095Y-105530000D01*
X169965714Y-105577619D01*
X170013333Y-105672857D01*
X170013333Y-105815714D01*
X169965714Y-105910952D01*
X169918095Y-105958571D01*
X169822857Y-106006190D01*
X169441904Y-106006190D01*
X170870476Y-105815714D02*
X170870476Y-106482380D01*
X170632380Y-105434761D02*
X170394285Y-106149047D01*
X171013333Y-106149047D01*
%TO.C,R3*%
X158583333Y-106482380D02*
X158250000Y-106006190D01*
X158011904Y-106482380D02*
X158011904Y-105482380D01*
X158392857Y-105482380D01*
X158488095Y-105530000D01*
X158535714Y-105577619D01*
X158583333Y-105672857D01*
X158583333Y-105815714D01*
X158535714Y-105910952D01*
X158488095Y-105958571D01*
X158392857Y-106006190D01*
X158011904Y-106006190D01*
X158916666Y-105482380D02*
X159535714Y-105482380D01*
X159202380Y-105863333D01*
X159345238Y-105863333D01*
X159440476Y-105910952D01*
X159488095Y-105958571D01*
X159535714Y-106053809D01*
X159535714Y-106291904D01*
X159488095Y-106387142D01*
X159440476Y-106434761D01*
X159345238Y-106482380D01*
X159059523Y-106482380D01*
X158964285Y-106434761D01*
X158916666Y-106387142D01*
%TO.C,R2*%
X128103333Y-114102380D02*
X127770000Y-113626190D01*
X127531904Y-114102380D02*
X127531904Y-113102380D01*
X127912857Y-113102380D01*
X128008095Y-113150000D01*
X128055714Y-113197619D01*
X128103333Y-113292857D01*
X128103333Y-113435714D01*
X128055714Y-113530952D01*
X128008095Y-113578571D01*
X127912857Y-113626190D01*
X127531904Y-113626190D01*
X128484285Y-113197619D02*
X128531904Y-113150000D01*
X128627142Y-113102380D01*
X128865238Y-113102380D01*
X128960476Y-113150000D01*
X129008095Y-113197619D01*
X129055714Y-113292857D01*
X129055714Y-113388095D01*
X129008095Y-113530952D01*
X128436666Y-114102380D01*
X129055714Y-114102380D01*
%TO.C,R1*%
X110323333Y-114102380D02*
X109990000Y-113626190D01*
X109751904Y-114102380D02*
X109751904Y-113102380D01*
X110132857Y-113102380D01*
X110228095Y-113150000D01*
X110275714Y-113197619D01*
X110323333Y-113292857D01*
X110323333Y-113435714D01*
X110275714Y-113530952D01*
X110228095Y-113578571D01*
X110132857Y-113626190D01*
X109751904Y-113626190D01*
X111275714Y-114102380D02*
X110704285Y-114102380D01*
X110990000Y-114102380D02*
X110990000Y-113102380D01*
X110894761Y-113245238D01*
X110799523Y-113340476D01*
X110704285Y-113388095D01*
%TO.C,J1*%
X117459166Y-78611480D02*
X117459166Y-79325766D01*
X117411547Y-79468623D01*
X117316309Y-79563861D01*
X117173452Y-79611480D01*
X117078214Y-79611480D01*
X118459166Y-79611480D02*
X117887738Y-79611480D01*
X118173452Y-79611480D02*
X118173452Y-78611480D01*
X118078214Y-78754338D01*
X117982976Y-78849576D01*
X117887738Y-78897195D01*
%TO.C,D2*%
X168171904Y-132682380D02*
X168171904Y-131682380D01*
X168410000Y-131682380D01*
X168552857Y-131730000D01*
X168648095Y-131825238D01*
X168695714Y-131920476D01*
X168743333Y-132110952D01*
X168743333Y-132253809D01*
X168695714Y-132444285D01*
X168648095Y-132539523D01*
X168552857Y-132634761D01*
X168410000Y-132682380D01*
X168171904Y-132682380D01*
X169124285Y-131777619D02*
X169171904Y-131730000D01*
X169267142Y-131682380D01*
X169505238Y-131682380D01*
X169600476Y-131730000D01*
X169648095Y-131777619D01*
X169695714Y-131872857D01*
X169695714Y-131968095D01*
X169648095Y-132110952D01*
X169076666Y-132682380D01*
X169695714Y-132682380D01*
%TO.C,D1*%
X159281904Y-132682380D02*
X159281904Y-131682380D01*
X159520000Y-131682380D01*
X159662857Y-131730000D01*
X159758095Y-131825238D01*
X159805714Y-131920476D01*
X159853333Y-132110952D01*
X159853333Y-132253809D01*
X159805714Y-132444285D01*
X159758095Y-132539523D01*
X159662857Y-132634761D01*
X159520000Y-132682380D01*
X159281904Y-132682380D01*
X160805714Y-132682380D02*
X160234285Y-132682380D01*
X160520000Y-132682380D02*
X160520000Y-131682380D01*
X160424761Y-131825238D01*
X160329523Y-131920476D01*
X160234285Y-131968095D01*
%TO.C,C2*%
X168723333Y-112797142D02*
X168675714Y-112844761D01*
X168532857Y-112892380D01*
X168437619Y-112892380D01*
X168294761Y-112844761D01*
X168199523Y-112749523D01*
X168151904Y-112654285D01*
X168104285Y-112463809D01*
X168104285Y-112320952D01*
X168151904Y-112130476D01*
X168199523Y-112035238D01*
X168294761Y-111940000D01*
X168437619Y-111892380D01*
X168532857Y-111892380D01*
X168675714Y-111940000D01*
X168723333Y-111987619D01*
X169104285Y-111987619D02*
X169151904Y-111940000D01*
X169247142Y-111892380D01*
X169485238Y-111892380D01*
X169580476Y-111940000D01*
X169628095Y-111987619D01*
X169675714Y-112082857D01*
X169675714Y-112178095D01*
X169628095Y-112320952D01*
X169056666Y-112892380D01*
X169675714Y-112892380D01*
%TO.C,C1*%
X159833333Y-112797142D02*
X159785714Y-112844761D01*
X159642857Y-112892380D01*
X159547619Y-112892380D01*
X159404761Y-112844761D01*
X159309523Y-112749523D01*
X159261904Y-112654285D01*
X159214285Y-112463809D01*
X159214285Y-112320952D01*
X159261904Y-112130476D01*
X159309523Y-112035238D01*
X159404761Y-111940000D01*
X159547619Y-111892380D01*
X159642857Y-111892380D01*
X159785714Y-111940000D01*
X159833333Y-111987619D01*
X160785714Y-112892380D02*
X160214285Y-112892380D01*
X160500000Y-112892380D02*
X160500000Y-111892380D01*
X160404761Y-112035238D01*
X160309523Y-112130476D01*
X160214285Y-112178095D01*
%TD*%
M02*
