<svg xmlns="http://www.w3.org/2000/svg" viewBox="0 0 472 82"><defs><style>.cls-1{fill:#fff;}.cls-2{fill:#373737;}</style></defs><title>banner_1</title><g id="Layer_2" data-name="Layer 2"><g id="Layer_1-2" data-name="Layer 1"><rect class="cls-1" width="472" height="82"/><path class="cls-2" d="M18.6,6.5h-9a.5.5,0,0,0-.6.6V58a.5.5,0,0,0,.6.6h9c.5,0,.7-.2.7-.5v-.9c0-.4-.2-.5-.7-.5H11.7a.5.5,0,0,1-.6-.6V9c0-.3.2-.5.6-.5h6.9c.5,0,.7-.2.7-.6V7.1C19.3,6.7,19.1,6.5,18.6,6.5Z"/><path class="cls-2" d="M44.7,15.8H39.6c-3.7,0-6.2,1.2-7.5,3.7h-.2V16.4a.5.5,0,0,0-.6-.6h-1c-.3,0-.5.2-.5.6V61.5a.9.9,0,0,0,.2.6l8.4,8.2-7.9,7.9c-.1,0,0,.2.3.5l.7.7.5.3,7.8-7.9,7.5,7.5c.1.1.4.1.6-.2l.7-.7c.3-.3.3-.5.2-.6L31.9,60.9V47.8h.2c1.3,2.5,3.8,3.7,7.5,3.7h5.1a9.1,9.1,0,0,0,6.8-2.6A9.4,9.4,0,0,0,54.1,42V25.3a9.4,9.4,0,0,0-2.6-6.9A9.1,9.1,0,0,0,44.7,15.8ZM52,41.9a7.8,7.8,0,0,1-1.9,5.6,7,7,0,0,1-5.4,2h-5A8.4,8.4,0,0,1,34,47.6a6.7,6.7,0,0,1-2.1-5.4V25A6.6,6.6,0,0,1,34,19.7a8.4,8.4,0,0,1,5.7-1.9h5a7,7,0,0,1,5.4,2A7.8,7.8,0,0,1,52,25.4Z"/><path class="cls-2" d="M77,15.8H71.8c-3.6,0-6.1,1.2-7.4,3.7h-.3V3c0-.5-.2-.7-.6-.7h-.9c-.4,0-.6.2-.6.7V50.8c0,.5.2.7.6.7h.9c.4,0,.6-.2.6-.7V25a6.4,6.4,0,0,1,2.2-5.3,7.9,7.9,0,0,1,5.6-1.9H77a6.9,6.9,0,0,1,5.3,2,7.8,7.8,0,0,1,1.9,5.6V50.8c0,.5.2.7.6.7h1c.3,0,.5-.2.5-.7V25.3a9.3,9.3,0,0,0-2.5-6.9A9.3,9.3,0,0,0,77,15.8Z"/><path class="cls-2" d="M118.3,15.8h-1.1a.7.7,0,0,0-.7.6L105.1,47.6h-.3L93.4,16.4a.7.7,0,0,0-.7-.6H91.6c-.4,0-.6.2-.4.6L103,49c.2.4.4.6.8.6h.7a27,27,0,0,1-1.6,4.1l-.9,1.8a4.6,4.6,0,0,1-1.2,1.8l-1.7,1.5c-.8.7-2.1,1-4,1h-2a.5.5,0,0,0-.6.6v.8a.5.5,0,0,0,.6.6h2a9.8,9.8,0,0,0,8.4-4.8,42.5,42.5,0,0,0,3.3-8l11.9-32.6C118.8,16,118.7,15.8,118.3,15.8Z"/><path class="cls-2" d="M125.8,2.3h-1c-.4,0-.6.2-.6.7V50.8c0,.5.2.7.6.7h1c.3,0,.5-.2.5-.7V3C126.3,2.5,126.1,2.3,125.8,2.3Z"/><path class="cls-2" d="M158.7,15.8h-1c-.3,0-.5.2-.5.6V42.2a6.8,6.8,0,0,1-2.2,5.4,8,8,0,0,1-5.7,1.9h-5a7.3,7.3,0,0,1-5.4-2,8.2,8.2,0,0,1-1.9-5.6V16.4c0-.4-.2-.6-.5-.6h-1a.5.5,0,0,0-.6.6V42a8.9,8.9,0,0,0,9.4,9.5h5.2c3.6,0,6.1-1.2,7.4-3.7h.3v3c0,.5.2.7.5.7h1c.4,0,.6-.2.6-.7V16.4A.5.5,0,0,0,158.7,15.8Z"/><path class="cls-2" d="M200.9,15.8h-2.8a11.2,11.2,0,0,0-5.3,1.3,6.5,6.5,0,0,0-3.6,3.7c-1.5-3.3-4.4-5-8.5-5h-3c-3.7,0-6.2,1.2-7.5,3.7H170V16.4a.5.5,0,0,0-.6-.6h-1c-.4,0-.5.2-.5.6V50.8c0,.5.1.7.5.7h1c.4,0,.6-.2.6-.7V25a6.6,6.6,0,0,1,2.1-5.3,8.4,8.4,0,0,1,5.7-1.9h2.9a7,7,0,0,1,5.4,2,7.8,7.8,0,0,1,1.9,5.6V50.8c0,.5.2.7.6.7h.9c.4,0,.6-.2.6-.7V25.4a7.3,7.3,0,0,1,2.2-5.6,8.5,8.5,0,0,1,5.8-2h2.8a7.3,7.3,0,0,1,5.4,2,8.2,8.2,0,0,1,1.8,5.6V50.8c0,.5.2.7.6.7h1c.3,0,.5-.2.5-.7V25.3a9.3,9.3,0,0,0-2.5-6.9A9.3,9.3,0,0,0,200.9,15.8Z"/><path class="cls-2" d="M226.8,6.5h-9.1a.5.5,0,0,0-.6.6v.8a.5.5,0,0,0,.6.6h6.9c.5,0,.7.2.7.5V56.1c0,.4-.2.6-.7.6h-6.9c-.4,0-.6.1-.6.5v.9c0,.3.2.5.6.5h9.1a.5.5,0,0,0,.6-.6V7.1A.5.5,0,0,0,226.8,6.5Z"/></g></g></svg>